<svg xmlns="http://www.w3.org/2000/svg" viewBox="0 0 612 792"><defs><style>.a,.c{fill:#fff;}.b{fill:#4e4e4e;}.c,.f{stroke:#4e4e4e;stroke-width:26.57px;}.c,.e,.f,.h,.i{stroke-miterlimit:10;}.d{fill:#ccc;}.e{fill:#010101;stroke:#010101;stroke-width:10.63px;}.f{fill:none;}.g,.h,.i{fill:#ffcd05;}.h,.i{stroke:#231f20;}.h{stroke-width:7.3px;}.i{stroke-width:8.24px;}</style></defs><path class="a" d="M369.4,168.9c-39.1-13.5-83.2-11.6-121.7,1.7s-72,37.3-98.7,66.1C83.6,307,57.7,407.6,81.5,499.4,95.8,554.5,128,607.1,177,641.8s115.3,49.6,173.1,32.8c43.3-12.5,78.9-41.4,105.5-75.1,51.9-65.9,71.8-152.9,53.5-234S443.3,194.7,369.9,169.4"/><path class="b" d="M373.7,153.6c-56.2-19.3-119.4-9.1-170.4,19.6-45.9,25.9-84,66.4-109.2,112.5A304.5,304.5,0,0,0,56.9,434.2c.6,51.3,14.9,102.7,41.9,146.4A257.1,257.1,0,0,0,149,640a241.2,241.2,0,0,0,71.1,42.5,225.5,225.5,0,0,0,77.9,15,212.2,212.2,0,0,0,40.6-3.7,191,191,0,0,0,39.7-12.6c48.1-20.7,87-61.1,113-105.9a299.4,299.4,0,0,0,40.4-153.4c-.7-50.5-15.3-100.5-36.9-145.9-20.1-42.3-49.4-82.9-90-107.7A161.9,161.9,0,0,0,374.1,154c-7.9-2.7-17.8,3.1-19.6,11.1s2.7,16.7,11.1,19.7c2.8.9,5.5,2,8.2,3.1l-3.8-1.6A153.6,153.6,0,0,1,403.4,206l-3.2-2.5a207.9,207.9,0,0,1,36.3,36.9l-2.5-3.2c16.5,21.4,29.6,45.3,40.1,70.2l-1.6-3.9c12,28.7,21.3,59,25.5,89.8l-.6-4.2a279.8,279.8,0,0,1-.1,73.7l.6-4.2a289.3,289.3,0,0,1-19.8,72.6l1.6-3.8a282,282,0,0,1-36.3,62.1l2.5-3.2A252.1,252.1,0,0,1,402,630.6l3.3-2.5A202,202,0,0,1,361.4,654l3.8-1.6a173.1,173.1,0,0,1-44.7,12.1l4.3-.5a199.4,199.4,0,0,1-51.2-.2l4.2.6A227.8,227.8,0,0,1,221.7,649l3.9,1.6a219.8,219.8,0,0,1-47.8-27.9l3.2,2.5a237.4,237.4,0,0,1-42.1-42.3l2.5,3.3a258.2,258.2,0,0,1-33.6-57.7l1.6,3.8a271.9,271.9,0,0,1-18.8-69.2l.6,4.3a278.6,278.6,0,0,1,.1-74.1l-.6,4.2a286.9,286.9,0,0,1,20.2-73.7l-1.7,3.8a291.9,291.9,0,0,1,36.9-63.2l-2.5,3.2a282.8,282.8,0,0,1,49.7-49.9l-3.2,2.5a236.7,236.7,0,0,1,52.1-30.6l-3.8,1.6a208.1,208.1,0,0,1,52-14.4l-4.2.6a194.8,194.8,0,0,1,50.6-.2l-4.2-.6a181.8,181.8,0,0,1,32.6,7.7c7.9,2.7,17.8-3.1,19.6-11.1s-2.7-16.7-11.1-19.6Z"/><ellipse class="c" cx="379" cy="725.3" rx="79.5" ry="47.4"/><path class="a" d="M551,49c-13.2-13.6-37.2-21.8-61.7-23.5s-49.3,2.6-71.4,9.8c-54,17.6-81.4,82.8-93.3,120.7l-1.6,2.2.4.4c22.4-20,57.3-46.5,89.1-48.6,23.9-1.6,48,1.3,72.1,1s49.9-4.6,64.8-16.9S564.2,62.5,551,49Z"/><path class="b" d="M562.3,37.7c-9-9.1-20.2-15.1-32-19.6S505.4,11,492.5,9.8s-28-.3-42,1.6a209,209,0,0,0-36.6,8.5c-19.6,6.3-37,18.1-51.2,33s-23.8,30-32.5,47a331.2,331.2,0,0,0-19.5,47.3c-.5,1.5-1,3-1.4,4.6l1.6-3.8-1.7,2.1-1.6,3.8a12.7,12.7,0,0,0-.3,6.4,8,8,0,0,0,1.1,4,12.5,12.5,0,0,0,3.3,5.1l.4.4c2.8,2.8,7.3,4.9,11.3,4.7l4.2-.6a15.1,15.1,0,0,0,7-4.1c6-5.2,12.1-10.3,18.3-15.2l-3.2,2.5c13.3-10.2,27.5-19.6,43-26.2l-3.8,1.6a95,95,0,0,1,23.4-6.7l-4.2.6a148,148,0,0,1,22.1-.9c7.7,0,15.5.3,23.2.7,14.9.6,29.8,1.3,44.7.1s28.4-3.2,41.5-8.6a91.2,91.2,0,0,0,11-5.1,75.7,75.7,0,0,0,9.8-7,48.7,48.7,0,0,0,8.6-9.5,45,45,0,0,0,5.3-10.5A41.5,41.5,0,0,0,576.8,73a47.1,47.1,0,0,0-1.3-12.4c-2.1-8.6-7.1-16.6-13.2-22.9A16.5,16.5,0,0,0,551,33c-3.9,0-8.6,1.7-11.3,4.7A15.8,15.8,0,0,0,535.1,49a16.3,16.3,0,0,0,4.6,11.2c1.1,1.1,2.1,2.3,3,3.4l-2.5-3.2a37,37,0,0,1,4.5,7.7l-1.6-3.8a30.6,30.6,0,0,1,2.2,7.7l-.6-4.2a28.9,28.9,0,0,1,0,7.2l.6-4.2a29.3,29.3,0,0,1-2,7l1.6-3.8a31.8,31.8,0,0,1-3.9,6.6l2.5-3.2a47.6,47.6,0,0,1-6.4,6.3l3.2-2.5a56.9,56.9,0,0,1-12.7,7.2l3.8-1.6c-8.8,3.8-18.3,5.9-27.9,7.2l4.3-.6c-28.8,3.9-57.7-.5-86.5.3A123.9,123.9,0,0,0,398.6,96a98.9,98.9,0,0,0-16.8,5.2A190.3,190.3,0,0,0,346,120.5a350,350,0,0,0-33.9,26.8h22.5l-.3-.4,2.5,19.3,1.4-1.8a17.9,17.9,0,0,0,1.9-4.5c.2-.5.3-1.1.5-1.6l2.1-6.3c1.5-4.5,3.2-9.1,4.9-13.5l3.3-8.2-1.6,3.8a242.9,242.9,0,0,1,20.8-39.4c2.4-3.6,5-7.2,7.6-10.7l-2.4,3.2a138,138,0,0,1,24.2-24.7L396.3,65a101.8,101.8,0,0,1,22.5-13.3L415,53.3a139.5,139.5,0,0,1,20.2-6.4,196,196,0,0,1,24-4.8l-4.2.6a165.9,165.9,0,0,1,43.4-.3l-4.3-.6a117,117,0,0,1,30.3,8.1l-3.8-1.7a76.5,76.5,0,0,1,16.9,9.7l-3.2-2.5a61.7,61.7,0,0,1,5.4,4.8A16.5,16.5,0,0,0,551,64.9c3.9,0,8.6-1.7,11.3-4.7s4.8-7,4.6-11.2A16.9,16.9,0,0,0,562.3,37.7Z"/><path class="d" d="M538.5,35.2A34,34,0,0,1,530.9,55c-12.3,15.5-36.3,24.2-59.2,28.4s-46.4,5-69,10.5c-10.3,2.5-20.5,8.2-30.2,15.6a43.5,43.5,0,0,1,7.6,9.8c9.4-5.4,19-9.3,28.6-10.6,22.9-3.1,46.4-1.4,69.6-3.1s47.9-7.8,61.4-21.9S551.9,49.1,538.5,35.2Z"/><path class="d" d="M515.3,365.5C497,284.4,449.5,194.7,376.1,169.4l-.5-.5c-21.7-7.5-45-10.2-67.9-8.9,4.7.6,9.4,1.4,14.1,2.3,39.9,7.9,78.9,28.4,105.9,59.8l.2.6c50.6,58.8,46.4,160.1,21.5,239.3s-86,144.4-163.9,175.1c-25.9,10.2-54.1,16.7-82.7,17.1,46.3,25.6,103.1,35,153.5,20.4,43.2-12.5,78.9-41.4,105.5-75.1C513.7,533.6,533.6,446.6,515.3,365.5Z"/><path class="b" d="M373.7,153.6c-56.2-19.3-119.4-9.1-170.4,19.6-45.9,25.9-84,66.4-109.2,112.5A304.5,304.5,0,0,0,56.9,434.2c.6,51.3,14.9,102.7,41.9,146.4A257.1,257.1,0,0,0,149,640a241.2,241.2,0,0,0,71.1,42.5,225.5,225.5,0,0,0,77.9,15,212.2,212.2,0,0,0,40.6-3.7,191,191,0,0,0,39.7-12.6c48.1-20.7,87-61.1,113-105.9a299.4,299.4,0,0,0,40.4-153.4c-.7-50.5-15.3-100.5-36.9-145.9-20.1-42.3-49.4-82.9-90-107.7A161.9,161.9,0,0,0,374.1,154c-7.9-2.7-17.8,3.1-19.6,11.1s2.7,16.7,11.1,19.7c2.8.9,5.5,2,8.2,3.1l-3.8-1.6A153.6,153.6,0,0,1,403.4,206l-3.2-2.5a207.9,207.9,0,0,1,36.3,36.9l-2.5-3.2c16.5,21.4,29.6,45.3,40.1,70.2l-1.6-3.9c12,28.7,21.3,59,25.5,89.8l-.6-4.2a279.8,279.8,0,0,1-.1,73.7l.6-4.2a289.3,289.3,0,0,1-19.8,72.6l1.6-3.8a282,282,0,0,1-36.3,62.1l2.5-3.2A252.1,252.1,0,0,1,402,630.6l3.3-2.5A202,202,0,0,1,361.4,654l3.8-1.6a173.1,173.1,0,0,1-44.7,12.1l4.3-.5a199.4,199.4,0,0,1-51.2-.2l4.2.6A227.8,227.8,0,0,1,221.7,649l3.9,1.6a219.8,219.8,0,0,1-47.8-27.9l3.2,2.5a237.4,237.4,0,0,1-42.1-42.3l2.5,3.3a258.2,258.2,0,0,1-33.6-57.7l1.6,3.8a271.9,271.9,0,0,1-18.8-69.2l.6,4.3a278.6,278.6,0,0,1,.1-74.1l-.6,4.2a286.9,286.9,0,0,1,20.2-73.7l-1.7,3.8a291.9,291.9,0,0,1,36.9-63.2l-2.5,3.2a282.8,282.8,0,0,1,49.7-49.9l-3.2,2.5a236.7,236.7,0,0,1,52.1-30.6l-3.8,1.6a208.1,208.1,0,0,1,52-14.4l-4.2.6a194.8,194.8,0,0,1,50.6-.2l-4.2-.6a181.8,181.8,0,0,1,32.6,7.7c7.9,2.7,17.8-3.1,19.6-11.1s-2.7-16.7-11.1-19.6Z"/><rect class="e" x="170" y="288" width="248.5" height="115.26" rx="21.3"/><path class="d" d="M441.7,720.5c-4.8-15.7-21.6-35.4-51.6-46v-.2a183.2,183.2,0,0,0-28.3-7.2l5.9,1.5c16.5,4.8,32.1,11.7,42.4,19.4h0c19.2,14.6,13.9,32,.7,43.8s-41.2,18-75,16.9a220.7,220.7,0,0,1-35.3-4,200,200,0,0,0,63.7,16.5c18.6,1.4,34.6-.6,47-4.3C435.2,749.8,446.6,736.3,441.7,720.5Z"/><ellipse class="f" cx="375.5" cy="723.5" rx="79.5" ry="47.4"/><ellipse class="c" cx="213.5" cy="725.3" rx="79.5" ry="47.4"/><path class="d" d="M276.3,720.5c-4.9-15.7-21.7-35.4-51.6-46l-.2-.2a181.9,181.9,0,0,0-28.2-7.2l5.8,1.5c16.5,4.8,32.2,11.7,42.4,19.4h.1c19.1,14.6,13.9,32,.6,43.8s-41.2,18-75,16.9a222,222,0,0,1-35.3-4,199.9,199.9,0,0,0,63.8,16.5c18.6,1.4,34.6-.6,46.9-4.3C269.7,749.8,281.1,736.3,276.3,720.5Z"/><ellipse class="f" cx="210" cy="723.5" rx="79.5" ry="47.4"/><path class="b" d="M562.3,37.7c-9-9.1-20.2-15.1-32-19.6S505.4,11,492.5,9.8s-28-.3-42,1.6a209,209,0,0,0-36.6,8.5c-19.6,6.3-37,18.1-51.2,33s-23.8,30-32.5,47a331.2,331.2,0,0,0-19.5,47.3c-.5,1.5-1,3-1.4,4.6l1.6-3.8-1.7,2.1-1.6,3.8a12.7,12.7,0,0,0-.3,6.4,8,8,0,0,0,1.1,4,12.5,12.5,0,0,0,3.3,5.1l.4.4c2.8,2.8,7.3,4.9,11.3,4.7l4.2-.6a15.1,15.1,0,0,0,7-4.1c6-5.2,12.1-10.3,18.3-15.2l-3.2,2.5c13.3-10.2,27.5-19.6,43-26.2l-3.8,1.6a95,95,0,0,1,23.4-6.7l-4.2.6a148,148,0,0,1,22.1-.9c7.7,0,15.5.3,23.2.7,14.9.6,29.8,1.3,44.7.1s28.4-3.2,41.5-8.6a91.2,91.2,0,0,0,11-5.1,75.7,75.7,0,0,0,9.8-7,48.7,48.7,0,0,0,8.6-9.5,45,45,0,0,0,5.3-10.5A41.5,41.5,0,0,0,576.8,73a47.1,47.1,0,0,0-1.3-12.4c-2.1-8.6-7.1-16.6-13.2-22.9A16.5,16.5,0,0,0,551,33c-3.9,0-8.6,1.7-11.3,4.7A15.8,15.8,0,0,0,535.1,49a16.3,16.3,0,0,0,4.6,11.2c1.1,1.1,2.1,2.3,3,3.4l-2.5-3.2a37,37,0,0,1,4.5,7.7l-1.6-3.8a30.6,30.6,0,0,1,2.2,7.7l-.6-4.2a28.9,28.9,0,0,1,0,7.2l.6-4.2a29.3,29.3,0,0,1-2,7l1.6-3.8a31.8,31.8,0,0,1-3.9,6.6l2.5-3.2a47.6,47.6,0,0,1-6.4,6.3l3.2-2.5a56.9,56.9,0,0,1-12.7,7.2l3.8-1.6c-8.8,3.8-18.3,5.9-27.9,7.2l4.3-.6c-28.8,3.9-57.7-.5-86.5.3A123.9,123.9,0,0,0,398.6,96a98.9,98.9,0,0,0-16.8,5.2A190.3,190.3,0,0,0,346,120.5a350,350,0,0,0-33.9,26.8h22.5l-.3-.4,2.5,19.3,1.4-1.8a17.9,17.9,0,0,0,1.9-4.5c.2-.5.3-1.1.5-1.6l2.1-6.3c1.5-4.5,3.2-9.1,4.9-13.5l3.3-8.2-1.6,3.8a242.9,242.9,0,0,1,20.8-39.4c2.4-3.6,5-7.2,7.6-10.7l-2.4,3.2a138,138,0,0,1,24.2-24.7L396.3,65a101.8,101.8,0,0,1,22.5-13.3L415,53.3a139.5,139.5,0,0,1,20.2-6.4,196,196,0,0,1,24-4.8l-4.2.6a165.9,165.9,0,0,1,43.4-.3l-4.3-.6a117,117,0,0,1,30.3,8.1l-3.8-1.7a76.5,76.5,0,0,1,16.9,9.7l-3.2-2.5a61.7,61.7,0,0,1,5.4,4.8A16.5,16.5,0,0,0,551,64.9c3.9,0,8.6-1.7,11.3-4.7s4.8-7,4.6-11.2A16.9,16.9,0,0,0,562.3,37.7Z"/><circle class="g" cx="263.6" cy="351.7" r="10.2"/><circle class="g" cx="202.1" cy="351.7" r="10.2"/><circle class="g" cx="220.3" cy="331.2" r="10.2"/><circle class="g" cx="245.4" cy="331.2" r="10.2"/><circle class="g" cx="386.5" cy="351.7" r="10.2"/><circle class="g" cx="325" cy="351.7" r="10.2"/><circle class="g" cx="343.2" cy="331.2" r="10.2"/><circle class="g" cx="368.2" cy="331.2" r="10.2"/><polygon class="h" points="432.5 598.8 432.5 541.6 378.4 541.6 378.4 627.3 432.5 598.8"/><path class="i" d="M444.5,545.8,416,562.7a20.1,20.1,0,0,1-20,.2l-28.9-16.2a20.2,20.2,0,0,1-10.2-17.3l-.4-33a20.1,20.1,0,0,1,9.9-17.5L394.8,462a20.3,20.3,0,0,1,20.1-.2L443.7,478A20.1,20.1,0,0,1,454,495.3l.3,33A19.8,19.8,0,0,1,444.5,545.8Z"/></svg>