<svg xmlns="http://www.w3.org/2000/svg" viewBox="0 0 48 48"><defs><style>.a,.b{fill:#4e4d4d;}.b{opacity:0.13;}.c{fill:#ffcc03;}</style></defs><path class="a" d="M31.2,9.6H13.6a2.8,2.8,0,0,0-2.9,2.8V34.7a2.9,2.9,0,0,0,2.9,2.8H35.8a2.8,2.8,0,0,0,2.8-2.8V17A7.4,7.4,0,0,0,31.2,9.6Zm-15.4.6H32.2v6.2a.7.7,0,0,1-.7.7H16.6a.7.7,0,0,1-.8-.7ZM34.7,36.9H14.6V24.6a1.1,1.1,0,0,1,1.1-1.1H33.6a1.1,1.1,0,0,1,1.1,1.1Z"/><path class="b" d="M15.3,23.5H34.1a.6.6,0,0,1,.6.6v3.6a0,0,0,0,1,0,0H14.6a0,0,0,0,1,0,0V24.1A.6.6,0,0,1,15.3,23.5Z"/><rect class="b" x="15.3" y="28.6" width="18.8" height="0.72"/><rect class="b" x="15.3" y="30.3" width="18.8" height="0.72"/><rect class="b" x="15.3" y="32" width="18.8" height="0.72"/><rect class="b" x="15.3" y="33.6" width="18.8" height="0.72"/><rect class="b" x="15.4" y="35.3" width="18.8" height="0.72"/><rect class="a" x="27.4" y="10.9" width="3.8" height="5.48" rx="0.9"/><polygon class="c" points="7.9 5.5 7.5 8.9 6.7 5.6 3.3 5.2 6.6 4.4 7 1 7.8 4.3 11.2 4.7 7.9 5.5"/><polygon class="c" points="41.7 7.1 38.6 9.1 40.7 6 38.6 3 41.7 5 44.7 3 42.7 6 44.7 9.1 41.7 7.1"/><polygon class="c" points="16.9 45.5 14.4 47.8 15.9 44.8 13.6 42.3 16.6 43.8 19.2 41.5 17.6 44.6 19.9 47.1 16.9 45.5"/><circle class="c" cx="22" cy="2.9" r="0.8"/><circle class="c" cx="24.4" cy="4.4" r="0.5"/><circle class="c" cx="18" cy="2.1" r="1.2"/><circle class="c" cx="25.1" cy="7.6" r="0.3"/><circle class="c" cx="25.5" cy="6" r="0.4"/><circle class="c" cx="46.3" cy="22.1" r="0.8"/><circle class="c" cx="45.6" cy="24.8" r="0.5"/><circle class="c" cx="45.9" cy="18.1" r="1.2"/><circle class="c" cx="42.8" cy="26.5" r="0.3"/><circle class="c" cx="44.3" cy="26.4" r="0.4"/><circle class="c" cx="39.4" cy="43.7" r="1"/><circle class="c" cx="36.2" cy="44.5" r="0.6"/><circle class="c" cx="43.3" cy="41" r="1.4"/><circle class="c" cx="32.9" cy="42.5" r="0.3"/><circle class="c" cx="33.9" cy="44.1" r="0.4"/><circle class="c" cx="3.1" cy="20.6" r="0.8"/><circle class="c" cx="4.4" cy="18.2" r="0.5"/><circle class="c" cx="2.5" cy="24.7" r="1.2"/><circle class="c" cx="7.5" cy="17.2" r="0.3"/><circle class="c" cx="6" cy="17" r="0.4"/><circle class="c" cx="5.4" cy="38.3" r="0.8"/><circle class="c" cx="4.9" cy="35.5" r="0.5"/><circle class="c" cx="7.4" cy="41.9" r="1.2"/><circle class="c" cx="6.8" cy="32.9" r="0.3"/><circle class="c" cx="5.5" cy="33.6" r="0.4"/><polygon class="c" points="3.2 10.7 2 12.4 2.5 10.4 0.9 9.1 2.9 9.7 4.2 8 3.6 10.1 5.2 11.3 3.2 10.7"/><polygon class="c" points="26 42.4 24 43.2 25.6 41.7 24.8 39.8 26.2 41.3 28.1 40.5 26.6 42 27.4 43.9 26 42.4"/><polygon class="c" points="33.8 2.8 31.8 3.5 33.4 2.1 32.6 0.2 34 1.7 36 1 34.4 2.4 35.2 4.4 33.8 2.8"/><polygon class="c" points="44.7 33.4 42.9 34.5 44.2 32.8 43.1 31 44.8 32.3 46.6 31.2 45.3 32.9 46.4 34.7 44.7 33.4"/></svg>