<?xml version="1.0" encoding="utf-8"?>
<!-- Generator: Adobe Illustrator 27.8.1, SVG Export Plug-In . SVG Version: 6.00 Build 0)  -->
<svg version="1.1" xmlns="http://www.w3.org/2000/svg" xmlns:xlink="http://www.w3.org/1999/xlink" x="0px" y="0px"
	 viewBox="0 0 1280 951" style="enable-background:new 0 0 1280 951;" xml:space="preserve">
<style type="text/css">
	.st0{fill:none;}
	.st1{fill:#FFCC00;stroke:#FFCC00;stroke-width:18.7;stroke-linecap:round;stroke-miterlimit:10;}
</style>
<g id="elas_left_1280_x2A_640">
	
		<image style="overflow:visible;" width="1652" height="2468" xlink:href="../PNG/Icon.png"  transform="matrix(0.1784 0 0 0.1784 99.1297 413)">
	</image>
	<g id="background">
		<rect y="312.5" class="st0" width="1280" height="640"/>
	</g>
</g>
<g id="text_00000074421294461365672080000016983526469469056675_">
	<g>
		<path d="M422.5,592H440l55.9,146.3h-29.7l-35-99.9l-35,99.9h-29.7L422.5,592z M393.4,688.3h76.9v26.6h-76.9V688.3z"/>
		<path d="M533.6,737.6c-6.7-1.4-12.9-3.5-18.8-6.2c-5.9-2.7-11.1-6-15.7-9.8l12.8-22.7c5.6,4.6,12.1,8.2,19.5,10.7
			c7.4,2.5,15,3.8,22.7,3.8c9,0,16-1.5,20.9-4.6c5-3.1,7.4-7.4,7.4-12.9v-0.1c0-3.9-1.1-7-3.3-9.3c-2.2-2.3-5.1-4-8.7-5
			c-3.6-1.1-8.1-2-13.7-2.9c-0.2-0.1-0.4-0.1-0.6-0.1c-0.2,0-0.4,0-0.6-0.1l-2.2-0.3c-9.8-1.5-17.9-3.5-24.3-5.8
			s-11.9-6.4-16.4-12.2c-4.5-5.8-6.7-14-6.7-24.7v-0.1c0-9.5,2.1-17.5,6.3-24.2c4.2-6.7,10.4-11.8,18.4-15.3s17.8-5.3,29.2-5.3
			c5.2,0,10.6,0.6,16,1.8c5.5,1.2,10.8,3,16,5.2c5.2,2.3,10.2,5,14.9,8.2l-11.7,23.3c-5.6-3.9-11.5-6.9-17.7-9.1
			c-6.1-2.1-12-3.2-17.7-3.2c-8.4,0-15,1.4-19.6,4.2c-4.6,2.8-6.9,6.7-6.9,11.7v0.1c0,4.2,1.2,7.6,3.6,10c2.4,2.4,5.4,4.2,9,5.4
			c3.6,1.1,8.5,2.3,15,3.6c0.3,0.1,0.5,0.1,0.8,0.2c0.3,0,0.5,0.1,0.8,0.2c0.4,0.1,0.8,0.2,1.2,0.3c0.4,0.1,0.8,0.2,1.2,0.3
			c9.3,1.8,17,4,23.2,6.6c6.2,2.6,11.4,6.7,15.5,12.5c4.2,5.7,6.2,13.6,6.2,23.5v0.2c0,9.3-2.2,17.3-6.5,23.9
			c-4.4,6.6-10.7,11.7-19.1,15.2s-18.4,5.2-30.1,5.2C547.1,739.8,540.3,739.1,533.6,737.6z"/>
		<path d="M622.9,591.9h27.6v146.4h-27.6V591.9z M633.9,652.9h50.9c2.8,0,5.3-0.7,7.4-2.1c2.1-1.4,3.8-3.4,5-6
			c1.2-2.6,1.8-5.6,1.9-9.1c0-3.4-0.6-6.4-1.8-9.1c-1.2-2.6-2.8-4.6-5-6c-2.1-1.4-4.7-2.1-7.5-2.1h-50.9v-26.6H687
			c8,0,15.1,1.8,21.2,5.4c6.1,3.6,10.8,8.7,14.2,15.3c3.4,6.6,5,14.3,5,23c0,8.7-1.7,16.4-5,23c-3.4,6.6-8.1,11.7-14.2,15.3
			c-6.1,3.6-13.2,5.4-21.2,5.4h-53.1V652.9z M664.6,674.9l29.5-4.6l39.4,68h-33.4L664.6,674.9z"/>
		<path d="M757.5,734.3c-7.1-3.7-12.6-9-16.3-16c-3.8-7-5.6-15.4-5.6-25.3v-11.8c0-10.3,1.8-19.1,5.4-26.5
			c3.6-7.3,8.8-12.9,15.7-16.7c6.9-3.8,15.2-5.7,24.9-5.7c9.1,0,16.9,2.3,23.4,6.8c6.5,4.6,11.4,11.2,14.8,19.9
			c3.4,8.7,5.1,19.2,5.1,31.4v6.8h-71.4v-18.6h46.3l-0.3-2.4c-0.7-6-2.6-10.7-5.7-14c-3.1-3.3-7.1-4.9-12.2-4.9
			c-6.6,0-11.8,2-15.4,5.9c-3.7,4-5.5,9.6-5.5,16.8v13.3c0,7.1,2,12.6,6,16.5c4,3.9,9.6,5.8,16.7,5.8c3.7,0,7.3-0.7,11-2
			s6.9-3.2,9.9-5.6l18,16c-5.4,5-11.5,8.8-18.3,11.5c-6.8,2.7-13.6,4.1-20.5,4.1C773.3,739.8,764.7,737.9,757.5,734.3z"/>
		<path d="M894.4,633.8h27.5l-39.2,104.4h-19.5l-39.2-104.4h27.5l21.5,65.5L894.4,633.8z"/>
		<path d="M927.4,592h27.6v27.6h-27.6V592z M927.4,633.8h27.6v104.4h-27.6V633.8z"/>
		<path d="M987.9,734.3c-7.1-3.7-12.6-9-16.3-16c-3.8-7-5.6-15.4-5.6-25.3v-11.8c0-10.3,1.8-19.1,5.4-26.5
			c3.6-7.3,8.8-12.9,15.7-16.7c6.9-3.8,15.2-5.7,24.9-5.7c9.1,0,16.9,2.3,23.4,6.8c6.5,4.6,11.4,11.2,14.8,19.9
			c3.4,8.7,5.1,19.2,5.1,31.4v6.8h-71.4v-18.6h46.3l-0.3-2.4c-0.7-6-2.6-10.7-5.7-14c-3.1-3.3-7.1-4.9-12.2-4.9
			c-6.6,0-11.8,2-15.4,5.9c-3.7,4-5.5,9.6-5.5,16.8v13.3c0,7.1,2,12.6,6,16.5c4,3.9,9.6,5.8,16.7,5.8c3.7,0,7.3-0.7,11-2
			s6.9-3.2,9.9-5.6l18,16c-5.4,5-11.5,8.8-18.3,11.5c-6.8,2.7-13.6,4.1-20.5,4.1C1003.6,739.8,995,737.9,987.9,734.3z"/>
		<path d="M1055.9,633.8h26.5l18.5,64.5l22-64.5h16.3l22,64.5l18.5-64.5h26.5L1174,738.3h-20.5l-22.4-68.1l-22.4,68.1h-20.5
			L1055.9,633.8z"/>
	</g>
</g>
<g id="lijn">
	<line class="st1" x1="363.5" y1="772.5" x2="1198.5" y2="771.5"/>
</g>
</svg>
