<svg xmlns="http://www.w3.org/2000/svg" viewBox="0 0 24 24"><defs><style>.a,.b{fill:#1d1d1b;}.b{opacity:0.13;}</style></defs><path class="a" d="M17.5,0H2.5A2.5,2.5,0,0,0,.1,2.5v19a2.4,2.4,0,0,0,2.4,2.4h19a2.4,2.4,0,0,0,2.4-2.4V6.4A6.4,6.4,0,0,0,17.5,0ZM4.4.6h14V5.9a.6.6,0,0,1-.6.6H5.1a.7.7,0,0,1-.7-.6ZM20.6,23.4H3.4V12.9a.9.9,0,0,1,1-.9H19.6a.9.9,0,0,1,1,.9Z"/><path class="b" d="M4,12H20a.5.5,0,0,1,.5.5v3.1a0,0,0,0,1,0,0H3.4a0,0,0,0,1,0,0V12.5A.5.5,0,0,1,4,12Z"/><rect class="b" x="4" y="16.3" width="16" height="0.61"/><rect class="b" x="4" y="17.7" width="16" height="0.61"/><rect class="b" x="4" y="19.2" width="16" height="0.61"/><rect class="b" x="4" y="20.6" width="16" height="0.61"/><rect class="b" x="4.1" y="22" width="16" height="0.61"/><rect class="a" x="14.3" y="1.2" width="3.2" height="4.68" rx="0.8"/></svg>