<svg xmlns="http://www.w3.org/2000/svg" viewBox="0 0 48 48"><defs><style>.a,.e{fill:#fff;}.a{stroke:#1d1d1b;stroke-miterlimit:10;stroke-width:0.75px;}.b{fill:#4e4d4d;opacity:0.13;}.c{fill:#1186c8;}.d{fill:#024b6c;}.f{fill:#0f86c8;}</style></defs><rect class="a" x="9.3" y="9" width="27.1" height="32.81" rx="2.1"/><rect class="b" x="11.7" y="27.4" width="22.5" height="0.91"/><rect class="b" x="11.7" y="29.5" width="22.5" height="0.91"/><rect class="b" x="11.7" y="31.7" width="22.5" height="0.91"/><rect class="b" x="11.7" y="33.8" width="22.5" height="0.91"/><rect class="b" x="11.7" y="35.9" width="22.5" height="0.91"/><rect class="b" x="11.7" y="16.8" width="22.5" height="0.91"/><rect class="b" x="11.7" y="11.9" width="15" height="2.83"/><rect class="b" x="11.7" y="18.9" width="22.5" height="0.91"/><rect class="b" x="11.7" y="21" width="22.5" height="0.91"/><rect class="b" x="11.7" y="23.2" width="22.5" height="0.91"/><rect class="b" x="11.7" y="25.3" width="22.5" height="0.91"/><rect class="b" x="11.6" y="38" width="22.5" height="0.91"/><path class="c" d="M35.4,5,30.6,7.8a2.2,2.2,0,0,0-1,1.8v5.6a2.2,2.2,0,0,0,1,1.8l4.8,2.7a1.9,1.9,0,0,0,1,.3V4.8Z"/><path class="d" d="M37.5,19.7,42.3,17a2.2,2.2,0,0,0,1-1.8V9.6a2.2,2.2,0,0,0-1-1.8L37.5,5l-1.1-.2V20A2,2,0,0,0,37.5,19.7Z"/><path class="e" d="M40.4,16l-2.8,1.6a2.4,2.4,0,0,1-2.3,0L32.5,16a2.4,2.4,0,0,1-1.2-2V10.8a2.4,2.4,0,0,1,1.2-2l2.8-1.6a2.4,2.4,0,0,1,2.3,0l2.8,1.6a2.3,2.3,0,0,1,1.1,2V14A2.3,2.3,0,0,1,40.4,16Z"/><rect class="f" x="35.8" y="9.4" width="1.4" height="4.83"/><rect class="f" x="37.4" y="10.8" width="1.4" height="3.44"/><rect class="f" x="34" y="11.9" width="1.4" height="2.42"/></svg>