<svg id="Layer_1" data-name="Layer 1" xmlns="http://www.w3.org/2000/svg" xmlns:xlink="http://www.w3.org/1999/xlink" viewBox="0 0 1384.11 923.43"><defs><style>.cls-1{fill:none;}.cls-2{clip-path:url(#clip-path);}.cls-3{fill:#fff;}.cls-4{fill:#fc0;}.cls-5{fill:#010101;}</style><clipPath id="clip-path" transform="translate(-352 -414.95)"><rect class="cls-1" x="486.4" y="488.01" width="1215.6" height="270.48"/></clipPath></defs><g class="cls-2"><path class="cls-3" d="M1736.11,1286.58v51.8H520.51V1067.9h1215.6v93.48c-.86-1.1-.45-2.46-.77-3.68a37.22,37.22,0,0,0-9.35-16.77c-7.66-7.88-17.1-11.55-28-11.56q-101.25,0-202.5,0a43.45,43.45,0,0,0-6.94.48,37.4,37.4,0,0,0-31.71,37.39v113.43a42.22,42.22,0,0,0,.34,5.26c2.43,18.9,19,32.43,37,32.4q102.45-.15,204.91,0a40.48,40.48,0,0,0,6.68-.53c14.19-2.39,26.5-14,29.69-28C1735.69,1288.71,1735.3,1287.52,1736.11,1286.58Zm-816.36-83.2c.19-.21.23-.29.3-.32.37-.15.74-.29,1.12-.41,13.43-4.27,22.73-13,27.87-26.07,5-12.75,5.31-25.89,2.1-39.08-2.68-11-8.41-20.13-17.84-26.69-8-5.57-17-7.92-26.67-8-10.31,0-20.63,0-30.94,0H833.22c-2,0-1.86.06-1.85,1.8v166.41c0,2.42-.25,2.16,2.17,2.17q12.36,0,24.71,0c1.67,0,3.84.71,4.87-.29s.38-3.33.39-5.06q0-30.45,0-60.9c0-2.41-.24-2.17,2.19-2.17,4.88,0,9.76.1,14.63-.06a3.76,3.76,0,0,1,3.88,2.31c11.93,21.41,23.95,42.77,35.88,64.18a3.41,3.41,0,0,0,3.52,2c11.44-.08,22.87,0,34.31,0,.67,0,1.34,0,2.27-.1Zm-132.31-57.16c4.42-8.83,8.68-17.41,13-26,.53-1,.28-1.53-.62-2.11a109.78,109.78,0,0,0-12.07-6.88,96,96,0,0,0-38.43-10,104.15,104.15,0,0,0-16.28.65,71.27,71.27,0,0,0-22.75,6.31c-12.89,6.24-21.44,16.15-25.06,30.08a65.91,65.91,0,0,0-1.16,25c2,16.21,11,27.07,26,33,8,3.18,16.38,4.82,24.81,6.27,6.37,1.09,12.8,1.9,19.1,3.4,4.69,1.11,9.27,2.45,13.08,5.62a13.34,13.34,0,0,1,4.61,6.57c2.09,7.15.51,15.07-6.56,19.93a31.15,31.15,0,0,1-11.42,4.76,72.12,72.12,0,0,1-25.75.56,76.55,76.55,0,0,1-36.35-15c-.41-.32-.73-.88-1.51-.7q-6.57,11.71-13.22,23.54c-1.52,2.71-1.54,2.73,1,4.59,15.09,11.28,32.3,16.84,50.86,18.66a114.91,114.91,0,0,0,26.08-.45,72.09,72.09,0,0,0,25.07-7.62c12-6.44,19.87-16.13,23.07-29.41a63.32,63.32,0,0,0,.43-26.4,37.81,37.81,0,0,0-11.67-21.25,42.83,42.83,0,0,0-14.14-8.83c-9.34-3.64-19.07-5.81-28.87-7.74a185.81,185.81,0,0,1-18.17-4.3,25.75,25.75,0,0,1-10.32-5.87,13.68,13.68,0,0,1-3.9-6.22c-2.37-8.23-.19-15.9,8.47-20.36,5-2.58,10.4-3.53,15.93-4,12.46-1,24.1,1.92,35.22,7.33A102.89,102.89,0,0,1,787.44,1146.22ZM523.78,1272.86a1.41,1.41,0,0,0,1.24.36c10.56,0,21.11,0,31.66,0a2,2,0,0,0,2.17-1.62q4-11.78,8.21-23.49c.87-2.47.43-2.19,2.94-2.2h58c2.53,0,2-.13,2.79,2,2.74,7.75,5.44,15.51,8.16,23.26.69,2,.7,2,2.82,2h30.46c.59,0,1.25.22,1.75-.25a4.16,4.16,0,0,0-.59-2.12q-18.12-47.38-36.26-94.76-13.56-35.41-27.1-70.85c-1.06-2.77-.47-2.28-3.37-2.3q-7.9,0-15.83,0c-2.24,0-1.93-.49-2.85,2-.09.22-.21.43-.29.66Q557,1185.8,526.35,1266C525.47,1268.33,524.62,1270.63,523.78,1272.86ZM1427.9,1176h-23.66a1.13,1.13,0,0,0-1.31,1.06,14.15,14.15,0,0,1-.4,1.37q-7.92,27.61-15.86,55.21c-.15.52-.09,1.21-.88,1.46-.17-.43-.36-.86-.51-1.31q-9.4-27.52-18.82-55c-1.14-3.32-.42-2.71-3.73-2.75s-6.72,0-10.07,0c-2.66,0-2.26-.43-3.16,2.21q-8.3,24.22-16.56,48.47c-1,2.86-2,5.71-3,8.66a6.22,6.22,0,0,1-1.2-3q-7.79-27-15.51-54.07c-.65-2.27-.65-2.27-3-2.27-6.72,0-13.44,0-20.16,0-.67,0-1.44-.29-2,.38.11.38.21.76.32,1.13l15.16,49.18,13.74,44.6c.59,1.9.6,1.91,2.59,1.92h15.11c2.15,0,2.16,0,2.81-2q8.68-26.37,17.36-52.74c.85-2.6,1.73-5.18,2.6-7.79.85.36.78,1,.94,1.51q3.29,9.87,6.53,19.77,6.48,19.66,13,39.32c.69,2.08.15,1.91,2.6,1.91,5,0,9.92,0,14.88,0,2.4,0,2.4,0,3.08-2.23q13.9-45,27.79-90.11C1426.93,1179.39,1427.35,1177.87,1427.9,1176Zm-424.84,59.44a5.78,5.78,0,0,1,2.53-.23h54.95c2.13,0,2.13,0,2.15-2a116.45,116.45,0,0,0-1.34-21,56.48,56.48,0,0,0-7.23-20.41c-5.44-8.83-13.19-14.48-23.42-16.39a50.21,50.21,0,0,0-24.19,1.38,35,35,0,0,0-22.17,18.8,49.85,49.85,0,0,0-4.61,17c-.69,6.7-.41,13.42-.37,20.13a51.32,51.32,0,0,0,1.39,11.64c3,12.55,10.11,21.71,22.2,26.7a49.87,49.87,0,0,0,13,3.21c16.05,2,30.19-2.39,42.58-12.66.53-.44,1.26-.75,1.37-1.67l-16.52-14.66a34.92,34.92,0,0,1-9,5.06c-7,2.48-14.11,2.89-21-.15C1007,1247.38,1003.88,1242.17,1003.06,1235.45Zm222,0a8.12,8.12,0,0,1,2.74-.18h54.7c2.08,0,2.09.29,2.08-2.06a143.75,143.75,0,0,0-.54-15.8c-.9-7.91-2.65-15.58-6.33-22.7-5.21-10.08-13.17-16.74-24.38-19.16a49.72,49.72,0,0,0-18.6-.18c-11.93,1.94-21.42,7.61-27.46,18.37a46.63,46.63,0,0,0-5.33,16.78c-1,7.25-.55,14.52-.57,21.79a50.67,50.67,0,0,0,1.06,10.71c2.74,13.18,9.89,22.85,22.52,28.09a49.57,49.57,0,0,0,13.22,3.23c16.06,1.87,30.18-2.55,42.51-12.89.47-.38,1.13-.66,1.12-1.51-5.16-4.59-10.38-9.18-15.54-13.85-.92-.84-1.43-.46-2.21.1a30.47,30.47,0,0,1-21.92,5.9C1230.9,1250.83,1225.74,1243.17,1225.06,1235.4ZM1064.35,1176a3.44,3.44,0,0,0,.49,2.29q13.23,35.28,26.52,70.55l8.58,22.84c.3.83.47,1.59,1.71,1.58,5.36-.07,10.71,0,16.07,0a1.43,1.43,0,0,0,1.55-1.14c.14-.45.33-.89.5-1.34q17.3-46,34.58-92.06a4.79,4.79,0,0,0,.67-2.6c-.8,0-1.58-.1-2.35-.1H1132c-2.33,0-2.33,0-3.07,2.26q-9.2,28-18.41,55.9c-.23.69-.14,1.62-1.07,2-.2-.54-.41-1.06-.59-1.59q-6.75-20.57-13.51-41.14c-1.74-5.3-3.52-10.59-5.23-15.91-.33-1-.74-1.55-2-1.55C1080.28,1176,1072.37,1176,1064.35,1176Zm97.33,48.71q0,23.25,0,46.5c0,2,0,2,1.88,2q11,0,22.06,0c1.82,0,1.82,0,1.85-1.8,0-.4,0-.8,0-1.2v-91.33c0-.4,0-.8,0-1.19,0-1.65,0-1.68-1.76-1.69h-23c-.67,0-1.06.26-1,1,0,.56,0,1.12,0,1.67Zm12.73-61.93c3.76,0,7.51,0,11.27,0,1.75,0,1.78,0,1.79-1.64,0-7.51,0-15,0-22.52,0-1.24-.35-1.65-1.62-1.64-7.51,0-15,0-22.53,0-1.63,0-1.66,0-1.67,1.77q0,11.13,0,22.28c0,1.68,0,1.71,1.71,1.72C1167.06,1162.79,1170.74,1162.78,1174.41,1162.78Z" transform="translate(-352 -414.95)"/><path class="cls-4" d="M1702,706.68c-.8.94-.42,2.14-.66,3.2a37.73,37.73,0,0,1-29.7,28,40.48,40.48,0,0,1-6.68.53q-102.46,0-204.91,0c-18,0-34.56-13.5-37-32.4a42.1,42.1,0,0,1-.34-5.26V587.36A37.38,37.38,0,0,1,1454.43,550a43.45,43.45,0,0,1,6.94-.49q101.25,0,202.5,0c10.91,0,20.35,3.67,28,11.56a37.13,37.13,0,0,1,9.35,16.76c.32,1.22-.09,2.59.77,3.68Zm-51.67-64c.22-.27.25-.36.31-.38.6-.23,1.19-.44,1.79-.65,6.89-2.47,11-7.39,12-14.54a46.34,46.34,0,0,0-.31-15.27,19.35,19.35,0,0,0-12.8-15.21,24.69,24.69,0,0,0-8.65-1.73c-10.87-.07-21.74-.06-32.61-.13-1.22,0-1.82.34-1.63,1.62a7.69,7.69,0,0,1,0,1v93.48c0,.56,0,1.12,0,1.68a.78.78,0,0,0,.87.88c.48,0,1,0,1.44,0,9.67,0,19.34,0,29,0a44.18,44.18,0,0,0,8.35-.61c9.59-1.85,16-8.53,17.51-18.2a73.15,73.15,0,0,0,.35-12.2C1665.88,653.7,1661.46,645.14,1650.33,642.66Zm-57.79,50.66c-.26-1-.41-1.62-.59-2.23q-9.89-33-19.78-66.05c-2.81-9.4-5.6-18.82-8.44-28.21-.66-2.21-.24-2-2.74-2.06s-5,0-7.44,0-2-.19-2.7,2.11q-14.13,47.13-28.21,94.27a2.93,2.93,0,0,0-.28,2.18c4.84,0,9.71,0,14.58,0,1,0,1.29-.54,1.52-1.41,1.27-5,2.61-9.88,3.93-14.81.59-2.23.6-2.24,2.82-2.24h24.23c2.14,0,2.15,0,2.7,2.06q2,7.51,4,15c.19.74.32,1.36,1.31,1.36C1582.42,693.31,1587.36,693.32,1592.54,693.32ZM1458.2,644V691.2c0,2.13-.22,2.14,2,2.13h47.5c.48,0,1,0,1.44,0,.91.06,1.29-.3,1.27-1.25,0-2.39,0-4.79,0-7.19,0-1.76,0-3.51,0-5.27,0-.79-.28-1.2-1.12-1.16-.55,0-1.12,0-1.68,0h-30.94c-3.21,0-3.21,0-3.21-3.1V597.91c0-.64,0-1.28,0-1.91s-.21-1.23-1.06-1.22h-13.19c-.69,0-1,.27-1,1s0,1.28,0,1.92Z" transform="translate(-352 -414.95)"/><path class="cls-5" d="M885.64,623.48l40.46,69.74c-.93,0-1.6.11-2.27.11-11.44,0-22.87,0-34.31,0a3.43,3.43,0,0,1-3.52-2c-11.93-21.41-24-42.77-35.88-64.18a3.74,3.74,0,0,0-3.88-2.3c-4.87.16-9.75,0-14.63,0-2.43,0-2.19-.23-2.19,2.17q0,30.45,0,60.9c0,1.73.76,3.95-.39,5.06s-3.2.28-4.86.29q-12.36,0-24.71,0c-2.43,0-2.18.25-2.18-2.17V524.75c0-1.74-.19-1.8,1.85-1.8h42.47c10.31,0,20.63,0,30.94,0,9.67,0,18.67,2.38,26.68,8,9.42,6.55,15.15,15.69,17.83,26.68,3.21,13.19,2.93,26.33-2.1,39.08-5.14,13-14.44,21.8-27.87,26.07-.38.12-.75.26-1.12.41C885.87,623.19,885.83,623.27,885.64,623.48ZM850.78,553.9H831.36c-2,0-2-.18-2,2q0,18,0,35.95c0,2.36,0,2.11,2,2.11,12.63,0,25.26,0,37.88,0,6.43,0,11.14-3,14-8.73a25.94,25.94,0,0,0,2.12-16.35c-1.34-7.82-6.09-15.27-17.67-14.94C862.13,554,856.46,553.9,850.78,553.9Z" transform="translate(-352 -414.95)"/><path class="cls-5" d="M753.33,566.32a102.78,102.78,0,0,0-11.58-6.75c-11.12-5.42-22.76-8.35-35.22-7.34-5.53.45-10.93,1.41-15.93,4-8.66,4.46-10.84,12.13-8.47,20.36a13.68,13.68,0,0,0,3.9,6.22,25.75,25.75,0,0,0,10.32,5.87,183,183,0,0,0,18.17,4.3c9.8,1.94,19.53,4.11,28.87,7.74a42.83,42.83,0,0,1,14.14,8.83,37.81,37.81,0,0,1,11.67,21.25,63.32,63.32,0,0,1-.43,26.4c-3.2,13.28-11.09,23-23.07,29.41a71.88,71.88,0,0,1-25.07,7.62,113.77,113.77,0,0,1-26.08.45c-18.56-1.82-35.76-7.38-50.86-18.66-2.5-1.86-2.48-1.88-1-4.59q6.63-11.8,13.22-23.54c.78-.18,1.1.39,1.51.7a76.55,76.55,0,0,0,36.35,15,72.35,72.35,0,0,0,25.75-.55A31.49,31.49,0,0,0,731,658.25c7.07-4.87,8.65-12.79,6.56-19.94a13.43,13.43,0,0,0-4.61-6.57c-3.81-3.17-8.39-4.5-13.08-5.62-6.3-1.5-12.73-2.31-19.1-3.4-8.43-1.45-16.85-3.09-24.81-6.26-15-6-23.94-16.83-26-33a65.9,65.9,0,0,1,1.16-25c3.62-13.93,12.17-23.85,25.06-30.09A71.53,71.53,0,0,1,698.94,522a104.15,104.15,0,0,1,16.28-.65,96,96,0,0,1,38.43,10,111.42,111.42,0,0,1,12.07,6.88c.9.58,1.15,1.06.62,2.11C762,548.92,757.75,557.49,753.33,566.32Z" transform="translate(-352 -414.95)"/><path class="cls-5" d="M489.67,693c.84-2.23,1.69-4.53,2.57-6.82q30.69-80.25,61.39-160.48c.08-.23.2-.44.29-.66.92-2.45.61-1.94,2.85-2,5.28,0,10.56,0,15.84,0,2.9,0,2.3-.47,3.36,2.3q13.57,35.42,27.1,70.85,18.12,47.38,36.26,94.77a4.09,4.09,0,0,1,.59,2.11c-.5.47-1.16.25-1.75.25q-15.23,0-30.46,0c-2.12,0-2.13,0-2.82-2-2.72-7.75-5.42-15.51-8.16-23.25-.77-2.18-.26-2-2.79-2.05H535.89c-2.51,0-2.07-.28-2.94,2.19q-4.16,11.73-8.21,23.49a2,2,0,0,1-2.17,1.62c-10.55-.05-21.1,0-31.66,0A1.42,1.42,0,0,1,489.67,693Zm75.41-115.15h-.41c-3.36,9.54-6.75,19.07-10.06,28.64s-6.78,18.94-9.92,28.57h40.45C578.41,615.83,571.75,596.82,565.08,577.81Z" transform="translate(-352 -414.95)"/><path class="cls-5" d="M1393.79,596.11c-.55,1.87-1,3.38-1.44,4.88q-13.89,45.06-27.79,90.12c-.68,2.22-.68,2.22-3.08,2.22H1346.6c-2.45,0-1.91.16-2.6-1.92q-6.52-19.65-13-39.32-3.26-9.89-6.53-19.77c-.16-.49-.09-1.15-.94-1.51-.87,2.61-1.75,5.19-2.6,7.79q-8.68,26.37-17.36,52.75c-.65,2-.66,2-2.8,2h-15.12c-2,0-2,0-2.59-1.92l-13.74-44.6q-7.57-24.59-15.16-49.18c-.11-.37-.21-.74-.32-1.13.6-.67,1.37-.38,2-.38q10.08,0,20.16,0c2.4,0,2.4,0,3,2.27q7.74,27,15.51,54.07a6.18,6.18,0,0,0,1.2,3c1-3,2-5.8,3-8.66q8.28-24.22,16.56-48.47c.9-2.63.5-2.19,3.16-2.21,3.35,0,6.71,0,10.07,0s2.59-.58,3.73,2.74q9.45,27.5,18.82,55c.15.45.34.88.51,1.32.79-.26.73-1,.88-1.46q7.95-27.6,15.86-55.22a13.38,13.38,0,0,0,.4-1.37,1.13,1.13,0,0,1,1.31-1.06C1377.88,596.12,1385.63,596.11,1393.79,596.11Z" transform="translate(-352 -414.95)"/><path class="cls-5" d="M969,655.55c.82,6.72,3.94,11.93,10.27,14.71,6.93,3,14,2.63,21,.15a34.34,34.34,0,0,0,9-5.06L1025.77,680c-.11.92-.84,1.23-1.37,1.67C1012,692,997.87,696.31,981.82,694.34a49.08,49.08,0,0,1-13-3.21c-12.09-5-19.2-14.15-22.2-26.7a51.25,51.25,0,0,1-1.39-11.64c0-6.71-.32-13.42.37-20.12a49.91,49.91,0,0,1,4.61-17,35,35,0,0,1,22.17-18.8,50.34,50.34,0,0,1,24.19-1.38c10.23,1.92,18,7.56,23.42,16.39a56.55,56.55,0,0,1,7.23,20.41,116.56,116.56,0,0,1,1.34,21c0,2,0,2-2.15,2H988.52c-5.68,0-11.36,0-17,0A6.11,6.11,0,0,0,969,655.55Zm17.87-17.61h17.25c.73,0,.94-.35.85-1.07-.47-4-1.25-7.88-3.35-11.38a14.42,14.42,0,0,0-10.73-7.22,22.93,22.93,0,0,0-6.67.11c-6.84,1-11.53,4.72-14,11.19a25.56,25.56,0,0,0-1.39,6.29c-.24,2-.19,2.07,2,2.08Z" transform="translate(-352 -414.95)"/><path class="cls-5" d="M1191,655.51c.68,7.77,5.84,15.42,17.08,16.62a30.45,30.45,0,0,0,21.91-5.9c.78-.56,1.29-.94,2.21-.1,5.16,4.67,10.38,9.26,15.54,13.85,0,.85-.65,1.13-1.12,1.52-12.33,10.34-26.45,14.76-42.51,12.88a49.19,49.19,0,0,1-13.22-3.23c-12.63-5.24-19.78-14.91-22.52-28.08a50.83,50.83,0,0,1-1.06-10.72c0-7.26-.39-14.54.57-21.78a46.62,46.62,0,0,1,5.33-16.79c6-10.76,15.53-16.43,27.46-18.37a49.93,49.93,0,0,1,18.6.18c11.21,2.42,19.17,9.09,24.38,19.16,3.68,7.12,5.43,14.79,6.33,22.7a141.32,141.32,0,0,1,.54,15.8c0,2.35,0,2.07-2.08,2.07q-27.35,0-54.7,0A7.88,7.88,0,0,0,1191,655.51Zm17.94-17.57c5.51,0,11,0,16.53,0,1.11,0,1.61-.22,1.44-1.46-.53-3.9-1.31-7.71-3.4-11.12a14.38,14.38,0,0,0-10.54-7.09,22.28,22.28,0,0,0-7.38.17,16.45,16.45,0,0,0-12.9,9.88,22,22,0,0,0-1.87,7.87c-.09,1.69-.09,1.72,1.6,1.72C1197.88,638,1203.39,637.94,1208.89,637.94Z" transform="translate(-352 -414.95)"/><path class="cls-5" d="M1030.24,596.11c8,0,15.93,0,23.84,0,1.23,0,1.64.5,2,1.54,1.7,5.32,3.48,10.61,5.22,15.91q6.77,20.58,13.51,41.15c.18.52.39,1,.59,1.58.93-.37.84-1.3,1.07-2q9.24-27.93,18.41-55.9c.74-2.26.74-2.26,3.07-2.26h20.63c.77,0,1.55.07,2.35.1a4.83,4.83,0,0,1-.67,2.61q-17.27,46-34.58,92c-.17.45-.36.89-.5,1.34a1.41,1.41,0,0,1-1.55,1.14c-5.36,0-10.71-.06-16.07,0-1.24,0-1.41-.75-1.71-1.57l-8.58-22.85q-13.27-35.27-26.52-70.55A3.41,3.41,0,0,1,1030.24,596.11Z" transform="translate(-352 -414.95)"/><path class="cls-5" d="M1127.57,644.81v-46c0-.56,0-1.12,0-1.68,0-.74.34-1,1-1h23c1.72,0,1.72,0,1.76,1.69,0,.4,0,.8,0,1.2v91.32c0,.4,0,.8,0,1.2,0,1.78,0,1.8-1.85,1.81h-22.06c-1.86,0-1.88,0-1.88-2Z" transform="translate(-352 -414.95)"/><path class="cls-5" d="M1140.3,582.88c-3.67,0-7.35,0-11,0-1.67,0-1.7,0-1.71-1.73q0-11.14,0-22.28c0-1.73,0-1.77,1.67-1.77,7.51,0,15,0,22.53,0,1.27,0,1.63.41,1.62,1.64-.05,7.51,0,15,0,22.52,0,1.61,0,1.64-1.79,1.65Z" transform="translate(-352 -414.95)"/><path class="cls-5" d="M1650.33,642.66c11.13,2.48,15.55,11,15.64,19.71a73.15,73.15,0,0,1-.35,12.2c-1.5,9.67-7.92,16.35-17.51,18.2a44.18,44.18,0,0,1-8.35.61c-9.68,0-19.35,0-29,0-.48,0-1,0-1.44,0a.78.78,0,0,1-.87-.88c0-.56,0-1.12,0-1.68V597.33a7.69,7.69,0,0,0,0-1c-.19-1.28.41-1.63,1.63-1.62,10.87.07,21.74.06,32.61.13a24.69,24.69,0,0,1,8.65,1.73,19.35,19.35,0,0,1,12.8,15.21,46.34,46.34,0,0,1,.31,15.27c-1,7.15-5.09,12.07-12,14.54-.6.21-1.19.42-1.79.65C1650.58,642.3,1650.55,642.39,1650.33,642.66Zm-26.69,21.7c0,4.31,0,8.62,0,12.92,0,1.13.36,1.53,1.52,1.52,4.87-.06,9.74,0,14.61-.06a15.61,15.61,0,0,0,3.77-.6,8.94,8.94,0,0,0,7.06-8.6,84.87,84.87,0,0,0,0-9.57q-.58-9.15-9.8-10c-5.09-.5-10.21-.12-15.32-.18-1.76,0-1.79,0-1.8,1.92C1623.62,655.9,1623.64,660.13,1623.64,664.36Zm0-42.1c0,3.83,0,7.66,0,11.49,0,.93.17,1.48,1.29,1.47,5.19-.05,10.39.11,15.57-.08,5-.19,8.22-3.43,8.78-8.44a52.57,52.57,0,0,0,.12-8.13c-.24-5.19-2.79-8-7.94-8.93a16.28,16.28,0,0,0-2.61-.28q-6.71,0-13.4,0c-1.76,0-1.79,0-1.8,1.9C1623.62,614.92,1623.64,618.59,1623.64,622.26Z" transform="translate(-352 -414.95)"/><path class="cls-5" d="M1592.54,693.32c-5.18,0-10.12,0-15.07,0-1,0-1.12-.62-1.31-1.36q-2-7.53-4-15c-.55-2.05-.56-2.06-2.7-2.06h-24.23c-2.22,0-2.23,0-2.82,2.24-1.32,4.93-2.66,9.86-3.93,14.81-.23.87-.47,1.41-1.52,1.41-4.87,0-9.74,0-14.58,0a2.93,2.93,0,0,1,.28-2.18q14.08-47.14,28.21-94.27c.7-2.3.28-2.09,2.7-2.11s5,0,7.44,0,2.08-.15,2.74,2.06c2.84,9.39,5.63,18.81,8.44,28.21q9.9,33,19.78,66.05C1592.13,691.7,1592.28,692.32,1592.54,693.32Zm-35-71.35-.45,0L1547,660h20.68C1564.24,647.22,1560.89,634.6,1557.53,622Z" transform="translate(-352 -414.95)"/><path class="cls-5" d="M1458.2,644V597.69c0-.64,0-1.28,0-1.92s.34-1,1-1h13.19c.85,0,1.09.45,1.06,1.22s0,1.27,0,1.91v77.45c0,3.1,0,3.1,3.21,3.1h30.94c.56,0,1.13,0,1.68,0,.84,0,1.13.37,1.12,1.16,0,1.76,0,3.51,0,5.27,0,2.4,0,4.8,0,7.19,0,.95-.36,1.31-1.27,1.25-.48,0-1,0-1.44,0h-47.5c-2.25,0-2,0-2-2.13Z" transform="translate(-352 -414.95)"/><path class="cls-3" d="M884.89,1133.8c5.67,0,11.35.14,17,0,11.59-.33,16.34,7.12,17.68,14.94a26,26,0,0,1-2.12,16.35c-2.89,5.76-7.6,8.71-14,8.73-12.63.06-25.25,0-37.88,0-2,0-2,.25-2-2.11q0-18,0-36c0-2.13-.06-2,2-2Z" transform="translate(-352 -414.95)"/><path class="cls-3" d="M599.19,1157.71c6.67,19,13.33,38,20.06,57.21H578.8c3.14-9.62,6.63-19.06,9.92-28.57s6.7-19.09,10.06-28.64Z" transform="translate(-352 -414.95)"/><path class="cls-3" d="M1020.93,1217.84h-16.06c-2.18,0-2.23,0-2-2.07a25.56,25.56,0,0,1,1.39-6.29c2.48-6.47,7.17-10.17,14-11.19a22.59,22.59,0,0,1,6.67-.11,14.39,14.39,0,0,1,10.73,7.22c2.1,3.5,2.87,7.4,3.35,11.38.09.72-.12,1.06-.85,1.06h-17.25Z" transform="translate(-352 -414.95)"/><path class="cls-3" d="M1243,1217.84c-5.5,0-11,0-16.52,0-1.69,0-1.69,0-1.6-1.73a22,22,0,0,1,1.87-7.86,16.42,16.42,0,0,1,12.9-9.88,22.55,22.55,0,0,1,7.38-.18,14.43,14.43,0,0,1,10.54,7.1c2.09,3.4,2.87,7.22,3.4,11.11.17,1.24-.33,1.48-1.44,1.47C1254,1217.81,1248.51,1217.84,1243,1217.84Z" transform="translate(-352 -414.95)"/><path class="cls-4" d="M1623.64,664.36c0-4.23,0-8.46,0-12.69,0-1.88,0-1.94,1.8-1.92,5.11.06,10.23-.32,15.32.18q9.23.9,9.8,10a84.87,84.87,0,0,1,0,9.57,8.94,8.94,0,0,1-7.06,8.6,15.61,15.61,0,0,1-3.77.6c-4.87.07-9.74,0-14.61.06-1.16,0-1.53-.39-1.52-1.52C1623.66,673,1623.64,668.67,1623.64,664.36Z" transform="translate(-352 -414.95)"/><path class="cls-4" d="M1623.64,622.26c0-3.67,0-7.34,0-11,0-1.86,0-1.89,1.8-1.9q6.69,0,13.4,0a16.28,16.28,0,0,1,2.61.28c5.15.93,7.7,3.74,7.94,8.93a52.57,52.57,0,0,1-.12,8.13c-.56,5-3.77,8.25-8.78,8.44-5.18.19-10.38,0-15.57.08-1.12,0-1.3-.54-1.29-1.47C1623.65,629.92,1623.64,626.09,1623.64,622.26Z" transform="translate(-352 -414.95)"/><path class="cls-4" d="M1557.53,622c3.36,12.63,6.71,25.25,10.11,38H1547l10.12-38Z" transform="translate(-352 -414.95)"/></g><text x="-352" y="-414.95"/><rect id="_Slice_" data-name="&lt;Slice&gt;" class="cls-1" x="1044" y="81.05" width="306" height="271"/><rect id="_Slice_2" data-name="&lt;Slice&gt;" class="cls-1" x="134" y="81.05" width="910" height="272"/></svg>