<svg xmlns="http://www.w3.org/2000/svg" viewBox="0 0 80 80"><defs><style>.a{fill:#cdcccc;}.b,.d,.l{fill:#fff;}.c{fill:#4e4d4d;}.d,.f{stroke:#4e4d4d;stroke-width:2.44px;}.d,.e,.f{stroke-miterlimit:10;}.e{fill:#010101;stroke:#010101;stroke-width:0.97px;}.f,.n{fill:none;}.g{fill:#ffcc07;}.h{fill:#f39323;}.i{fill:#ce7b1a;}.j{fill:#f6a545;}.k{fill:#808181;stroke:#808181;stroke-width:0.5px;}.k,.n{stroke-miterlimit:10;}.l,.n{stroke:#4f4e4e;}.l{stroke-miterlimit:10;stroke-width:2.53px;}.m{fill:#cecccc;}.n{stroke-width:2.53px;}</style></defs><ellipse class="a" cx="42.6" cy="71.5" rx="23.5" ry="4.8"/><path class="b" d="M49.1,16.9a17.2,17.2,0,0,0-11.2.2,22.7,22.7,0,0,0-9.1,6,26.4,26.4,0,0,0-6.2,24.1,23.5,23.5,0,0,0,8.8,13.1,19.2,19.2,0,0,0,15.9,3A20,20,0,0,0,57,56.4a25.9,25.9,0,0,0,4.9-21.5c-1.7-7.4-6.1-15.6-12.8-18"/><path class="c" d="M49.4,15.5c-10.2-3.4-20.6,3.1-25.5,11.9a27.3,27.3,0,0,0,.3,27.1c5,8.3,15.6,13.4,25,9.7s14.7-14,14.7-23.6A32,32,0,0,0,60,25.5c-2.4-4.3-5.8-8.3-10.5-10-1.8-.6-2.5,2.2-.8,2.9,3.5,1.2,6.1,4.2,8,7.3a31.2,31.2,0,0,1,4.1,11.4c1.2,8.5-2.4,18-9.6,22.8s-17.3,2.2-22.8-4.4S22,39.7,25,31.9,38.6,15,48.7,18.3c1.8.6,2.5-2.2.7-2.8Z"/><ellipse class="d" cx="49.9" cy="67.9" rx="7.3" ry="4.3"/><path class="b" d="M65.7,5.9a9.5,9.5,0,0,0-5.6-2.2,20.3,20.3,0,0,0-6.6.9c-5,1.7-7.5,7.6-8.6,11.1v.2h0c2.1-1.9,5.3-4.3,8.2-4.5s4.4.1,6.6.1,4.6-.4,6-1.6A2.6,2.6,0,0,0,65.7,5.9Z"/><path class="c" d="M66.7,4.9c-2-2-5.1-2.7-7.8-2.6a15.1,15.1,0,0,0-8.4,2.2,15.5,15.5,0,0,0-4.6,5.3c-.6,1-1,2-1.5,3a8.5,8.5,0,0,1-.9,2.4,1.4,1.4,0,0,0,.3,1.8h0a1.5,1.5,0,0,0,2.1,0,15.8,15.8,0,0,1,6-3.8c2.6-.8,5.6-.1,8.2-.2s5-.4,6.7-2.1a4.2,4.2,0,0,0-.1-6c-1.2-1.4-3.3.6-2,2s-.9,2.6-2.2,2.9-4.8.3-7.2.2a12.9,12.9,0,0,0-6.4,1.3,22.4,22.4,0,0,0-5.1,3.6h2l.3,1.8a8.3,8.3,0,0,0,.8-2.2A25.6,25.6,0,0,1,48,12.1a13.8,13.8,0,0,1,3.4-4.6,11,11,0,0,1,6.3-2.3c2.3-.2,5.2,0,7,1.7S68.1,6.2,66.7,4.9Z"/><path class="a" d="M64.8,4.6a4.4,4.4,0,0,1-.7,1.9C63,7.9,60.8,8.7,58.8,9.1a61.7,61.7,0,0,0-6.2.9,8.1,8.1,0,0,0-2.7,1.5,3.5,3.5,0,0,1,.7.9,6.6,6.6,0,0,1,2.5-1c2.1-.3,4.2-.1,6.3-.3s4.3-.7,5.5-2A3.3,3.3,0,0,0,64.8,4.6Z"/><path class="a" d="M62.4,34.9c-1.6-7.4-6-15.6-12.7-18h-.1a16.3,16.3,0,0,0-6.2-.8l1.3.2a17,17,0,0,1,9.7,5.5h0c4.7,5.4,4.3,14.7,2,22a26,26,0,0,1-15,16.1,21.9,21.9,0,0,1-7.6,1.5,18.8,18.8,0,0,0,14.1,1.9,19.7,19.7,0,0,0,9.6-6.9A25.5,25.5,0,0,0,62.4,34.9Z"/><path class="c" d="M49.4,15.5c-10.2-3.4-20.6,3.1-25.5,11.9a27.3,27.3,0,0,0,.3,27.1c5,8.3,15.6,13.4,25,9.7s14.7-14,14.7-23.6A32,32,0,0,0,60,25.5c-2.4-4.3-5.8-8.3-10.5-10-1.8-.6-2.5,2.2-.8,2.9,3.5,1.2,6.1,4.2,8,7.3a31.2,31.2,0,0,1,4.1,11.4c1.2,8.5-2.4,18-9.6,22.8s-17.3,2.2-22.8-4.4S22,39.7,25,31.9,38.6,15,48.7,18.3c1.8.6,2.5-2.2.7-2.8Z"/><rect class="e" x="30.8" y="30.6" width="22.8" height="10.57" rx="1.9"/><path class="a" d="M55.7,67.5A7.4,7.4,0,0,0,51,63.3h-.1l-2.5-.7h.5a15.7,15.7,0,0,1,3.9,1.8h0c1.7,1.4,1.3,3,0,4s-3.7,1.7-6.8,1.6a18.6,18.6,0,0,1-3.3-.4,16.6,16.6,0,0,0,5.9,1.5,9.7,9.7,0,0,0,4.3-.4C55.1,70.2,56.1,68.9,55.7,67.5Z"/><ellipse class="f" cx="49.6" cy="67.8" rx="7.3" ry="4.3"/><ellipse class="d" cx="34.9" cy="67.9" rx="7.3" ry="4.3"/><path class="a" d="M41,67.8c-.4-1.5-2-3.3-4.7-4.3h0l-2.6-.7.5.2a11.8,11.8,0,0,1,3.9,1.8h0c1.8,1.3,1.3,2.9.1,4s-3.8,1.6-6.9,1.5L28.1,70a21.5,21.5,0,0,0,5.8,1.5,13.7,13.7,0,0,0,4.3-.4C40.4,70.4,41.5,69.2,41,67.8Z"/><ellipse class="f" cx="34.6" cy="67.8" rx="7.3" ry="4.3"/><path class="c" d="M66.7,4.9c-2-2-5.1-2.7-7.8-2.6a15.1,15.1,0,0,0-8.4,2.2,15.5,15.5,0,0,0-4.6,5.3c-.6,1-1,2-1.5,3a8.5,8.5,0,0,1-.9,2.4,1.4,1.4,0,0,0,.3,1.8h0a1.5,1.5,0,0,0,2.1,0,15.8,15.8,0,0,1,6-3.8c2.6-.8,5.6-.1,8.2-.2s5-.4,6.7-2.1a4.2,4.2,0,0,0-.1-6c-1.2-1.4-3.3.6-2,2s-.9,2.6-2.2,2.9-4.8.3-7.2.2a12.9,12.9,0,0,0-6.4,1.3,22.4,22.4,0,0,0-5.1,3.6h2l.3,1.8a8.3,8.3,0,0,0,.8-2.2A25.6,25.6,0,0,1,48,12.1a13.8,13.8,0,0,1,3.4-4.6,11,11,0,0,1,6.3-2.3c2.3-.2,5.2,0,7,1.7S68.1,6.2,66.7,4.9Z"/><circle class="g" cx="39.3" cy="36.4" r="0.9"/><circle class="g" cx="33.7" cy="36.4" r="0.9"/><circle class="g" cx="35.4" cy="34.5" r="0.9"/><circle class="g" cx="37.7" cy="34.5" r="0.9"/><circle class="g" cx="50.6" cy="36.4" r="0.9"/><circle class="g" cx="45" cy="36.4" r="0.9"/><circle class="g" cx="46.7" cy="34.5" r="0.9"/><circle class="g" cx="48.9" cy="34.5" r="0.9"/><path class="h" d="M62.7,27.5c.2-8.4-7.4-15.8-17.4-16.6S26.7,16.2,25.5,24.6Z"/><path class="i" d="M47.4,11.2a14.2,14.2,0,0,1,3,2.5,20.3,20.3,0,0,1,6,13.3l6.3.5C62.9,19.7,56.3,12.8,47.4,11.2Z"/><path class="i" d="M47.7,10.9l-.6-.2c-.6,3.7-2.6,9.3-2.3,13.5C45,22,47,13,48.5,11.5Z"/><path class="j" d="M44.7,10.7c.4-.5,3.2-.2,3,.3-1.9,3.7-2.6,10.2-2.3,14.4l-4.7-.2C41.2,16.1,43.8,12.3,44.7,10.7Z"/><rect class="h" x="21.1" y="24.8" width="44.6" height="4.23" rx="2.1" transform="translate(2.3 -3.3) rotate(4.5)"/><path class="i" d="M63.7,29.6,23.2,27.2A2.2,2.2,0,0,1,21.3,26a1.9,1.9,0,0,0,1.8,1.4l40.2,3.2a2.2,2.2,0,0,0,2.3-1.7A2.3,2.3,0,0,1,63.7,29.6Z"/><path class="k" d="M19.4,30.5c-.2-.2-.5-.1-.5.1l-.4,1.3c0,.1-.2.2-.4.2L16,31.5c-.2,0-.3-.2-.2-.4l.3-1.2c.1-.3-.1-.5-.4-.5A2.4,2.4,0,0,0,13.8,31a2.5,2.5,0,0,0,1.3,2.7l-.2.4L11.7,45.7a2.4,2.4,0,0,0-2.4,1.6,2.4,2.4,0,0,0,.4,2,.3.3,0,0,0,.6-.2l.4-1.3c0-.2.2-.3.4-.2l3,.8c.1,0,.2.2.2.4l-.4,1.3c-.1.3.2.5.5.4a2,2,0,0,0,1.4-1.4,2.8,2.8,0,0,0-1.3-2.7l3.2-11.5v-.4a2.7,2.7,0,0,0,2.6-1.7A2.4,2.4,0,0,0,19.4,30.5Z"/><path class="h" d="M34.8,63.8h4.1a2.1,2.1,0,0,0,2.2-2.1V58.6c-10.2-.1-15.3-2.4-17.9-3.7A12.2,12.2,0,0,0,34.8,63.8Z"/><path class="h" d="M32.5,43.4h-.1c-.8,0-6.8-.7-6.8.1l2.2,5c0,.8,1,1.9.1,1.9l-4.4.5c4.9,1.8,12.6,2.1,17.7,1.5h0A8.8,8.8,0,0,0,32.5,43.4Z"/><path class="j" d="M23.2,50.9a.5.5,0,0,0-.4.5h0a13.4,13.4,0,0,0,.4,3.5c2.6,1.3,7.7,3.6,17.9,3.7V52.4c-5.1.6-12.8.3-17.7-1.5Z"/><path class="h" d="M51,43.1h1.2l6.2.3-4.8,5.5a1.6,1.6,0,0,0,1.6,1.7l6.1.2a.5.5,0,0,1,.5.4h0A12.4,12.4,0,0,1,49.9,63.9h-4a2.2,2.2,0,0,1-2.2-2.1V51A7.7,7.7,0,0,1,51,43.1Z"/><path class="j" d="M61.8,51.2h0c-5.1,1.6-12.9,1.9-18.2,1.3v6.2c9.2,0,14.4-1.7,17.3-3A13.3,13.3,0,0,0,61.8,51.2Z"/><ellipse class="l" cx="21.8" cy="44.7" rx="4.1" ry="8.4" transform="translate(-25.1 28.1) rotate(-44.5)"/><path class="m" d="M27.2,50.5a11.8,11.8,0,0,1-7-1.9h0l-2.5-1.8.5.4a26.4,26.4,0,0,0,4.4,2.3h0c2.4.8,3.4-.2,3.4-1.6s-1.5-3.6-3.9-6l-2.8-2.4A31.9,31.9,0,0,1,25,43.4,19.9,19.9,0,0,1,27.9,47C29,48.9,28.8,50.3,27.2,50.5Z"/><ellipse class="n" cx="21.7" cy="44.7" rx="4.1" ry="8.4" transform="translate(-25.7 29.9) rotate(-46.8)"/><ellipse class="l" cx="56" cy="51.1" rx="8.4" ry="4.1" transform="translate(-19.3 60.1) rotate(-49.2)"/><path class="m" d="M50.7,57c-.4-1.5-.2-4.1,1.3-7.2h0l1.6-2.6-.4.6a22.5,22.5,0,0,0-1.9,4.5h0c-.6,2.5.5,3.4,1.9,3.3s3.5-1.8,5.6-4.4a20.2,20.2,0,0,0,2.1-3,27.3,27.3,0,0,1-3.4,6,16.2,16.2,0,0,1-3.2,3.2C52.4,58.7,51,58.6,50.7,57Z"/><ellipse class="n" cx="56" cy="51.1" rx="8.4" ry="4.1" transform="translate(-18.8 63.1) rotate(-51.5)"/></svg>