<svg xmlns="http://www.w3.org/2000/svg" viewBox="0 0 391.8 189.9"><defs><style>.a{fill:#cccbcb;}.b{fill:#ffcb00;}.c{fill:#fff;}</style></defs><rect class="a" x="3.3" y="6.2" width="388.5" height="183.75" rx="54.7"/><rect class="b" width="388.5" height="183.75" rx="54.7"/><path class="c" d="M471.1,745.4H460.2V689.6h10.9Z" transform="translate(-429.3 -631.3)"/><path class="c" d="M481.9,705.5h11.2v39.9H481.9Zm20.5,10a7.1,7.1,0,0,0-2.6-.4,6.2,6.2,0,0,0-4.9,2,8.5,8.5,0,0,0-1.8,5.7l-.8-10.3a14.5,14.5,0,0,1,4.3-5.6,9.6,9.6,0,0,1,5.8-1.9,13.3,13.3,0,0,1,4.5.7,10.4,10.4,0,0,1,3.5,2.4l-6.1,8.5A5.2,5.2,0,0,0,502.4,715.5Z" transform="translate(-429.3 -631.3)"/><path class="c" d="M515.4,705.5h11.3v39.9H515.4Zm20.5,10a6.8,6.8,0,0,0-2.6-.4,6.3,6.3,0,0,0-4.9,2,8.4,8.4,0,0,0-1.7,5.7l-.9-10.3a15.5,15.5,0,0,1,4.3-5.6,9.6,9.6,0,0,1,5.8-1.9,12.5,12.5,0,0,1,4.5.7,10.4,10.4,0,0,1,3.5,2.4l-6.1,8.5A4.5,4.5,0,0,0,535.9,715.5Z" transform="translate(-429.3 -631.3)"/><path class="c" d="M555.4,743.8a14.3,14.3,0,0,1-6.3-6.1,20.3,20.3,0,0,1-2.1-9.6v-4.5a23.9,23.9,0,0,1,2-10.1,14.1,14.1,0,0,1,6-6.3,18.8,18.8,0,0,1,9.5-2.2,14.4,14.4,0,0,1,8.9,2.6,15.7,15.7,0,0,1,5.7,7.5,33.6,33.6,0,0,1,1.9,12v2.6H553.8v-7.1h17.6v-.9a8.9,8.9,0,0,0-2.1-5.3,6,6,0,0,0-4.7-1.9,7.8,7.8,0,0,0-5.9,2.3,9,9,0,0,0-2.1,6.4v5c0,2.8.8,4.9,2.3,6.3a8.8,8.8,0,0,0,6.4,2.3,12.5,12.5,0,0,0,4.2-.8,12.3,12.3,0,0,0,3.7-2.1L580,740a24.3,24.3,0,0,1-7,4.4,21.6,21.6,0,0,1-7.8,1.5A21.2,21.2,0,0,1,555.4,743.8Z" transform="translate(-429.3 -631.3)"/><path class="c" d="M600.8,732.2a2.6,2.6,0,0,0,.8,2.2,2.8,2.8,0,0,0,2.3.8h1.8v10.2h-5.4a9.9,9.9,0,0,1-7.4-2.8c-1.8-1.9-2.7-4.4-2.7-7.8V689.6h10.6Z" transform="translate(-429.3 -631.3)"/><path class="c" d="M620.2,743.8a14.1,14.1,0,0,1-6.2-6.1,20.3,20.3,0,0,1-2.2-9.6v-4.5a22.5,22.5,0,0,1,2.1-10.1,14.1,14.1,0,0,1,6-6.3,18.8,18.8,0,0,1,9.5-2.2,14.8,14.8,0,0,1,8.9,2.6,15.7,15.7,0,0,1,5.7,7.5,36,36,0,0,1,1.9,12v2.6H618.7v-7.1h17.6v-.9a8.9,8.9,0,0,0-2.2-5.3,5.8,5.8,0,0,0-4.6-1.9,7.6,7.6,0,0,0-5.9,2.3,9,9,0,0,0-2.1,6.4v5c0,2.8.7,4.9,2.3,6.3a8.6,8.6,0,0,0,6.4,2.3,11.5,11.5,0,0,0,4.1-.8,12.8,12.8,0,0,0,3.8-2.1l6.9,6.1a24.3,24.3,0,0,1-7,4.4,21.6,21.6,0,0,1-7.8,1.5A21.3,21.3,0,0,1,620.2,743.8Z" transform="translate(-429.3 -631.3)"/><path class="c" d="M676.2,705.5h10.5l-15,39.9h-7.4l-15-39.9h10.5l8.2,25Z" transform="translate(-429.3 -631.3)"/><path class="c" d="M694.1,742.9c-2.1-2.1-3.2-5.1-3.2-9.3s1.2-6.9,3.6-8.8,5.9-3,10.6-3h10l.5,8H705.2a5.3,5.3,0,0,0-3.6,1,3.2,3.2,0,0,0-1.2,2.8,3.2,3.2,0,0,0,1.5,2.9,8.9,8.9,0,0,0,4.5.9,16.8,16.8,0,0,0,6.3-.9,3,3,0,0,0,2-3l.8,5.8a5.4,5.4,0,0,1-1.9,3.6,12.3,12.3,0,0,1-4.4,2.3,20.2,20.2,0,0,1-5.5.7Q697.3,745.9,694.1,742.9Zm20.6-22.8a5.2,5.2,0,0,0-1.8-4.2,8.1,8.1,0,0,0-5.2-1.5,13.1,13.1,0,0,0-4.4.7,14.3,14.3,0,0,0-3.9,2l-6.5-6.4a15.9,15.9,0,0,1,6.3-4.2,23.9,23.9,0,0,1,8.6-1.5,19.9,19.9,0,0,1,8.9,1.7,12.9,12.9,0,0,1,5.7,5.1,16.3,16.3,0,0,1,1.9,8v25.6h-9.6Z" transform="translate(-429.3 -631.3)"/><path class="c" d="M734.6,705.5h10.6v39.9H734.6Zm23.1,15.7a6.1,6.1,0,0,0-1.7-4.5,6.4,6.4,0,0,0-4.7-1.6,6.1,6.1,0,0,0-4.6,1.6,6.5,6.5,0,0,0-1.5,4.6l-.9-8.8a16.6,16.6,0,0,1,4.4-5.7A10.2,10.2,0,0,1,755,705c4.2,0,7.4,1.4,9.7,4.2s3.5,6.8,3.5,12v24.2H757.7Z" transform="translate(-429.3 -631.3)"/><path class="c" d="M775.5,705.5h19.4v9H775.5Zm6.5,37.4c-1.6-1.8-2.4-4.4-2.4-7.9V694h10.5v38.4a4.2,4.2,0,0,0,.5,2.2,1.9,1.9,0,0,0,1.7.8h2.6v10.1h-5.3C786.2,745.5,783.6,744.7,782,742.9Z" transform="translate(-429.3 -631.3)"/></svg>