<svg xmlns="http://www.w3.org/2000/svg" viewBox="0 0 391.8 189.9"><defs><style>.a{fill:#cccbcb;}.b{fill:#ffcb00;}.c{fill:#fff;}</style></defs><rect class="a" x="3.3" y="6.2" width="388.5" height="183.75" rx="54.7"/><rect class="b" width="388.5" height="183.75" rx="54.7"/><path class="c" d="M67.3,692.6H77.8v55.8H67.3Zm4.2,23.3H90.9a5.4,5.4,0,0,0,2.8-.8,6.2,6.2,0,0,0,1.9-2.3,9.5,9.5,0,0,0,.7-3.5,7.4,7.4,0,0,0-.7-3.4,4.3,4.3,0,0,0-1.9-2.3,4.4,4.4,0,0,0-2.8-.8H71.5V692.6H91.7a15.3,15.3,0,0,1,8.1,2.1,14.1,14.1,0,0,1,5.4,5.9,18.6,18.6,0,0,1,1.9,8.7,19,19,0,0,1-1.9,8.8,14.4,14.4,0,0,1-5.4,5.8,15.8,15.8,0,0,1-8.1,2.1H71.5Zm11.7,8.4,11.2-1.8,15.1,25.9H96.7Z" transform="translate(-16.4 -634.3)"/><path class="c" d="M123.4,746.9a14.1,14.1,0,0,1-6.2-6.1,19.2,19.2,0,0,1-2.2-9.6v-4.5a22.5,22.5,0,0,1,2.1-10.1,13.8,13.8,0,0,1,6-6.4,19.5,19.5,0,0,1,9.4-2.2,15,15,0,0,1,14.6,10.2,32.7,32.7,0,0,1,2,12v2.6H121.8v-7.1h17.7v-.9a8.9,8.9,0,0,0-2.2-5.3,6,6,0,0,0-4.7-1.9,7.5,7.5,0,0,0-5.8,2.3,9,9,0,0,0-2.1,6.4v5c0,2.7.7,4.8,2.3,6.3a8.5,8.5,0,0,0,6.3,2.2,12.3,12.3,0,0,0,4.2-.7,12.8,12.8,0,0,0,3.8-2.1l6.8,6.1a23.8,23.8,0,0,1-6.9,4.4,21.7,21.7,0,0,1-7.9,1.5A21.2,21.2,0,0,1,123.4,746.9Z" transform="translate(-16.4 -634.3)"/><path class="c" d="M168.8,735.3a2.9,2.9,0,0,0,.8,2.2,3.6,3.6,0,0,0,2.4.8h1.7v10.1h-5.3a10.1,10.1,0,0,1-7.5-2.7,11.3,11.3,0,0,1-2.6-7.8V692.7h10.5Z" transform="translate(-16.4 -634.3)"/><path class="c" d="M188.3,746.9a14.3,14.3,0,0,1-6.3-6.1,20.3,20.3,0,0,1-2.1-9.6v-4.5a23.9,23.9,0,0,1,2-10.1,14.9,14.9,0,0,1,6-6.4,19.9,19.9,0,0,1,9.5-2.2,14.5,14.5,0,0,1,8.9,2.7,15.7,15.7,0,0,1,5.7,7.5,32.8,32.8,0,0,1,1.9,12v2.6H186.7v-7.1h17.6v-.9a8.9,8.9,0,0,0-2.1-5.3,6.1,6.1,0,0,0-4.7-1.9,7.8,7.8,0,0,0-5.9,2.3,9,9,0,0,0-2.1,6.4v5a8.5,8.5,0,0,0,2.3,6.3,8.7,8.7,0,0,0,6.4,2.2A12.2,12.2,0,0,0,206,737l6.9,6.1a24.3,24.3,0,0,1-7,4.4,21.6,21.6,0,0,1-7.8,1.5A21.2,21.2,0,0,1,188.3,746.9Z" transform="translate(-16.4 -634.3)"/><path class="c" d="M244.3,708.6h10.4l-14.9,39.8h-7.5l-14.9-39.8h10.5l8.2,25Z" transform="translate(-16.4 -634.3)"/><path class="c" d="M262.1,746c-2.1-2.1-3.1-5.2-3.1-9.3s1.1-6.9,3.5-8.9,5.9-2.9,10.7-2.9h9.9l.6,8H273.2a6,6,0,0,0-3.6.9,3.6,3.6,0,0,0-1.2,2.9,3.2,3.2,0,0,0,1.5,2.9,9.1,9.1,0,0,0,4.6.9,15.9,15.9,0,0,0,6.2-.9,3.3,3.3,0,0,0,2.1-3l.8,5.8a5.5,5.5,0,0,1-2,3.6,11.5,11.5,0,0,1-4.4,2.3,19.7,19.7,0,0,1-5.5.7Q265.3,749,262.1,746Zm20.7-22.8a5.1,5.1,0,0,0-1.9-4.3,7.9,7.9,0,0,0-5.2-1.5,13.6,13.6,0,0,0-4.4.8,14.4,14.4,0,0,0-3.9,2l-6.5-6.4a15.9,15.9,0,0,1,6.3-4.2,24.1,24.1,0,0,1,8.7-1.6,20.2,20.2,0,0,1,8.9,1.8,12.6,12.6,0,0,1,5.6,5.1,15.3,15.3,0,0,1,1.9,8v25.5h-9.5Z" transform="translate(-16.4 -634.3)"/><path class="c" d="M302.7,708.6h10.5v39.8H302.7Zm23,15.7a6.1,6.1,0,0,0-1.7-4.5,6.4,6.4,0,0,0-4.7-1.6,5.9,5.9,0,0,0-4.5,1.6,6.1,6.1,0,0,0-1.6,4.6l-.8-8.8a15.3,15.3,0,0,1,4.3-5.7A10.7,10.7,0,0,1,323,708a12.1,12.1,0,0,1,9.8,4.3c2.3,2.8,3.4,6.8,3.4,12v24.1H325.7Z" transform="translate(-16.4 -634.3)"/><path class="c" d="M343.5,708.6H363v9H343.5ZM350,746c-1.6-1.8-2.4-4.4-2.4-7.9V697h10.5v38.5a3.6,3.6,0,0,0,.6,2.2,2,2,0,0,0,1.7.8H363v10.1h-5.3C354.2,748.6,351.7,747.7,350,746Z" transform="translate(-16.4 -634.3)"/></svg>