<svg xmlns="http://www.w3.org/2000/svg" viewBox="0 0 40 40"><defs><style>.a,.c,.e,.f,.l{fill:none;}.a,.c{stroke:#1d1d1b;stroke-linecap:round;}.a,.c,.d,.e,.f,.i,.k,.l{stroke-miterlimit:10;}.a{stroke-width:1.1px;}.b{fill:#cdcccc;}.c{stroke-width:1.11px;}.d,.g,.k{fill:#fff;}.d,.e,.f,.k,.l{stroke:#4e4d4d;}.d,.f{stroke-width:1.21px;}.e{stroke-width:1.21px;}.h{fill:#4e4d4d;}.i{fill:#010101;stroke:#010101;stroke-width:0.48px;}.j{fill:#ffcc07;}.k,.l{stroke-width:1.34px;}.m{fill:#1d1d1b;}</style></defs><line class="a" x1="32.1" y1="18.9" x2="37.4" y2="4.4"/><ellipse class="b" cx="19.3" cy="35.8" rx="11.8" ry="2.4"/><line class="c" x1="8.1" y1="18.1" x2="3.2" y2="5.1"/><ellipse class="d" cx="15.7" cy="34" rx="3.6" ry="2.2" transform="translate(-8.1 5.1) rotate(-14.7)"/><path class="b" d="M12.7,35.4a3.4,3.4,0,0,1,1.1-3h0l1-.9-.2.2a4.1,4.1,0,0,0-1.3,1.7h0c-.5,1,.1,1.6.9,1.9a5,5,0,0,0,3.5-.7l1.4-.8a8.7,8.7,0,0,1-2.3,1.9,4.4,4.4,0,0,1-2,.7C13.6,36.6,12.8,36.2,12.7,35.4Z"/><ellipse class="e" cx="15.7" cy="34" rx="3.6" ry="2.2" transform="translate(-8.1 5.1) rotate(-14.7)"/><ellipse class="d" cx="23.1" cy="34.1" rx="2.2" ry="3.6" transform="translate(-13.5 52.9) rotate(-83.1)"/><path class="b" d="M26.4,34.4a3.9,3.9,0,0,0-2-2.4h-.1l-1.2-.4h.3a6.1,6.1,0,0,1,1.8,1.1h0a1.1,1.1,0,0,1-.2,1.9,5.3,5.3,0,0,1-3.5.4l-1.6-.4a8.6,8.6,0,0,0,2.8,1.1,5.2,5.2,0,0,0,2.1.1C26,35.7,26.6,35.1,26.4,34.4Z"/><ellipse class="f" cx="23" cy="34" rx="2.2" ry="3.6" transform="translate(-13.5 52.7) rotate(-83.1)"/><path class="g" d="M22.8,8.7a8,8,0,0,0-5.5,0,11.5,11.5,0,0,0-4.5,3,13.1,13.1,0,0,0-3,12,10.9,10.9,0,0,0,4.3,6.4A9.3,9.3,0,0,0,22,31.6a9.5,9.5,0,0,0,4.8-3.4,13,13,0,0,0,2.4-10.6c-.8-3.7-3-7.8-6.3-8.9"/><path class="h" d="M23,8c-5-1.6-10.1,1.4-12.6,5.8a13.4,13.4,0,0,0,.3,13.8c2.6,4,7.9,6.3,12.5,4.4s6.9-6.9,7-11.5S27.7,9.7,23.1,8c-.9-.3-1.3,1.1-.4,1.4,3.5,1.3,5.4,5.6,5.9,9.1a11.8,11.8,0,0,1-4.5,11.3c-3.6,2.6-8.6,1.4-11.4-1.9a11.8,11.8,0,0,1-1.8-11.7c1.7-4.7,6.7-8.4,11.7-6.8.9.2,1.3-1.2.4-1.4Z"/><path class="g" d="M31.2,4a4,4,0,0,0-2.6-1.3,9.1,9.1,0,0,0-3.3.1c-2.5.6-4,3.4-4.7,5.1h-.1c1.1-.8,2.8-1.9,4.2-1.8l3.3.3A4.8,4.8,0,0,0,31,6,1.3,1.3,0,0,0,31.2,4Z"/><path class="h" d="M31.8,3.5A5.7,5.7,0,0,0,28,1.9a7.2,7.2,0,0,0-4.1.7A6.7,6.7,0,0,0,21.3,5a5.7,5.7,0,0,0-.8,1.3A9.7,9.7,0,0,0,20,7.4a.8.8,0,0,0,0,1.1h0a.7.7,0,0,0,.9.1A7.1,7.1,0,0,1,24,7c1.2-.3,2.7.1,4,.2a5,5,0,0,0,3.4-.6,2.1,2.1,0,0,0,.5-3c-.6-.7-1.8,0-1.3.8s-.3,1.3-1.2,1.4a14.2,14.2,0,0,1-3.5-.3,6.7,6.7,0,0,0-3.1.3,12.8,12.8,0,0,0-2.7,1.6H21V8.5l.5-1a7.5,7.5,0,0,1,.7-1.2,7.9,7.9,0,0,1,1.9-2.2,5.9,5.9,0,0,1,3.2-.8,4.2,4.2,0,0,1,3.4,1.2C31.3,5.2,32.4,4.2,31.8,3.5Z"/><path class="b" d="M30.8,3.3a1.2,1.2,0,0,1-.4.9,4.6,4.6,0,0,1-2.7,1l-3.1.2a3.5,3.5,0,0,0-1.4.6l.3.5a3.3,3.3,0,0,1,1.3-.4l3.1.2a4.4,4.4,0,0,0,2.8-.8A1.5,1.5,0,0,0,30.8,3.3Z"/><path class="b" d="M29.5,17.6c-.9-3.7-3-7.8-6.4-8.9h0A6.5,6.5,0,0,0,20,8.3h.7a8.3,8.3,0,0,1,4.8,2.7h0c2.3,2.7,2.1,7.3,1,10.9A12.8,12.8,0,0,1,19,29.9a9.5,9.5,0,0,1-3.7.8,8.9,8.9,0,0,0,6.9.9A8.7,8.7,0,0,0,27,28.2,12.7,12.7,0,0,0,29.5,17.6Z"/><path class="h" d="M23,8c-5-1.6-10.1,1.4-12.6,5.8a13.4,13.4,0,0,0,.3,13.8c2.6,4,7.9,6.3,12.5,4.4s6.9-6.9,7-11.5S27.7,9.7,23.1,8c-.9-.3-1.3,1.1-.4,1.4,3.5,1.3,5.4,5.6,5.9,9.1a11.8,11.8,0,0,1-4.5,11.3c-3.6,2.6-8.6,1.4-11.4-1.9a11.8,11.8,0,0,1-1.8-11.7c1.7-4.7,6.7-8.4,11.7-6.8.9.2,1.3-1.2.4-1.4Z"/><rect class="i" x="13.8" y="14.1" width="11.3" height="5.24" rx="1"/><path class="h" d="M31.8,3.5A5.7,5.7,0,0,0,28,1.9a7.2,7.2,0,0,0-4.1.7A6.7,6.7,0,0,0,21.3,5a5.7,5.7,0,0,0-.8,1.3A9.7,9.7,0,0,0,20,7.4a.8.8,0,0,0,0,1.1h0a.7.7,0,0,0,.9.1A7.1,7.1,0,0,1,24,7c1.2-.3,2.7.1,4,.2a5,5,0,0,0,3.4-.6,2.1,2.1,0,0,0,.5-3c-.6-.7-1.8,0-1.3.8s-.3,1.3-1.2,1.4a14.2,14.2,0,0,1-3.5-.3,6.7,6.7,0,0,0-3.1.3,12.8,12.8,0,0,0-2.7,1.6H21V8.5l.5-1a7.5,7.5,0,0,1,.7-1.2,7.9,7.9,0,0,1,1.9-2.2,5.9,5.9,0,0,1,3.2-.8,4.2,4.2,0,0,1,3.4,1.2C31.3,5.2,32.4,4.2,31.8,3.5Z"/><ellipse class="j" cx="18" cy="17" rx="0.5" ry="0.4"/><ellipse class="j" cx="15.2" cy="17" rx="0.5" ry="0.4"/><ellipse class="j" cx="16.1" cy="16.1" rx="0.5" ry="0.4"/><ellipse class="j" cx="17.2" cy="16.1" rx="0.5" ry="0.4"/><ellipse class="j" cx="23.6" cy="17" rx="0.5" ry="0.4"/><ellipse class="j" cx="20.8" cy="17" rx="0.5" ry="0.4"/><ellipse class="j" cx="21.6" cy="16.1" rx="0.5" ry="0.4"/><ellipse class="j" cx="22.8" cy="16.1" rx="0.5" ry="0.4"/><ellipse class="k" cx="30.1" cy="21.4" rx="4" ry="2.4" transform="translate(-3.7 36.3) rotate(-59.2)"/><path class="b" d="M28.4,25c-.6-.5-.9-1.8-.6-3.4h0a7,7,0,0,1,.3-1.4v.3a11.2,11.2,0,0,0-.3,2.4h0c.1,1.2,1,1.4,1.7,1s1.7-1.5,2.5-3.1.5-1.1.7-1.7a10.2,10.2,0,0,1-.9,3.3,6.9,6.9,0,0,1-1.3,2.1C29.7,25.4,28.9,25.6,28.4,25Z"/><ellipse class="l" cx="30.1" cy="21.4" rx="4" ry="2.4" transform="translate(-3.7 36.3) rotate(-59.2)"/><ellipse class="k" cx="10" cy="20.6" rx="2.4" ry="4" transform="matrix(0.86, -0.51, 0.51, 0.86, -9.14, 8.03)"/><path class="b" d="M11.7,24.3a4.4,4.4,0,0,0,.6-3.5h0a8.3,8.3,0,0,0-.4-1.5c0,.1.1.2.1.3a7,7,0,0,1,.2,2.4h0c-.1,1.3-.9,1.4-1.7,1.1a6.6,6.6,0,0,1-2.4-3.2,8.7,8.7,0,0,1-.7-1.7,10.2,10.2,0,0,0,.9,3.3,6.4,6.4,0,0,0,1.2,2.2C10.4,24.6,11.2,24.9,11.7,24.3Z"/><ellipse class="l" cx="10" cy="20.6" rx="2.4" ry="4" transform="matrix(0.86, -0.51, 0.51, 0.86, -9.14, 8.03)"/><path class="j" d="M36.6,4.2c-5,2.5-8.3,1.3-11.1.9C19.4,4.2,16.7.8,11.4,1.2a14.9,14.9,0,0,0-8,3.7.6.6,0,0,0-.2.7L6,12.8l.2.4c0,.2.3.3.5.2,2.1-1,4.4-2.2,6.5-1.9a5.8,5.8,0,0,1,1.9.4L17.9,13,21,14.3c3.1,1.3,12,.6,12.1.6a.8.8,0,0,0,.7-.5l3.5-9.8C37.4,4.2,36.8,4.1,36.6,4.2Z"/><ellipse class="k" cx="30.1" cy="21.4" rx="4" ry="2.4" transform="translate(-3.7 36.3) rotate(-59.2)"/><path class="b" d="M28.4,25c-.6-.5-.9-1.8-.6-3.4h0a7,7,0,0,1,.3-1.4v.3a11.2,11.2,0,0,0-.3,2.4h0c.1,1.2,1,1.4,1.7,1s1.7-1.5,2.5-3.1.5-1.1.7-1.7a10.2,10.2,0,0,1-.9,3.3,6.9,6.9,0,0,1-1.3,2.1C29.7,25.4,28.9,25.6,28.4,25Z"/><ellipse class="l" cx="30.1" cy="21.4" rx="4" ry="2.4" transform="translate(-3.7 36.3) rotate(-59.2)"/><path class="m" d="M4.6,5.5,5.2,5,8,12l-.7.6Zm.3-.2L7.5,3.1l.4.9L5.3,6.2ZM6.1,8.4,8.4,6.5l.3,1L6.5,9.3Z"/><path class="m" d="M9.5,2.8l.7-.3.2,1.1-.8.3ZM9.8,5l.8-.3.8,5.6-.8.2Z"/><path class="m" d="M12.3,4.3H13V10h-.8Zm2.3,2.3a2,2,0,0,0-.2-.9.7.7,0,0,0-.6-.4.7.7,0,0,0-.6.3,1.5,1.5,0,0,0-.2.8V5.3a2.8,2.8,0,0,1,.5-.8.7.7,0,0,1,.6-.2,1,1,0,0,1,1,.6,3,3,0,0,1,.4,1.8v3.4h-.8Z"/><path class="m" d="M17.1,5.2l.8.4-1,5.4-.7-.4ZM17.5,3l.8.4-.2,1.1-.8-.4Z"/><path class="m" d="M19.1,11.7l-.5-.6-.5-.7.6-.5.6.8.6.4a1.1,1.1,0,0,0,.7.2c.2-.1.2-.2.3-.5s0-.3-.1-.4l-.3-.4L20,9.7h-.2l-.7-.5a1.5,1.5,0,0,1-.4-.6,2.5,2.5,0,0,1-.1-.9,1.2,1.2,0,0,1,.3-.9.5.5,0,0,1,.5-.3,1.5,1.5,0,0,1,.9.2l.6.4.5.4.5.6-.6.6-.5-.7-.6-.4h-.6a.6.6,0,0,0-.2.5c-.1.1,0,.3,0,.4l.3.2.5.3h.1c.3.2.6.3.7.5a1.8,1.8,0,0,1,.5.7,3.1,3.1,0,0,1,.1,1,1.2,1.2,0,0,1-.3.9.6.6,0,0,1-.6.3l-.9-.2Z"/><path class="m" d="M22.6,5.5h.7l.2,7.6h-.8ZM25,10.2a3,3,0,0,0-.2-1l-.6-.4-.6.2a1.5,1.5,0,0,0-.2.8V8.7a1.8,1.8,0,0,1,.5-.7l.6-.2a1.6,1.6,0,0,1,1,.8,2.9,2.9,0,0,1,.4,1.7v3.3h-.8Z"/><path class="m" d="M27.6,13.4a2,2,0,0,1-.6-.9,4.9,4.9,0,0,1-.1-1.3v-.7a5.8,5.8,0,0,1,.3-1.4,1.5,1.5,0,0,1,.6-.9,1.2,1.2,0,0,1,.9-.3,1.1,1.1,0,0,1,.8.3,3.1,3.1,0,0,1,.5,1,8.1,8.1,0,0,1,.1,1.6v.4H27.5v-.9h1.9a2.5,2.5,0,0,0-.2-1,.5.5,0,0,0-.6-.4.6.6,0,0,0-.6.4,2.1,2.1,0,0,0-.3,1.2v.7a3.6,3.6,0,0,0,.2,1.1.9.9,0,0,0,.7.3H29a.8.8,0,0,0,.4-.4l.5.7a2.3,2.3,0,0,1-.7.7l-.7.2A1.2,1.2,0,0,1,27.6,13.4Z"/><path class="m" d="M30.7,13a1.3,1.3,0,0,1-.2-.9,3.5,3.5,0,0,1,.3-1.2l.4-1.1a2.9,2.9,0,0,1,.6-1.1,1.3,1.3,0,0,1,.7-.6h.7a1.3,1.3,0,0,1,.6.4,2.5,2.5,0,0,1,.1.9l-.4,1a1.3,1.3,0,0,0,.1-.6c0-.2,0-.3-.1-.4s-.2-.2-.4-.3-.4,0-.7.1a5.6,5.6,0,0,0-.5.8l-.4,1.2a1.5,1.5,0,0,0-.1.9c0,.3.2.4.4.5h.5l.4-.3.3-.5-.4,1.1-.6.5h-.7A1,1,0,0,1,30.7,13Zm4.2-6.6.8.3L33,13.9l-.8-.2Z"/></svg>