<svg xmlns="http://www.w3.org/2000/svg" viewBox="0 0 640 640"><defs><style>.cls-1,.cls-3{fill:#fff;}.cls-2{fill:#4d4d4d;}.cls-3,.cls-6{stroke:#4d4d4d;stroke-width:15px;}.cls-3,.cls-5,.cls-6{stroke-miterlimit:10;}.cls-4{fill:#ccc;}.cls-5{stroke:#000;stroke-width:6px;}.cls-6{fill:none;}.cls-7{fill:#fc0;}.cls-8{fill:#ffcb03;}.cls-9{font-size:68px;fill:#f2f2f2;font-family:ArialRoundedMTBold, Arial Rounded MT Bold;}.cls-10{letter-spacing:-0.04em;}.cls-11{letter-spacing:-0.02em;}.cls-12{fill:#fd0;}.cls-13{fill:#ffec00;}.cls-14{fill:#f29100;}.cls-15{fill:#eb680f;}.cls-16{fill:#1d1d1b;}</style></defs><g id="Laag_1" data-name="Laag 1"><path class="cls-1" d="M327.36,96.86c-17.13-5.92-36.38-5.07-53.24.73S242.68,113.91,231,126.48c-28.6,30.75-39.9,74.71-29.52,114.85,6.24,24.11,20.33,47.1,41.75,62.27s50.43,21.68,75.69,14.35c18.91-5.49,34.51-18.1,46.13-32.84a122.72,122.72,0,0,0,23.38-102.3c-8-35.46-28.78-74.67-60.87-85.76"/><path class="cls-2" d="M329.75,88.18c-25-8.56-53.21-4-75.95,8.75-20.43,11.48-37.4,29.51-48.58,50a135,135,0,0,0-16.53,65.68,127.56,127.56,0,0,0,18.5,65.07,113.86,113.86,0,0,0,22.36,26.55,108.18,108.18,0,0,0,31.69,19A100.32,100.32,0,0,0,295.91,330a93.44,93.44,0,0,0,18.58-1.7,85.8,85.8,0,0,0,17.77-5.69A98.17,98.17,0,0,0,361,303a125.64,125.64,0,0,0,21.54-27.66,132.8,132.8,0,0,0,17.83-67.89c-.31-22.57-6.86-44.93-16.57-65.18-8.94-18.67-22-36.54-39.91-47.44A72.87,72.87,0,0,0,330,88.38a9,9,0,1,0-4.79,17.35c1.26.44,2.51.92,3.74,1.44l-2.15-.91a66.69,66.69,0,0,1,14.41,8.54l-1.82-1.4a90.82,90.82,0,0,1,15.94,16.19l-1.41-1.82a137.42,137.42,0,0,1,17.43,30.44l-.91-2.15a156.57,156.57,0,0,1,11.22,39.6l-.32-2.39a122.51,122.51,0,0,1,0,32l.32-2.4A125.35,125.35,0,0,1,373,254.54l.9-2.15A123.54,123.54,0,0,1,358,279.59l1.41-1.82a109,109,0,0,1-19.5,19.66l1.82-1.4a87.25,87.25,0,0,1-19,11.15l2.15-.91a76.88,76.88,0,0,1-19.4,5.3l2.4-.32a86.62,86.62,0,0,1-22.52-.07l2.39.32a96.38,96.38,0,0,1-24.25-6.63l2.15.91a96.79,96.79,0,0,1-21.21-12.36l1.82,1.41a103.81,103.81,0,0,1-18.27-18.31l1.41,1.82a114,114,0,0,1-14.78-25.4l.91,2.15a119.83,119.83,0,0,1-8.17-30l.33,2.39a123.53,123.53,0,0,1,0-32.71l-.32,2.4a127.18,127.18,0,0,1,8.74-31.93l-.91,2.15a126.48,126.48,0,0,1,16.24-27.83l-1.41,1.83a122.12,122.12,0,0,1,21.67-21.73L250,121a103.84,103.84,0,0,1,22.79-13.41l-2.15.9a91,91,0,0,1,22.78-6.26l-2.39.32a84.81,84.81,0,0,1,21.94-.09l-2.39-.32A75.6,75.6,0,0,1,325,105.54c4.46,1.53,10-1.74,11.07-6.28a9.23,9.23,0,0,0-6.28-11.08Z"/><ellipse class="cls-3" cx="259.93" cy="339.88" rx="34.74" ry="20.72"/><ellipse class="cls-3" cx="331.54" cy="340.1" rx="34.74" ry="20.72"/><path class="cls-1" d="M406.74,44.4c-5.77-5.93-16.28-9.5-27-10.24a83.52,83.52,0,0,0-31.19,4.27c-23.63,7.7-35.6,36.19-40.79,52.77l-.72,1,.17.16C317,83.61,332.28,72,346.17,71.09c10.46-.68,21,.56,31.52.43s21.84-2,28.35-7.37C412.71,58.64,412.51,50.33,406.74,44.4Z"/><path class="cls-2" d="M413.1,38c-8.23-8.32-20.3-11.63-31.61-12.74a75,75,0,0,0-16.81.41,101.16,101.16,0,0,0-18.52,4c-17.22,5.67-29.51,20-37.59,35.69a147.92,147.92,0,0,0-9.47,23.37l.9-2.15-.72,1-.91,2.15a7,7,0,0,0-.16,3.59,8.83,8.83,0,0,0,2.48,5.17l.16.16a9.13,9.13,0,0,0,6.37,2.64,9.88,9.88,0,0,0,6.36-2.64q3.87-3.44,8-6.62l-1.82,1.41a86.7,86.7,0,0,1,19-11.54l-2.15.91A41.35,41.35,0,0,1,346.76,80l-2.4.32c6.76-.83,13.73-.33,20.51,0a151.36,151.36,0,0,0,19.52,0C398,79,413.74,74.92,419,60.71a20.7,20.7,0,0,0,.34-12A24.8,24.8,0,0,0,413.1,38c-3.25-3.42-9.49-3.52-12.73,0a9.19,9.19,0,0,0,0,12.73,18.81,18.81,0,0,1,1.25,1.43l-1.4-1.82a16.67,16.67,0,0,1,2,3.38l-.91-2.15a14.12,14.12,0,0,1,.93,3.24l-.32-2.39a13.84,13.84,0,0,1,0,3.28l.32-2.39a13.31,13.31,0,0,1-.89,3.21l.9-2.15a13.82,13.82,0,0,1-1.61,2.72l1.41-1.82a16.76,16.76,0,0,1-2.94,2.89L401,56.79a26.14,26.14,0,0,1-5.51,3.14l2.15-.91a49.2,49.2,0,0,1-12.29,3.12l2.4-.32c-12.67,1.66-25.41-.26-38.12.11a49.77,49.77,0,0,0-17.49,3.4,84.28,84.28,0,0,0-16,8.57A157.12,157.12,0,0,0,300.85,86h12.73l-.16-.17,1.4,10.91c1.75-2.3,2.37-5.49,3.33-8.2s2-5.39,3.1-8l-.91,2.15a99.62,99.62,0,0,1,12.36-21.8l-1.41,1.82A60.78,60.78,0,0,1,342,51.73l-1.82,1.4A45.21,45.21,0,0,1,350,47.36l-2.15.91a77.82,77.82,0,0,1,19.23-4.88l-2.39.32a72.94,72.94,0,0,1,19-.16l-2.39-.32a53.35,53.35,0,0,1,13.32,3.52l-2.15-.91a33.78,33.78,0,0,1,7.47,4.28l-1.82-1.41a23.65,23.65,0,0,1,2.3,2.06c3.32,3.35,9.46,3.57,12.73,0A9.16,9.16,0,0,0,413.1,38Z"/><path class="cls-4" d="M401.49,38.41a15,15,0,0,1-3.35,8.64c-5.38,6.79-15.91,10.58-26,12.41s-20.32,2.19-30.22,4.6a37.3,37.3,0,0,0-13.28,6.82A17.09,17.09,0,0,1,332,75.16a35,35,0,0,1,12.54-4.62c10.08-1.35,20.36-.63,30.53-1.38s21-3.41,26.93-9.59S407.34,44.45,401.49,38.41Z"/><path class="cls-4" d="M391.12,182.81c-8-35.46-28.78-74.67-60.86-85.76l-.2-.19A77.67,77.67,0,0,0,300.36,93q3.09.4,6.15,1C324,97.42,341,106.38,352.84,120.11l.07.26c22.12,25.71,20.32,70,9.39,104.64a122.6,122.6,0,0,1-71.64,76.54A102.3,102.3,0,0,1,254.53,309c20.2,11.21,45.07,15.34,67.09,8.95,18.91-5.49,34.51-18.1,46.13-32.84A122.75,122.75,0,0,0,391.12,182.81Z"/><path class="cls-2" d="M329.75,88.18c-25-8.56-53.21-4-75.95,8.75-20.43,11.48-37.4,29.51-48.58,50a135,135,0,0,0-16.53,65.68,127.56,127.56,0,0,0,18.5,65.07,113.86,113.86,0,0,0,22.36,26.55,108.18,108.18,0,0,0,31.69,19A100.32,100.32,0,0,0,295.91,330a93.44,93.44,0,0,0,18.58-1.7,85.8,85.8,0,0,0,17.77-5.69A98.17,98.17,0,0,0,361,303a125.64,125.64,0,0,0,21.54-27.66,132.8,132.8,0,0,0,17.83-67.89c-.31-22.57-6.86-44.93-16.57-65.18-8.94-18.67-22-36.54-39.91-47.44A72.87,72.87,0,0,0,330,88.38a9,9,0,1,0-4.79,17.35c1.26.44,2.51.92,3.74,1.44l-2.15-.91a66.69,66.69,0,0,1,14.41,8.54l-1.82-1.4a90.82,90.82,0,0,1,15.94,16.19l-1.41-1.82a137.42,137.42,0,0,1,17.43,30.44l-.91-2.15a156.57,156.57,0,0,1,11.22,39.6l-.32-2.39a122.51,122.51,0,0,1,0,32l.32-2.4A125.35,125.35,0,0,1,373,254.54l.9-2.15A123.54,123.54,0,0,1,358,279.59l1.41-1.82a109,109,0,0,1-19.5,19.66l1.82-1.4a87.25,87.25,0,0,1-19,11.15l2.15-.91a76.88,76.88,0,0,1-19.4,5.3l2.4-.32a86.62,86.62,0,0,1-22.52-.07l2.39.32a96.38,96.38,0,0,1-24.25-6.63l2.15.91a96.79,96.79,0,0,1-21.21-12.36l1.82,1.41a103.81,103.81,0,0,1-18.27-18.31l1.41,1.82a114,114,0,0,1-14.78-25.4l.91,2.15a119.83,119.83,0,0,1-8.17-30l.33,2.39a123.53,123.53,0,0,1,0-32.71l-.32,2.4a127.18,127.18,0,0,1,8.74-31.93l-.91,2.15a126.48,126.48,0,0,1,16.24-27.83l-1.41,1.83a122.12,122.12,0,0,1,21.67-21.73L250,121a103.84,103.84,0,0,1,22.79-13.41l-2.15.9a91,91,0,0,1,22.78-6.26l-2.39.32a84.81,84.81,0,0,1,21.94-.09l-2.39-.32A75.6,75.6,0,0,1,325,105.54c4.46,1.53,10-1.74,11.07-6.28a9.23,9.23,0,0,0-6.28-11.08Z"/><rect class="cls-5" x="240.18" y="148.93" width="108.66" height="50.39" rx="12"/><path class="cls-4" d="M289.35,336.8c-2.12-6.89-9.47-15.5-22.56-20.14l-.08-.05a76.14,76.14,0,0,0-12.34-3.18q1.29.33,2.55.69c7.22,2.08,14.07,5.08,18.54,8.47l0,.06c8.39,6.36,6.08,14,.27,19.12s-18,7.89-32.77,7.38a98.36,98.36,0,0,1-15.44-1.73,87.38,87.38,0,0,0,27.87,7.21,57,57,0,0,0,20.52-1.88C286.49,349.61,291.47,343.68,289.35,336.8Z"/><ellipse class="cls-6" cx="259.93" cy="339.88" rx="34.74" ry="20.72"/><path class="cls-4" d="M359,338c-2.12-6.88-9.47-15.5-22.56-20.14l-.08-.05A77.34,77.34,0,0,0,324,314.64c.85.22,1.7.45,2.54.69,7.22,2.08,14.07,5.08,18.54,8.48l0,.05c8.39,6.36,6.08,14,.27,19.12s-18,7.9-32.77,7.39a99.7,99.7,0,0,1-15.44-1.73,87.37,87.37,0,0,0,27.87,7.2A57.3,57.3,0,0,0,345.56,354C356.11,350.83,361.09,344.9,359,338Z"/><ellipse class="cls-6" cx="329.99" cy="339.32" rx="34.74" ry="20.72"/><path class="cls-2" d="M413.1,38c-8.23-8.32-20.3-11.63-31.61-12.74a75,75,0,0,0-16.81.41,101.16,101.16,0,0,0-18.52,4c-17.22,5.67-29.51,20-37.59,35.69a147.92,147.92,0,0,0-9.47,23.37l.9-2.15-.72,1-.91,2.15a7,7,0,0,0-.16,3.59,8.83,8.83,0,0,0,2.48,5.17l.16.16a9.13,9.13,0,0,0,6.37,2.64,9.88,9.88,0,0,0,6.36-2.64q3.87-3.44,8-6.62l-1.82,1.41a86.7,86.7,0,0,1,19-11.54l-2.15.91A41.35,41.35,0,0,1,346.76,80l-2.4.32c6.76-.83,13.73-.33,20.51,0a151.36,151.36,0,0,0,19.52,0C398,79,413.74,74.92,419,60.71a20.7,20.7,0,0,0,.34-12A24.8,24.8,0,0,0,413.1,38c-3.25-3.42-9.49-3.52-12.73,0a9.19,9.19,0,0,0,0,12.73,18.81,18.81,0,0,1,1.25,1.43l-1.4-1.82a16.67,16.67,0,0,1,2,3.38l-.91-2.15a14.12,14.12,0,0,1,.93,3.24l-.32-2.39a13.84,13.84,0,0,1,0,3.28l.32-2.39a13.31,13.31,0,0,1-.89,3.21l.9-2.15a13.82,13.82,0,0,1-1.61,2.72l1.41-1.82a16.76,16.76,0,0,1-2.94,2.89L401,56.79a26.14,26.14,0,0,1-5.51,3.14l2.15-.91a49.2,49.2,0,0,1-12.29,3.12l2.4-.32c-12.67,1.66-25.41-.26-38.12.11a49.77,49.77,0,0,0-17.49,3.4,84.28,84.28,0,0,0-16,8.57A157.12,157.12,0,0,0,300.85,86h12.73l-.16-.17,1.4,10.91c1.75-2.3,2.37-5.49,3.33-8.2s2-5.39,3.1-8l-.91,2.15a99.62,99.62,0,0,1,12.36-21.8l-1.41,1.82A60.78,60.78,0,0,1,342,51.73l-1.82,1.4A45.21,45.21,0,0,1,350,47.36l-2.15.91a77.82,77.82,0,0,1,19.23-4.88l-2.39.32a72.94,72.94,0,0,1,19-.16l-2.39-.32a53.35,53.35,0,0,1,13.32,3.52l-2.15-.91a33.78,33.78,0,0,1,7.47,4.28l-1.82-1.41a23.65,23.65,0,0,1,2.3,2.06c3.32,3.35,9.46,3.57,12.73,0A9.16,9.16,0,0,0,413.1,38Z"/><circle class="cls-7" cx="281.08" cy="176.76" r="4.48"/><circle class="cls-7" cx="254.22" cy="176.76" r="4.48"/><circle class="cls-7" cx="262.18" cy="167.8" r="4.48"/><circle class="cls-7" cx="273.12" cy="167.8" r="4.48"/><circle class="cls-7" cx="334.8" cy="176.76" r="4.48"/><circle class="cls-7" cx="307.94" cy="176.76" r="4.48"/><circle class="cls-7" cx="315.9" cy="167.8" r="4.48"/><circle class="cls-7" cx="326.84" cy="167.8" r="4.48"/><rect class="cls-8" x="150.35" y="437.57" width="364" height="67" rx="23.33"/><path d="M208.59,377.08h6l19.17,50.15H223.59l-12-34.25-12,34.25H189.42Zm-10,33H225v9.1H198.62Z"/><path d="M246,427a29.93,29.93,0,0,1-6.45-2.12,24.62,24.62,0,0,1-5.4-3.36l4.38-7.8a21.29,21.29,0,0,0,6.69,3.68,24.06,24.06,0,0,0,7.79,1.29,13.73,13.73,0,0,0,7.18-1.57,4.93,4.93,0,0,0,2.55-4.43v0a4.35,4.35,0,0,0-1.14-3.17,6.71,6.71,0,0,0-3-1.72,35.4,35.4,0,0,0-4.69-1,.43.43,0,0,0-.19,0l-.19,0-.75-.11a46.19,46.19,0,0,1-8.35-2,12.23,12.23,0,0,1-5.62-4.17q-2.31-3-2.31-8.47v0a15.26,15.26,0,0,1,2.17-8.31,13.67,13.67,0,0,1,6.31-5.26,27.06,27.06,0,0,1,15.5-1.19A29.44,29.44,0,0,1,266,379a30.65,30.65,0,0,1,5.11,2.83l-4,8a25.3,25.3,0,0,0-6.05-3.1A18.3,18.3,0,0,0,255,385.6a13.14,13.14,0,0,0-6.72,1.43,4.47,4.47,0,0,0-2.38,4v0a4.68,4.68,0,0,0,1.24,3.44,7.39,7.39,0,0,0,3.07,1.84,47.34,47.34,0,0,0,5.14,1.24,1.28,1.28,0,0,0,.27,0,2.3,2.3,0,0,1,.28.06l.4.08a2.23,2.23,0,0,0,.39.09,41.23,41.23,0,0,1,7.95,2.26,12.38,12.38,0,0,1,5.33,4.27c1.43,2,2.14,4.65,2.14,8.06v.07a14.63,14.63,0,0,1-2.24,8.2A14.07,14.07,0,0,1,263.3,426,26.65,26.65,0,0,1,253,427.74,34,34,0,0,1,246,427Z"/><path d="M280,377.05h9.45v50.18H280Zm3.76,20.9h17.45a4.49,4.49,0,0,0,2.55-.73,4.63,4.63,0,0,0,1.71-2.07,8,8,0,0,0,.64-3.1,7.52,7.52,0,0,0-.61-3.1,4.48,4.48,0,0,0-4.29-2.8H283.77v-9.1H302a14,14,0,0,1,7.27,1.86,12.58,12.58,0,0,1,4.87,5.26,18.91,18.91,0,0,1,0,15.76,12.54,12.54,0,0,1-4.88,5.26,14.06,14.06,0,0,1-7.26,1.86H283.77Zm10.55,7.55,10.11-1.59,13.51,23.32H306.5Z"/><path d="M330.36,426a11.15,11.15,0,0,1-4.86-4.75,15.74,15.74,0,0,1-1.68-7.53v-3.5a17.86,17.86,0,0,1,1.6-7.88,11.24,11.24,0,0,1,4.67-5,15.14,15.14,0,0,1,7.41-1.7,11.9,11.9,0,0,1,7,2,12.59,12.59,0,0,1,4.41,5.92A25.7,25.7,0,0,1,350.4,413v2H329.15v-5.53h13.77l-.09-.72a7.22,7.22,0,0,0-1.69-4.16,4.72,4.72,0,0,0-3.64-1.47,5.92,5.92,0,0,0-4.59,1.77,7.08,7.08,0,0,0-1.63,5v3.95a6.55,6.55,0,0,0,1.78,4.91,6.86,6.86,0,0,0,5,1.73,9.46,9.46,0,0,0,3.26-.58,9.92,9.92,0,0,0,2.94-1.66l5.35,4.76a18,18,0,0,1-5.44,3.42,16.28,16.28,0,0,1-6.11,1.22A16.68,16.68,0,0,1,330.36,426Z"/><path d="M374.08,396.16h8.17l-11.67,31.07h-5.81L353.1,396.16h8.17l6.4,19.48Z"/><path d="M386.59,383.71h8.2v8.2h-8.2Zm0,12.45h8.2v31.07h-8.2Z"/><path d="M408.06,426a11.15,11.15,0,0,1-4.86-4.75,15.74,15.74,0,0,1-1.67-7.53v-3.5a17.72,17.72,0,0,1,1.6-7.88,11.13,11.13,0,0,1,4.67-5,15.07,15.07,0,0,1,7.4-1.7,11.9,11.9,0,0,1,7,2,12.59,12.59,0,0,1,4.41,5.92A25.7,25.7,0,0,1,428.1,413v2H406.85v-5.53h13.77l-.09-.72a7.22,7.22,0,0,0-1.69-4.16,4.72,4.72,0,0,0-3.64-1.47,5.94,5.94,0,0,0-4.59,1.77,7.08,7.08,0,0,0-1.63,5v3.95a6.55,6.55,0,0,0,1.78,4.91,6.87,6.87,0,0,0,5,1.73,9.46,9.46,0,0,0,3.26-.58,9.92,9.92,0,0,0,2.94-1.66L427.3,423a18.15,18.15,0,0,1-5.45,3.42,16.28,16.28,0,0,1-6.11,1.22A16.68,16.68,0,0,1,408.06,426Z"/><path d="M431.4,396.16h7.87l5.51,19.18,6.55-19.18h4.85l6.55,19.18,5.51-19.18h7.87l-9.58,31.07h-6.1L453.75,407l-6.67,20.27H441Z"/><text class="cls-9" transform="translate(155.61 493.99)">Ha<tspan class="cls-10" x="92.07" y="0">ck</tspan><tspan class="cls-11" x="166.28" y="0">a</tspan><tspan x="205" y="0">thon</tspan></text></g><g id="Laag_2" data-name="Laag 2"><path class="cls-12" d="M488.06,330.8c-3.81,12.66-12.76,20-17,23.38-12.65,10.11-26.08,12-34.8,13.15s-46.6,6.05-61.11-16.27c-1.85-2.84-5.83-10-5-18.91,1.67-18.55,23.13-35.35,43.28-36.84,22.5-1.66,34.3,16.44,51.94,8.83,8.69-3.74,11-10.38,15.93-9,7.6,2.15,11.2,20.86,6.75,35.66"/><path class="cls-13" d="M465.08,339.83c-2,6.61-6.66,10.45-8.86,12.2-6.61,5.28-13.62,6.28-18.17,6.87s-24.33,3.16-31.91-8.5a15.89,15.89,0,0,1-2.62-9.87c.87-9.68,12.08-18.45,22.6-19.23,11.75-.87,17.9,8.58,27.12,4.61,4.53-2,5.76-5.42,8.31-4.7,4,1.12,5.85,10.89,3.53,18.62"/><path class="cls-12" d="M458.6,343.81c-6.7,5.28-13.8,6.28-18.42,6.87-4.15.53-20.92,2.67-29.79-5.49a18.13,18.13,0,0,0,1,2.19c6.5,11.65,23.49,9.08,27.38,8.49s9.93-1.59,15.59-6.87a27,27,0,0,0,4.79-5.66Z"/><path class="cls-12" d="M385.71,269.81c-1.8,1.64-2.43,1.75-3.43,2.65-4.74,4.24-3.33,13.23-3.12,14.54a23.8,23.8,0,0,0,3.55,9.16c8.14,12.43,29.53,18.51,43.4,10.93a26.74,26.74,0,0,0,6.46-5.08c.43-.46,9.87-10.89,7.56-24.7-2.35-14-15.74-25.13-28.08-24.59-7,.31-14.38,4.43-17.59,7.56A54.45,54.45,0,0,0,390,265a22.54,22.54,0,0,1-4.27,4.85"/><path class="cls-12" d="M385.71,269.81c-1.8,1.64-2.43,1.75-3.43,2.65-4.74,4.24-3.33,13.23-3.12,14.54a23.8,23.8,0,0,0,3.55,9.16c8.14,12.43,29.53,18.51,43.4,10.93a26.74,26.74,0,0,0,6.46-5.08c.43-.46,9.87-10.89,7.56-24.7-2.35-14-15.74-25.13-28.08-24.59-7,.31-14.38,4.43-17.59,7.56A54.45,54.45,0,0,0,390,265a22.54,22.54,0,0,1-4.27,4.85"/><path class="cls-14" d="M368.39,281.6a10.48,10.48,0,0,1,5.7-3.66c3.08-.93,5.58-.33,8.54.37,3.75.87,6.85,1.6,7.82,4,.47,1.15.16,2.41-.47,4.94s-1.13,4.59-2.94,6.42a7.59,7.59,0,0,1-4.33,2.51c-4,.53-5-4-11.91-6.32-2.14-.71-3.51-.72-4.14-2-1.18-2.34,1.55-6,1.73-6.27"/><path class="cls-14" d="M366.58,273.62a12.34,12.34,0,0,0,1.61,6.91,15.52,15.52,0,0,0,6.28,6.22c3.64,2.2,11.34,5.32,14.43,1.92a5.69,5.69,0,0,0,1-5.71c-.62-1.25-1.58-1.07-2.65-2.21-2.38-2.56,0-6.08-1.73-8.36-2.3-3-8.33,1-11.83-2.78-1.53-1.65-1.46-3.39-2.62-3.52-1.81-.22-4.18,3.73-4.51,7.53"/><path class="cls-15" d="M388.93,288.17c-3.09,3.4-10.79.28-14.43-1.92a15.52,15.52,0,0,1-6.28-6.22,12.78,12.78,0,0,1-1.64-5.68,12.72,12.72,0,0,0,1.6,6.32,15.52,15.52,0,0,0,6.16,6.23c3.57,2.19,11.11,5.32,14.13,1.92a4.14,4.14,0,0,0,.51-.71Z"/><path class="cls-1" d="M391.05,274.25c.79,2.09,3.71,3,5.94,2.66,3.63-.6,5-4.61,5.25-5.31.37-1.09,1-2.78.12-4-1.22-1.82-4.55-1.39-6.12-.92a7.86,7.86,0,0,0-5,4.44,4.39,4.39,0,0,0-.23,3.17"/><path class="cls-16" d="M391.67,273.72a2.78,2.78,0,0,0,3,1.33c1.82-.3,2.51-2.31,2.63-2.66a2.34,2.34,0,0,0,.06-2c-.61-.91-2.28-.69-3.06-.46a4,4,0,0,0-2.48,2.22,2.18,2.18,0,0,0-.12,1.59"/><path class="cls-15" d="M379.27,275a1.09,1.09,0,0,0,.55,1.18,1.52,1.52,0,0,0,1.5-.11c.2-.11.51-.29.55-.59s-.51-.81-.81-.95a1.6,1.6,0,0,0-1.34,0,.91.91,0,0,0-.45.46"/></g></svg>