<svg id="Laag_1" data-name="Laag 1" xmlns="http://www.w3.org/2000/svg" viewBox="0 0 640 640"><defs><style>.cls-1,.cls-13,.cls-15,.cls-4{fill:#fff;}.cls-2{fill:#4e4d4d;}.cls-3{fill:#cccbcb;}.cls-13,.cls-14,.cls-15,.cls-16,.cls-4,.cls-5{stroke:#4e4d4d;}.cls-13,.cls-14,.cls-15,.cls-16,.cls-4,.cls-5,.cls-6{stroke-miterlimit:10;}.cls-4,.cls-5{stroke-width:11.57px;}.cls-14,.cls-16,.cls-5{fill:none;}.cls-6{stroke:#000;stroke-width:4.63px;}.cls-7{fill:#ffcb03;}.cls-8{fill:#fd0;}.cls-9{fill:#ffec00;}.cls-10{fill:#f29100;}.cls-11{fill:#eb680f;}.cls-12{fill:#1d1d1b;}.cls-13,.cls-14{stroke-width:11.02px;}.cls-15,.cls-16{stroke-width:11.27px;}</style></defs><path class="cls-1" d="M356.66,207.55c-17.05-5.9-36.21-5.05-53,.73s-31.3,16.25-42.94,28.76c-28.48,30.62-39.72,74.38-29.39,114.35,6.21,24,20.25,46.89,41.57,62s50.22,21.59,75.37,14.29c18.82-5.47,34.36-18,45.93-32.7a122.2,122.2,0,0,0,23.27-101.86c-8-35.3-28.65-74.34-60.6-85.38"/><path class="cls-2" d="M358.51,200.86c-24.4-8.35-51.82-4-74,8.47-20.05,11.25-36.66,28.91-47.65,49a132.31,132.31,0,0,0-16.24,64.36,125,125,0,0,0,18.25,64,111.63,111.63,0,0,0,21.81,25.84A105.11,105.11,0,0,0,291.29,431a98.3,98.3,0,0,0,34.15,6.67,85.67,85.67,0,0,0,35.09-7.09c20.91-9,37.78-26.52,49.12-46a130.2,130.2,0,0,0,17.65-66.79c-.29-22-6.65-43.89-16.08-63.69-8.76-18.37-21.48-36-39.08-46.75a70.87,70.87,0,0,0-13.44-6.28c-3.43-1.2-7.74,1.36-8.53,4.84a7.1,7.1,0,0,0,4.84,8.54c.85.3,1.68.6,2.51.93.28.12,1.64.68.41.16s.4.19.7.33c1.62.74,3.21,1.56,4.76,2.44s3,1.79,4.44,2.77c.7.47,1.39,1,2.08,1.46l1.09.82c.86.64-.57-.45-.6-.46a6.9,6.9,0,0,1,.68.53,82.84,82.84,0,0,1,8,7.41c1.31,1.36,2.57,2.77,3.8,4.21.58.69,1.15,1.38,1.71,2.08.3.37.6.75.89,1.13.46.57-.61-.77-.53-.7a6.22,6.22,0,0,1,.66.87,130.17,130.17,0,0,1,12.18,19.81c.9,1.79,1.76,3.59,2.59,5.42q.58,1.28,1.14,2.58c.1.22.83,1.93.32.72-.44-1-.1-.22,0,0l.36.87q2.24,5.46,4.07,11.07a148.13,148.13,0,0,1,6.32,26.5l-.25-1.84a122.35,122.35,0,0,1-.05,32l.24-1.85a124,124,0,0,1-6.15,25.19c-.36,1-.74,2-1.14,3-.17.45-.34.89-.52,1.33l-.31.75c-.41,1-.07.16.15-.34-.87,2-1.75,4-2.7,5.93a123.7,123.7,0,0,1-6.36,11.43q-1.76,2.79-3.65,5.47c-.6.84-1.21,1.68-1.82,2.5-.14.19-1.33,1.73-.58.78s.07-.1-.09.11-.41.52-.62.77a110.93,110.93,0,0,1-8.36,9.37,116.12,116.12,0,0,1-9.49,8.39c.07-.06,1.37-1,.46-.36l-.64.48-1.12.82c-.92.66-1.85,1.3-2.78,1.92q-2.67,1.77-5.44,3.34-3.15,1.77-6.43,3.26c-.49.22-1,.42-1.47.65,2-.93-.06,0-.58.21-1.13.45-2.27.86-3.42,1.25a75.74,75.74,0,0,1-14.08,3.28l1.84-.25a86.26,86.26,0,0,1-22.53-.1l1.84.24a95.15,95.15,0,0,1-13.13-2.76c-2.15-.61-4.28-1.31-6.39-2.07-.95-.35-1.91-.71-2.85-1.09-.5-.2-1-.42-1.51-.61,2.07.77-.07,0-.57-.27a94.76,94.76,0,0,1-11.75-6.31c-1.81-1.14-3.59-2.35-5.32-3.62l-1.29-1c-.92-.69.36.28.44.34l-.63-.49c-.9-.71-1.78-1.44-2.65-2.18a101.12,101.12,0,0,1-9.45-9.18q-2.21-2.43-4.24-5c-.33-.41-1.33-1.87-.13-.15-.31-.43-.64-.84-1-1.26-.63-.85-1.24-1.71-1.85-2.57a110.76,110.76,0,0,1-6.8-11.06c-1-1.9-2-3.83-2.91-5.78-.44-.94-.87-1.89-1.28-2.85-.11-.24-.21-.48-.31-.72-.31-.69.35.84.32.76-.29-.58-.5-1.21-.74-1.81a118.28,118.28,0,0,1-7.28-27.86l.24,1.84a123.26,123.26,0,0,1,0-32.28l-.24,1.84a126.31,126.31,0,0,1,6.46-26.26c.38-1,.78-2.08,1.18-3.11.19-.48.39-1,.59-1.45.09-.24.21-.48.3-.72-.73,2-.27.63-.09.21.88-2,1.81-4.05,2.8-6a124.59,124.59,0,0,1,6.78-12q1.82-2.82,3.78-5.54c.7-1,1.45-1.89,2.13-2.86l-.36.46c.17-.2.33-.41.49-.62l1.25-1.54a121.31,121.31,0,0,1,9.41-10.22q2.56-2.51,5.3-4.85c.83-.71,1.67-1.42,2.52-2.11l1.29-1c.9-.72-.33.26-.43.33.34-.24.66-.5,1-.75a105.37,105.37,0,0,1,12.15-7.91c2.31-1.29,4.68-2.48,7.08-3.57.63-.29,1.32-.51,1.92-.85-1.49.82-.93.39-.5.22l1.17-.48c1.25-.49,2.5-1,3.76-1.39a88.8,88.8,0,0,1,17-4.06l-1.84.25a84.56,84.56,0,0,1,21.85-.1l-1.84-.25a75.92,75.92,0,0,1,14.33,3.36c3.44,1.18,7.74-1.34,8.54-4.84a7.12,7.12,0,0,0-4.85-8.54Z"/><path class="cls-3" d="M420.15,293.12c-8-35.3-28.65-74.34-60.6-85.38l-.19-.19a77.25,77.25,0,0,0-29.57-3.9q3.06.4,6.12,1c17.4,3.46,34.37,12.37,46.12,26l.08.26c22,25.6,20.22,69.71,9.35,104.19a122.07,122.07,0,0,1-71.33,76.21,101.94,101.94,0,0,1-36,7.42C304.26,429.93,329,434,351,427.68c18.83-5.47,34.36-18,45.93-32.7A122.2,122.2,0,0,0,420.15,293.12Z"/><path class="cls-2" d="M358.51,200.86c-24.4-8.35-51.82-4-74,8.47-20.05,11.25-36.66,28.91-47.65,49a132.31,132.31,0,0,0-16.24,64.36,125,125,0,0,0,18.25,64,111.63,111.63,0,0,0,21.81,25.84A105.11,105.11,0,0,0,291.29,431a98.3,98.3,0,0,0,34.15,6.67,85.67,85.67,0,0,0,35.09-7.09c20.91-9,37.78-26.52,49.12-46a130.2,130.2,0,0,0,17.65-66.79c-.29-22-6.65-43.89-16.08-63.69-8.76-18.37-21.48-36-39.08-46.75a70.87,70.87,0,0,0-13.44-6.28c-3.43-1.2-7.74,1.36-8.53,4.84a7.1,7.1,0,0,0,4.84,8.54c.85.3,1.68.6,2.51.93.28.12,1.64.68.41.16s.4.19.7.33c1.62.74,3.21,1.56,4.76,2.44s3,1.79,4.44,2.77c.7.47,1.39,1,2.08,1.46l1.09.82c.86.64-.57-.45-.6-.46a6.9,6.9,0,0,1,.68.53,82.84,82.84,0,0,1,8,7.41c1.31,1.36,2.57,2.77,3.8,4.21.58.69,1.15,1.38,1.71,2.08.3.37.6.75.89,1.13.46.57-.61-.77-.53-.7a6.22,6.22,0,0,1,.66.87,130.17,130.17,0,0,1,12.18,19.81c.9,1.79,1.76,3.59,2.59,5.42q.58,1.28,1.14,2.58c.1.22.83,1.93.32.72-.44-1-.1-.22,0,0l.36.87q2.24,5.46,4.07,11.07a148.13,148.13,0,0,1,6.32,26.5l-.25-1.84a122.35,122.35,0,0,1-.05,32l.24-1.85a124,124,0,0,1-6.15,25.19c-.36,1-.74,2-1.14,3-.17.45-.34.89-.52,1.33l-.31.75c-.41,1-.07.16.15-.34-.87,2-1.75,4-2.7,5.93a123.7,123.7,0,0,1-6.36,11.43q-1.76,2.79-3.65,5.47c-.6.84-1.21,1.68-1.82,2.5-.14.19-1.33,1.73-.58.78s.07-.1-.09.11-.41.52-.62.77a110.93,110.93,0,0,1-8.36,9.37,116.12,116.12,0,0,1-9.49,8.39c.07-.06,1.37-1,.46-.36l-.64.48-1.12.82c-.92.66-1.85,1.3-2.78,1.92q-2.67,1.77-5.44,3.34-3.15,1.77-6.43,3.26c-.49.22-1,.42-1.47.65,2-.93-.06,0-.58.21-1.13.45-2.27.86-3.42,1.25a75.74,75.74,0,0,1-14.08,3.28l1.84-.25a86.26,86.26,0,0,1-22.53-.1l1.84.24a95.15,95.15,0,0,1-13.13-2.76c-2.15-.61-4.28-1.31-6.39-2.07-.95-.35-1.91-.71-2.85-1.09-.5-.2-1-.42-1.51-.61,2.07.77-.07,0-.57-.27a94.76,94.76,0,0,1-11.75-6.31c-1.81-1.14-3.59-2.35-5.32-3.62l-1.29-1c-.92-.69.36.28.44.34l-.63-.49c-.9-.71-1.78-1.44-2.65-2.18a101.12,101.12,0,0,1-9.45-9.18q-2.21-2.43-4.24-5c-.33-.41-1.33-1.87-.13-.15-.31-.43-.64-.84-1-1.26-.63-.85-1.24-1.71-1.85-2.57a110.76,110.76,0,0,1-6.8-11.06c-1-1.9-2-3.83-2.91-5.78-.44-.94-.87-1.89-1.28-2.85-.11-.24-.21-.48-.31-.72-.31-.69.35.84.32.76-.29-.58-.5-1.21-.74-1.81a118.28,118.28,0,0,1-7.28-27.86l.24,1.84a123.26,123.26,0,0,1,0-32.28l-.24,1.84a126.31,126.31,0,0,1,6.46-26.26c.38-1,.78-2.08,1.18-3.11.19-.48.39-1,.59-1.45.09-.24.21-.48.3-.72-.73,2-.27.63-.09.21.88-2,1.81-4.05,2.8-6a124.59,124.59,0,0,1,6.78-12q1.82-2.82,3.78-5.54c.7-1,1.45-1.89,2.13-2.86l-.36.46c.17-.2.33-.41.49-.62l1.25-1.54a121.31,121.31,0,0,1,9.41-10.22q2.56-2.51,5.3-4.85c.83-.71,1.67-1.42,2.52-2.11l1.29-1c.9-.72-.33.26-.43.33.34-.24.66-.5,1-.75a105.37,105.37,0,0,1,12.15-7.91c2.31-1.29,4.68-2.48,7.08-3.57.63-.29,1.32-.51,1.92-.85-1.49.82-.93.39-.5.22l1.17-.48c1.25-.49,2.5-1,3.76-1.39a88.8,88.8,0,0,1,17-4.06l-1.84.25a84.56,84.56,0,0,1,21.85-.1l-1.84-.25a75.92,75.92,0,0,1,14.33,3.36c3.44,1.18,7.74-1.34,8.54-4.84a7.12,7.12,0,0,0-4.85-8.54Z"/><ellipse class="cls-4" cx="360.83" cy="449.73" rx="34.59" ry="20.63"/><path class="cls-3" d="M388.14,447.65c-2.11-6.85-9.43-15.43-22.46-20l-.08-.05a77.78,77.78,0,0,0-12.28-3.16c.85.21,1.69.44,2.53.69,7.19,2.06,14,5.05,18.47,8.43l0,.06c8.35,6.33,6.05,13.91.27,19S356.7,460.47,342,460a98.65,98.65,0,0,1-15.37-1.72,87.09,87.09,0,0,0,27.74,7.17,56.86,56.86,0,0,0,20.44-1.87C385.29,460.42,390.25,454.51,388.14,447.65Z"/><ellipse class="cls-5" cx="359.29" cy="448.96" rx="34.59" ry="20.63"/><ellipse class="cls-4" cx="289.47" cy="449.73" rx="34.59" ry="20.63"/><path class="cls-3" d="M316.78,447.65c-2.11-6.85-9.43-15.43-22.46-20l-.08-.05A77.78,77.78,0,0,0,282,424.39c.85.21,1.69.44,2.53.69,7.19,2.06,14,5.05,18.46,8.43l0,.06c8.35,6.33,6,13.91.27,19s-17.91,7.87-32.63,7.36a98.65,98.65,0,0,1-15.37-1.72A87.09,87.09,0,0,0,283,465.41a56.86,56.86,0,0,0,20.44-1.87C313.93,460.42,318.89,454.51,316.78,447.65Z"/><ellipse class="cls-5" cx="287.93" cy="448.96" rx="34.59" ry="20.63"/><path class="cls-1" d="M435.7,155.32c-5.74-5.91-16.2-9.47-26.87-10.2a83.47,83.47,0,0,0-31.06,4.25c-23.52,7.66-35.44,36-40.6,52.55l-.72.94.16.17c9.77-8.67,24.95-20.23,38.78-21.14,10.42-.68,20.92.55,31.39.42s21.74-2,28.23-7.33S441.44,161.22,435.7,155.32Z"/><path class="cls-2" d="M440.61,150.41c-7.89-8-19.63-11.15-30.48-12.13a80.53,80.53,0,0,0-18.61.76,87.89,87.89,0,0,0-16.23,3.85c-16.9,5.82-28.69,20.41-36.38,36-2,4.11-3.84,8.35-5.47,12.63q-1,2.64-1.91,5.31c-.26.79-.52,1.57-.77,2.36-.06.18-.13.37-.18.56-.21.79,1-1.78.48-1.17-.22.25-.41.54-.61.8a6.31,6.31,0,0,0-.82,4.43,6.78,6.78,0,0,0,1.91,4l.16.16a7.1,7.1,0,0,0,9.82,0c2.5-2.21,5.07-4.32,7.69-6.4-1.67,1.32-.37.28,0,0l1.13-.84c.7-.52,1.42-1,2.14-1.54q2.26-1.59,4.61-3.06t4.62-2.67c.84-.44,1.68-.87,2.54-1.28.36-.18.73-.35,1.09-.51s2.22-.71.17-.09c1.62-.49,3.16-1.21,4.78-1.68a35.72,35.72,0,0,1,5.13-1.09l-1.85.25c6.66-.82,13.51-.34,20.19-.06a151.66,151.66,0,0,0,19.77,0c12.51-1.13,27.54-4.78,32.42-17.9,2.69-7.24-.25-15.26-5.35-20.61a7,7,0,0,0-9.82,0,7.08,7.08,0,0,0,0,9.81c.27.28.51.57.78.85.93,1-.93-1.35-.18-.24a19.21,19.21,0,0,1,1.12,1.84c.29.56.39,1.51-.12-.4.09.32.24.64.34,1a14.5,14.5,0,0,1,.45,2l-.25-1.84a12.78,12.78,0,0,1,0,3.27l.25-1.85a12.57,12.57,0,0,1-.33,1.62c-.09.34-.71,1.94-.21.75s-.24.36-.45.7-.33.49-.49.74c-.42.68,1-1.14.42-.54s-.84.95-1.3,1.38l-.6.53c-.88.75.22,0,.45-.33a9.62,9.62,0,0,1-2.81,1.77c-.48.26-1,.5-1.47.73l-.68.3c1.83-.87.9-.38.44-.2-1.14.44-2.32.82-3.5,1.15a56.68,56.68,0,0,1-7.63,1.55l1.84-.25c-12.57,1.67-25.21-.21-37.83.13a47.7,47.7,0,0,0-17,3.28,82.12,82.12,0,0,0-15.7,8.5,153.21,153.21,0,0,0-14.62,11.55h9.82l-.17-.16,1.09,8.41c1.42-1.88,1.93-4.27,2.68-6.47s1.6-4.49,2.48-6.7l.66-1.62c.47-1.16-.42,1-.24.57s.27-.65.41-1c.53-1.21,1.08-2.42,1.65-3.62q1.73-3.65,3.72-7.16c1.37-2.4,2.83-4.75,4.42-7,.41-.58.82-1.15,1.24-1.72.2-.27.4-.52.59-.79.44-.59-.66.89-.58.76a6.54,6.54,0,0,1,.4-.52c.89-1.11,1.8-2.19,2.75-3.24a57.18,57.18,0,0,1,6-5.75l.76-.61c.56-.47-.87.7-.76.59a4,4,0,0,1,.39-.3c.61-.45,1.22-.89,1.85-1.31,1.13-.76,2.28-1.47,3.47-2.12.72-.4,1.45-.77,2.19-1.12l1-.48c1-.44-1.62.64-.29.13,1.76-.67,3.54-1.25,5.35-1.77a92.38,92.38,0,0,1,13.05-2.78l-1.84.25a72.32,72.32,0,0,1,18.88-.16l-1.85-.25a56.52,56.52,0,0,1,12.72,3.28c.49.2.24.09-.75-.32l.72.32c.46.21.93.43,1.39.67q1.33.67,2.61,1.47c.41.25.81.52,1.21.8s1.54,1.48,0,0c.65.64,1.38,1.19,2,1.83,2.56,2.59,7.29,2.76,9.82,0A7.07,7.07,0,0,0,440.61,150.41Z"/><path class="cls-3" d="M431.2,149.38a15.16,15.16,0,0,1-3.26,8.61c-5.21,6.75-15.44,10.53-25.18,12.34S383,172.5,373.42,174.9a35.72,35.72,0,0,0-12.89,6.78,17.14,17.14,0,0,1,3.24,4.26,33.35,33.35,0,0,1,12.17-4.59c9.78-1.34,19.76-.62,29.63-1.36s20.37-3.39,26.14-9.54S436.88,155.41,431.2,149.38Z"/><path class="cls-2" d="M440.61,150.41c-7.89-8-19.63-11.15-30.48-12.13a80.53,80.53,0,0,0-18.61.76,87.89,87.89,0,0,0-16.23,3.85c-16.9,5.82-28.69,20.41-36.38,36-2,4.11-3.84,8.35-5.47,12.63q-1,2.64-1.91,5.31c-.26.79-.52,1.57-.77,2.36-.06.18-.13.37-.18.56-.21.79,1-1.78.48-1.17-.22.25-.41.54-.61.8a6.31,6.31,0,0,0-.82,4.43,6.78,6.78,0,0,0,1.91,4l.16.16a7.1,7.1,0,0,0,9.82,0c2.5-2.21,5.07-4.32,7.69-6.4-1.67,1.32-.37.28,0,0l1.13-.84c.7-.52,1.42-1,2.14-1.54q2.26-1.59,4.61-3.06t4.62-2.67c.84-.44,1.68-.87,2.54-1.28.36-.18.73-.35,1.09-.51s2.22-.71.17-.09c1.62-.49,3.16-1.21,4.78-1.68a35.72,35.72,0,0,1,5.13-1.09l-1.85.25c6.66-.82,13.51-.34,20.19-.06a151.66,151.66,0,0,0,19.77,0c12.51-1.13,27.54-4.78,32.42-17.9,2.69-7.24-.25-15.26-5.35-20.61a7,7,0,0,0-9.82,0,7.08,7.08,0,0,0,0,9.81c.27.28.51.57.78.85.93,1-.93-1.35-.18-.24a19.21,19.21,0,0,1,1.12,1.84c.29.56.39,1.51-.12-.4.09.32.24.64.34,1a14.5,14.5,0,0,1,.45,2l-.25-1.84a12.78,12.78,0,0,1,0,3.27l.25-1.85a12.57,12.57,0,0,1-.33,1.62c-.09.34-.71,1.94-.21.75s-.24.36-.45.7-.33.49-.49.74c-.42.68,1-1.14.42-.54s-.84.95-1.3,1.38l-.6.53c-.88.75.22,0,.45-.33a9.62,9.62,0,0,1-2.81,1.77c-.48.26-1,.5-1.47.73l-.68.3c1.83-.87.9-.38.44-.2-1.14.44-2.32.82-3.5,1.15a56.68,56.68,0,0,1-7.63,1.55l1.84-.25c-12.57,1.67-25.21-.21-37.83.13a47.7,47.7,0,0,0-17,3.28,82.12,82.12,0,0,0-15.7,8.5,153.21,153.21,0,0,0-14.62,11.55h9.82l-.17-.16,1.09,8.41c1.42-1.88,1.93-4.27,2.68-6.47s1.6-4.49,2.48-6.7l.66-1.62c.47-1.16-.42,1-.24.57s.27-.65.41-1c.53-1.21,1.08-2.42,1.65-3.62q1.73-3.65,3.72-7.16c1.37-2.4,2.83-4.75,4.42-7,.41-.58.82-1.15,1.24-1.72.2-.27.4-.52.59-.79.44-.59-.66.89-.58.76a6.54,6.54,0,0,1,.4-.52c.89-1.11,1.8-2.19,2.75-3.24a57.18,57.18,0,0,1,6-5.75l.76-.61c.56-.47-.87.7-.76.59a4,4,0,0,1,.39-.3c.61-.45,1.22-.89,1.85-1.31,1.13-.76,2.28-1.47,3.47-2.12.72-.4,1.45-.77,2.19-1.12l1-.48c1-.44-1.62.64-.29.13,1.76-.67,3.54-1.25,5.35-1.77a92.38,92.38,0,0,1,13.05-2.78l-1.84.25a72.32,72.32,0,0,1,18.88-.16l-1.85-.25a56.52,56.52,0,0,1,12.72,3.28c.49.2.24.09-.75-.32l.72.32c.46.21.93.43,1.39.67q1.33.67,2.61,1.47c.41.25.81.52,1.21.8s1.54,1.48,0,0c.65.64,1.38,1.19,2,1.83,2.56,2.59,7.29,2.76,9.82,0A7.07,7.07,0,0,0,440.61,150.41Z"/><rect class="cls-6" x="269.79" y="259.4" width="108.19" height="50.18" rx="5.4"/><circle class="cls-7" cx="310.51" cy="287.1" r="4.46"/><circle class="cls-7" cx="283.77" cy="287.1" r="4.46"/><circle class="cls-7" cx="291.69" cy="278.18" r="4.46"/><circle class="cls-7" cx="302.59" cy="278.18" r="4.46"/><circle class="cls-7" cx="364" cy="287.1" r="4.46"/><circle class="cls-7" cx="337.25" cy="287.1" r="4.46"/><circle class="cls-7" cx="345.18" cy="278.18" r="4.46"/><circle class="cls-7" cx="356.07" cy="278.18" r="4.46"/><g id="Laag_2" data-name="Laag 2"><path class="cls-8" d="M372.23,381.35c-3.7,9.76-11.16,15.06-14.66,17.48-10.53,7.27-21.22,8-28.16,8.44s-37.06,2.18-47.26-16.21a24.17,24.17,0,0,1-2.91-15.18c2.35-14.52,20.19-26.57,36.15-26.63,17.83-.07,26.12,14.85,40.45,9.83,7.05-2.47,9.27-7.57,13.05-6.21,5.87,2.12,7.67,17.06,3.34,28.48"/><path class="cls-9" d="M353.62,387.19a19.67,19.67,0,0,1-7.65,9.13c-5.5,3.79-11.08,4.19-14.7,4.4s-19.36,1.14-24.68-8.46a12.59,12.59,0,0,1-1.52-7.93c1.22-7.58,10.54-13.87,18.87-13.9,9.31,0,13.64,7.75,21.12,5.13,3.68-1.29,4.84-3.95,6.82-3.24,3.06,1.1,4,8.91,1.74,14.87"/><path class="cls-8" d="M348.3,390c-5.57,3.79-11.23,4.18-14.9,4.39-3.3.19-16.63.95-23.17-6a13.68,13.68,0,0,0,.69,1.78c4.48,9.55,18,8.47,21.11,8.22a21.41,21.41,0,0,0,12.66-4.55,21.8,21.8,0,0,0,4.09-4.2Z"/><path class="cls-8" d="M295,327.61c-1.5,1.2-2,1.25-2.85,1.9-4,3.08-3.35,10.25-3.26,11.29a18.87,18.87,0,0,0,2.29,7.42c5.72,10.24,22.25,16.22,33.59,11a20.82,20.82,0,0,0,5.38-3.65c.36-.33,8.38-8,7.33-19-1.08-11.18-11-20.68-20.77-20.93a24,24,0,0,0-14.28,5,43.8,43.8,0,0,0-3.79,3.45,17.85,17.85,0,0,1-3.64,3.58"/><path class="cls-8" d="M295,327.61c-1.5,1.2-2,1.25-2.85,1.9-4,3.08-3.35,10.25-3.26,11.29a18.87,18.87,0,0,0,2.29,7.42c5.72,10.24,22.25,16.22,33.59,11a20.82,20.82,0,0,0,5.38-3.65c.36-.33,8.38-8,7.33-19-1.08-11.18-11-20.68-20.77-20.93a24,24,0,0,0-14.28,5,43.8,43.8,0,0,0-3.79,3.45,17.85,17.85,0,0,1-3.64,3.58"/><path class="cls-10" d="M280.65,336a8.35,8.35,0,0,1,4.69-2.58c2.48-.55,4.42.06,6.72.77,2.9.9,5.3,1.64,5.94,3.57.3.93,0,1.91-.64,3.87s-1.15,3.55-2.68,4.9a6,6,0,0,1-3.55,1.74c-3.2.19-3.71-3.45-9-5.64-1.65-.68-2.73-.77-3.15-1.79-.8-1.91,1.56-4.66,1.71-4.84"/><path class="cls-10" d="M279.67,329.56a9.78,9.78,0,0,0,.88,5.53,12.25,12.25,0,0,0,4.61,5.25c2.75,1.94,8.64,4.82,11.26,2.31a4.46,4.46,0,0,0,1.12-4.44c-.41-1-1.19-.93-2-1.89-1.74-2.15.35-4.79-.9-6.68-1.65-2.5-6.63.33-9.17-2.84-1.12-1.4-1-2.76-1.87-2.93-1.41-.27-3.51,2.71-4,5.69"/><path class="cls-11" d="M296.48,342.26c-2.63,2.51-8.52-.37-11.27-2.31a12.31,12.31,0,0,1-4.61-5.25,10.24,10.24,0,0,1-1-4.57,10.17,10.17,0,0,0,.92,5.08,12.17,12.17,0,0,0,4.51,5.24c2.69,1.93,8.46,4.81,11,2.29a3.77,3.77,0,0,0,.44-.52Z"/><path class="cls-1" d="M298.91,331.41c.52,1.69,2.76,2.59,4.54,2.42,2.9-.27,4.2-3.35,4.43-3.89.36-.83.91-2.14.32-3.18-.86-1.5-3.51-1.34-4.77-1.06a6.19,6.19,0,0,0-4.16,3.22,3.55,3.55,0,0,0-.36,2.49"/><path class="cls-12" d="M299.43,331a2.2,2.2,0,0,0,2.27,1.21c1.45-.14,2.1-1.68,2.22-1.95a1.87,1.87,0,0,0,.16-1.59c-.43-.75-1.76-.67-2.39-.53a3.13,3.13,0,0,0-2.08,1.61,1.81,1.81,0,0,0-.18,1.25"/><path class="cls-11" d="M289.59,331.37a.87.87,0,0,0,.36,1,1.22,1.22,0,0,0,1.19,0c.17-.08.42-.21.47-.44s-.35-.67-.58-.79A1.25,1.25,0,0,0,290,331a.73.73,0,0,0-.38.33"/></g><ellipse class="cls-13" cx="389.53" cy="374.24" rx="36.5" ry="17.75" transform="translate(-115.63 182.93) rotate(-23.11)"/><path class="cls-3" d="M357.48,387.19c1.45-6.59,7.56-16.65,19.18-25.59l.07-.07a110.28,110.28,0,0,1,11-7.43q-1.14.76-2.28,1.56c-6.44,4.53-12.48,9.69-16.33,14.26l0,.06c-7.21,8.57-4.56,14.06,1.1,16.13s17-.33,30.46-6.46a132.51,132.51,0,0,0,14-7.41A125.33,125.33,0,0,1,389.74,389a64.89,64.89,0,0,1-18.88,6.35C361,396.83,356,393.78,357.48,387.19Z"/><ellipse class="cls-14" cx="389.53" cy="374.23" rx="36.5" ry="17.75" transform="translate(-122.76 202.92) rotate(-25.36)"/><ellipse class="cls-15" cx="259.64" cy="369.41" rx="18.46" ry="36.7" transform="translate(-191.79 359.66) rotate(-53.66)"/><path class="cls-3" d="M288.15,389.15c-6.09,2.6-17.21,3.28-30-1.34l-.09,0a91.63,91.63,0,0,1-11.28-5l2.35,1c6.75,2.81,13.82,4.92,19.38,5.51l.05,0C279,390.41,282.23,385,281.28,379s-8.25-14.14-19.61-21.95A110.09,110.09,0,0,0,249,349.57a103.45,103.45,0,0,1,25.5,11.3,55.14,55.14,0,0,1,14.08,12.24C294.41,380.59,294.24,386.55,288.15,389.15Z"/><ellipse class="cls-16" cx="259.64" cy="369.41" rx="18.46" ry="36.7" transform="translate(-191.79 359.66) rotate(-53.66)"/></svg>