<svg id="Laag_2" data-name="Laag 2" xmlns="http://www.w3.org/2000/svg" width="24" height="24" viewBox="0 0 24 24"><path d="M23.2,16.1a1.8,1.8,0,0,0-2.1-1.6A1.7,1.7,0,0,0,19.5,16l-1.8-4.1,1.5-3.8A2.3,2.3,0,0,0,20,9.2a1.9,1.9,0,0,0,2.6-.4,2,2,0,0,0-.4-2.7,1.9,1.9,0,0,0-2.7.5,1.1,1.1,0,0,0-.3.8l-5.3-4A1.9,1.9,0,0,0,12,1.7a1.8,1.8,0,0,0-1.8,1.7l-5.5,4A1.8,1.8,0,0,0,2.9,5.8,1.8,1.8,0,0,0,1,7.7,1.9,1.9,0,0,0,2.9,9.6,1.8,1.8,0,0,0,4.7,7.9l1.7,3.9L4.5,16a1.8,1.8,0,0,0-1.7-1.6,1.9,1.9,0,0,0-2,1.8,1.8,1.8,0,0,0,1.8,2,1.9,1.9,0,0,0,2-1.7l5.6,4.1A1.8,1.8,0,0,0,12,22.3a1.9,1.9,0,0,0,1.9-1.7l5.6-4.2v.2a1.9,1.9,0,0,0,2.1,1.6A2,2,0,0,0,23.2,16.1Zm-4.1-.3L16.8,14l.7-1.8Zm.1.5-4.9,3.6,2.3-5.6ZM13.9,12Zm2.6,1.8L14.2,12l2.4-1.9.7,1.8Zm.3-3.9,2.1-1.7-1.4,3.3Zm-.1-.3L14.3,4.1l4.8,3.6ZM12,5.5a1.9,1.9,0,0,0,1.9-1.6l2.5,5.9-2.5,2A1.9,1.9,0,0,0,12,10.1a1.8,1.8,0,0,0-1.8,1.7L7.6,9.7l2.6-5.8A1.8,1.8,0,0,0,12,5.5ZM9.9,12,7.5,13.8l-.8-2L7.5,10ZM7.4,9.5,5,7.6,9.8,4.1ZM4.8,7.6Zm.3.5L7.2,9.8l-.7,1.6ZM7.3,14,4.9,15.8l1.6-3.6ZM4.6,16.3Zm2.8-2L9.8,20l-5-3.7ZM12,18.5a1.8,1.8,0,0,0-1.8,1.6l-2.6-6,2.6-1.9A1.8,1.8,0,0,0,12,13.9a1.9,1.9,0,0,0,1.9-1.7l2.5,1.9-2.5,6A1.9,1.9,0,0,0,12,18.5Zm7.4-2.2Z"/></svg>