<?xml version="1.0" encoding="UTF-8"?> <svg xmlns="http://www.w3.org/2000/svg" xmlns:xlink="http://www.w3.org/1999/xlink" width="478px" height="448px" viewBox="0 0 478 448" version="1.1"><title>douwnload illustratie</title><g id="Design" stroke="none" stroke-width="1" fill="none" fill-rule="evenodd"><g id="Download" transform="translate(-1156.000000, -235.000000)"><g id="Group-20" transform="translate(0.000000, 160.000000)"><g id="douwnload-illustratie" transform="translate(1098.000000, 1.215218)"><g id="ASRieview-logo" transform="translate(329.700158, 189.801585)"><path d="M124.153955,62.7090364 C108.393361,57.2545596 90.6795047,58.0363679 75.1576154,63.3817553 C59.6381496,68.7271426 46.2258317,78.4070209 35.4695622,89.9741481 C9.14535892,118.285307 -1.25103531,158.750253 8.30565015,195.70494 C14.0430542,217.896176 27.0167364,239.059546 46.7214173,253.026643 C66.4260983,266.99374 93.1392577,272.988816 116.383317,266.23981 C133.785766,261.186541 148.143211,249.579414 158.83526,236.005039 C179.720138,209.491433 187.719788,174.470055 180.347799,141.829254 C172.97581,109.189664 153.863651,73.0882999 124.335711,62.8847918" id="Fill-1" fill="#FEFEFE"></path><path d="M158.85598,286.628524 C158.85598,297.160513 144.542157,305.698587 126.884039,305.698587 C109.227132,305.698587 94.9120973,297.160513 94.9120973,286.628524 C94.9120973,276.096535 109.227132,267.558461 126.884039,267.558461 C144.542157,267.558461 158.85598,276.096535 158.85598,286.628524" id="Fill-3" fill="#FEFEFE"></path><path d="M195.627712,14.4142498 C190.320461,8.95613662 180.651088,5.66163259 170.792689,4.98406535 C160.935502,4.30649812 150.949874,6.02768859 142.083858,8.91613712 C120.342308,16.0033207 109.321887,42.2320818 104.551421,57.4985565 L103.887409,58.3749091 L104.038871,58.5264224 C113.064832,50.5107656 127.102387,39.8260515 139.884621,38.986062 C149.516432,38.3533427 159.216098,39.4963586 168.895165,39.375148 C178.574232,39.2539374 188.988802,37.5460801 194.984298,32.5909909 C201.123987,27.5171153 200.93375,19.872363 195.627712,14.4142498" id="Fill-5" fill="#FEFEFE"></path><path d="M193.406664,8.898804 C193.279435,11.6224061 192.291899,14.3702504 190.32652,16.8587039 C185.391262,23.104686 175.725523,26.5979754 166.509326,28.2779543 C157.29434,29.9591452 147.860036,30.2936865 138.771068,32.5130525 C134.61251,33.5287973 130.497573,35.8196776 126.587414,38.7917614 C127.78821,39.9105353 128.821791,41.2365792 129.644536,42.7250453 C133.427466,40.5493151 137.314603,38.9905468 141.149637,38.4754018 C150.399762,37.2329932 159.832854,37.9008636 169.162951,37.2063268 C178.493048,36.5130022 188.427785,34.0657603 193.880439,28.3797712 C199.419124,22.6028741 198.775711,14.4647946 193.406664,8.898804" id="Fill-7" fill="#D4D3D3"></path><path d="M182.83736,141.829738 C175.465371,109.188937 156.353212,73.0887847 126.82406,62.8840645 L126.643516,62.7095213 C117.89867,59.6828927 108.551609,58.5786641 99.3123894,59.1059302 C101.202643,59.3519877 103.090473,59.6538021 104.973456,60.0283429 C121.058786,63.2246663 136.741832,71.4657748 147.602308,84.1056159 L147.671375,84.3480371 C168.026739,108.01683 166.36792,148.795712 156.315649,180.680159 C146.263378,212.564607 121.744609,238.767913 90.383365,251.142303 C79.9554666,255.257403 68.6115222,257.87434 57.1294439,258.001611 C75.7217834,268.320269 98.6132379,272.121433 118.871666,266.239083 C136.274115,261.185813 150.632772,249.579899 161.324821,236.005524 C182.209699,209.491918 190.209348,174.47054 182.83736,141.829738" id="Fill-9" fill="#D4D3D3"></path><path d="M137.504477,157.037305 L50.3468266,157.037305 C46.8147183,157.037305 43.9260232,154.147644 43.9260232,150.614355 L43.9260232,117.06811 C43.9260232,113.536034 46.8147183,110.645161 50.3468266,110.645161 L137.504477,110.645161 C141.036585,110.645161 143.92528,113.536034 143.92528,117.06811 L143.92528,150.614355 C143.92528,154.147644 141.036585,157.037305 137.504477,157.037305" id="Fill-11" fill="#13120D"></path><path d="M50.3460996,112.250959 C47.6912628,112.250959 45.5308,114.412144 45.5308,117.06908 L45.5308,150.614113 C45.5308,153.271049 47.6912628,155.432234 50.3460996,155.432234 L137.50375,155.432234 C140.159798,155.432234 142.320261,153.271049 142.320261,150.614113 L142.320261,117.06908 C142.320261,114.412144 140.159798,112.250959 137.50375,112.250959 L50.3460996,112.250959 Z M137.50375,158.643103 L50.3460996,158.643103 C45.9209677,158.643103 42.3197924,155.041936 42.3197924,150.614113 L42.3197924,117.06908 C42.3197924,112.641257 45.9209677,109.04009 50.3460996,109.04009 L137.50375,109.04009 C141.930093,109.04009 145.530057,112.641257 145.530057,117.06908 L145.530057,150.614113 C145.530057,155.041936 141.930093,158.643103 137.50375,158.643103 L137.50375,158.643103 Z" id="Fill-13" fill="#13120D"></path><path d="M154.458839,284.708548 C152.506788,278.370446 145.743074,270.439636 133.697555,266.169387 L133.627276,266.123327 C130.060028,264.857888 126.172892,263.878507 122.273638,263.193667 C123.057608,263.396089 123.840367,263.608207 124.618279,263.831235 C131.263247,265.743938 137.562881,268.506327 141.681452,271.633561 L141.702051,271.682045 C149.42301,277.538941 147.296474,284.543701 141.95772,289.284248 C136.617754,294.026006 125.401038,296.55446 111.793636,296.085375 C107.269145,295.930225 102.412647,295.434474 97.5852308,294.491455 C105.032345,297.862322 114.516328,300.452592 123.232093,301.125311 C130.717982,301.703486 137.155749,300.876829 142.122511,299.39806 C151.824601,296.5084 156.412101,291.04665 154.458839,284.708548" id="Fill-15" fill="#D4D3D3"></path><path d="M92.9383577,286.628524 C92.9383577,297.160513 78.6245342,305.698587 60.9664162,305.698587 C43.3095098,305.698587 28.9944747,297.160513 28.9944747,286.628524 C28.9944747,276.096535 43.3095098,267.558461 60.9664162,267.558461 C78.6245342,267.558461 92.9383577,276.096535 92.9383577,286.628524" id="Fill-17" fill="#FEFEFE"></path><path d="M87.8827777,284.708548 C85.9307275,278.370446 79.1670127,270.439636 67.1214935,266.169387 L67.0512149,266.123327 C63.4839672,264.857888 59.5968306,263.878507 55.6975769,263.193667 C56.4815474,263.396089 57.2643062,263.608207 58.0422182,263.831235 C64.6871863,265.743938 70.9868196,268.506327 75.1053911,271.633561 L75.1259901,271.682045 C82.8469486,277.538941 80.7204134,284.543701 75.381659,289.284248 C70.0416928,294.026006 58.8249771,296.55446 45.2175753,296.085375 C40.6930839,295.930225 35.8365865,295.434474 31.0091698,294.491455 C38.4574956,297.862322 47.9402673,300.452592 56.6560323,301.125311 C64.1419209,301.703486 70.5796881,300.876829 75.5464503,299.39806 C85.2485399,296.5084 89.8360397,291.04665 87.8827777,284.708548" id="Fill-19" fill="#D4D3D3"></path><path d="M196.309293,24.4229724 C196.2996,24.4581235 196.29233,24.4811535 196.280213,24.5247893 C196.169948,24.9090269 196.059683,25.2981129 195.954265,25.6835626 C195.933666,25.7550769 195.919126,25.8144701 195.905797,25.8653785 C195.875505,25.9114386 195.840365,25.9671954 195.797956,26.0387097 C195.579849,26.3962809 195.365378,26.7696096 195.156966,27.1320293 C195.112133,27.2120283 195.091534,27.2508157 195.061241,27.3065725 C195.039431,27.3296025 195.02489,27.3417236 194.988539,27.3841473 C194.741352,27.6738406 194.486895,27.9550492 194.217898,28.2241368 C193.959805,28.4835274 193.683537,28.718676 193.409693,28.958673 C193.499359,28.8568561 192.636628,29.5441202 192.490012,29.6410886 C191.899914,30.0277504 191.290428,30.3828975 190.666402,30.7125903 C190.281081,30.9162241 189.884855,31.0968279 189.495899,31.291977 C189.391693,31.3440975 189.316567,31.3828849 189.25477,31.4168239 C189.188127,31.4398539 189.110578,31.4677323 189.00516,31.5077318 C187.240923,32.1671175 185.4573,32.7234741 183.622784,33.1501354 C182.827909,33.3355876 182.026974,33.500434 181.223617,33.6470989 C180.735301,33.7367947 180.245774,33.8192179 179.753823,33.8955806 C179.748976,33.8955806 179.049825,33.9901249 178.835354,34.0216396 C176.895421,34.2555761 174.944582,34.4083014 172.992532,34.4907246 C164.055026,34.8628411 155.127213,33.8640658 146.188495,33.9877006 C142.004492,34.0446696 137.832605,34.3416356 133.792794,35.5028331 C129.949279,36.6070616 126.222087,38.2712831 122.713001,40.1767137 C120.567078,41.3415476 118.484164,42.6227436 116.446083,43.9766659 C117.75472,41.1767011 119.161505,38.4227964 120.725811,35.7585875 C121.592177,34.2834545 122.500953,32.8325636 123.458197,31.4156118 C123.939242,30.7016814 124.432404,29.9974478 124.937684,29.3004869 C125.210316,28.924734 125.487796,28.5538296 125.766487,28.1829251 C125.778604,28.1671678 125.813743,28.1211077 125.854941,28.0689872 C125.950666,27.9489887 126.082741,27.7817181 126.113034,27.746567 C128.364374,24.9720564 130.797469,22.3575439 133.52622,20.0448457 C133.877613,19.7466676 134.235065,19.4569743 134.592517,19.1660688 C134.650678,19.1200088 134.678548,19.0957667 134.713687,19.0666761 C134.752461,19.0387977 134.794871,19.0097072 134.867573,18.9563745 C135.613981,18.4145631 136.362812,17.8812365 137.137089,17.3806367 C138.632328,16.410952 140.191787,15.5382357 141.805773,14.7794573 C141.893015,14.7382457 142.226233,14.5867325 142.443127,14.4873398 C142.627306,14.4170376 143.279201,14.1491622 143.419758,14.0970417 C144.430317,13.7176525 145.459051,13.3891718 146.49142,13.0740242 C148.860296,12.3491849 151.260675,11.7225261 153.684077,11.2037447 C158.536939,10.1649699 162.716096,9.67043066 167.819781,9.65433551 C169.339254,9.64982486 170.858727,9.697097 172.374564,9.80133811 C172.990109,9.84497392 173.604441,9.89709448 174.218773,9.96012399 C174.481712,9.98679032 174.744651,10.017093 175.006379,10.0461835 L175.329903,10.0849709 C175.365042,10.0898193 175.429263,10.1007283 175.555279,10.1176978 C178.10591,10.509208 180.631095,11.0643525 183.095695,11.8316156 C184.21773,12.1819142 185.330071,12.5722124 186.416967,13.0194795 C186.499363,13.0643274 187.249405,13.4000807 187.399656,13.4728071 C187.959462,13.7406825 188.511998,14.0243153 189.057263,14.3249176 C190.038741,14.866729 190.980233,15.4679335 191.898702,16.1115618 C191.912031,16.1212586 191.975039,16.1685308 192.044106,16.2206513 C192.19678,16.3527709 192.611182,16.6933727 192.600277,16.6848879 C193.017102,17.0473076 193.41454,17.429121 193.803496,17.8206312 C194.050683,18.081234 194.288176,18.3503215 194.520823,18.6230454 C194.594737,18.7418317 194.976422,19.2545526 195.007927,19.3042489 C195.239362,19.6678807 195.425963,20.0545425 195.650128,20.4193864 C195.703443,20.506658 195.743429,20.5684754 195.778568,20.620596 C195.793109,20.6702923 195.810073,20.7272613 195.831883,20.7975635 C196.002733,21.3321022 196.137232,21.8654288 196.265672,22.4072402 C196.297176,22.599965 196.354126,22.9332942 196.358973,23.0532927 C196.374725,23.5114687 196.348068,23.9672206 196.309293,24.4229724 M114.794535,47.6396502 C114.834521,47.5438938 114.873295,47.4481374 114.914493,47.3523811 C114.91934,47.3390479 114.925399,47.3245026 114.930245,47.3135937 C114.931457,47.3099574 114.93388,47.3075331 114.935092,47.3038968 C114.752125,47.7487397 114.746074,47.7608608 114.794535,47.6396502 M123.0547,67.529097 C123.993769,67.8575778 124.917085,68.2187853 125.841613,68.5836292 C126.034273,68.6684767 126.229357,68.752112 126.422017,68.8393836 C126.91518,69.061199 127.404707,69.2914991 127.890599,69.5266477 C129.780852,70.4466361 131.619003,71.4720778 133.400203,72.5884274 C134.267781,73.1338751 135.123242,73.6987164 135.964162,74.2853757 C136.357965,74.5605238 136.749345,74.8405203 137.137089,75.1229409 C137.303092,75.2453637 137.469095,75.3677864 137.635098,75.4902091 C137.626616,75.4841485 137.987703,75.7592966 138.167035,75.8950525 C138.377871,76.0635352 138.838317,76.4295912 138.951005,76.5204991 C139.382371,76.8707978 139.810101,77.2259448 140.232985,77.5871524 C141.084811,78.3132039 141.919673,79.0598611 142.738782,79.8222758 C145.877088,82.7495117 148.771841,85.9349262 151.443642,89.2924597 C151.62055,89.5142751 151.795035,89.7373026 151.970732,89.9603301 C151.992543,89.9906328 152.007083,90.0088144 152.03374,90.0439654 C152.342724,90.4536573 152.650496,90.862137 152.955845,91.2754651 C153.611375,92.1651509 154.253577,93.0645335 154.880026,93.973613 C156.191086,95.8729831 157.441562,97.8123526 158.636299,99.7856611 C161.022138,103.726218 163.185024,107.800106 165.14798,111.966114 C165.602368,112.928526 166.044639,113.895787 166.476004,114.867896 C166.692899,115.35395 166.906158,115.841217 167.116994,116.329696 C167.138805,116.380604 167.230894,116.596359 167.302384,116.762417 C167.38478,116.959991 167.581075,117.427864 167.607733,117.489681 C168.474099,119.595109 169.295632,121.717507 170.069909,123.858086 C173.236084,132.610703 175.783079,141.691801 177.168053,150.90623 C177.204404,151.151076 177.239544,151.395921 177.275895,151.640767 C177.289224,151.735311 177.298917,151.79228 177.304976,151.833491 C177.378889,152.404393 177.449168,152.975295 177.513388,153.546197 C177.662427,154.85406 177.787233,156.165558 177.889015,157.478269 C178.079253,159.935208 178.187094,162.399419 178.21254,164.862419 C178.265854,169.86478 177.982316,174.870778 177.370407,179.835564 C177.349809,179.996774 177.32921,180.157984 177.308611,180.319194 C177.291647,180.441617 177.258931,180.686462 177.249237,180.748279 C177.152301,181.396756 177.057789,182.045233 176.953582,182.692497 C176.758498,183.907028 176.542816,185.117921 176.307746,186.325179 C175.821854,188.819693 175.253566,191.299662 174.601671,193.756601 C173.336655,198.528662 171.734786,203.185573 169.897848,207.764909 C169.87846,207.812182 169.776678,208.058239 169.730633,208.169753 C169.62885,208.410962 169.525855,208.649747 169.421649,208.889744 C169.191426,209.418222 168.956356,209.944276 168.718863,210.469118 C168.207525,211.595164 167.679223,212.713938 167.131534,213.821803 C165.997382,216.118744 164.785681,218.376897 163.497643,220.591415 C162.247168,222.741691 160.926414,224.849543 159.535381,226.912547 C158.838653,227.946474 158.123749,228.969491 157.391882,229.980388 C157.050182,230.453109 156.703636,230.922194 156.353454,231.390067 C156.154735,231.65673 155.953593,231.922181 155.751239,232.187633 C155.691866,232.263995 155.663997,232.302783 155.639762,232.334297 C155.581601,232.407024 155.524651,232.47975 155.430138,232.599749 C152.478435,236.328187 149.30499,239.876021 145.875876,243.172949 C144.149202,244.834746 142.35952,246.432302 140.510464,247.955919 C140.01609,248.363187 139.515658,248.763182 139.014014,249.161965 C138.972816,249.194691 138.775309,249.347417 138.679584,249.420143 C138.545085,249.523172 138.409375,249.624989 138.273664,249.726806 C137.246142,250.497705 136.202867,251.244363 135.142629,251.966778 C131.084643,254.729167 126.779469,257.133986 122.271941,259.08184 C121.972651,259.204263 121.67215,259.325473 121.371648,259.445472 C120.840923,259.655166 120.307774,259.8588 119.772202,260.056373 C118.543538,260.509701 117.301544,260.929089 116.048645,261.312115 C113.72945,262.021197 111.370268,262.605432 108.988064,263.06482 C106.236291,263.59451 105.401429,263.70966 102.587859,263.941173 C100.082062,264.148443 97.5665706,264.228442 95.0535028,264.188442 C92.609502,264.148443 90.1691363,263.995717 87.7384642,263.735115 C87.2259147,263.68057 86.7133651,263.618752 86.2008156,263.554511 C86.073587,263.537541 85.9087957,263.514511 85.859116,263.507239 C85.5355918,263.458754 85.2120677,263.411482 84.8885435,263.360574 C83.5956586,263.15694 82.3064088,262.921792 81.0232174,262.658765 C76.2054944,261.669686 71.4725905,260.270916 66.8863024,258.493968 C66.2756051,258.257608 65.6673312,258.012762 65.0614807,257.764281 C65.1620519,257.80428 65.5922057,257.990944 65.0808679,257.772765 C64.7803661,257.644282 64.4798643,257.513375 64.1817858,257.380043 C63.0609624,256.884292 61.9498327,256.36551 60.8508199,255.823699 C58.5885742,254.708561 56.3747965,253.496456 54.2179688,252.189805 C52.1399017,250.930427 50.1163611,249.580141 48.1534055,248.148644 C46.9598801,247.27714 46.6581666,247.043203 45.8160344,246.366848 C44.800629,245.552313 43.8033991,244.714748 42.8243447,243.857789 C39.1831833,240.668738 35.7940558,237.192418 32.6836194,233.483374 C30.9484636,231.414309 30.3111089,230.590077 28.7322626,228.380408 C27.2951852,226.3671 25.9332334,224.300459 24.6464069,222.187758 C22.1260689,218.049629 19.9195615,213.738168 17.9735698,209.30186 C17.9711464,209.295799 17.9166198,209.168528 17.8657284,209.053378 C17.7966614,208.887319 17.6548924,208.546718 17.6306584,208.487325 C17.4198224,207.977028 17.2138333,207.464307 17.0114792,206.950374 C16.5510328,205.778268 16.1111854,204.597676 15.6919369,203.409813 C14.9079663,201.191659 14.1979096,198.948051 13.5593432,196.685049 C12.247071,192.025713 11.2607465,187.285167 10.5664418,182.494924 C10.5591716,182.435531 10.5531131,182.394319 10.5470546,182.357956 C10.5167621,182.122808 10.4864695,181.888871 10.4586004,181.653723 C10.3895335,181.104639 10.3277367,180.55313 10.2683634,180.001622 C10.1326529,178.742244 10.018753,177.481654 9.9278754,176.218639 C9.74975536,173.776246 9.65160758,171.327792 9.63343206,168.878126 C9.60071614,164.144852 9.86607865,159.409154 10.4234611,154.708607 C10.4598121,154.395884 10.4997982,154.08316 10.5385727,153.769225 C10.5434195,153.725589 10.5579599,153.618924 10.5725003,153.515895 C10.6439907,153.011658 10.7166927,152.507422 10.7942416,152.004398 C10.974785,150.835928 11.1722923,149.66867 11.3891868,148.505048 C11.8363044,146.10023 12.3609709,143.709957 12.9595512,141.337866 C14.1409596,136.663985 15.6131763,132.062831 17.3652959,127.571978 C17.5676499,127.055621 17.7724274,126.541688 17.9820517,126.027755 C18.0341548,125.899272 18.3067875,125.250795 18.3867598,125.058071 C18.8678051,123.942933 19.3621791,122.832644 19.877152,121.733264 C20.8864989,119.575715 21.963701,117.449681 23.1051233,115.358799 C25.4376477,111.088549 28.0403813,106.964965 30.8975722,103.02562 C32.4570313,100.875344 33.1295254,100.013537 34.8755864,97.92023 C36.4847253,95.9929815 38.1568726,94.1190657 39.8908167,92.3021189 C43.3259889,88.7021641 46.9950194,85.3228127 50.8857912,82.2198214 C51.1354016,82.0222481 51.385012,81.8234628 51.6358341,81.6283137 C51.6540096,81.6149805 51.6661266,81.6052837 51.6879372,81.5883142 C52.2186623,81.1822587 52.7554458,80.7834758 53.2946527,80.3883293 C54.3076347,79.6477325 55.3339454,78.9241053 56.3735848,78.2222959 C58.5292008,76.7653445 60.7441902,75.3932406 63.0112827,74.116893 C65.2177901,72.8744844 67.4739773,71.7229837 69.7762091,70.6696636 C70.3154161,70.422394 70.8570464,70.1811849 71.4011001,69.9448242 C72.3074525,69.5508898 71.8579114,69.7520994 71.656769,69.8357347 C71.9718113,69.7048273 72.2868535,69.5775561 72.6031075,69.4514971 C73.869335,68.9460489 75.1488912,68.4709034 76.438141,68.0272726 C78.9815013,67.15092 81.5696946,66.4030506 84.1869687,65.7836644 C85.4156334,65.492759 86.6515684,65.2309441 87.8923502,64.9982198 C88.6024069,64.863676 89.3148871,64.7400412 90.0297907,64.6261032 C90.2975766,64.5824674 90.5653625,64.5412558 90.8343601,64.5012563 C90.9373547,64.485499 91.3469096,64.4297421 91.5298765,64.4042879 C96.977684,63.7097511 102.516369,63.6018737 107.985987,64.0964129 C110.43847,64.3194404 112.297219,64.5958006 115.02597,65.1763994 C117.445737,65.6903323 119.821882,66.361839 122.168947,67.1351626 C122.446426,67.2866759 122.742081,67.4200075 123.0547,67.529097 M151.957403,89.9445728 C151.825328,89.7736658 151.551483,89.4063977 151.957403,89.9445728 M154.54075,285.915442 C154.54075,294.076551 141.736706,300.97101 126.581962,300.97101 C111.426006,300.97101 98.6231739,294.076551 98.6231739,285.915442 C98.6231739,277.754332 111.426006,270.859874 126.581962,270.859874 C141.736706,270.859874 154.54075,277.754332 154.54075,285.915442 M90.5726327,273.576203 C92.325964,273.687717 94.0817187,273.754383 95.8374734,273.755595 C94.8632658,274.782248 94.0126517,275.863447 93.2941131,276.99313 C92.5331649,275.796781 91.6195423,274.656189 90.5726327,273.576203 M60.0050526,300.97101 C44.8503087,300.97101 32.0474764,294.076551 32.0474764,285.915442 C32.0474764,277.754332 44.8503087,270.859874 60.0050526,270.859874 C75.1610082,270.859874 87.9638405,277.754332 87.9638405,285.915442 C87.9638405,294.076551 75.1610082,300.97101 60.0050526,300.97101 M200.614467,11.0073836 C193.633858,3.98322945 183.279873,1.16144675 173.692895,0.274185184 C163.109899,-0.70519644 152.039799,1.00144877 141.999645,4.3989818 C126.791586,9.54800796 116.220707,22.7514783 109.275237,36.6919091 C107.412853,40.431256 105.763728,44.2833287 104.272124,48.1850979 C103.668697,49.7644719 103.095562,51.3571792 102.551508,52.9583712 C102.412163,53.3692751 102.278876,53.7826032 102.144377,54.1947193 C86.9290479,54.0504787 71.6434403,58.2431532 58.370468,65.6733628 C40.0131985,75.9483851 24.8378557,92.0851519 14.7880079,110.495829 C4.99382909,128.439846 -0.22860204,148.892922 0.00767964728,169.352059 C0.241537932,189.800287 5.92683883,210.248515 16.7049189,227.661629 C25.9586791,242.612956 38.7893805,254.931589 54.1779827,263.123001 C36.8664111,264.861161 24.0211692,274.246498 24.0211692,285.915442 C24.0211692,298.860734 39.8265966,309 60.0050526,309 C75.2264401,309 87.9565703,303.229163 93.2941131,294.837754 C98.6316558,303.229163 111.360574,309 126.581962,309 C146.760418,309 162.567057,298.860734 162.567057,285.915442 C162.567057,274.827096 150.966232,265.80418 134.957239,263.441785 C150.315548,254.626138 162.831208,240.826312 171.689953,225.667715 C182.39412,207.351581 188.070939,186.08397 187.844351,164.862419 C187.629879,144.751156 181.85976,124.772014 173.270011,106.692241 C165.309136,89.9312396 153.784648,73.784776 137.740516,63.9461118 C134.201137,61.77523 130.419419,60.0067674 126.520165,58.5801187 C126.183312,58.3789091 125.828284,58.1983053 125.434481,58.0637615 C122.52034,57.0698346 119.558943,56.28439 116.569677,55.6771249 C116.770819,55.5268237 116.97802,55.3716742 117.202185,55.2056156 C120.375629,52.8468574 123.676303,50.6444609 127.140556,48.7341819 C128.788469,47.8238903 130.47758,46.9681435 132.211524,46.2323951 C132.421149,46.1523962 133.010035,45.9160355 133.022152,45.9123992 C133.463212,45.7427043 133.907906,45.5802821 134.355023,45.4263447 C135.232295,45.1221061 136.121683,44.846958 137.019554,44.6081731 C137.895614,44.3730246 138.781367,44.1730271 139.675602,44.011817 C139.757998,43.9972717 140.419587,43.9100001 140.534698,43.8881822 C140.844894,43.8578796 141.155089,43.8251527 141.466496,43.8033348 C144.018339,43.6178826 146.585933,43.5924283 149.145045,43.6178826 C158.270365,43.7063663 167.415072,44.6930206 176.533122,43.8990912 C184.747243,43.1839486 193.490877,41.4482129 199.971054,35.9961602 C203.572229,32.9671074 205.821146,28.5574659 205.990784,23.8435858 C206.164057,18.9951619 203.876366,14.4570371 200.614467,11.0073836" id="Fill-21" fill="#55514F"></path><path d="M85.6853581,136.258657 C85.6853581,138.534992 83.8411492,140.379817 81.5655748,140.379817 C79.2900004,140.379817 77.4457915,138.534992 77.4457915,136.258657 C77.4457915,133.983534 79.2900004,132.137497 81.5655748,132.137497 C83.8411492,132.137497 85.6853581,133.983534 85.6853581,136.258657" id="Fill-23" fill="#FECD00"></path><path d="M60.9661738,136.258657 C60.9661738,138.534992 59.121965,140.379817 56.8463906,140.379817 C54.5708162,140.379817 52.7266073,138.534992 52.7266073,136.258657 C52.7266073,133.983534 54.5708162,132.137497 56.8463906,132.137497 C59.121965,132.137497 60.9661738,133.983534 60.9661738,136.258657" id="Fill-25" fill="#FECD00"></path><path d="M68.2907849,128.016579 C68.2907849,130.291702 66.4465761,132.137739 64.1710017,132.137739 C61.8954273,132.137739 60.0512184,130.291702 60.0512184,128.016579 C60.0512184,125.740244 61.8954273,123.895419 64.1710017,123.895419 C66.4465761,123.895419 68.2907849,125.740244 68.2907849,128.016579" id="Fill-27" fill="#FECD00"></path><path d="M78.3613528,128.016579 C78.3613528,130.291702 76.5171439,132.137739 74.2415695,132.137739 C71.9659951,132.137739 70.1217863,130.291702 70.1217863,128.016579 C70.1217863,125.740244 71.9659951,123.895419 74.2415695,123.895419 C76.5171439,123.895419 78.3613528,125.740244 78.3613528,128.016579" id="Fill-29" fill="#FECD00"></path><path d="M135.123727,136.258657 C135.123727,138.534992 133.279518,140.379817 131.003943,140.379817 C128.728369,140.379817 126.88416,138.534992 126.88416,136.258657 C126.88416,133.983534 128.728369,132.137497 131.003943,132.137497 C133.279518,132.137497 135.123727,133.983534 135.123727,136.258657" id="Fill-31" fill="#FECD00"></path><path d="M110.404542,136.258657 C110.404542,138.534992 108.560333,140.379817 106.284759,140.379817 C104.009185,140.379817 102.164976,138.534992 102.164976,136.258657 C102.164976,133.983534 104.009185,132.137497 106.284759,132.137497 C108.560333,132.137497 110.404542,133.983534 110.404542,136.258657" id="Fill-33" fill="#FECD00"></path><path d="M117.729153,128.016579 C117.729153,130.291702 115.884945,132.137739 113.60937,132.137739 C111.333796,132.137739 109.489587,130.291702 109.489587,128.016579 C109.489587,125.740244 111.333796,123.895419 113.60937,123.895419 C115.884945,123.895419 117.729153,125.740244 117.729153,128.016579" id="Fill-35" fill="#FECD00"></path><path d="M127.7996,128.016579 C127.7996,130.291702 125.955391,132.137739 123.679817,132.137739 C121.404242,132.137739 119.560034,130.291702 119.560034,128.016579 C119.560034,125.740244 121.404242,123.895419 123.679817,123.895419 C125.955391,123.895419 127.7996,125.740244 127.7996,128.016579" id="Fill-37" fill="#FECD00"></path></g><g id="Group-4" transform="translate(266.000000, 96.784782)"><circle id="Oval" fill="#0088CC" opacity="0.25" cx="52.5" cy="52.5" r="52.5"></circle><g id="1" transform="translate(39.183911, 30.989000)" fill="#FFFFFF" fill-rule="nonzero"><path d="M3.54,36.403 L11.8,36.403 L11.8,14.7205 C11.8,13.6585 11.8295,12.5473333 11.8885,11.387 L7.021,15.4285 C6.70633333,15.6841667 6.39166667,15.8660833 6.077,15.97425 C5.76233333,16.0824167 5.4575,16.1365 5.1625,16.1365 C4.65116667,16.1365 4.19391667,16.0234167 3.79075,15.79725 C3.38758333,15.5710833 3.08766667,15.3301667 2.891,15.0745 L0,11.2395 L13.393,0 L20.945,0 L20.945,36.403 L28.025,36.403 L28.025,43.011 L3.54,43.011 L3.54,36.403 Z" id="Path"></path></g></g><g id="Group-2" transform="translate(173.000000, 256.784782)"><circle id="Oval-Copy-2" fill="#0088CC" opacity="0.5" cx="52.5" cy="52.5" r="52.5"></circle><g id="2" transform="translate(37.236911, 30.546500)" fill="#FFFFFF" fill-rule="nonzero"><path d="M15.812,0 C17.936,0 19.8485833,0.30975 21.54975,0.92925 C23.2509167,1.54875 24.7013333,2.40916667 25.901,3.5105 C27.1006667,4.61183333 28.0200833,5.92458333 28.65925,7.44875 C29.2984167,8.97291667 29.618,10.6495 29.618,12.4785 C29.618,14.0518333 29.39675,15.5071667 28.95425,16.8445 C28.51175,18.1818333 27.907,19.45525 27.14,20.66475 C26.373,21.87425 25.4830833,23.0444167 24.47025,24.17525 C23.4574167,25.3060833 22.3806667,26.4516667 21.24,27.612 L12.8325,36.226 C13.9141667,35.9113333 14.9810833,35.6605833 16.03325,35.47375 C17.0854167,35.2869167 18.0736667,35.1935 18.998,35.1935 L27.022,35.1935 C28.0053333,35.1935 28.7821667,35.4639167 29.3525,36.00475 C29.9228333,36.5455833 30.208,37.2585 30.208,38.1435 L30.208,43.4535 L0,43.4535 L0,40.5035 C0,39.9331667 0.118,39.3235 0.354,38.6745 C0.59,38.0255 1.003,37.4355 1.593,36.9045 L13.983,24.426 C15.045,23.364 15.9693333,22.3511667 16.756,21.3875 C17.5426667,20.4238333 18.1916667,19.4749167 18.703,18.54075 C19.2143333,17.6065833 19.5978333,16.6724167 19.8535,15.73825 C20.1091667,14.8040833 20.237,13.8158333 20.237,12.7735 C20.237,11.0625 19.8289167,9.74975 19.01275,8.83525 C18.1965833,7.92075 16.9526667,7.4635 15.281,7.4635 C14.5926667,7.4635 13.9633333,7.56183333 13.393,7.7585 C12.8226667,7.95516667 12.3113333,8.22066667 11.859,8.555 C11.4066667,8.88933333 11.01825,9.28266667 10.69375,9.735 C10.36925,10.1873333 10.1086667,10.679 9.912,11.21 C9.59733333,12.095 9.19908333,12.7341667 8.71725,13.1275 C8.23541667,13.5208333 7.5815,13.7175 6.7555,13.7175 C6.55883333,13.7175 6.34741667,13.7076667 6.12125,13.688 C5.89508333,13.6683333 5.664,13.6388333 5.428,13.5995 L0.59,12.744 C0.904666667,10.6003333 1.50941667,8.732 2.40425,7.139 C3.29908333,5.546 4.41025,4.2185 5.73775,3.1565 C7.06525,2.0945 8.5845,1.30291667 10.2955,0.78175 C12.0065,0.260583333 13.8453333,0 15.812,0 Z" id="Path"></path></g></g><g id="Group" transform="translate(199.000000, 416.784782)"><circle id="Oval-Copy-3" fill="#0088CC" cx="52.5" cy="52.5" r="52.5"></circle><g id="3" transform="translate(37.472911, 30.546500)" fill="#FFFFFF" fill-rule="nonzero"><path d="M16.402,0 C18.526,0 20.414,0.299916667 22.066,0.89975 C23.718,1.49958333 25.1143333,2.31083333 26.255,3.3335 C27.3956667,4.35616667 28.261,5.54108333 28.851,6.88825 C29.441,8.23541667 29.736,9.65633333 29.736,11.151 C29.736,12.508 29.5983333,13.70275 29.323,14.73525 C29.0476667,15.76775 28.6395833,16.6625833 28.09875,17.41975 C27.5579167,18.1769167 26.88925,18.821 26.09275,19.352 C25.29625,19.883 24.3866667,20.3255 23.364,20.6795 C28.1233333,22.3315 30.503,25.5666667 30.503,30.385 C30.503,32.6663333 30.09,34.6526667 29.264,36.344 C28.438,38.0353333 27.33175,39.4415 25.94525,40.5625 C24.55875,41.6835 22.951,42.52425 21.122,43.08475 C19.293,43.64525 17.3853333,43.9255 15.399,43.9255 C13.3536667,43.9255 11.5345,43.70425 9.9415,43.26175 C8.3485,42.81925 6.9325,42.1309167 5.6935,41.19675 C4.4545,40.2625833 3.36791667,39.0678333 2.43375,37.6125 C1.49958333,36.1571667 0.688333333,34.4265 0,32.4205 L4.071,30.7685 C4.425,30.6111667 4.77408333,30.503 5.11825,30.444 C5.46241667,30.385 5.80166667,30.3555 6.136,30.3555 C6.76533333,30.3555 7.33075,30.4784167 7.83225,30.72425 C8.33375,30.9700833 8.71233333,31.329 8.968,31.801 C9.853,33.4333333 10.7920833,34.61825 11.78525,35.35575 C12.7784167,36.09325 13.9436667,36.462 15.281,36.462 C16.3036667,36.462 17.1935833,36.2899167 17.95075,35.94575 C18.7079167,35.6015833 19.33725,35.1590833 19.83875,34.61825 C20.34025,34.0774167 20.7188333,33.4628333 20.9745,32.7745 C21.2301667,32.0861667 21.358,31.388 21.358,30.68 C21.358,29.7556667 21.2940833,28.92475 21.16625,28.18725 C21.0384167,27.44975 20.6795,26.8155 20.0895,26.2845 C19.4995,25.7535 18.6095833,25.3454167 17.41975,25.06025 C16.2299167,24.7750833 14.573,24.6325 12.449,24.6325 L12.449,18.3195 C14.2386667,18.3195 15.6841667,18.1818333 16.7855,17.9065 C17.8868333,17.6311667 18.7374167,17.2525833 19.33725,16.77075 C19.9370833,16.2889167 20.3353333,15.7038333 20.532,15.0155 C20.7286667,14.3271667 20.827,13.57 20.827,12.744 C20.827,11.0526667 20.4189167,9.74975 19.60275,8.83525 C18.7865833,7.92075 17.5426667,7.4635 15.871,7.4635 C15.1826667,7.4635 14.5533333,7.56183333 13.983,7.7585 C13.4126667,7.95516667 12.9013333,8.22066667 12.449,8.555 C11.9966667,8.88933333 11.60825,9.28266667 11.28375,9.735 C10.95925,10.1873333 10.6986667,10.679 10.502,11.21 C10.1873333,12.095 9.78908333,12.7341667 9.30725,13.1275 C8.82541667,13.5208333 8.1715,13.7175 7.3455,13.7175 C7.14883333,13.7175 6.93741667,13.7076667 6.71125,13.688 C6.48508333,13.6683333 6.254,13.6388333 6.018,13.5995 L1.18,12.744 C1.49466667,10.6003333 2.09941667,8.732 2.99425,7.139 C3.88908333,5.546 5.00025,4.2185 6.32775,3.1565 C7.65525,2.0945 9.1745,1.30291667 10.8855,0.78175 C12.5965,0.260583333 14.4353333,0 16.402,0 Z" id="Path"></path></g></g><g id="cog" transform="translate(107.563623, 74.034965)" fill="#97ADC3" fill-rule="nonzero"><path d="M72.7217785,45.5118048 L67.6264233,42.5700699 C67.7590218,41.5198099 67.866596,39.8083882 67.866596,38.749736 C67.866596,37.6912363 67.7590218,35.9798146 67.6264233,34.9295546 L72.7217785,31.9878197 C74.2180518,31.1241743 74.9396382,29.3469874 74.4476961,27.6908024 C72.6955335,21.7925315 69.5766444,16.4834011 65.4578493,12.1291634 C64.2650726,10.8681801 62.3613906,10.5923019 60.8582509,11.4600671 L55.770525,14.3972244 C54.0786345,13.1096909 51.114927,11.396133 49.1550928,10.5723129 L49.1550928,4.69509913 C49.1550928,2.95605908 47.9594169,1.44452704 46.2669161,1.04398479 C40.3851247,-0.347918634 34.2172317,-0.348071221 28.3342196,1.04398479 C26.6418713,1.44452704 25.4460429,2.9559065 25.4460429,4.69509913 L25.4460429,10.5723129 C23.4860561,11.396133 20.5223486,13.1096909 18.8306106,14.3972244 L13.7428847,11.4600671 C12.2395924,10.5923019 10.3359104,10.8681801 9.14328633,12.1291634 C5.02449122,16.4834011 1.90560217,21.7926841 0.153439597,27.6908024 C-0.338502589,29.3469874 0.383083825,31.1240217 1.87935711,31.9878197 L6.9747124,34.9295546 C6.84211384,35.9798146 6.73453963,37.6912363 6.73453963,38.749736 C6.73453963,39.8083882 6.84211384,41.5198099 6.9747124,42.5700699 L1.87935711,45.5118048 C0.383083825,46.3754502 -0.338502589,48.1526371 0.153439597,49.8088221 C1.90560217,55.7069404 5.02449122,61.0162234 9.14328633,65.3704611 C10.336063,66.6314444 12.239745,66.9073226 13.7428847,66.03971 L18.8306106,63.1025526 C20.5223486,64.3900862 23.4860561,66.1034915 25.4460429,66.9273116 L25.4460429,72.8045254 C25.4460429,74.5435654 26.6417187,76.0550974 28.3342196,76.4556397 C34.2161636,77.8475431 40.383904,77.8476957 46.2669161,76.4556397 C47.9592643,76.0550974 49.1550928,74.543718 49.1550928,72.8045254 L49.1550928,66.9273116 C51.114927,66.1034915 54.0786345,64.3899336 55.770525,63.1025526 L60.8582509,66.03971 C62.3613906,66.9074752 64.2650726,66.631597 65.4578493,65.3704611 C69.5766444,61.0162234 72.6955335,55.7069404 74.4476961,49.8088221 C74.9396382,48.1526371 74.2180518,46.3756028 72.7217785,45.5118048 Z M62.4906323,61.2087889 L55.2549318,57.0306372 C51.0380229,60.6355175 49.5425125,61.5424978 44.1551047,63.4460272 L44.1551047,71.8021779 C42.2830083,72.1883769 39.2121844,72.5017917 37.3005678,72.5017917 C35.3889513,72.5017917 32.3181273,72.1883769 30.4460309,71.8021779 L30.4460309,63.4460272 C25.1927476,61.5899525 23.6719077,60.7281381 19.3462039,57.0306372 L12.1105034,61.2087889 C9.03082932,57.757259 6.69028925,53.7104852 5.24650607,49.3403784 L12.4854109,45.1622268 C11.4644478,39.6283349 11.4638374,37.8740361 12.4854109,32.3373977 L5.24650607,28.1592461 C6.69028925,23.7891393 9.03098191,19.7422129 12.1105034,16.2891572 L19.3462039,20.4703606 C23.6238426,16.8088703 25.1373583,15.9290506 30.4460309,14.0534447 L30.4460309,5.69744659 C32.3181273,5.31063721 35.3889513,4.99676467 37.3005678,4.99676467 C39.2121844,4.99676467 42.2830083,5.31063721 44.1551047,5.69744659 L44.1551047,14.0535973 C49.4640825,15.9293558 50.9777508,16.8093281 55.2549318,20.4705132 L62.4906323,16.2893098 C65.5701537,19.7422129 67.9108464,23.7891393 69.3546296,28.1593987 L62.1157247,32.3375503 C63.1368405,37.8728154 63.1372982,39.6257409 62.1157247,45.1623794 L69.3546296,49.340531 C67.9108464,53.7104852 65.5703063,57.7574116 62.4906323,61.2087889 Z M37.3005678,23.7499243 C29.0295609,23.7499243 22.3006036,30.4788816 22.3006036,38.7498885 C22.3006036,47.0208954 29.0295609,53.7498528 37.3005678,53.7498528 C45.5715747,53.7498528 52.3005321,47.0208954 52.3005321,38.7498885 C52.3005321,30.4788816 45.5715747,23.7499243 37.3005678,23.7499243 Z M37.3005678,48.7498647 C31.7865124,48.7498647 27.3005917,44.263944 27.3005917,38.7498885 C27.3005917,33.2358331 31.7865124,28.7499124 37.3005678,28.7499124 C42.8146233,28.7499124 47.300544,33.2358331 47.300544,38.7498885 C47.300544,44.263944 42.8146233,48.7498647 37.3005678,48.7498647 Z" id="Shape"></path></g><g id="cog-copy" transform="translate(201.390672, 174.081792)" fill="#97ADC3" fill-rule="nonzero"><path d="M53.6323117,33.564956 L49.8744872,31.3954265 C49.9722786,30.6208598 50.0516146,29.3586863 50.0516146,28.5779303 C50.0516146,27.7972868 49.9722786,26.5351133 49.8744872,25.7605465 L53.6323117,23.591017 C54.7358132,22.9540785 55.2679832,21.6434032 54.9051758,20.4219667 C53.6129559,16.071992 51.3127753,12.1565083 48.2751639,8.94525803 C47.3954911,8.01528283 45.9915256,7.81182263 44.8829601,8.45179951 L41.1307622,10.617953 C39.882993,9.66839703 37.6972586,8.40464806 36.2518809,7.79708076 L36.2518809,3.46263561 C36.2518809,2.18009357 35.37007,1.06533869 34.1218506,0.76993878 C29.7840295,-0.256589992 25.2352084,-0.256702526 20.8964869,0.76993878 C19.6483801,1.06533869 18.7664566,2.17998104 18.7664566,3.46263561 L18.7664566,7.79708076 C17.3209664,8.40464806 15.1352321,9.66839703 13.8875753,10.617953 L10.1353775,8.45179951 C9.02669941,7.81182263 7.62273395,8.01528283 6.74317367,8.94525803 C3.70556227,12.1565083 1.4053816,16.0721045 0.113161703,20.4219667 C-0.24964566,21.6434032 0.282524321,22.953966 1.38602587,23.591017 L5.14385039,25.7605465 C5.04605895,26.5351133 4.96672298,27.7972868 4.96672298,28.5779303 C4.96672298,29.3586863 5.04605895,30.6208598 5.14385039,31.3954265 L1.38602587,33.564956 C0.282524321,34.2018945 -0.24964566,35.5125699 0.113161703,36.7340063 C1.4053816,41.0838685 3.70556227,44.9994648 6.74317367,48.210715 C7.62284648,49.1406902 9.02681194,49.3441504 10.1353775,48.7042861 L13.8875753,46.5381326 C15.1352321,47.4876886 17.3209664,48.751325 18.7664566,49.3588923 L18.7664566,53.6933375 C18.7664566,54.9758795 19.6482676,56.0906344 20.8964869,56.3860343 C25.2344206,57.4125631 29.7831292,57.4126756 34.1218506,56.3860343 C35.3699575,56.0906344 36.2518809,54.975992 36.2518809,53.6933375 L36.2518809,49.3588923 C37.6972586,48.751325 39.882993,47.487576 41.1307622,46.5381326 L44.8829601,48.7042861 C45.9915256,49.344263 47.3954911,49.1408028 48.2751639,48.210715 C51.3127753,44.9994648 53.6129559,41.0838685 54.9051758,36.7340063 C55.2679832,35.5125699 54.7358132,34.2020071 53.6323117,33.564956 Z M46.0868413,45.1414818 L40.7505122,42.0600949 C37.6405419,44.7186942 36.537603,45.3875921 32.5643897,46.791445 L32.5643897,52.9541062 C31.1837187,53.238928 28.918986,53.4700714 27.5091688,53.4700714 C26.0993516,53.4700714 23.8346189,53.238928 22.4539478,52.9541062 L22.4539478,46.791445 C18.5796513,45.42259 17.4580319,44.7870019 14.2678254,42.0600949 L8.93149624,45.1414818 C6.66023662,42.5959785 4.93408832,39.6114828 3.86929822,36.3885291 L9.20799056,33.3071422 C8.45503024,29.225897 8.45458011,27.9321017 9.20799056,23.8488308 L3.86929822,20.767444 C4.93408832,17.5444902 6.66034916,14.559882 8.93149624,12.0132534 L14.2678254,15.0968909 C17.4225839,12.3965418 18.5388017,11.7476748 22.4539478,10.3644155 L22.4539478,4.20186686 C23.8346189,3.91659494 26.0993516,3.68511394 27.5091688,3.68511394 C28.918986,3.68511394 31.1837187,3.91659494 32.5643897,4.20186686 L32.5643897,10.364528 C36.4797609,11.7478999 37.5960912,12.3968794 40.7505122,15.0970035 L46.0868413,12.013366 C48.3579884,14.559882 50.0842492,17.5444902 51.1490393,20.7675565 L45.810347,23.8489434 C46.5634198,27.9312014 46.5637574,29.2239839 45.810347,33.3072548 L51.1490393,36.3886416 C50.0842492,39.6114828 48.3581009,42.596091 46.0868413,45.1414818 Z M27.5091688,17.5155692 C21.4093012,17.5155692 16.4466951,22.4781752 16.4466951,28.5780428 C16.4466951,34.6779104 21.4093012,39.6405164 27.5091688,39.6405164 C33.6090364,39.6405164 38.5716424,34.6779104 38.5716424,28.5780428 C38.5716424,22.4781752 33.6090364,17.5155692 27.5091688,17.5155692 Z M27.5091688,35.9530252 C23.4425529,35.9530252 20.1341864,32.6446587 20.1341864,28.5780428 C20.1341864,24.5114269 23.4425529,21.2030604 27.5091688,21.2030604 C31.5757847,21.2030604 34.8841512,24.5114269 34.8841512,28.5780428 C34.8841512,32.6446587 31.5757847,35.9530252 27.5091688,35.9530252 Z" id="Shape"></path></g><g id="cog-copy-2" transform="translate(98.749766, 260.269246)" fill="#97ADC3" fill-rule="nonzero"><path d="M35.451867,22.1870048 L32.9678813,20.7529091 C33.0325231,20.2409073 33.0849656,19.4065893 33.0849656,18.8904963 C33.0849656,18.3744777 33.0325231,17.5401596 32.9678813,17.0281579 L35.451867,15.5940621 C36.1813003,15.173035 36.5330736,14.3066563 36.2932518,13.4992661 C35.4390726,10.6238591 33.9186142,8.03565804 31.9107015,5.91296717 C31.3292229,5.29823781 30.4011779,5.16374716 29.6683973,5.58678273 L27.1881309,7.01864691 C26.3633343,6.39097431 24.9185269,5.55561482 23.9631077,5.15400254 L23.9631077,2.28886082 C23.9631077,1.4410788 23.3802158,0.704206934 22.5551216,0.508942583 C19.6877483,-0.169610334 16.6809004,-0.16968472 13.812932,0.508942583 C12.9879123,0.704206934 12.4049459,1.44100442 12.4049459,2.28886082 L12.4049459,5.15400254 C11.4494523,5.55561482 10.0046449,6.39097431 9.17992269,7.01864691 L6.69965631,5.58678273 C5.96680131,5.16374716 5.03875634,5.29823781 4.45735208,5.91296717 C2.44943947,8.03565804 0.928981057,10.6239335 0.0748018037,13.4992661 C-0.165020012,14.3066563 0.186753365,15.1729606 0.916186593,15.5940621 L3.40017229,17.0281579 C3.33553049,17.5401596 3.28308807,18.3744777 3.28308807,18.8904963 C3.28308807,19.4065893 3.33553049,20.2409073 3.40017229,20.7529091 L0.916186593,22.1870048 C0.186753365,22.608032 -0.165020012,23.4744106 0.0748018037,24.2818008 C0.928981057,27.1571334 2.44943947,29.7454089 4.45735208,31.8680998 C5.03883072,32.4828291 5.96687569,32.6173198 6.69965631,32.1943586 L9.17992269,30.7624944 C10.0046449,31.390167 11.4494523,32.2254521 12.4049459,32.6270644 L12.4049459,35.4922061 C12.4049459,36.3399881 12.9878379,37.07686 13.812932,37.2721244 C16.6803797,37.9506773 19.6871532,37.9507517 22.5551216,37.2721244 C23.3801414,37.07686 23.9631077,36.3400625 23.9631077,35.4922061 L23.9631077,32.6270644 C24.9185269,32.2254521 26.3633343,31.3900926 27.1881309,30.7624944 L29.6683973,32.1943586 C30.4011779,32.6173942 31.3292229,32.4829035 31.9107015,31.8680998 C33.9186142,29.7454089 35.4390726,27.1571334 36.2932518,24.2818008 C36.5330736,23.4744106 36.1813003,22.6081064 35.451867,22.1870048 Z M30.4641832,29.8392846 L26.9367792,27.8024356 C24.8810361,29.5598148 24.1519749,30.0019677 21.5256135,30.9299382 L21.5256135,35.0035617 C20.6129666,35.1918338 19.1159399,35.3446235 18.1840268,35.3446235 C17.2521138,35.3446235 15.7550871,35.1918338 14.8424401,35.0035617 L14.8424401,30.9299382 C12.2814644,30.0251018 11.540055,29.6049673 9.4312744,27.8024356 L5.9038704,29.8392846 C4.40252929,28.1566638 3.26151601,26.1838615 2.55767171,24.0534345 L6.08663783,22.0165855 C5.5889183,19.3188133 5.58862075,18.4635926 6.08663783,15.7644814 L2.55767171,13.7276325 C3.26151601,11.5972054 4.40260368,9.62432879 5.9038704,7.94096412 L9.4312744,9.97930079 C11.5166233,8.19432427 12.2544622,7.76541218 14.8424401,6.85105431 L14.8424401,2.77750521 C15.7550871,2.58893564 17.2521138,2.43592278 18.1840268,2.43592278 C19.1159399,2.43592278 20.6129666,2.58893564 21.5256135,2.77750521 L21.5256135,6.8511287 C24.1137402,7.76556095 24.8516535,8.19454743 26.9367792,9.97937517 L30.4641832,7.94103851 C31.96545,9.62432879 33.1065376,11.5972054 33.8103819,13.7277068 L30.2814158,15.7645558 C30.7792097,18.4629975 30.7794329,19.3175487 30.2814158,22.0166599 L33.8103819,24.0535089 C33.1065376,26.1838615 31.9655243,28.1567381 30.4641832,29.8392846 Z M18.1840268,11.5780881 C14.151911,11.5780881 10.8715443,14.8584548 10.8715443,18.8905707 C10.8715443,22.9226865 14.151911,26.2030532 18.1840268,26.2030532 C22.2161427,26.2030532 25.4965094,22.9226865 25.4965094,18.8905707 C25.4965094,14.8584548 22.2161427,11.5780881 18.1840268,11.5780881 Z M18.1840268,23.765559 C15.4959248,23.765559 13.3090384,21.5786727 13.3090384,18.8905707 C13.3090384,16.2024686 15.4959248,14.0155823 18.1840268,14.0155823 C20.8721289,14.0155823 23.0590152,16.2024686 23.0590152,18.8905707 C23.0590152,21.5786727 20.8721289,23.765559 18.1840268,23.765559 Z" id="Shape"></path></g><g id="cog-copy-4" transform="translate(58.749766, 483.269246)" fill="#97ADC3" fill-rule="nonzero"><path d="M35.451867,22.1870048 L32.9678813,20.7529091 C33.0325231,20.2409073 33.0849656,19.4065893 33.0849656,18.8904963 C33.0849656,18.3744777 33.0325231,17.5401596 32.9678813,17.0281579 L35.451867,15.5940621 C36.1813003,15.173035 36.5330736,14.3066563 36.2932518,13.4992661 C35.4390726,10.6238591 33.9186142,8.03565804 31.9107015,5.91296717 C31.3292229,5.29823781 30.4011779,5.16374716 29.6683973,5.58678273 L27.1881309,7.01864691 C26.3633343,6.39097431 24.9185269,5.55561482 23.9631077,5.15400254 L23.9631077,2.28886082 C23.9631077,1.4410788 23.3802158,0.704206934 22.5551216,0.508942583 C19.6877483,-0.169610334 16.6809004,-0.16968472 13.812932,0.508942583 C12.9879123,0.704206934 12.4049459,1.44100442 12.4049459,2.28886082 L12.4049459,5.15400254 C11.4494523,5.55561482 10.0046449,6.39097431 9.17992269,7.01864691 L6.69965631,5.58678273 C5.96680131,5.16374716 5.03875634,5.29823781 4.45735208,5.91296717 C2.44943947,8.03565804 0.928981057,10.6239335 0.0748018037,13.4992661 C-0.165020012,14.3066563 0.186753365,15.1729606 0.916186593,15.5940621 L3.40017229,17.0281579 C3.33553049,17.5401596 3.28308807,18.3744777 3.28308807,18.8904963 C3.28308807,19.4065893 3.33553049,20.2409073 3.40017229,20.7529091 L0.916186593,22.1870048 C0.186753365,22.608032 -0.165020012,23.4744106 0.0748018037,24.2818008 C0.928981057,27.1571334 2.44943947,29.7454089 4.45735208,31.8680998 C5.03883072,32.4828291 5.96687569,32.6173198 6.69965631,32.1943586 L9.17992269,30.7624944 C10.0046449,31.390167 11.4494523,32.2254521 12.4049459,32.6270644 L12.4049459,35.4922061 C12.4049459,36.3399881 12.9878379,37.07686 13.812932,37.2721244 C16.6803797,37.9506773 19.6871532,37.9507517 22.5551216,37.2721244 C23.3801414,37.07686 23.9631077,36.3400625 23.9631077,35.4922061 L23.9631077,32.6270644 C24.9185269,32.2254521 26.3633343,31.3900926 27.1881309,30.7624944 L29.6683973,32.1943586 C30.4011779,32.6173942 31.3292229,32.4829035 31.9107015,31.8680998 C33.9186142,29.7454089 35.4390726,27.1571334 36.2932518,24.2818008 C36.5330736,23.4744106 36.1813003,22.6081064 35.451867,22.1870048 Z M30.4641832,29.8392846 L26.9367792,27.8024356 C24.8810361,29.5598148 24.1519749,30.0019677 21.5256135,30.9299382 L21.5256135,35.0035617 C20.6129666,35.1918338 19.1159399,35.3446235 18.1840268,35.3446235 C17.2521138,35.3446235 15.7550871,35.1918338 14.8424401,35.0035617 L14.8424401,30.9299382 C12.2814644,30.0251018 11.540055,29.6049673 9.4312744,27.8024356 L5.9038704,29.8392846 C4.40252929,28.1566638 3.26151601,26.1838615 2.55767171,24.0534345 L6.08663783,22.0165855 C5.5889183,19.3188133 5.58862075,18.4635926 6.08663783,15.7644814 L2.55767171,13.7276325 C3.26151601,11.5972054 4.40260368,9.62432879 5.9038704,7.94096412 L9.4312744,9.97930079 C11.5166233,8.19432427 12.2544622,7.76541218 14.8424401,6.85105431 L14.8424401,2.77750521 C15.7550871,2.58893564 17.2521138,2.43592278 18.1840268,2.43592278 C19.1159399,2.43592278 20.6129666,2.58893564 21.5256135,2.77750521 L21.5256135,6.8511287 C24.1137402,7.76556095 24.8516535,8.19454743 26.9367792,9.97937517 L30.4641832,7.94103851 C31.96545,9.62432879 33.1065376,11.5972054 33.8103819,13.7277068 L30.2814158,15.7645558 C30.7792097,18.4629975 30.7794329,19.3175487 30.2814158,22.0166599 L33.8103819,24.0535089 C33.1065376,26.1838615 31.9655243,28.1567381 30.4641832,29.8392846 Z M18.1840268,11.5780881 C14.151911,11.5780881 10.8715443,14.8584548 10.8715443,18.8905707 C10.8715443,22.9226865 14.151911,26.2030532 18.1840268,26.2030532 C22.2161427,26.2030532 25.4965094,22.9226865 25.4965094,18.8905707 C25.4965094,14.8584548 22.2161427,11.5780881 18.1840268,11.5780881 Z M18.1840268,23.765559 C15.4959248,23.765559 13.3090384,21.5786727 13.3090384,18.8905707 C13.3090384,16.2024686 15.4959248,14.0155823 18.1840268,14.0155823 C20.8721289,14.0155823 23.0590152,16.2024686 23.0590152,18.8905707 C23.0590152,21.5786727 20.8721289,23.765559 18.1840268,23.765559 Z" id="Shape"></path></g><g id="cog-copy-3" transform="translate(145.602264, 394.816146)" fill="#97ADC3" fill-rule="nonzero"><path d="M45.4511116,28.444878 L42.2665145,26.6062937 C42.3493886,25.9498812 42.4166225,24.8802426 42.4166225,24.218585 C42.4166225,23.5570227 42.3493886,22.4873841 42.2665145,21.8309716 L45.4511116,19.9923873 C46.3862824,19.4526089 46.8372739,18.3418671 46.52981,17.3067515 C45.4347084,13.6203322 43.4854028,10.3021257 40.9111558,7.58072715 C40.1656704,6.79261257 38.9758692,6.62018867 38.0364068,7.16254196 L34.8565781,8.99826527 C33.7991466,8.1935568 31.9468294,7.1225831 30.721933,6.60769556 L30.721933,2.93443695 C30.721933,1.84753693 29.9746356,0.902829402 28.9168225,0.652490491 C25.2407029,-0.217449146 21.3857698,-0.217544513 17.7088872,0.652490491 C16.6511696,0.902829402 15.9037768,1.84744156 15.9037768,2.93443695 L15.9037768,6.60769556 C14.6787851,7.1225831 12.8264678,8.1935568 11.7691317,8.99826527 L8.58930296,7.16254196 C7.64974526,6.62018867 6.45994402,6.79261257 5.71455395,7.58072715 C3.14030701,10.3021257 1.19100135,13.6204276 0.0958997483,17.3067515 C-0.211564118,18.3418671 0.239427391,19.4525136 1.1745982,19.9923873 L4.35919525,21.8309716 C4.27632115,22.4873841 4.20908727,23.5570227 4.20908727,24.218585 C4.20908727,24.8802426 4.27632115,25.9498812 4.35919525,26.6062937 L1.1745982,28.444878 C0.239427391,28.9846564 -0.211564118,30.0953982 0.0958997483,31.1305138 C1.19100135,34.8168377 3.14030701,38.1351396 5.71455395,40.8565382 C6.46003939,41.6446527 7.64984063,41.8170766 8.58930296,41.2748187 L11.7691317,39.4390954 C12.8264678,40.2438039 14.6787851,41.3146822 15.9037768,41.8295697 L15.9037768,45.5028284 C15.9037768,46.5897284 16.6510742,47.5344359 17.7088872,47.7847748 C21.3851022,48.6547145 25.23994,48.6548098 28.9168225,47.7847748 C29.9745402,47.5344359 30.721933,46.5898237 30.721933,45.5028284 L30.721933,41.8295697 C31.9468294,41.3146822 33.7991466,40.2437085 34.8565781,39.4390954 L38.0364068,41.2748187 C38.9758692,41.817172 40.1656704,41.6447481 40.9111558,40.8565382 C43.4854028,38.1351396 45.4347084,34.8168377 46.52981,31.1305138 C46.8372739,30.0953982 46.3862824,28.9847517 45.4511116,28.444878 Z M39.0566452,38.255493 L34.5343323,35.6441482 C31.8987643,37.8971984 30.9640703,38.4640611 27.5969404,39.653767 L27.5969404,44.8763612 C26.4268802,45.1177356 24.5076152,45.3136198 23.3128549,45.3136198 C22.1180946,45.3136198 20.1988296,45.1177356 19.0287693,44.8763612 L19.0287693,39.653767 C15.7454672,38.4937203 14.7949423,37.9550863 12.0913774,35.6441482 L7.56906461,38.255493 C5.64426833,36.0982869 4.18143078,33.5690532 3.27906629,30.8377365 L7.80338183,28.2263917 C7.16527987,24.7677093 7.1648984,23.6712726 7.80338183,20.2108736 L3.27906629,17.5995288 C4.18143078,14.8682121 5.64436369,12.3388831 7.56906461,10.1807232 L12.0913774,12.7939754 C14.7649016,10.5055439 15.7108489,9.95565663 19.0287693,8.78340296 L19.0287693,3.56090412 C20.1988296,3.31914826 22.1180946,3.12297792 23.3128549,3.12297792 C24.5076152,3.12297792 26.4268802,3.31914826 27.5969404,3.56090412 L27.5969404,8.78349833 C30.9150516,9.95584737 31.8610942,10.50583 34.5343323,12.7940707 L39.0566452,10.1808186 C40.9813461,12.3388831 42.444279,14.8682121 43.3466435,17.5996242 L38.822328,20.2109689 C39.4605253,23.6705096 39.4608114,24.7660881 38.822328,28.2264871 L43.3466435,30.8378319 C42.444279,33.5690532 40.9814415,36.0983822 39.0566452,38.255493 Z M23.3128549,14.8437027 C18.1434756,14.8437027 13.9378772,19.049301 13.9378772,24.2186803 C13.9378772,29.3880596 18.1434756,33.593658 23.3128549,33.593658 C28.4822342,33.593658 32.6878325,29.3880596 32.6878325,24.2186803 C32.6878325,19.049301 28.4822342,14.8437027 23.3128549,14.8437027 Z M23.3128549,30.4686654 C19.8665702,30.4686654 17.0628698,27.664965 17.0628698,24.2186803 C17.0628698,20.7723957 19.8665702,17.9686952 23.3128549,17.9686952 C26.7591396,17.9686952 29.56284,20.7723957 29.56284,24.2186803 C29.56284,27.664965 26.7591396,30.4686654 23.3128549,30.4686654 Z" id="Shape"></path></g><g id="wrench" transform="translate(326.000000, 356.784782) rotate(-96.000000) translate(-326.000000, -356.784782) translate(291.000000, 321.784782)" fill="#4D4D4D" fill-rule="nonzero"><path d="M69.4164333,14.9157154 C69.110152,13.6812432 67.5652607,13.2628097 66.6656429,14.1624283 L56.4992143,24.3288666 L47.2187851,22.7825052 L45.6724252,13.5020671 L55.8388538,3.33576236 C56.7439456,2.43066964 56.3077552,0.888447193 55.0650062,0.579495349 C48.5873043,-1.02561229 41.4547158,0.703930578 36.3919959,5.76518663 C30.9725264,11.1846613 29.4809073,19.0405029 31.7367609,25.8901816 L2.56246872,55.0645015 C-0.854156241,58.4811297 -0.854156241,64.0209006 2.56246872,67.4375288 C5.97909369,70.8541571 11.5188593,70.8541571 14.9354843,67.4375288 L44.0852099,38.2877755 C50.9375524,40.5723369 58.7782995,39.0644276 64.2334172,33.6093047 C69.3014776,28.5411059 71.0282151,21.3975625 69.4164333,14.9157154 Z M8.75031166,64.5309248 C6.9387928,64.5309248 5.46906995,63.0612006 5.46906995,61.24968 C5.46906995,59.4368243 6.9387928,57.9684352 8.75031166,57.9684352 C10.5618305,57.9684352 12.0315534,59.4368243 12.0315534,61.24968 C12.0315534,63.0612006 10.5618305,64.5309248 8.75031166,64.5309248 Z" id="Shape"></path></g></g></g></g></g></svg> 