<svg xmlns="http://www.w3.org/2000/svg" viewBox="0 0 343.35 478.73"><defs><style>.cls-1{fill:#ffcb03;}.cls-2{font-size:68px;fill:#f2f2f2;font-family:ArialRoundedMTBold, Arial Rounded MT Bold;}.cls-3{letter-spacing:-0.04em;}.cls-4{letter-spacing:-0.02em;}.cls-16,.cls-18,.cls-5,.cls-8{fill:#fff;}.cls-6{fill:#4e4d4d;}.cls-7{fill:#cccbcb;}.cls-16,.cls-17,.cls-18,.cls-19,.cls-8,.cls-9{stroke:#4e4d4d;}.cls-10,.cls-16,.cls-17,.cls-18,.cls-19,.cls-8,.cls-9{stroke-miterlimit:10;}.cls-8,.cls-9{stroke-width:11.57px;}.cls-17,.cls-19,.cls-9{fill:none;}.cls-10{stroke:#000;stroke-width:4.63px;}.cls-11{fill:#fd0;}.cls-12{fill:#ffec00;}.cls-13{fill:#f29100;}.cls-14{fill:#eb680f;}.cls-15{fill:#1d1d1b;}.cls-16,.cls-17{stroke-width:11.02px;}.cls-18,.cls-19{stroke-width:11.27px;}</style></defs><g id="Layer_2" data-name="Layer 2"><g id="Laag_1" data-name="Laag 1"><rect class="cls-1" y="407.97" width="327.17" height="67" rx="23.33"/><path d="M43.49,350.05h6l19.18,50.14H58.49L46.49,366l-12,34.24H24.32Zm-10,33H59.91v9.11H33.52Z"/><path d="M80.86,400a29.93,29.93,0,0,1-6.45-2.12A24.28,24.28,0,0,1,69,394.5l4.38-7.79a21.07,21.07,0,0,0,6.69,3.67,23.8,23.8,0,0,0,7.79,1.3,13.81,13.81,0,0,0,7.18-1.57,4.94,4.94,0,0,0,2.55-4.43v0a4.35,4.35,0,0,0-1.14-3.17,6.84,6.84,0,0,0-3-1.73,37.68,37.68,0,0,0-4.7-1l-.18,0a.63.63,0,0,1-.19,0l-.76-.11a47.05,47.05,0,0,1-8.35-2,12.23,12.23,0,0,1-5.62-4.17q-2.31-3-2.31-8.47v0a15.28,15.28,0,0,1,2.17-8.32,13.71,13.71,0,0,1,6.31-5.25,26.82,26.82,0,0,1,15.5-1.19,29.44,29.44,0,0,1,5.5,1.79,29.94,29.94,0,0,1,5.11,2.83l-4,8a25.34,25.34,0,0,0-6-3.11,18.53,18.53,0,0,0-6.06-1.1A13.17,13.17,0,0,0,83.15,360a4.46,4.46,0,0,0-2.38,4v0A4.64,4.64,0,0,0,82,367.48a7.41,7.41,0,0,0,3.07,1.85,49.83,49.83,0,0,0,5.14,1.24l.27.05.28.05.4.09c.12,0,.26.06.39.09a41.23,41.23,0,0,1,8,2.26,12.38,12.38,0,0,1,5.33,4.27q2.14,3,2.14,8.05v.07a14.66,14.66,0,0,1-2.24,8.21,14.07,14.07,0,0,1-6.54,5.21,26.83,26.83,0,0,1-10.33,1.79A34,34,0,0,1,80.86,400Z"/><path d="M114.91,350h9.45v50.17h-9.45Zm3.76,20.9h17.45a4.54,4.54,0,0,0,2.55-.73,4.63,4.63,0,0,0,1.71-2.07A8,8,0,0,0,141,365a7.44,7.44,0,0,0-.61-3.11,4.71,4.71,0,0,0-1.7-2.06,4.57,4.57,0,0,0-2.59-.73H118.67V350h18.21a14,14,0,0,1,7.27,1.86,12.52,12.52,0,0,1,4.87,5.26,18.91,18.91,0,0,1,0,15.76,12.6,12.6,0,0,1-4.88,5.26,14.06,14.06,0,0,1-7.26,1.86H118.67Zm10.55,7.55,10.11-1.59,13.52,23.31H141.4Z"/><path d="M165.26,399a11.12,11.12,0,0,1-4.86-4.76,15.67,15.67,0,0,1-1.68-7.52v-3.51a17.7,17.7,0,0,1,1.61-7.87,11.17,11.17,0,0,1,4.66-5,15.14,15.14,0,0,1,7.41-1.7,11.9,11.9,0,0,1,7,2,12.61,12.61,0,0,1,4.41,5.91A25.79,25.79,0,0,1,185.3,386v2H164.05v-5.53h13.77l-.09-.72A7.19,7.19,0,0,0,176,377.6a4.72,4.72,0,0,0-3.64-1.47,5.94,5.94,0,0,0-4.59,1.77,7.06,7.06,0,0,0-1.63,5v4a6.51,6.51,0,0,0,1.78,4.9,6.83,6.83,0,0,0,5,1.74,9.46,9.46,0,0,0,3.26-.58,10.15,10.15,0,0,0,2.94-1.66L184.5,396a18,18,0,0,1-5.45,3.43,16.27,16.27,0,0,1-6.11,1.21A16.68,16.68,0,0,1,165.26,399Z"/><path d="M209,369.13h8.17l-11.67,31.06h-5.81L188,369.13h8.17l6.4,19.48Z"/><path d="M221.49,356.67h8.2v8.21h-8.2Zm0,12.46h8.2v31.06h-8.2Z"/><path d="M243,399a11.09,11.09,0,0,1-4.87-4.76,15.67,15.67,0,0,1-1.67-7.52v-3.51a17.7,17.7,0,0,1,1.6-7.87,11.13,11.13,0,0,1,4.67-5,15.07,15.07,0,0,1,7.4-1.7,11.9,11.9,0,0,1,7,2,12.61,12.61,0,0,1,4.41,5.91A25.79,25.79,0,0,1,263,386v2H241.75v-5.53h13.77l-.09-.72a7.19,7.19,0,0,0-1.69-4.16,4.72,4.72,0,0,0-3.64-1.47,5.94,5.94,0,0,0-4.59,1.77,7.06,7.06,0,0,0-1.63,5v4a6.51,6.51,0,0,0,1.78,4.9,6.83,6.83,0,0,0,5,1.74,9.56,9.56,0,0,0,3.27-.58,10.23,10.23,0,0,0,2.93-1.66L262.2,396a18,18,0,0,1-5.45,3.43,16.27,16.27,0,0,1-6.11,1.21A16.61,16.61,0,0,1,243,399Z"/><path d="M266.3,369.13h7.87l5.51,19.18,6.55-19.18h4.85l6.55,19.18,5.51-19.18H311l-9.57,31.06h-6.11l-6.67-20.26L282,400.19h-6.11Z"/><text class="cls-2" transform="translate(4.73 464.39) scale(0.9 1)">Ha<tspan class="cls-3" x="92.07" y="0">ck</tspan><tspan class="cls-4" x="166.28" y="0">a</tspan><tspan x="205" y="0">thon</tspan></text><path class="cls-5" d="M190.56,69.52c-17.05-5.9-36.21-5.06-53,.73S106.25,86.5,94.61,99c-28.48,30.62-39.72,74.38-29.38,114.35,6.2,24,20.24,46.89,41.56,62S157,297,182.16,289.65c18.82-5.47,34.36-18,45.93-32.7a122.21,122.21,0,0,0,23.27-101.86c-8-35.3-28.65-74.35-60.6-85.38"/><path class="cls-6" d="M192.41,62.83c-24.4-8.36-51.82-4-74,8.46-20.05,11.26-36.66,28.92-47.65,49a132.26,132.26,0,0,0-16.23,64.37,124.84,124.84,0,0,0,18.24,64,111.22,111.22,0,0,0,21.81,25.84,104.68,104.68,0,0,0,30.62,18.37,97.85,97.85,0,0,0,34.15,6.67,85.5,85.5,0,0,0,35.09-7.08c20.91-9,37.78-26.52,49.13-46a130.26,130.26,0,0,0,17.64-66.78c-.29-22-6.65-43.89-16.08-63.69-8.76-18.37-21.48-36-39.08-46.75A69.86,69.86,0,0,0,192.61,63c-3.44-1.2-7.75,1.36-8.54,4.84a7.11,7.11,0,0,0,4.85,8.54c.84.29,1.67.6,2.5.93.28.11,1.64.68.41.16s.4.19.7.33c1.62.74,3.21,1.56,4.76,2.44s3,1.79,4.44,2.76c.7.48,1.39,1,2.08,1.47l1.09.82c.86.64-.57-.45-.59-.46a8.19,8.19,0,0,1,.67.53,84,84,0,0,1,8,7.4c1.31,1.37,2.57,2.78,3.8,4.22.58.69,1.15,1.38,1.71,2.08l.9,1.12c.46.58-.62-.76-.54-.69a6.22,6.22,0,0,1,.66.87,129.69,129.69,0,0,1,12.18,19.81c.9,1.79,1.76,3.59,2.59,5.42.39.85.77,1.71,1.15,2.57.09.23.82,1.94.31.73-.44-1-.1-.22,0,0l.36.87q2.23,5.46,4.07,11.07a148.13,148.13,0,0,1,6.32,26.5l-.25-1.84a122.35,122.35,0,0,1,0,32l.24-1.85a124.2,124.2,0,0,1-6.15,25.19c-.36,1-.74,2-1.14,3-.17.44-.34.89-.52,1.33-.1.25-.2.5-.31.75-.41,1-.07.16.15-.34-.87,2-1.75,4-2.7,5.93A123.7,123.7,0,0,1,229.45,243q-1.75,2.79-3.65,5.47c-.6.84-1.21,1.67-1.82,2.5-.14.18-1.33,1.73-.58.78s.07-.1-.09.11l-.62.77a112.51,112.51,0,0,1-8.36,9.37,118,118,0,0,1-9.49,8.39c.08-.06,1.37-1,.46-.36l-.64.47-1.12.83c-.92.65-1.85,1.3-2.78,1.92-1.77,1.18-3.59,2.29-5.44,3.34-2.09,1.18-4.24,2.26-6.43,3.26l-1.47.64c2-.92-.06,0-.58.22-1.13.44-2.27.86-3.42,1.25a75.72,75.72,0,0,1-14.08,3.27l1.84-.24a85.83,85.83,0,0,1-22.53-.11l1.84.25a95.15,95.15,0,0,1-13.13-2.76q-3.23-.93-6.39-2.07c-.95-.35-1.9-.71-2.85-1.09l-1.5-.62c2.06.78-.07,0-.58-.27a93.38,93.38,0,0,1-11.75-6.3c-1.81-1.14-3.59-2.35-5.32-3.62l-1.29-1c-.92-.69.36.27.44.34l-.63-.5c-.9-.71-1.78-1.43-2.65-2.17a102.36,102.36,0,0,1-9.45-9.18c-1.46-1.62-2.88-3.28-4.24-5-.33-.42-1.33-1.87-.13-.15-.3-.43-.64-.84-1-1.27-.63-.84-1.24-1.7-1.85-2.56a111.92,111.92,0,0,1-6.8-11.06c-1-1.9-2-3.83-2.91-5.78-.44-.95-.87-1.9-1.28-2.85-.11-.24-.21-.48-.31-.72-.31-.7.36.84.32.76-.29-.58-.5-1.21-.74-1.81a118.24,118.24,0,0,1-7.28-27.87l.24,1.85a123.26,123.26,0,0,1,0-32.28l-.25,1.84a126.16,126.16,0,0,1,6.46-26.26c.38-1,.78-2.08,1.18-3.11.2-.49.39-1,.59-1.45.1-.24.21-.48.3-.73-.73,2-.27.64-.09.22q1.32-3.06,2.8-6a124.59,124.59,0,0,1,6.78-12q1.81-2.82,3.78-5.55c.7-1,1.45-1.88,2.13-2.85l-.36.46.5-.62,1.24-1.55A121.18,121.18,0,0,1,104,99.4q2.56-2.5,5.3-4.85c.83-.71,1.67-1.42,2.52-2.11l1.29-1c.9-.72-.33.26-.42.33.33-.24.65-.51,1-.75a106.24,106.24,0,0,1,12.15-7.91c2.31-1.29,4.68-2.48,7.08-3.57.63-.29,1.32-.52,1.92-.85-1.49.82-.93.39-.49.21l1.16-.47c1.25-.49,2.5-1,3.76-1.39a88.16,88.16,0,0,1,17-4.06l-1.85.24a84.11,84.11,0,0,1,21.85-.09l-1.84-.25a75.74,75.74,0,0,1,14.33,3.36c3.44,1.18,7.74-1.35,8.54-4.85a7.11,7.11,0,0,0-4.85-8.53Z"/><path class="cls-7" d="M254.05,155.09c-8-35.3-28.65-74.35-60.6-85.38l-.19-.19a77,77,0,0,0-29.57-3.9c2,.27,4.08.59,6.12,1,17.4,3.46,34.37,12.37,46.12,26l.08.26c22,25.6,20.23,69.71,9.35,104.19A122.07,122.07,0,0,1,154,273.32a101.89,101.89,0,0,1-36,7.42c20.11,11.16,44.88,15.27,66.8,8.91,18.83-5.47,34.36-18,45.93-32.7A122.21,122.21,0,0,0,254.05,155.09Z"/><path class="cls-6" d="M192.41,62.83c-24.4-8.36-51.82-4-74,8.46-20.05,11.26-36.66,28.92-47.65,49a132.26,132.26,0,0,0-16.23,64.37,124.84,124.84,0,0,0,18.24,64,111.22,111.22,0,0,0,21.81,25.84,104.68,104.68,0,0,0,30.62,18.37,97.85,97.85,0,0,0,34.15,6.67,85.5,85.5,0,0,0,35.09-7.08c20.91-9,37.78-26.52,49.13-46a130.26,130.26,0,0,0,17.64-66.78c-.29-22-6.65-43.89-16.08-63.69-8.76-18.37-21.48-36-39.08-46.75A69.86,69.86,0,0,0,192.61,63c-3.44-1.2-7.75,1.36-8.54,4.84a7.11,7.11,0,0,0,4.85,8.54c.84.29,1.67.6,2.5.93.28.11,1.64.68.41.16s.4.19.7.33c1.62.74,3.21,1.56,4.76,2.44s3,1.79,4.44,2.76c.7.48,1.39,1,2.08,1.47l1.09.82c.86.64-.57-.45-.59-.46a8.19,8.19,0,0,1,.67.53,84,84,0,0,1,8,7.4c1.31,1.37,2.57,2.78,3.8,4.22.58.69,1.15,1.38,1.71,2.08l.9,1.12c.46.58-.62-.76-.54-.69a6.22,6.22,0,0,1,.66.87,129.69,129.69,0,0,1,12.18,19.81c.9,1.79,1.76,3.59,2.59,5.42.39.85.77,1.71,1.15,2.57.09.23.82,1.94.31.73-.44-1-.1-.22,0,0l.36.87q2.23,5.46,4.07,11.07a148.13,148.13,0,0,1,6.32,26.5l-.25-1.84a122.35,122.35,0,0,1,0,32l.24-1.85a124.2,124.2,0,0,1-6.15,25.19c-.36,1-.74,2-1.14,3-.17.44-.34.89-.52,1.33-.1.25-.2.5-.31.75-.41,1-.07.16.15-.34-.87,2-1.75,4-2.7,5.93A123.7,123.7,0,0,1,229.45,243q-1.75,2.79-3.65,5.47c-.6.84-1.21,1.67-1.82,2.5-.14.18-1.33,1.73-.58.78s.07-.1-.09.11l-.62.77a112.51,112.51,0,0,1-8.36,9.37,118,118,0,0,1-9.49,8.39c.08-.06,1.37-1,.46-.36l-.64.47-1.12.83c-.92.65-1.85,1.3-2.78,1.92-1.77,1.18-3.59,2.29-5.44,3.34-2.09,1.18-4.24,2.26-6.43,3.26l-1.47.64c2-.92-.06,0-.58.22-1.13.44-2.27.86-3.42,1.25a75.72,75.72,0,0,1-14.08,3.27l1.84-.24a85.83,85.83,0,0,1-22.53-.11l1.84.25a95.15,95.15,0,0,1-13.13-2.76q-3.23-.93-6.39-2.07c-.95-.35-1.9-.71-2.85-1.09l-1.5-.62c2.06.78-.07,0-.58-.27a93.38,93.38,0,0,1-11.75-6.3c-1.81-1.14-3.59-2.35-5.32-3.62l-1.29-1c-.92-.69.36.27.44.34l-.63-.5c-.9-.71-1.78-1.43-2.65-2.17a102.36,102.36,0,0,1-9.45-9.18c-1.46-1.62-2.88-3.28-4.24-5-.33-.42-1.33-1.87-.13-.15-.3-.43-.64-.84-1-1.27-.63-.84-1.24-1.7-1.85-2.56a111.92,111.92,0,0,1-6.8-11.06c-1-1.9-2-3.83-2.91-5.78-.44-.95-.87-1.9-1.28-2.85-.11-.24-.21-.48-.31-.72-.31-.7.36.84.32.76-.29-.58-.5-1.21-.74-1.81a118.24,118.24,0,0,1-7.28-27.87l.24,1.85a123.26,123.26,0,0,1,0-32.28l-.25,1.84a126.16,126.16,0,0,1,6.46-26.26c.38-1,.78-2.08,1.18-3.11.2-.49.39-1,.59-1.45.1-.24.21-.48.3-.73-.73,2-.27.64-.09.22q1.32-3.06,2.8-6a124.59,124.59,0,0,1,6.78-12q1.81-2.82,3.78-5.55c.7-1,1.45-1.88,2.13-2.85l-.36.46.5-.62,1.24-1.55A121.18,121.18,0,0,1,104,99.4q2.56-2.5,5.3-4.85c.83-.71,1.67-1.42,2.52-2.11l1.29-1c.9-.72-.33.26-.42.33.33-.24.65-.51,1-.75a106.24,106.24,0,0,1,12.15-7.91c2.31-1.29,4.68-2.48,7.08-3.57.63-.29,1.32-.52,1.92-.85-1.49.82-.93.39-.49.21l1.16-.47c1.25-.49,2.5-1,3.76-1.39a88.16,88.16,0,0,1,17-4.06l-1.85.24a84.11,84.11,0,0,1,21.85-.09l-1.84-.25a75.74,75.74,0,0,1,14.33,3.36c3.44,1.18,7.74-1.35,8.54-4.85a7.11,7.11,0,0,0-4.85-8.53Z"/><ellipse class="cls-8" cx="194.73" cy="311.7" rx="34.59" ry="20.63"/><path class="cls-7" d="M222,309.62c-2.11-6.85-9.43-15.43-22.46-20.05l-.08-.05a76.72,76.72,0,0,0-12.28-3.17c.85.22,1.69.45,2.54.69,7.18,2.07,14,5.06,18.46,8.44l0,0c8.35,6.34,6,13.92.27,19s-17.91,7.86-32.63,7.36a98.83,98.83,0,0,1-15.37-1.73,86.91,86.91,0,0,0,27.74,7.18,57.08,57.08,0,0,0,20.44-1.87C219.19,322.39,224.15,316.48,222,309.62Z"/><ellipse class="cls-9" cx="193.19" cy="310.93" rx="34.59" ry="20.63"/><ellipse class="cls-8" cx="123.37" cy="311.7" rx="34.59" ry="20.63"/><path class="cls-7" d="M150.68,309.62c-2.11-6.85-9.43-15.43-22.46-20.05l-.08-.05a76.72,76.72,0,0,0-12.28-3.17c.85.22,1.69.45,2.53.69,7.19,2.07,14,5.06,18.47,8.44l0,0c8.35,6.34,6.05,13.92.27,19s-17.91,7.86-32.63,7.36a98.7,98.7,0,0,1-15.37-1.73,86.84,86.84,0,0,0,27.74,7.18,57.08,57.08,0,0,0,20.44-1.87C147.83,322.39,152.79,316.48,150.68,309.62Z"/><ellipse class="cls-9" cx="121.83" cy="310.93" rx="34.59" ry="20.63"/><path class="cls-5" d="M269.6,17.29c-5.74-5.91-16.2-9.47-26.87-10.2a83.09,83.09,0,0,0-31.06,4.25c-23.52,7.66-35.44,36-40.6,52.54l-.72.95.16.17c9.77-8.67,25-20.23,38.78-21.14,10.42-.68,20.92.55,31.39.42s21.74-2,28.23-7.34S275.34,23.19,269.6,17.29Z"/><path class="cls-6" d="M274.51,12.38C266.62,4.4,254.88,1.23,244,.25A80.53,80.53,0,0,0,225.42,1,87.6,87.6,0,0,0,209.2,4.86c-16.91,5.82-28.7,20.41-36.39,36-2,4.11-3.84,8.35-5.47,12.63q-1,2.64-1.91,5.31c-.26.78-.52,1.57-.77,2.35-.06.19-.13.38-.18.57-.21.79,1-1.78.48-1.17a9.27,9.27,0,0,0-.6.8,6.25,6.25,0,0,0-.83,4.42,6.78,6.78,0,0,0,1.91,4l.16.16a7.1,7.1,0,0,0,9.82,0c2.5-2.21,5.07-4.32,7.69-6.41-1.67,1.33-.37.29,0,0l1.13-.84c.7-.52,1.42-1,2.14-1.54,1.51-1.06,3.05-2.09,4.61-3.06s3.05-1.84,4.62-2.67c.84-.45,1.68-.87,2.54-1.28.36-.18.73-.35,1.09-.51s2.23-.71.18-.1c1.61-.48,3.15-1.21,4.77-1.68a37.1,37.1,0,0,1,5.13-1.08l-1.85.25c6.66-.82,13.51-.34,20.19-.07a149.92,149.92,0,0,0,19.77,0C260,49.76,275,46.11,279.86,33c2.69-7.25-.25-15.26-5.35-20.61a7,7,0,0,0-9.81,0,7.07,7.07,0,0,0,0,9.81c.26.28.5.57.77.85.93,1-.93-1.35-.18-.24a20.37,20.37,0,0,1,1.12,1.83c.29.57.39,1.52-.12-.39.09.32.24.64.34,1a14.5,14.5,0,0,1,.45,1.95l-.25-1.84a12.78,12.78,0,0,1,0,3.27l.25-1.85a12.42,12.42,0,0,1-.33,1.61c-.09.35-.71,1.95-.21.75s-.24.37-.44.71-.34.49-.49.74c-.43.68,1-1.14.41-.54s-.84.94-1.3,1.38l-.6.53c-.88.75.23,0,.45-.33a10.06,10.06,0,0,1-2.81,1.77c-.48.25-1,.5-1.47.73l-.68.3c1.83-.87.9-.38.44-.21a35,35,0,0,1-3.5,1.16A56.68,56.68,0,0,1,249,36.88l1.85-.25c-12.58,1.67-25.22-.21-37.84.12a48.14,48.14,0,0,0-17,3.28,82.72,82.72,0,0,0-15.7,8.51A153.21,153.21,0,0,0,165.6,60.09h9.82l-.16-.17,1.08,8.41c1.42-1.87,1.93-4.26,2.68-6.47s1.6-4.48,2.48-6.69l.66-1.62c.48-1.16-.42,1-.24.56l.41-1c.53-1.21,1.08-2.42,1.65-3.62q1.72-3.64,3.72-7.16c1.37-2.4,2.83-4.75,4.42-7,.41-.58.82-1.16,1.24-1.72l.59-.79c.44-.59-.66.88-.58.76a6.54,6.54,0,0,1,.4-.52c.89-1.11,1.8-2.19,2.76-3.24a55.16,55.16,0,0,1,6-5.75l.76-.61c.56-.47-.87.69-.76.59a2.88,2.88,0,0,1,.39-.3c.61-.45,1.22-.89,1.85-1.32,1.13-.75,2.28-1.46,3.47-2.12q1.08-.59,2.19-1.11l1-.48c1-.44-1.62.64-.29.13,1.76-.67,3.54-1.25,5.35-1.77a92.38,92.38,0,0,1,13-2.78l-1.84.25a72.32,72.32,0,0,1,18.88-.16l-1.85-.25a56.52,56.52,0,0,1,12.72,3.28c.49.2.24.09-.75-.32l.72.32c.46.21.93.43,1.39.67q1.34.68,2.61,1.47c.41.25.81.52,1.21.8s1.54,1.47,0,0c.65.64,1.38,1.18,2,1.83a6.94,6.94,0,1,0,9.81-9.81Z"/><path class="cls-7" d="M265.1,11.35A15.16,15.16,0,0,1,261.84,20c-5.21,6.75-15.44,10.52-25.18,12.34s-19.73,2.17-29.34,4.57a35.72,35.72,0,0,0-12.89,6.78,16.9,16.9,0,0,1,3.24,4.26,33.35,33.35,0,0,1,12.17-4.59C219.62,42,229.6,42.7,239.47,42s20.37-3.39,26.14-9.54S270.78,17.37,265.1,11.35Z"/><path class="cls-6" d="M274.51,12.38C266.62,4.4,254.88,1.23,244,.25A80.53,80.53,0,0,0,225.42,1,87.6,87.6,0,0,0,209.2,4.86c-16.91,5.82-28.7,20.41-36.39,36-2,4.11-3.84,8.35-5.47,12.63q-1,2.64-1.91,5.31c-.26.78-.52,1.57-.77,2.35-.06.19-.13.38-.18.57-.21.79,1-1.78.48-1.17a9.27,9.27,0,0,0-.6.8,6.25,6.25,0,0,0-.83,4.42,6.78,6.78,0,0,0,1.91,4l.16.16a7.1,7.1,0,0,0,9.82,0c2.5-2.21,5.07-4.32,7.69-6.41-1.67,1.33-.37.29,0,0l1.13-.84c.7-.52,1.42-1,2.14-1.54,1.51-1.06,3.05-2.09,4.61-3.06s3.05-1.84,4.62-2.67c.84-.45,1.68-.87,2.54-1.28.36-.18.73-.35,1.09-.51s2.23-.71.18-.1c1.61-.48,3.15-1.21,4.77-1.68a37.1,37.1,0,0,1,5.13-1.08l-1.85.25c6.66-.82,13.51-.34,20.19-.07a149.92,149.92,0,0,0,19.77,0C260,49.76,275,46.11,279.86,33c2.69-7.25-.25-15.26-5.35-20.61a7,7,0,0,0-9.81,0,7.07,7.07,0,0,0,0,9.81c.26.28.5.57.77.85.93,1-.93-1.35-.18-.24a20.37,20.37,0,0,1,1.12,1.83c.29.57.39,1.52-.12-.39.09.32.24.64.34,1a14.5,14.5,0,0,1,.45,1.95l-.25-1.84a12.78,12.78,0,0,1,0,3.27l.25-1.85a12.42,12.42,0,0,1-.33,1.61c-.09.35-.71,1.95-.21.75s-.24.37-.44.71-.34.49-.49.74c-.43.68,1-1.14.41-.54s-.84.94-1.3,1.38l-.6.53c-.88.75.23,0,.45-.33a10.06,10.06,0,0,1-2.81,1.77c-.48.25-1,.5-1.47.73l-.68.3c1.83-.87.9-.38.44-.21a35,35,0,0,1-3.5,1.16A56.68,56.68,0,0,1,249,36.88l1.85-.25c-12.58,1.67-25.22-.21-37.84.12a48.14,48.14,0,0,0-17,3.28,82.72,82.72,0,0,0-15.7,8.51A153.21,153.21,0,0,0,165.6,60.09h9.82l-.16-.17,1.08,8.41c1.42-1.87,1.93-4.26,2.68-6.47s1.6-4.48,2.48-6.69l.66-1.62c.48-1.16-.42,1-.24.56l.41-1c.53-1.21,1.08-2.42,1.65-3.62q1.72-3.64,3.72-7.16c1.37-2.4,2.83-4.75,4.42-7,.41-.58.82-1.16,1.24-1.72l.59-.79c.44-.59-.66.88-.58.76a6.54,6.54,0,0,1,.4-.52c.89-1.11,1.8-2.19,2.76-3.24a55.16,55.16,0,0,1,6-5.75l.76-.61c.56-.47-.87.69-.76.59a2.88,2.88,0,0,1,.39-.3c.61-.45,1.22-.89,1.85-1.32,1.13-.75,2.28-1.46,3.47-2.12q1.08-.59,2.19-1.11l1-.48c1-.44-1.62.64-.29.13,1.76-.67,3.54-1.25,5.35-1.77a92.38,92.38,0,0,1,13-2.78l-1.84.25a72.32,72.32,0,0,1,18.88-.16l-1.85-.25a56.52,56.52,0,0,1,12.72,3.28c.49.2.24.09-.75-.32l.72.32c.46.21.93.43,1.39.67q1.34.68,2.61,1.47c.41.25.81.52,1.21.8s1.54,1.47,0,0c.65.64,1.38,1.18,2,1.83a6.94,6.94,0,1,0,9.81-9.81Z"/><rect class="cls-10" x="103.69" y="121.36" width="108.19" height="50.18" rx="5.4"/><circle class="cls-1" cx="144.41" cy="149.07" r="4.46"/><circle class="cls-1" cx="117.67" cy="149.07" r="4.46"/><circle class="cls-1" cx="125.59" cy="140.15" r="4.46"/><circle class="cls-1" cx="136.49" cy="140.15" r="4.46"/><circle class="cls-1" cx="197.9" cy="149.07" r="4.46"/><circle class="cls-1" cx="171.15" cy="149.07" r="4.46"/><circle class="cls-1" cx="179.08" cy="140.15" r="4.46"/><circle class="cls-1" cx="189.97" cy="140.15" r="4.46"/><g id="Laag_2" data-name="Laag 2"><path class="cls-11" d="M206.13,243.32c-3.7,9.76-11.16,15.06-14.66,17.48-10.53,7.27-21.22,8-28.15,8.44s-37.06,2.18-47.27-16.21a24.17,24.17,0,0,1-2.91-15.18c2.35-14.52,20.19-26.57,36.15-26.63,17.83-.07,26.12,14.85,40.45,9.83,7-2.47,9.27-7.57,13-6.21,5.87,2.11,7.67,17.06,3.34,28.48"/><path class="cls-12" d="M187.52,249.16a19.58,19.58,0,0,1-7.65,9.12c-5.5,3.8-11.08,4.2-14.7,4.41s-19.35,1.14-24.68-8.46A12.59,12.59,0,0,1,139,246.3c1.23-7.58,10.54-13.87,18.88-13.9,9.3,0,13.63,7.75,21.11,5.13,3.69-1.29,4.85-3.95,6.82-3.24,3.07,1.1,4,8.91,1.74,14.87"/><path class="cls-11" d="M182.2,251.94c-5.57,3.79-11.23,4.18-14.9,4.39-3.3.19-16.63.95-23.17-6a13.68,13.68,0,0,0,.69,1.78c4.48,9.55,18,8.46,21.11,8.22a21.56,21.56,0,0,0,16.75-8.75Z"/><path class="cls-11" d="M128.85,189.58c-1.5,1.2-2,1.25-2.85,1.9-4,3.08-3.35,10.25-3.26,11.29a18.91,18.91,0,0,0,2.29,7.42c5.72,10.24,22.25,16.22,33.59,11a20.82,20.82,0,0,0,5.38-3.65c.36-.33,8.38-8,7.33-19.05s-11-20.67-20.77-20.92a24,24,0,0,0-14.28,5,45.56,45.56,0,0,0-3.79,3.44,17.65,17.65,0,0,1-3.64,3.59"/><path class="cls-11" d="M128.85,189.58c-1.5,1.2-2,1.25-2.85,1.9-4,3.08-3.35,10.25-3.26,11.29a18.91,18.91,0,0,0,2.29,7.42c5.72,10.24,22.25,16.22,33.59,11a20.82,20.82,0,0,0,5.38-3.65c.36-.33,8.38-8,7.33-19.05s-11-20.67-20.77-20.92a24,24,0,0,0-14.28,5,45.56,45.56,0,0,0-3.79,3.44,17.65,17.65,0,0,1-3.64,3.59"/><path class="cls-13" d="M114.55,197.92a8.35,8.35,0,0,1,4.69-2.58c2.48-.56,4.43.06,6.72.77,2.9.89,5.3,1.64,5.94,3.57.3.93,0,1.91-.64,3.87s-1.15,3.55-2.68,4.9a6,6,0,0,1-3.55,1.73c-3.2.2-3.71-3.44-9-5.64-1.65-.67-2.72-.76-3.15-1.78-.8-1.91,1.56-4.66,1.71-4.84"/><path class="cls-13" d="M113.57,191.52a9.82,9.82,0,0,0,.88,5.54,12.37,12.37,0,0,0,4.61,5.25c2.75,1.93,8.64,4.82,11.27,2.31a4.51,4.51,0,0,0,1.12-4.44c-.42-1-1.19-.93-2-1.89-1.73-2.15.35-4.79-.9-6.68-1.65-2.5-6.63.33-9.17-2.85-1.12-1.39-1-2.75-1.87-2.92-1.41-.27-3.5,2.71-4,5.68"/><path class="cls-14" d="M130.38,204.23c-2.63,2.51-8.52-.38-11.27-2.31a12.37,12.37,0,0,1-4.61-5.25,10.13,10.13,0,0,1-1-4.57,10,10,0,0,0,.91,5.07,12.21,12.21,0,0,0,4.51,5.25c2.69,1.93,8.46,4.81,11,2.29a3.77,3.77,0,0,0,.44-.52Z"/><path class="cls-5" d="M132.81,193.38c.52,1.69,2.76,2.59,4.54,2.42,2.9-.27,4.2-3.35,4.43-3.89.36-.84.91-2.14.32-3.18-.86-1.5-3.51-1.35-4.77-1.07a6.25,6.25,0,0,0-4.16,3.23,3.55,3.55,0,0,0-.36,2.49"/><path class="cls-15" d="M133.33,193a2.18,2.18,0,0,0,2.27,1.21,3,3,0,0,0,2.22-1.94,1.87,1.87,0,0,0,.16-1.59c-.43-.75-1.75-.67-2.39-.53a3.08,3.08,0,0,0-2.08,1.61,1.79,1.79,0,0,0-.18,1.24"/><path class="cls-14" d="M123.49,193.34a.86.86,0,0,0,.37,1,1.21,1.21,0,0,0,1.18,0c.17-.08.42-.21.47-.44s-.35-.67-.58-.8a1.3,1.3,0,0,0-1.06-.06.69.69,0,0,0-.38.33"/></g><ellipse class="cls-16" cx="223.43" cy="236.2" rx="36.5" ry="17.75" transform="translate(-74.78 106.66) rotate(-23.11)"/><path class="cls-7" d="M191.39,249.16c1.45-6.59,7.55-16.65,19.17-25.59l.07-.07a110.28,110.28,0,0,1,11-7.43l-2.28,1.56c-6.44,4.53-12.48,9.69-16.33,14.26l0,.06c-7.21,8.57-4.56,14.05,1.11,16.13s17-.33,30.46-6.46a130.72,130.72,0,0,0,14-7.42A124.9,124.9,0,0,1,223.64,251a64.66,64.66,0,0,1-18.88,6.36C194.91,258.8,189.94,255.75,191.39,249.16Z"/><ellipse class="cls-17" cx="223.43" cy="236.2" rx="36.5" ry="17.75" transform="translate(-79.64 118.47) rotate(-25.36)"/><ellipse class="cls-18" cx="93.54" cy="231.38" rx="18.46" ry="36.7" transform="translate(-148.27 169.62) rotate(-53.66)"/><path class="cls-7" d="M122.05,251.12c-6.09,2.59-17.21,3.28-30-1.34l-.09,0a92.37,92.37,0,0,1-11.28-5c.78.35,1.56.69,2.35,1,6.75,2.81,13.82,4.92,19.38,5.51l0,0c10.42,1.11,13.68-4.3,12.73-10.28S106.93,226.83,95.57,219a108.67,108.67,0,0,0-12.64-7.49,103.45,103.45,0,0,1,25.5,11.3,55.14,55.14,0,0,1,14.08,12.24C128.31,242.56,128.14,248.52,122.05,251.12Z"/><ellipse class="cls-19" cx="93.54" cy="231.38" rx="18.46" ry="36.7" transform="translate(-148.27 169.62) rotate(-53.66)"/></g></g></svg>