<?xml version="1.0" encoding="utf-8"?>
<!-- Generator: Adobe Illustrator 25.4.1, SVG Export Plug-In . SVG Version: 6.00 Build 0)  -->
<svg version="1.1" xmlns="http://www.w3.org/2000/svg" xmlns:xlink="http://www.w3.org/1999/xlink" x="0px" y="0px"
	 viewBox="0 0 640 640" style="enable-background:new 0 0 640 640;" xml:space="preserve">
<style type="text/css">
	.st0{fill:#FFFFFF;}
	.st1{fill:#4D4D4D;}
	.st2{fill:#FFFFFF;stroke:#4D4D4D;stroke-width:15;stroke-miterlimit:10;}
	.st3{fill:#CCCCCC;}
	.st4{stroke:#000000;stroke-width:6;stroke-miterlimit:10;}
	.st5{fill:none;stroke:#4D4D4D;stroke-width:15;stroke-miterlimit:10;}
	.st6{fill:#FFCC00;}
	.st7{fill:#FFCB03;}
	.st8{fill:none;}
	.st9{fill:#F2F2F2;}
	.st10{font-family:'ArialRoundedMTBold';}
	.st11{font-size:68px;}
	.st12{fill:#FFDD00;}
	.st13{fill:#FFEC00;}
	.st14{fill:#F29100;}
	.st15{fill:#EB680F;}
	.st16{fill:#1D1D1B;}
</style>
<g id="Laag_1">
	<g>
		<path class="st0" d="M327.4,96.9c-17.1-5.9-36.4-5.1-53.2,0.7c-16.9,5.8-31.4,16.3-43.1,28.9c-28.6,30.8-39.9,74.7-29.5,114.9
			c6.2,24.1,20.3,47.1,41.7,62.3s50.4,21.7,75.7,14.4c18.9-5.5,34.5-18.1,46.1-32.8c22.7-28.8,31.4-66.8,23.4-102.3
			c-8-35.5-28.8-74.7-60.9-85.8"/>
		<g>
			<path class="st1" d="M329.7,88.2c-25-8.6-53.2-4-76,8.7c-20.4,11.5-37.4,29.5-48.6,50c-10.9,20-16.8,42.8-16.5,65.7
				c0.2,22.8,6.5,45.6,18.5,65.1c6.1,9.9,13.6,19,22.4,26.5c9.5,8.2,20,14.4,31.7,19c11,4.3,22.9,6.6,34.7,6.7
				c6.2,0.1,12.5-0.5,18.6-1.7c6.2-1.2,12-3.2,17.8-5.7C342.9,318,352.6,311,361,303c8.4-8.1,15.7-17.6,21.5-27.7
				c11.9-20.5,18.1-44.2,17.8-67.9c-0.3-22.6-6.9-44.9-16.6-65.2c-8.9-18.7-22-36.5-39.9-47.4c-4.4-2.7-9.1-4.8-13.9-6.5
				c-2.1-0.7-5-0.2-6.9,0.9c-1.9,1.1-3.6,3.2-4.1,5.4c-1.1,5,1.5,9.4,6.3,11.1c1.3,0.4,2.5,0.9,3.7,1.4c-0.7-0.3-1.4-0.6-2.1-0.9
				c5.2,2.2,10,5.1,14.4,8.5c-0.6-0.5-1.2-0.9-1.8-1.4c6,4.7,11.3,10.2,15.9,16.2c-0.5-0.6-0.9-1.2-1.4-1.8
				c7.2,9.3,12.9,19.7,17.4,30.4c-0.3-0.7-0.6-1.4-0.9-2.1c5.3,12.6,9.4,26,11.2,39.6c-0.1-0.8-0.2-1.6-0.3-2.4
				c1.4,10.6,1.4,21.4,0,32c0.1-0.8,0.2-1.6,0.3-2.4c-1.5,10.9-4.4,21.5-8.6,31.7c0.3-0.7,0.6-1.4,0.9-2.1
				c-4.1,9.7-9.4,18.8-15.8,27.2c0.5-0.6,0.9-1.2,1.4-1.8c-5.7,7.3-12.2,14-19.5,19.7c0.6-0.5,1.2-0.9,1.8-1.4
				c-5.8,4.5-12.2,8.3-19,11.2c0.7-0.3,1.4-0.6,2.1-0.9c-6.2,2.6-12.7,4.4-19.4,5.3c0.8-0.1,1.6-0.2,2.4-0.3c-7.5,1-15,0.9-22.5-0.1
				c0.8,0.1,1.6,0.2,2.4,0.3c-8.3-1.1-16.5-3.4-24.3-6.6c0.7,0.3,1.4,0.6,2.1,0.9c-7.6-3.2-14.7-7.3-21.2-12.4
				c0.6,0.5,1.2,0.9,1.8,1.4c-6.8-5.3-13-11.5-18.3-18.3c0.5,0.6,0.9,1.2,1.4,1.8c-6-7.8-10.9-16.3-14.8-25.4
				c0.3,0.7,0.6,1.4,0.9,2.1c-4-9.6-6.8-19.7-8.2-30c0.1,0.8,0.2,1.6,0.3,2.4c-1.4-10.9-1.4-21.9,0-32.7c-0.1,0.8-0.2,1.6-0.3,2.4
				c1.5-11,4.4-21.7,8.7-31.9c-0.3,0.7-0.6,1.4-0.9,2.1c4.2-9.9,9.7-19.3,16.2-27.8c-0.5,0.6-0.9,1.2-1.4,1.8
				c6.3-8.1,13.6-15.4,21.7-21.7c-0.6,0.5-1.2,0.9-1.8,1.4c7-5.4,14.6-10,22.8-13.4c-0.7,0.3-1.4,0.6-2.1,0.9
				c7.3-3.1,14.9-5.2,22.8-6.3c-0.8,0.1-1.6,0.2-2.4,0.3c7.3-1,14.7-1,21.9-0.1c-0.8-0.1-1.6-0.2-2.4-0.3c4.9,0.7,9.7,1.8,14.4,3.4
				c4.5,1.5,10-1.7,11.1-6.3C337.2,94.3,334.5,89.8,329.7,88.2L329.7,88.2z"/>
		</g>
	</g>
	<g>
		<path class="st2" d="M247.4,310.7"/>
		<path class="st2" d="M282.1,331.4"/>
		<ellipse class="st2" cx="259.9" cy="339.9" rx="34.7" ry="20.7"/>
	</g>
	<g>
		<path class="st2" d="M320,310.9"/>
		<path class="st2" d="M354.7,331.6"/>
		<ellipse class="st2" cx="331.5" cy="340.1" rx="34.7" ry="20.7"/>
	</g>
	<g>
		<g>
			<path class="st0" d="M406.7,44.4c-5.8-5.9-16.3-9.5-27-10.2c-10.7-0.7-21.6,1.1-31.2,4.3c-23.6,7.7-35.6,36.2-40.8,52.8l-0.7,1
				l0.2,0.2c9.8-8.7,25.1-20.3,39-21.2c10.5-0.7,21,0.6,31.5,0.4c10.5-0.1,21.8-2,28.3-7.4C412.7,58.6,412.5,50.3,406.7,44.4z"/>
			<g>
				<path class="st1" d="M413.1,38c-8.2-8.3-20.3-11.6-31.6-12.7c-5.6-0.5-11.2-0.3-16.8,0.4c-6.3,0.8-12.5,2.1-18.5,4
					c-17.2,5.7-29.5,20-37.6,35.7c-3.8,7.5-7,15.4-9.5,23.4c0.3-0.7,0.6-1.4,0.9-2.1c-0.2,0.3-0.5,0.6-0.7,1
					c-0.3,0.7-0.6,1.4-0.9,2.1c-0.4,1.2-0.4,2.4-0.2,3.6c0.3,2,1.1,3.7,2.5,5.2c0.1,0.1,0.1,0.1,0.2,0.2c1.6,1.6,4.1,2.7,6.4,2.6
					c2.5-0.1,4.5-1,6.4-2.6c2.6-2.3,5.2-4.5,8-6.6c-0.6,0.5-1.2,0.9-1.8,1.4c5.9-4.5,12.1-8.7,19-11.5c-0.7,0.3-1.4,0.6-2.1,0.9
					c3.3-1.4,6.7-2.4,10.2-2.9c-0.8,0.1-1.6,0.2-2.4,0.3c6.8-0.8,13.7-0.3,20.5-0.1c6.5,0.3,13,0.5,19.5,0
					C398,79,413.7,74.9,419,60.7c1.4-3.7,1.3-8.2,0.3-12C418.3,44.7,416,41,413.1,38c-3.3-3.4-9.5-3.5-12.7,0
					c-3.4,3.7-3.5,9.1,0,12.7c0.4,0.5,0.9,0.9,1.2,1.4c-0.5-0.6-0.9-1.2-1.4-1.8c0.8,1.1,1.5,2.2,2,3.4c-0.3-0.7-0.6-1.4-0.9-2.1
					c0.4,1.1,0.7,2.1,0.9,3.2c-0.1-0.8-0.2-1.6-0.3-2.4c0.1,1.1,0.2,2.2,0,3.3c0.1-0.8,0.2-1.6,0.3-2.4c-0.2,1.1-0.5,2.2-0.9,3.2
					c0.3-0.7,0.6-1.4,0.9-2.1c-0.4,1-1,1.9-1.6,2.7c0.5-0.6,0.9-1.2,1.4-1.8c-0.9,1.1-1.8,2-2.9,2.9c0.6-0.5,1.2-0.9,1.8-1.4
					c-1.7,1.3-3.6,2.3-5.5,3.1c0.7-0.3,1.4-0.6,2.1-0.9c-3.9,1.6-8.1,2.5-12.3,3.1c0.8-0.1,1.6-0.2,2.4-0.3
					c-12.7,1.7-25.4-0.3-38.1,0.1c-6,0.2-11.9,1.1-17.5,3.4c-5.6,2.3-10.9,5.1-16,8.6c-5.4,3.7-10.4,7.8-15.3,12.1
					c4.2,0,8.5,0,12.7,0c-0.1-0.1-0.1-0.1-0.2-0.2c0.5,3.6,0.9,7.3,1.4,10.9c1.7-2.3,2.4-5.5,3.3-8.2c1-2.7,2-5.4,3.1-8
					c-0.3,0.7-0.6,1.4-0.9,2.1c3.3-7.7,7.3-15.1,12.4-21.8c-0.5,0.6-0.9,1.2-1.4,1.8c3.1-4,6.7-7.8,10.7-10.9
					c-0.6,0.5-1.2,0.9-1.8,1.4c3-2.3,6.3-4.3,9.8-5.8c-0.7,0.3-1.4,0.6-2.1,0.9c6.1-2.5,12.7-4,19.2-4.9c-0.8,0.1-1.6,0.2-2.4,0.3
					c6.3-0.8,12.7-1,19-0.2c-0.8-0.1-1.6-0.2-2.4-0.3c4.6,0.6,9.1,1.7,13.3,3.5c-0.7-0.3-1.4-0.6-2.1-0.9c2.7,1.1,5.2,2.5,7.5,4.3
					c-0.6-0.5-1.2-0.9-1.8-1.4c0.8,0.6,1.6,1.3,2.3,2.1c3.3,3.4,9.5,3.6,12.7,0C416.4,47.2,416.6,41.6,413.1,38z"/>
			</g>
		</g>
	</g>
	<g>
		<path class="st3" d="M401.5,38.4c-0.1,3-1.2,5.9-3.4,8.6c-5.4,6.8-15.9,10.6-26,12.4c-10,1.8-20.3,2.2-30.2,4.6
			c-4.5,1.1-9,3.6-13.3,6.8c1.3,1.2,2.4,2.7,3.3,4.3c4.1-2.4,8.4-4.1,12.5-4.6c10.1-1.4,20.4-0.6,30.5-1.4c10.2-0.8,21-3.4,26.9-9.6
			C408,53.3,407.3,44.5,401.5,38.4z"/>
	</g>
	<g>
		<path class="st3" d="M391.1,182.8c-8-35.5-28.8-74.7-60.9-85.8l-0.2-0.2c-9.5-3.3-19.7-4.5-29.7-3.9c2.1,0.3,4.1,0.6,6.2,1
			c17.5,3.5,34.5,12.4,46.3,26.2l0.1,0.3c22.1,25.7,20.3,70,9.4,104.6s-37.6,63.1-71.6,76.5c-11.3,4.5-23.7,7.3-36.1,7.5
			c20.2,11.2,45.1,15.3,67.1,8.9c18.9-5.5,34.5-18.1,46.1-32.8C390.4,256.3,399.1,218.3,391.1,182.8z"/>
	</g>
	<g>
		<g>
			<path class="st1" d="M329.7,88.2c-25-8.6-53.2-4-76,8.7c-20.4,11.5-37.4,29.5-48.6,50c-10.9,20-16.8,42.8-16.5,65.7
				c0.2,22.8,6.5,45.6,18.5,65.1c6.1,9.9,13.6,19,22.4,26.5c9.5,8.2,20,14.4,31.7,19c11,4.3,22.9,6.6,34.7,6.7
				c6.2,0.1,12.5-0.5,18.6-1.7c6.2-1.2,12-3.2,17.8-5.7C342.9,318,352.6,311,361,303c8.4-8.1,15.7-17.6,21.5-27.7
				c11.9-20.5,18.1-44.2,17.8-67.9c-0.3-22.6-6.9-44.9-16.6-65.2c-8.9-18.7-22-36.5-39.9-47.4c-4.4-2.7-9.1-4.8-13.9-6.5
				c-2.1-0.7-5-0.2-6.9,0.9c-1.9,1.1-3.6,3.2-4.1,5.4c-1.1,5,1.5,9.4,6.3,11.1c1.3,0.4,2.5,0.9,3.7,1.4c-0.7-0.3-1.4-0.6-2.1-0.9
				c5.2,2.2,10,5.1,14.4,8.5c-0.6-0.5-1.2-0.9-1.8-1.4c6,4.7,11.3,10.2,15.9,16.2c-0.5-0.6-0.9-1.2-1.4-1.8
				c7.2,9.3,12.9,19.7,17.4,30.4c-0.3-0.7-0.6-1.4-0.9-2.1c5.3,12.6,9.4,26,11.2,39.6c-0.1-0.8-0.2-1.6-0.3-2.4
				c1.4,10.6,1.4,21.4,0,32c0.1-0.8,0.2-1.6,0.3-2.4c-1.5,10.9-4.4,21.5-8.6,31.7c0.3-0.7,0.6-1.4,0.9-2.1
				c-4.1,9.7-9.4,18.8-15.8,27.2c0.5-0.6,0.9-1.2,1.4-1.8c-5.7,7.3-12.2,14-19.5,19.7c0.6-0.5,1.2-0.9,1.8-1.4
				c-5.8,4.5-12.2,8.3-19,11.2c0.7-0.3,1.4-0.6,2.1-0.9c-6.2,2.6-12.7,4.4-19.4,5.3c0.8-0.1,1.6-0.2,2.4-0.3c-7.5,1-15,0.9-22.5-0.1
				c0.8,0.1,1.6,0.2,2.4,0.3c-8.3-1.1-16.5-3.4-24.3-6.6c0.7,0.3,1.4,0.6,2.1,0.9c-7.6-3.2-14.7-7.3-21.2-12.4
				c0.6,0.5,1.2,0.9,1.8,1.4c-6.8-5.3-13-11.5-18.3-18.3c0.5,0.6,0.9,1.2,1.4,1.8c-6-7.8-10.9-16.3-14.8-25.4
				c0.3,0.7,0.6,1.4,0.9,2.1c-4-9.6-6.8-19.7-8.2-30c0.1,0.8,0.2,1.6,0.3,2.4c-1.4-10.9-1.4-21.9,0-32.7c-0.1,0.8-0.2,1.6-0.3,2.4
				c1.5-11,4.4-21.7,8.7-31.9c-0.3,0.7-0.6,1.4-0.9,2.1c4.2-9.9,9.7-19.3,16.2-27.8c-0.5,0.6-0.9,1.2-1.4,1.8
				c6.3-8.1,13.6-15.4,21.7-21.7c-0.6,0.5-1.2,0.9-1.8,1.4c7-5.4,14.6-10,22.8-13.4c-0.7,0.3-1.4,0.6-2.1,0.9
				c7.3-3.1,14.9-5.2,22.8-6.3c-0.8,0.1-1.6,0.2-2.4,0.3c7.3-1,14.7-1,21.9-0.1c-0.8-0.1-1.6-0.2-2.4-0.3c4.9,0.7,9.7,1.8,14.4,3.4
				c4.5,1.5,10-1.7,11.1-6.3C337.2,94.3,334.5,89.8,329.7,88.2L329.7,88.2z"/>
		</g>
	</g>
	<path class="st4" d="M336.8,199.3h-84.7c-6.6,0-12-5.4-12-12v-26.4c0-6.6,5.4-12,12-12h84.7c6.6,0,12,5.4,12,12v26.4
		C348.8,193.9,343.4,199.3,336.8,199.3z"/>
	<g>
		<path class="st3" d="M289.3,336.8c-2.1-6.9-9.5-15.5-22.6-20.1l-0.1,0c-3.9-1.4-8.1-2.4-12.3-3.2c0.9,0.2,1.7,0.4,2.5,0.7
			c7.2,2.1,14.1,5.1,18.5,8.5l0,0.1c8.4,6.4,6.1,14,0.3,19.1c-5.8,5.1-18,7.9-32.8,7.4c-4.9-0.2-10.2-0.7-15.4-1.7
			c8.1,3.7,18.4,6.5,27.9,7.2c8.1,0.6,15.1-0.3,20.5-1.9C286.5,349.6,291.5,343.7,289.3,336.8z"/>
	</g>
	<g>
		<path class="st5" d="M247.4,310.7"/>
		<path class="st5" d="M282.1,331.4"/>
		<ellipse class="st5" cx="259.9" cy="339.9" rx="34.7" ry="20.7"/>
	</g>
	<g>
		<path class="st3" d="M359,338c-2.1-6.9-9.5-15.5-22.6-20.1l-0.1,0c-3.9-1.4-8.1-2.4-12.3-3.2c0.9,0.2,1.7,0.4,2.5,0.7
			c7.2,2.1,14.1,5.1,18.5,8.5l0,0.1c8.4,6.4,6.1,14,0.3,19.1c-5.8,5.1-18,7.9-32.8,7.4c-4.9-0.2-10.2-0.7-15.4-1.7
			c8.1,3.7,18.4,6.5,27.9,7.2c8.1,0.6,15.1-0.3,20.5-1.9C356.1,350.8,361.1,344.9,359,338z"/>
	</g>
	<g>
		<path class="st5" d="M318.4,310.1"/>
		<path class="st5" d="M353.2,330.8"/>
		<ellipse class="st5" cx="330" cy="339.3" rx="34.7" ry="20.7"/>
	</g>
	<g>
		<g>
			<g>
				<path class="st1" d="M413.1,38c-8.2-8.3-20.3-11.6-31.6-12.7c-5.6-0.5-11.2-0.3-16.8,0.4c-6.3,0.8-12.5,2.1-18.5,4
					c-17.2,5.7-29.5,20-37.6,35.7c-3.8,7.5-7,15.4-9.5,23.4c0.3-0.7,0.6-1.4,0.9-2.1c-0.2,0.3-0.5,0.6-0.7,1
					c-0.3,0.7-0.6,1.4-0.9,2.1c-0.4,1.2-0.4,2.4-0.2,3.6c0.3,2,1.1,3.7,2.5,5.2c0.1,0.1,0.1,0.1,0.2,0.2c1.6,1.6,4.1,2.7,6.4,2.6
					c2.5-0.1,4.5-1,6.4-2.6c2.6-2.3,5.2-4.5,8-6.6c-0.6,0.5-1.2,0.9-1.8,1.4c5.9-4.5,12.1-8.7,19-11.5c-0.7,0.3-1.4,0.6-2.1,0.9
					c3.3-1.4,6.7-2.4,10.2-2.9c-0.8,0.1-1.6,0.2-2.4,0.3c6.8-0.8,13.7-0.3,20.5-0.1c6.5,0.3,13,0.5,19.5,0
					C398,79,413.7,74.9,419,60.7c1.4-3.7,1.3-8.2,0.3-12C418.3,44.7,416,41,413.1,38c-3.3-3.4-9.5-3.5-12.7,0
					c-3.4,3.7-3.5,9.1,0,12.7c0.4,0.5,0.9,0.9,1.2,1.4c-0.5-0.6-0.9-1.2-1.4-1.8c0.8,1.1,1.5,2.2,2,3.4c-0.3-0.7-0.6-1.4-0.9-2.1
					c0.4,1.1,0.7,2.1,0.9,3.2c-0.1-0.8-0.2-1.6-0.3-2.4c0.1,1.1,0.2,2.2,0,3.3c0.1-0.8,0.2-1.6,0.3-2.4c-0.2,1.1-0.5,2.2-0.9,3.2
					c0.3-0.7,0.6-1.4,0.9-2.1c-0.4,1-1,1.9-1.6,2.7c0.5-0.6,0.9-1.2,1.4-1.8c-0.9,1.1-1.8,2-2.9,2.9c0.6-0.5,1.2-0.9,1.8-1.4
					c-1.7,1.3-3.6,2.3-5.5,3.1c0.7-0.3,1.4-0.6,2.1-0.9c-3.9,1.6-8.1,2.5-12.3,3.1c0.8-0.1,1.6-0.2,2.4-0.3
					c-12.7,1.7-25.4-0.3-38.1,0.1c-6,0.2-11.9,1.1-17.5,3.4c-5.6,2.3-10.9,5.1-16,8.6c-5.4,3.7-10.4,7.8-15.3,12.1
					c4.2,0,8.5,0,12.7,0c-0.1-0.1-0.1-0.1-0.2-0.2c0.5,3.6,0.9,7.3,1.4,10.9c1.7-2.3,2.4-5.5,3.3-8.2c1-2.7,2-5.4,3.1-8
					c-0.3,0.7-0.6,1.4-0.9,2.1c3.3-7.7,7.3-15.1,12.4-21.8c-0.5,0.6-0.9,1.2-1.4,1.8c3.1-4,6.7-7.8,10.7-10.9
					c-0.6,0.5-1.2,0.9-1.8,1.4c3-2.3,6.3-4.3,9.8-5.8c-0.7,0.3-1.4,0.6-2.1,0.9c6.1-2.5,12.7-4,19.2-4.9c-0.8,0.1-1.6,0.2-2.4,0.3
					c6.3-0.8,12.7-1,19-0.2c-0.8-0.1-1.6-0.2-2.4-0.3c4.6,0.6,9.1,1.7,13.3,3.5c-0.7-0.3-1.4-0.6-2.1-0.9c2.7,1.1,5.2,2.5,7.5,4.3
					c-0.6-0.5-1.2-0.9-1.8-1.4c0.8,0.6,1.6,1.3,2.3,2.1c3.3,3.4,9.5,3.6,12.7,0C416.4,47.2,416.6,41.6,413.1,38z"/>
			</g>
		</g>
	</g>
	<g>
		<circle class="st6" cx="281.1" cy="176.8" r="4.5"/>
		<circle class="st6" cx="254.2" cy="176.8" r="4.5"/>
		<circle class="st6" cx="262.2" cy="167.8" r="4.5"/>
		<circle class="st6" cx="273.1" cy="167.8" r="4.5"/>
		<circle class="st6" cx="334.8" cy="176.8" r="4.5"/>
		<circle class="st6" cx="307.9" cy="176.8" r="4.5"/>
		<circle class="st6" cx="315.9" cy="167.8" r="4.5"/>
		<circle class="st6" cx="326.8" cy="167.8" r="4.5"/>
	</g>
	<path class="st7" d="M491,504.6H173.7c-12.9,0-23.3-10.4-23.3-23.3v-20.3c0-12.9,10.4-23.3,23.3-23.3H491
		c12.9,0,23.3,10.4,23.3,23.3v20.3C514.4,494.1,503.9,504.6,491,504.6z"/>
	<g>
		<path d="M208.6,377.1h6l19.2,50.1h-10.2l-12-34.2l-12,34.2h-10.2L208.6,377.1z M198.6,410.1H225v9.1h-26.4V410.1z"/>
		<path d="M246,427c-2.3-0.5-4.4-1.2-6.4-2.1c-2-0.9-3.8-2.1-5.4-3.4l4.4-7.8c1.9,1.6,4.2,2.8,6.7,3.7c2.5,0.9,5.1,1.3,7.8,1.3
			c3.1,0,5.5-0.5,7.2-1.6c1.7-1,2.6-2.5,2.6-4.4v0c0-1.3-0.4-2.4-1.1-3.2c-0.8-0.8-1.7-1.4-3-1.7c-1.2-0.4-2.8-0.7-4.7-1
			c-0.1,0-0.1,0-0.2,0c-0.1,0-0.1,0-0.2,0l-0.8-0.1c-3.4-0.5-6.1-1.2-8.3-2c-2.2-0.8-4.1-2.2-5.6-4.2c-1.5-2-2.3-4.8-2.3-8.5v0
			c0-3.2,0.7-6,2.2-8.3c1.4-2.3,3.6-4.1,6.3-5.3c2.8-1.2,6.1-1.8,10-1.8c1.8,0,3.6,0.2,5.5,0.6c1.9,0.4,3.7,1,5.5,1.8
			c1.8,0.8,3.5,1.7,5.1,2.8l-4,8c-1.9-1.3-3.9-2.4-6.1-3.1c-2.1-0.7-4.1-1.1-6.1-1.1c-2.9,0-5.1,0.5-6.7,1.4c-1.6,1-2.4,2.3-2.4,4v0
			c0,1.4,0.4,2.6,1.2,3.4c0.8,0.8,1.9,1.5,3.1,1.8s2.9,0.8,5.1,1.2c0.1,0,0.2,0,0.3,0.1c0.1,0,0.2,0,0.3,0.1c0.1,0,0.3,0.1,0.4,0.1
			c0.1,0,0.3,0.1,0.4,0.1c3.2,0.6,5.8,1.4,7.9,2.3c2.1,0.9,3.9,2.3,5.3,4.3s2.1,4.7,2.1,8.1v0.1c0,3.2-0.7,5.9-2.2,8.2
			c-1.5,2.3-3.7,4-6.5,5.2c-2.9,1.2-6.3,1.8-10.3,1.8C250.6,427.7,248.2,427.5,246,427z"/>
		<path d="M280,377h9.4v50.2H280V377z M283.8,397.9h17.4c1,0,1.8-0.2,2.6-0.7c0.7-0.5,1.3-1.2,1.7-2.1c0.4-0.9,0.6-1.9,0.6-3.1
			c0-1.2-0.2-2.2-0.6-3.1c-0.4-0.9-1-1.6-1.7-2.1c-0.7-0.5-1.6-0.7-2.6-0.7h-17.4V377H302c2.8,0,5.2,0.6,7.3,1.9
			c2.1,1.2,3.7,3,4.9,5.3c1.1,2.3,1.7,4.9,1.7,7.9c0,3-0.6,5.6-1.7,7.9c-1.2,2.3-2.8,4-4.9,5.3c-2.1,1.2-4.5,1.9-7.3,1.9h-18.2
			V397.9z M294.3,405.5l10.1-1.6l13.5,23.3h-11.4L294.3,405.5z"/>
		<path d="M330.4,426c-2.1-1.1-3.7-2.7-4.9-4.8c-1.1-2.1-1.7-4.6-1.7-7.5v-3.5c0-3.1,0.5-5.7,1.6-7.9c1.1-2.2,2.6-3.8,4.7-5
			c2-1.1,4.5-1.7,7.4-1.7c2.7,0,5,0.7,7,2c1.9,1.4,3.4,3.3,4.4,5.9c1,2.6,1.5,5.7,1.5,9.4v2h-21.3v-5.5h13.8l-0.1-0.7
			c-0.2-1.8-0.8-3.2-1.7-4.2c-0.9-1-2.1-1.5-3.6-1.5c-2,0-3.5,0.6-4.6,1.8c-1.1,1.2-1.6,2.8-1.6,5v4c0,2.1,0.6,3.8,1.8,4.9
			c1.2,1.2,2.8,1.7,5,1.7c1.1,0,2.2-0.2,3.3-0.6s2.1-0.9,2.9-1.7l5.4,4.8c-1.6,1.5-3.4,2.6-5.4,3.4c-2,0.8-4.1,1.2-6.1,1.2
			C335,427.7,332.5,427.1,330.4,426z"/>
		<path d="M374.1,396.2h8.2l-11.7,31.1h-5.8l-11.7-31.1h8.2l6.4,19.5L374.1,396.2z"/>
		<path d="M386.6,383.7h8.2v8.2h-8.2V383.7z M386.6,396.2h8.2v31.1h-8.2V396.2z"/>
		<path d="M408.1,426c-2.1-1.1-3.7-2.7-4.9-4.8c-1.1-2.1-1.7-4.6-1.7-7.5v-3.5c0-3.1,0.5-5.7,1.6-7.9c1.1-2.2,2.6-3.8,4.7-5
			c2-1.1,4.5-1.7,7.4-1.7c2.7,0,5,0.7,7,2c1.9,1.4,3.4,3.3,4.4,5.9c1,2.6,1.5,5.7,1.5,9.4v2h-21.3v-5.5h13.8l-0.1-0.7
			c-0.2-1.8-0.8-3.2-1.7-4.2c-0.9-1-2.1-1.5-3.6-1.5c-2,0-3.5,0.6-4.6,1.8c-1.1,1.2-1.6,2.8-1.6,5v4c0,2.1,0.6,3.8,1.8,4.9
			c1.2,1.2,2.8,1.7,5,1.7c1.1,0,2.2-0.2,3.3-0.6s2.1-0.9,2.9-1.7l5.4,4.8c-1.6,1.5-3.4,2.6-5.4,3.4c-2,0.8-4.1,1.2-6.1,1.2
			C412.7,427.7,410.2,427.1,408.1,426z"/>
		<path d="M431.4,396.2h7.9l5.5,19.2l6.6-19.2h4.8l6.6,19.2l5.5-19.2h7.9l-9.6,31.1h-6.1l-6.7-20.3l-6.7,20.3H441L431.4,396.2z"/>
	</g>
	<rect x="155.6" y="444.5" class="st8" width="376.7" height="60.5"/>
	<text transform="matrix(1 0 0 1 155.6112 493.9892)" class="st9 st10 st11">Hackathon</text>
</g>
<g id="Laag_2">
	<g>
		<path class="st12" d="M488.1,330.8c-3.8,12.7-12.8,20-17,23.4c-12.6,10.1-26.1,12-34.8,13.2c-8.7,1.1-46.6,6-61.1-16.3
			c-1.8-2.8-5.8-10-5-18.9c1.7-18.5,23.1-35.3,43.3-36.8c22.5-1.7,34.3,16.4,51.9,8.8c8.7-3.7,11-10.4,15.9-9
			C488.9,297.3,492.5,316,488.1,330.8"/>
		<path class="st13" d="M465.1,339.8c-2,6.6-6.7,10.4-8.9,12.2c-6.6,5.3-13.6,6.3-18.2,6.9c-4.5,0.6-24.3,3.2-31.9-8.5
			c-1-1.5-3-5.2-2.6-9.9c0.9-9.7,12.1-18.5,22.6-19.2c11.8-0.9,17.9,8.6,27.1,4.6c4.5-2,5.8-5.4,8.3-4.7
			C465.5,322.3,467.4,332.1,465.1,339.8"/>
		<path class="st12" d="M458.6,343.8c-6.7,5.3-13.8,6.3-18.4,6.9c-4.2,0.5-20.9,2.7-29.8-5.5c0.4,0.9,0.8,1.7,1,2.2
			c6.5,11.7,23.5,9.1,27.4,8.5c3.9-0.6,9.9-1.6,15.6-6.9c1.1-1.1,3.1-2.9,4.8-5.7C459,343.5,458.8,343.7,458.6,343.8z"/>
		<path class="st12" d="M385.7,269.8c-1.8,1.6-2.4,1.8-3.4,2.7c-4.7,4.2-3.3,13.2-3.1,14.5c0.2,1.2,0.9,5.1,3.6,9.2
			c8.1,12.4,29.5,18.5,43.4,10.9c0.8-0.4,3.6-2,6.5-5.1c0.4-0.5,9.9-10.9,7.6-24.7c-2.3-14-15.7-25.1-28.1-24.6
			c-7,0.3-14.4,4.4-17.6,7.6c-3.6,3.5-4.5,4.7-4.5,4.7C388.5,267.2,387.5,268.1,385.7,269.8"/>
		<path class="st12" d="M385.7,269.8c-1.8,1.6-2.4,1.8-3.4,2.7c-4.7,4.2-3.3,13.2-3.1,14.5c0.2,1.2,0.9,5.1,3.6,9.2
			c8.1,12.4,29.5,18.5,43.4,10.9c0.8-0.4,3.6-2,6.5-5.1c0.4-0.5,9.9-10.9,7.6-24.7c-2.3-14-15.7-25.1-28.1-24.6
			c-7,0.3-14.4,4.4-17.6,7.6c-3.6,3.5-4.5,4.7-4.5,4.7C388.5,267.2,387.5,268.1,385.7,269.8"/>
		<path class="st14" d="M368.4,281.6c1.9-2.5,4.5-3.3,5.7-3.7c3.1-0.9,5.6-0.3,8.5,0.4c3.7,0.9,6.8,1.6,7.8,4
			c0.5,1.2,0.2,2.4-0.5,4.9c-0.6,2.5-1.1,4.6-2.9,6.4c-0.7,0.7-2.2,2.2-4.3,2.5c-4,0.5-5-4-11.9-6.3c-2.1-0.7-3.5-0.7-4.1-2
			C365.5,285.5,368.2,281.8,368.4,281.6"/>
		<path class="st14" d="M366.6,273.6c-0.3,3.2,1,5.8,1.6,6.9c1.8,3.5,4.5,5.2,6.3,6.2c3.6,2.2,11.3,5.3,14.4,1.9
			c1.3-1.4,1.8-4.1,1-5.7c-0.6-1.3-1.6-1.1-2.7-2.2c-2.4-2.6,0-6.1-1.7-8.4c-2.3-3-8.3,1-11.8-2.8c-1.5-1.7-1.5-3.4-2.6-3.5
			C369.3,265.9,366.9,269.8,366.6,273.6"/>
		<path class="st15" d="M388.9,288.2c-3.1,3.4-10.8,0.3-14.4-1.9c-1.8-1.1-4.5-2.7-6.3-6.2c-0.5-1-1.6-3-1.6-5.7
			c-0.1,3,1,5.2,1.6,6.3c1.8,3.5,4.4,5.2,6.2,6.2c3.6,2.2,11.1,5.3,14.1,1.9C388.7,288.6,388.8,288.4,388.9,288.2
			C389,288.1,388.9,288.2,388.9,288.2z"/>
		<path class="st0" d="M391,274.3c0.8,2.1,3.7,3,5.9,2.7c3.6-0.6,5-4.6,5.3-5.3c0.4-1.1,1-2.8,0.1-4c-1.2-1.8-4.5-1.4-6.1-0.9
			c-0.3,0.1-3.8,1.2-5,4.4C391,271.8,390.6,273,391,274.3"/>
		<path class="st16" d="M391.7,273.7c0.4,1,1.9,1.5,3,1.3c1.8-0.3,2.5-2.3,2.6-2.7c0.2-0.5,0.5-1.4,0.1-2c-0.6-0.9-2.3-0.7-3.1-0.5
			c-0.2,0-1.9,0.6-2.5,2.2C391.7,272.5,391.4,273.1,391.7,273.7"/>
		<path class="st15" d="M379.3,275c-0.2,0.4,0.2,0.9,0.5,1.2c0.6,0.4,1.4,0,1.5-0.1c0.2-0.1,0.5-0.3,0.6-0.6
			c0.1-0.4-0.5-0.8-0.8-0.9c-0.1,0-0.7-0.3-1.3,0C379.6,274.7,379.4,274.8,379.3,275"/>
	</g>
</g>
</svg>
