<svg xmlns="http://www.w3.org/2000/svg" viewBox="0 0 640 640"><defs><style>.cls-1{fill:#ffcb03;}.cls-2{font-size:68px;fill:#f2f2f2;font-family:ArialRoundedMTBold, Arial Rounded MT Bold;}.cls-3{letter-spacing:-0.04em;}.cls-4{letter-spacing:-0.02em;}.cls-5{fill:#fd0;}.cls-6{fill:#f29100;}.cls-7{fill:#eb680f;}.cls-8{fill:#fff;}.cls-9{fill:#1d1d1b;}</style></defs><g id="Laag_1" data-name="Laag 1"><rect class="cls-1" x="148" y="453" width="364" height="67" rx="23.33"/><path d="M206.24,392.52h6l19.17,50.14H221.24l-12-34.24-12,34.24H187.06Zm-10,33h26.38v9.11H196.27Z"/><path d="M243.6,442.45a30,30,0,0,1-6.44-2.12,24.38,24.38,0,0,1-5.4-3.36l4.38-7.79a21.27,21.27,0,0,0,6.69,3.67,24.06,24.06,0,0,0,7.79,1.29,13.73,13.73,0,0,0,7.18-1.57,4.92,4.92,0,0,0,2.55-4.43v0a4.38,4.38,0,0,0-1.14-3.18,6.81,6.81,0,0,0-3-1.72,35.75,35.75,0,0,0-4.69-1l-.19,0a.81.81,0,0,1-.19,0l-.75-.1a46.11,46.11,0,0,1-8.35-2,12.23,12.23,0,0,1-5.62-4.17q-2.31-3-2.31-8.46v0a15.26,15.26,0,0,1,2.17-8.31,13.73,13.73,0,0,1,6.31-5.26,24.82,24.82,0,0,1,10-1.81,25.62,25.62,0,0,1,5.5.62,29.44,29.44,0,0,1,5.5,1.79,31.38,31.38,0,0,1,5.11,2.83l-4,8a25.54,25.54,0,0,0-6.06-3.1,18.17,18.17,0,0,0-6.05-1.1,13,13,0,0,0-6.72,1.43,4.45,4.45,0,0,0-2.38,4v0a4.66,4.66,0,0,0,1.24,3.43,7.51,7.51,0,0,0,3.07,1.85A49.83,49.83,0,0,0,253,413l.27,0,.28.05a2.59,2.59,0,0,1,.4.09l.39.08a42.4,42.4,0,0,1,7.95,2.26,12.4,12.4,0,0,1,5.33,4.28,13.49,13.49,0,0,1,2.14,8V428a14.66,14.66,0,0,1-2.24,8.21,14.06,14.06,0,0,1-6.54,5.2,26.64,26.64,0,0,1-10.33,1.8A33.45,33.45,0,0,1,243.6,442.45Z"/><path d="M277.66,392.48h9.45v50.18h-9.45Zm3.76,20.9h17.45a4.58,4.58,0,0,0,2.55-.72,4.69,4.69,0,0,0,1.71-2.07,8.08,8.08,0,0,0,.64-3.11,7.55,7.55,0,0,0-.61-3.1,4.48,4.48,0,0,0-4.29-2.79H281.42v-9.11h18.21a13.88,13.88,0,0,1,7.27,1.87,12.56,12.56,0,0,1,4.87,5.25,18.91,18.91,0,0,1,0,15.76,12.54,12.54,0,0,1-4.88,5.26,14.06,14.06,0,0,1-7.26,1.87H281.42ZM292,420.93l10.11-1.58,13.51,23.31H304.14Z"/><path d="M328,441.48a11.23,11.23,0,0,1-4.86-4.76,15.74,15.74,0,0,1-1.68-7.53v-3.5a17.81,17.81,0,0,1,1.6-7.87,11.19,11.19,0,0,1,4.67-5,15,15,0,0,1,7.41-1.71,11.83,11.83,0,0,1,7,2,12.56,12.56,0,0,1,4.41,5.91,25.7,25.7,0,0,1,1.51,9.35v2H326.8v-5.54h13.77l-.09-.72a7.25,7.25,0,0,0-1.69-4.16,4.72,4.72,0,0,0-3.64-1.46,5.92,5.92,0,0,0-4.59,1.76,7.1,7.1,0,0,0-1.63,5v3.95a6.53,6.53,0,0,0,1.78,4.91,6.8,6.8,0,0,0,5,1.74,9.47,9.47,0,0,0,3.26-.59,9.92,9.92,0,0,0,2.94-1.66l5.35,4.76a17.82,17.82,0,0,1-5.44,3.43,16.3,16.3,0,0,1-6.11,1.21A16.68,16.68,0,0,1,328,441.48Z"/><path d="M371.73,411.59h8.17l-11.67,31.07h-5.81l-11.67-31.07h8.17l6.4,19.49Z"/><path d="M384.24,399.14h8.2v8.2h-8.2Zm0,12.45h8.2v31.07h-8.2Z"/><path d="M405.71,441.48a11.23,11.23,0,0,1-4.86-4.76,15.74,15.74,0,0,1-1.68-7.53v-3.5a17.67,17.67,0,0,1,1.61-7.87,11.11,11.11,0,0,1,4.66-5,15,15,0,0,1,7.41-1.71,11.83,11.83,0,0,1,7,2,12.56,12.56,0,0,1,4.41,5.91,25.7,25.7,0,0,1,1.51,9.35v2H404.5v-5.54h13.77l-.09-.72a7.25,7.25,0,0,0-1.69-4.16,4.72,4.72,0,0,0-3.64-1.46,5.93,5.93,0,0,0-4.59,1.76,7.1,7.1,0,0,0-1.63,5v3.95a6.53,6.53,0,0,0,1.78,4.91,6.83,6.83,0,0,0,5,1.74,9.47,9.47,0,0,0,3.26-.59,9.92,9.92,0,0,0,2.94-1.66l5.36,4.76a18,18,0,0,1-5.45,3.43,16.27,16.27,0,0,1-6.11,1.21A16.68,16.68,0,0,1,405.71,441.48Z"/><path d="M429.05,411.59h7.87l5.5,19.19L449,411.59h4.85l6.55,19.19,5.51-19.19h7.87l-9.58,31.07h-6.1L451.4,422.4l-6.67,20.26h-6.11Z"/><text class="cls-2" transform="translate(153.26 509.42)">Ha<tspan class="cls-3" x="92.07" y="0">ck</tspan><tspan class="cls-4" x="166.28" y="0">a</tspan><tspan x="205" y="0">thon</tspan></text></g><g id="Laag_2" data-name="Laag 2"><path class="cls-1" d="M479.72,292.59c-8.36,27.8-28,44-37.27,51.35-27.79,22.21-57.29,26.42-76.46,28.9s-102.38,13.28-134.26-35.75c-4.06-6.23-12.81-21.93-11-41.56,3.68-40.73,50.83-77.64,95.1-80.92C365.23,211,391.14,250.72,429.9,234c19.08-8.23,24.25-22.81,35-19.78,16.71,4.72,24.61,45.84,14.83,78.36"/><path class="cls-5" d="M429.24,312.41c-4.37,14.52-14.64,22.95-19.47,26.81-14.51,11.61-29.91,13.8-39.92,15.1s-53.46,6.93-70.11-18.67c-2.11-3.26-6.68-11.45-5.76-21.7,1.93-21.27,26.54-40.54,49.66-42.25,25.81-1.91,39.34,18.85,59.58,10.13,10-4.3,12.66-11.92,18.27-10.33,8.73,2.47,12.85,23.93,7.75,40.91"/><path class="cls-1" d="M415,321.16c-14.71,11.6-30.33,13.79-40.47,15.09-9.12,1.17-46,5.88-65.45-12.07a42.28,42.28,0,0,0,2.27,4.81c14.29,25.6,51.61,20,60.16,18.67s21.8-3.49,34.25-15.09a60.15,60.15,0,0,0,10.52-12.43C415.83,320.51,415.4,320.85,415,321.16Z"/><path class="cls-5" d="M254.86,158.57c-3.94,3.62-5.34,3.87-7.54,5.83-10.4,9.32-7.3,29.08-6.85,31.95a52.54,52.54,0,0,0,7.81,20.13c17.87,27.31,64.88,40.67,95.34,24a58.53,58.53,0,0,0,14.2-11.16c.93-1,21.69-23.92,16.61-54.27-5.16-30.78-34.59-55.2-61.69-54-15.42.68-31.6,9.72-38.64,16.59-7.84,7.64-9.85,10.29-9.85,10.29a49.45,49.45,0,0,1-9.39,10.65"/><path class="cls-1" d="M254.86,158.57c-3.94,3.62-5.34,3.87-7.54,5.83-10.4,9.32-7.3,29.08-6.85,31.95a52.54,52.54,0,0,0,7.81,20.13c17.87,27.31,64.88,40.67,95.34,24a58.53,58.53,0,0,0,14.2-11.16c.93-1,21.69-23.92,16.61-54.27-5.16-30.78-34.59-55.2-61.69-54-15.42.68-31.6,9.72-38.64,16.59-7.84,7.64-9.85,10.29-9.85,10.29a49.45,49.45,0,0,1-9.39,10.65"/><path class="cls-6" d="M216.82,184.49c4.19-5.53,9.83-7.25,12.51-8.06,6.77-2,12.27-.7,18.77.82,8.23,1.92,15,3.51,17.17,8.75,1,2.53.35,5.3-1,10.85s-2.49,10.09-6.46,14.12c-1.6,1.62-4.84,4.9-9.51,5.51-8.85,1.16-11-8.84-26.18-13.88-4.7-1.56-7.71-1.6-9.09-4.34-2.58-5.14,3.41-13.23,3.81-13.77"/><path class="cls-6" d="M212.84,167a27.11,27.11,0,0,0,3.53,15.18c4,7.65,9.94,11.33,13.81,13.67,8,4.83,24.91,11.69,31.7,4.22,2.83-3.12,4-8.9,2.24-12.54-1.36-2.75-3.48-2.35-5.82-4.87-5.23-5.62,0-13.35-3.8-18.36-5.07-6.61-18.32,2.23-26-6.1-3.36-3.64-3.21-7.45-5.76-7.75-4-.46-9.19,8.21-9.9,16.55"/><path class="cls-7" d="M261.94,198.93c-6.78,7.47-23.7.61-31.7-4.22-3.87-2.34-9.79-6-13.81-13.67a28.32,28.32,0,0,1-3.6-12.49,28,28,0,0,0,3.53,13.9c3.93,7.65,9.74,11.33,13.53,13.67,7.83,4.83,24.4,11.69,31.05,4.22a10.24,10.24,0,0,0,1.11-1.54Z"/><path class="cls-8" d="M266.59,168.34c1.75,4.59,8.16,6.65,13.05,5.84,8-1.32,11-10.13,11.54-11.67.82-2.38,2.1-6.11.26-8.87-2.68-4-10-3-13.44-2-.7.2-8.28,2.58-10.91,9.76-.58,1.6-1.55,4.25-.5,7"/><path class="cls-9" d="M268,167.17c.88,2.3,4.08,3.32,6.53,2.92,4-.66,5.5-5.06,5.77-5.83.41-1.19,1.05-3.06.13-4.44-1.34-2-5-1.53-6.72-1-.35.1-4.14,1.29-5.46,4.88a4.89,4.89,0,0,0-.25,3.48"/><path class="cls-7" d="M240.71,170.06a2.44,2.44,0,0,0,1.21,2.61,3.33,3.33,0,0,0,3.29-.24c.44-.25,1.13-.65,1.21-1.31.13-1-1.1-1.78-1.76-2.09a3.52,3.52,0,0,0-2.95,0,2,2,0,0,0-1,1"/></g></svg>