<svg xmlns="http://www.w3.org/2000/svg" viewBox="0 0 271.62 254.58"><defs><style>.cls-1{fill:#ffcb03;}.cls-2{fill:#fd0;}.cls-3{fill:#f29100;}.cls-4{fill:#eb680f;}.cls-5{fill:#fff;}.cls-6{fill:#1d1d1b;}</style></defs><g id="Layer_2" data-name="Layer 2"><g id="Laag_2" data-name="Laag 2"><path class="cls-1" d="M267.36,171.59c-8.36,27.8-28,43.95-37.28,51.35-27.79,22.21-57.29,26.42-76.45,28.9S51.25,265.12,19.36,216.09c-4-6.23-12.8-21.93-11-41.56C12,133.8,59.15,96.89,103.42,93.61,152.86,90,178.77,129.72,217.53,113c19.09-8.23,24.26-22.81,35-19.78,16.72,4.72,24.61,45.84,14.84,78.36"/><path class="cls-2" d="M216.87,191.41c-4.37,14.52-14.64,23-19.46,26.81-14.52,11.61-29.92,13.8-39.92,15.1S104,240.25,87.38,214.65c-2.12-3.26-6.69-11.45-5.76-21.7,1.92-21.27,26.54-40.54,49.65-42.25,25.82-1.91,39.34,18.85,59.58,10.13,10-4.3,12.67-11.92,18.27-10.33,8.73,2.47,12.85,23.93,7.75,40.91"/><path class="cls-1" d="M202.64,200.16c-14.71,11.6-30.33,13.79-40.47,15.09-9.13,1.17-46,5.88-65.45-12.07A40.85,40.85,0,0,0,99,208c14.29,25.6,51.61,20,60.16,18.67s21.8-3.49,34.25-15.09a60.12,60.12,0,0,0,10.53-12.43Z"/><path class="cls-2" d="M42.5,37.57c-4,3.62-5.35,3.87-7.55,5.83-10.4,9.32-7.29,29.08-6.84,31.95a52.28,52.28,0,0,0,7.8,20.13c17.88,27.31,64.88,40.67,95.34,24a58.33,58.33,0,0,0,14.2-11.16c.93-1,21.69-23.92,16.61-54.27-5.16-30.78-34.58-55.2-61.68-54C85,.72,68.78,9.76,61.73,16.63c-7.83,7.64-9.85,10.29-9.85,10.29A49.68,49.68,0,0,1,42.5,37.57"/><path class="cls-1" d="M42.5,37.57c-4,3.62-5.35,3.87-7.55,5.83-10.4,9.32-7.29,29.08-6.84,31.95a52.28,52.28,0,0,0,7.8,20.13c17.88,27.31,64.88,40.67,95.34,24a58.33,58.33,0,0,0,14.2-11.16c.93-1,21.69-23.92,16.61-54.27-5.16-30.78-34.58-55.2-61.68-54C85,.72,68.78,9.76,61.73,16.63c-7.83,7.64-9.85,10.29-9.85,10.29A49.68,49.68,0,0,1,42.5,37.57"/><path class="cls-3" d="M4.46,63.49A23.18,23.18,0,0,1,17,55.43c6.77-2,12.28-.7,18.77.82C44,58.17,50.78,59.76,52.91,65c1,2.53.35,5.3-1,10.85S49.4,85.94,45.42,90c-1.6,1.62-4.84,4.9-9.51,5.51C27.07,96.64,25,86.64,9.73,81.6,5,80,2,80,.64,77.26-1.94,72.12,4.05,64,4.46,63.49"/><path class="cls-3" d="M.47,46A27.19,27.19,0,0,0,4,61.13c4,7.65,9.94,11.33,13.81,13.67,8,4.83,24.92,11.69,31.7,4.22,2.84-3.12,4-8.9,2.24-12.54-1.36-2.75-3.48-2.35-5.82-4.87C40.7,56,46,48.26,42.13,43.25c-5.06-6.61-18.32,2.23-26-6.1-3.37-3.64-3.21-7.45-5.76-7.75C6.41,28.94,1.19,37.61.47,46"/><path class="cls-4" d="M49.58,77.93c-6.79,7.47-23.7.61-31.7-4.22C14,71.37,8.08,67.69,4.07,60A28.19,28.19,0,0,1,.47,47.55,28.06,28.06,0,0,0,4,61.45c3.93,7.65,9.74,11.33,13.53,13.67C25.36,80,41.93,86.81,48.57,79.34a10.24,10.24,0,0,0,1.11-1.54A1.47,1.47,0,0,0,49.58,77.93Z"/><path class="cls-5" d="M54.22,47.34C56,51.93,62.38,54,67.28,53.18c8-1.32,11-10.13,11.54-11.67.81-2.38,2.1-6.11.25-8.87-2.68-4-10-3.05-13.44-2-.7.2-8.28,2.58-10.9,9.76-.59,1.6-1.56,4.25-.51,7"/><path class="cls-6" d="M55.59,46.17c.88,2.3,4.09,3.32,6.53,2.92,4-.66,5.51-5.06,5.77-5.83.41-1.19,1-3.06.13-4.44-1.34-2-5-1.53-6.72-1-.35.1-4.14,1.29-5.45,4.88a4.88,4.88,0,0,0-.26,3.48"/><path class="cls-4" d="M28.34,49.06a2.44,2.44,0,0,0,1.21,2.61,3.32,3.32,0,0,0,3.29-.24c.44-.25,1.13-.65,1.22-1.31.12-1-1.11-1.78-1.77-2.09a3.52,3.52,0,0,0-2.95,0,2.06,2.06,0,0,0-1,1"/></g></g></svg>