<svg xmlns="http://www.w3.org/2000/svg" viewBox="0 0 136 136"><defs><style>.a,.c,.l{fill:#fff;}.b{fill:#4d4d4d;}.c,.f{stroke:#4d4d4d;stroke-width:4.49px;}.c,.e,.f{stroke-miterlimit:10;}.d{fill:#ccc;}.e{stroke:#000;stroke-width:1.8px;}.f,.n{fill:none;}.g{fill:#fc0;}.h{fill:#f7931e;}.i{fill:#cf7b19;}.j{fill:#ffa740;}.k{fill:gray;stroke:gray;stroke-width:0.92px;}.k,.n{stroke-miterlimit:10;}.l,.n{stroke:#4e4d4d;}.l{stroke-miterlimit:10;stroke-width:4.66px;}.m{fill:#cdcccc;}.n{stroke-width:4.66px;}</style></defs><path class="a" d="M84.4,29a32.3,32.3,0,0,0-20.6.3A41.8,41.8,0,0,0,47.1,40.5,48.1,48.1,0,0,0,35.7,84.8a42.3,42.3,0,0,0,16.2,24.1c8.2,5.9,19.4,8.4,29.2,5.5,7.3-2.1,13.3-7,17.8-12.6A47.9,47.9,0,0,0,108,62.2c-3.1-13.7-11.2-28.8-23.6-33.1"/><path class="b" d="M85.1,26.4c-18.9-6.3-38.3,6-47.2,22.3s-8.5,34.8.7,49.8A41.4,41.4,0,0,0,59,115.7a35.5,35.5,0,0,0,26.6,0c16.6-7.1,26.4-26.3,26.2-43.8a59.5,59.5,0,0,0-6.3-24.8c-3.4-7.2-8.3-14-15.2-18.2a26.3,26.3,0,0,0-5.1-2.4,2.8,2.8,0,0,0-3.4,1.9,2.7,2.7,0,0,0,1.9,3.3c6.3,2.2,11.2,7.7,14.6,13.4A57.1,57.1,0,0,1,105.9,66c2.4,15.4-4.1,32.9-17.2,41.8a28.7,28.7,0,0,1-22.3,4.5,35.2,35.2,0,0,1-20-12.1c-10-12-11.8-29.2-6.3-43.6S60.6,28.9,77.4,30.3a22.1,22.1,0,0,1,6.2,1.3c3.3,1.1,4.8-4.1,1.5-5.2Z"/><ellipse class="c" cx="86" cy="123" rx="13.4" ry="8"/><path class="a" d="M115,8.8c-2.2-2.3-6.3-3.7-10.4-4a30.2,30.2,0,0,0-12,1.7C83.4,9.4,78.8,20.4,76.8,26.8l-.3.4h.1c3.8-3.4,9.7-7.9,15-8.2s8.1.2,12.2.1,8.4-.7,11-2.8S117.3,11.1,115,8.8Z"/><path class="b" d="M116.9,6.9C110.7.7,100,1.3,92.3,3.7S80.8,11.4,77.7,17.5c-.8,1.6-1.5,3.3-2.2,4.9l-.8,2.1-.3,1.1c-.2.6.2-.3-.2.3a2.6,2.6,0,0,0,.4,3.2h.1a2.8,2.8,0,0,0,3.8,0,39.6,39.6,0,0,1,7.8-5.6,15.4,15.4,0,0,1,4.2-1.7,25.3,25.3,0,0,1,5.5-.2c3.9.1,7.8.5,11.7,0s7.1-1.4,9.5-3.9,2.6-7.8-.3-10.9-6.1,1.2-3.8,3.8a2.2,2.2,0,0,1,.6,2.9,6.7,6.7,0,0,1-3.8,2.2c-4.1,1.1-8.5.7-12.7.6a40.9,40.9,0,0,0-7,.1,19.4,19.4,0,0,0-5.7,2,41.4,41.4,0,0,0-9.8,6.9h3.7l.4,3.3a12.2,12.2,0,0,0,1.4-3.3A25.2,25.2,0,0,1,81.5,22a32.9,32.9,0,0,1,4.1-7.1,17.7,17.7,0,0,1,6.3-5.3,27.6,27.6,0,0,1,10.6-2.2c3.6,0,8,.6,10.6,3.3S119.4,9.3,116.9,6.9Z"/><path class="d" d="M113.3,6.5A6.2,6.2,0,0,1,112,9.8c-2,2.6-6,4.1-9.8,4.8s-7.6.8-11.3,1.8a12.7,12.7,0,0,0-5,2.6,6.1,6.1,0,0,1,1.2,1.6,13.4,13.4,0,0,1,4.7-1.7c3.8-.6,7.7-.3,11.5-.6s7.9-1.3,10.2-3.7A5.7,5.7,0,0,0,113.3,6.5Z"/><path class="d" d="M109,62.2c-3.1-13.7-11.1-28.8-23.5-33.1h-.1a32,32,0,0,0-11.5-1.5l2.4.4A31.7,31.7,0,0,1,94.2,38h0c8.6,9.9,7.9,27.1,3.7,40.4a47.5,47.5,0,0,1-27.7,29.6,41.7,41.7,0,0,1-14,2.9c7.8,4.3,17.4,5.9,25.9,3.4s13.4-7,17.9-12.6A47.8,47.8,0,0,0,109,62.2Z"/><path class="b" d="M85.1,26.4c-18.9-6.3-38.3,6-47.2,22.3s-8.5,34.8.7,49.8A41.4,41.4,0,0,0,59,115.7a35.5,35.5,0,0,0,26.6,0c16.6-7.1,26.4-26.3,26.2-43.8a59.5,59.5,0,0,0-6.3-24.8c-3.4-7.2-8.3-14-15.2-18.2a26.3,26.3,0,0,0-5.1-2.4,2.8,2.8,0,0,0-3.4,1.9,2.7,2.7,0,0,0,1.9,3.3c6.3,2.2,11.2,7.7,14.6,13.4A57.1,57.1,0,0,1,105.9,66c2.4,15.4-4.1,32.9-17.2,41.8a28.7,28.7,0,0,1-22.3,4.5,35.2,35.2,0,0,1-20-12.1c-10-12-11.8-29.2-6.3-43.6S60.6,28.9,77.4,30.3a22.1,22.1,0,0,1,6.2,1.3c3.3,1.1,4.8-4.1,1.5-5.2Z"/><rect class="e" x="50.7" y="54.2" width="42" height="19.47" rx="3.6"/><path class="d" d="M96.6,122.2c-.8-2.7-3.7-6-8.7-7.8h-.1a35.9,35.9,0,0,0-4.7-1.2l.9.2a23,23,0,0,1,7.2,3.3h0c3.3,2.5,2.4,5.4.1,7.4s-6.9,3.1-12.6,2.9a42.5,42.5,0,0,1-6-.7,34.4,34.4,0,0,0,10.8,2.8,23.7,23.7,0,0,0,7.9-.7C95.5,127.1,97.4,124.9,96.6,122.2Z"/><ellipse class="f" cx="85.4" cy="122.7" rx="13.4" ry="8"/><ellipse class="c" cx="58.3" cy="123" rx="13.4" ry="8"/><path class="d" d="M69.6,122.6c-.8-2.6-3.7-5.9-8.7-7.7h-.1a25.2,25.2,0,0,0-4.7-1.3l.9.3a23,23,0,0,1,7.2,3.3h0c3.3,2.4,2.4,5.4.1,7.4s-6.9,3-12.6,2.8a31.3,31.3,0,0,1-6-.6,31.8,31.8,0,0,0,10.8,2.7,21.3,21.3,0,0,0,7.9-.7C68.5,127.6,70.4,125.3,69.6,122.6Z"/><ellipse class="f" cx="57.7" cy="122.7" rx="13.4" ry="8"/><path class="b" d="M116.9,6.9C110.7.7,100,1.3,92.3,3.7S80.8,11.4,77.7,17.5c-.8,1.6-1.5,3.3-2.2,4.9l-.8,2.1-.3,1.1c-.2.6.2-.3-.2.3a2.6,2.6,0,0,0,.4,3.2h.1a2.8,2.8,0,0,0,3.8,0,39.6,39.6,0,0,1,7.8-5.6,15.4,15.4,0,0,1,4.2-1.7,25.3,25.3,0,0,1,5.5-.2c3.9.1,7.8.5,11.7,0s7.1-1.4,9.5-3.9,2.6-7.8-.3-10.9-6.1,1.2-3.8,3.8a2.2,2.2,0,0,1,.6,2.9,6.7,6.7,0,0,1-3.8,2.2c-4.1,1.1-8.5.7-12.7.6a40.9,40.9,0,0,0-7,.1,19.4,19.4,0,0,0-5.7,2,41.4,41.4,0,0,0-9.8,6.9h3.7l.4,3.3a12.2,12.2,0,0,0,1.4-3.3A25.2,25.2,0,0,1,81.5,22a32.9,32.9,0,0,1,4.1-7.1,17.7,17.7,0,0,1,6.3-5.3,27.6,27.6,0,0,1,10.6-2.2c3.6,0,8,.6,10.6,3.3S119.4,9.3,116.9,6.9Z"/><circle class="g" cx="66.5" cy="64.9" r="1.7"/><circle class="g" cx="56.1" cy="64.9" r="1.7"/><circle class="g" cx="59.2" cy="61.5" r="1.7"/><circle class="g" cx="63.4" cy="61.5" r="1.7"/><circle class="g" cx="87.2" cy="64.9" r="1.7"/><circle class="g" cx="76.9" cy="64.9" r="1.7"/><circle class="g" cx="79.9" cy="61.5" r="1.7"/><circle class="g" cx="84.2" cy="61.5" r="1.7"/><path class="h" d="M109.4,48.6c.4-15.6-13.6-29.2-32-30.7S43.1,27.7,41.1,43.2Z"/><path class="i" d="M81.4,18.4a48.8,48.8,0,0,1,5.5,4.7,37.4,37.4,0,0,1,11,24.6l11.5.9C109.8,34.1,97.8,21.4,81.4,18.4Z"/><path class="i" d="M81.8,17.9s-1-.5-1-.2c-1.2,6.7-4.8,17.1-4.3,24.7.4-4.1,4.2-20.6,6.9-23.4Z"/><path class="j" d="M76.3,17.7c.7-1,6-.5,5.5.4-3.4,6.8-4.7,18.9-4.1,26.6L69,44.2C69.9,27.5,74.7,20.6,76.3,17.7Z"/><rect class="h" x="32.8" y="43.5" width="82.2" height="7.78" rx="3.9" transform="translate(4 -5.7) rotate(4.5)"/><path class="i" d="M111.4,52.5,36.8,48a4.4,4.4,0,0,1-3.6-2.2,4.1,4.1,0,0,0,3.3,2.6l74.2,5.8a3.8,3.8,0,0,0,4.1-3A5.1,5.1,0,0,1,111.4,52.5Z"/><path class="k" d="M29.8,54a.6.6,0,0,0-1,.3l-.7,2.3a.6.6,0,0,1-.7.4l-3.9-1.1a.6.6,0,0,1-.4-.7l.6-2.3a.6.6,0,0,0-.7-.8A4.4,4.4,0,0,0,19.4,55c-.5,1.8.5,3.8,2.4,5l-.3.7L15.6,82a4.7,4.7,0,0,0-4.5,3,4.1,4.1,0,0,0,.9,3.6.6.6,0,0,0,1.1-.2l.6-2.5a.7.7,0,0,1,.8-.4L19.9,87a.6.6,0,0,1,.4.8l-.6,2.4c-.2.5.3.9.8.7A3.8,3.8,0,0,0,23,88.3c.5-1.7-.5-3.6-2.3-4.9l5.9-21.3a1.7,1.7,0,0,0,.1-.7c2.3-.1,4.1-1.3,4.6-3.1A4.4,4.4,0,0,0,29.8,54Z"/><path class="h" d="M57.5,112.1h7.7a3.8,3.8,0,0,0,3.9-3.6l.2-5.5c-18.8.2-28.1-3.7-32.7-5.8C39.1,105.8,47.5,112.1,57.5,112.1Z"/><path class="h" d="M53.8,77.6h-.1c-1.6,0-12.6-1-12.6.4L45,86.3c0,1.5,1.9,3.3.3,3.3l-8.3,1c9.1,2.9,23.3,3.2,32.6,2.1h0C69.9,84.4,62.8,77.6,53.8,77.6Z"/><path class="j" d="M36.6,90.6a.9.9,0,0,0-.8.8h0a16.8,16.8,0,0,0,.8,5.9c4.6,2.1,13.9,6,32.7,5.8l.3-10.4c-9.3,1.1-23.5.8-32.6-2.1Z"/><path class="h" d="M87.9,77.9h2.3l8.1.4-5.5,9.4a3,3,0,0,0,2.9,2.8l11.3.2a.8.8,0,0,1,.8.7h0c.2,11.4-9.6,20.9-21.8,21.1H78.5a3.7,3.7,0,0,1-3.9-3.5l-.4-17.9C74.1,83.9,80.2,78,87.9,77.9Z"/><path class="j" d="M107.8,91.3h-.1c-9.3,2.7-23.6,3.2-33.4,2.2l.2,10.3c16.9.1,26.5-2.8,31.9-5A20.4,20.4,0,0,0,107.8,91.3Z"/><ellipse class="l" cx="34.2" cy="80.2" rx="7.5" ry="15.4" transform="translate(-46.4 46.9) rotate(-44.5)"/><path class="m" d="M44.2,90.9c-2.8.4-7.7-.4-13-3.6h0l-4.6-3.2,1,.7A38.8,38.8,0,0,0,35.7,89h0c4.4,1.5,6.2-.4,6.2-3s-2.7-6.6-7.2-10.9a53.7,53.7,0,0,0-5.1-4.4,57.5,57.5,0,0,1,10.5,7.2,27.5,27.5,0,0,1,5.3,6.5C47.5,88,47.1,90.4,44.2,90.9Z"/><ellipse class="n" cx="34.1" cy="80.2" rx="7.5" ry="15.4" transform="translate(-47.7 50.1) rotate(-46.8)"/><ellipse class="l" cx="97.2" cy="92.1" rx="15.4" ry="7.5" transform="translate(-36 105.5) rotate(-49.2)"/><path class="m" d="M87.4,102.9c-.7-2.7-.3-7.7,2.4-13.2h0c.9-1.6,1.8-3.3,2.8-4.9l-.5,1a37.1,37.1,0,0,0-3.5,8.5h0c-1.2,4.6.8,6.2,3.4,5.9s6.4-3.2,10.3-8.1a41.1,41.1,0,0,0,3.9-5.4,52.2,52.2,0,0,1-6.3,11,25.8,25.8,0,0,1-6,5.9C90.5,106,88,105.7,87.4,102.9Z"/><ellipse class="n" cx="97.1" cy="91.9" rx="15.4" ry="7.5" transform="translate(-35.3 110.7) rotate(-51.5)"/></svg>