<svg id="laag_1_zet_je_ontwerp_hier_in_" data-name="laag 1 zet je ontwerp hier in!" xmlns="http://www.w3.org/2000/svg" viewBox="0 0 666.14 637.8"><defs><style>.cls-1{fill:#bfe6ef;}.cls-2{fill:#6bcce1;}.cls-103,.cls-105,.cls-107,.cls-115,.cls-18,.cls-22,.cls-25,.cls-26,.cls-29,.cls-3,.cls-31,.cls-33,.cls-36,.cls-38,.cls-42,.cls-47,.cls-5,.cls-61,.cls-64,.cls-68,.cls-72,.cls-81,.cls-86,.cls-95,.cls-97,.cls-99{fill:#fff;}.cls-4{fill:#46484a;}.cls-100,.cls-103,.cls-104,.cls-105,.cls-106,.cls-18,.cls-20,.cls-22,.cls-23,.cls-26,.cls-28,.cls-31,.cls-33,.cls-35,.cls-36,.cls-37,.cls-38,.cls-40,.cls-42,.cls-43,.cls-5,.cls-72,.cls-74,.cls-8,.cls-81,.cls-82,.cls-99{stroke:#46484a;}.cls-100,.cls-101,.cls-102,.cls-103,.cls-104,.cls-105,.cls-106,.cls-107,.cls-108,.cls-109,.cls-110,.cls-111,.cls-112,.cls-113,.cls-114,.cls-115,.cls-116,.cls-117,.cls-118,.cls-120,.cls-123,.cls-22,.cls-23,.cls-24,.cls-26,.cls-28,.cls-29,.cls-30,.cls-31,.cls-32,.cls-33,.cls-34,.cls-35,.cls-36,.cls-37,.cls-38,.cls-39,.cls-40,.cls-41,.cls-42,.cls-43,.cls-44,.cls-45,.cls-47,.cls-49,.cls-5,.cls-50,.cls-52,.cls-53,.cls-54,.cls-59,.cls-60,.cls-61,.cls-63,.cls-64,.cls-65,.cls-69,.cls-7,.cls-72,.cls-73,.cls-74,.cls-8,.cls-86,.cls-87,.cls-88,.cls-95,.cls-96,.cls-97,.cls-98,.cls-99{stroke-miterlimit:10;}.cls-5,.cls-8{stroke-width:1.01px;}.cls-6{fill:#c2c3c3;}.cls-101,.cls-24,.cls-34,.cls-39,.cls-44,.cls-7,.cls-73{stroke:#000;}.cls-7{stroke-width:0.4px;}.cls-100,.cls-104,.cls-106,.cls-109,.cls-117,.cls-118,.cls-121,.cls-123,.cls-20,.cls-23,.cls-28,.cls-30,.cls-35,.cls-37,.cls-40,.cls-43,.cls-50,.cls-52,.cls-53,.cls-59,.cls-60,.cls-63,.cls-65,.cls-66,.cls-69,.cls-70,.cls-71,.cls-74,.cls-8,.cls-82,.cls-87,.cls-96,.cls-98{fill:none;}.cls-9{fill:#ffcb29;}.cls-10{fill:#ffca27;}.cls-11{fill:#d7ad28;}.cls-12{fill:#d8ad28;}.cls-13{fill:#fddc66;}.cls-14{fill:#fddc65;}.cls-15{fill:#f79432;}.cls-16{fill:#f9a34e;}.cls-17{fill:#767a7b;stroke:#767a7b;stroke-width:0.21px;}.cls-17,.cls-20,.cls-71,.cls-82{stroke-miterlimit:10;}.cls-18,.cls-81{stroke-miterlimit:10;}.cls-18{stroke-width:1.05px;}.cls-19{fill:#c3c3c3;}.cls-20{stroke-width:1.05px;}.cls-21{fill:#ca7c2b;}.cls-22,.cls-23{stroke-width:1.01px;}.cls-24,.cls-31{stroke-width:0.4px;}.cls-25{opacity:0.4;}.cls-26,.cls-28{stroke-width:1.12px;}.cls-27{fill:#c2c2c2;}.cls-29,.cls-30{stroke:#2c2f31;stroke-width:0.67px;}.cls-29{opacity:0.42;}.cls-31{opacity:0.82;}.cls-32,.cls-41,.cls-45{fill:#ed1c24;}.cls-102,.cls-32,.cls-41,.cls-45{stroke:#414042;}.cls-32{stroke-width:0.83px;}.cls-33,.cls-35{stroke-width:1.01px;}.cls-34{stroke-width:0.43px;}.cls-36,.cls-37{stroke-width:1.14px;}.cls-38,.cls-40,.cls-47,.cls-50{stroke-width:1.01px;}.cls-39,.cls-49{stroke-width:0.4px;}.cls-41{stroke-width:0.72px;}.cls-42,.cls-43{stroke-width:1.12px;}.cls-44{stroke-width:0.4px;}.cls-45{stroke-width:0.72px;}.cls-46{fill:#4e4e4e;}.cls-107,.cls-109,.cls-115,.cls-117,.cls-47,.cls-50{stroke:#4e4e4e;}.cls-48{fill:#ccc;}.cls-108,.cls-116,.cls-120,.cls-49,.cls-88{fill:#010101;}.cls-108,.cls-116,.cls-118,.cls-120,.cls-49,.cls-54,.cls-88{stroke:#010101;}.cls-110,.cls-111,.cls-112,.cls-113,.cls-114,.cls-51{fill:#ffcd05;}.cls-52,.cls-53,.cls-59,.cls-60{stroke:#b4b4b4;}.cls-52{stroke-width:0.08px;}.cls-121,.cls-53,.cls-59,.cls-60,.cls-66,.cls-68,.cls-70{stroke-linecap:round;}.cls-53{stroke-width:0.21px;}.cls-119,.cls-54{fill:#1a1a1a;}.cls-54{stroke-width:0.32px;}.cls-55{fill:#434343;}.cls-56{fill:#303030;}.cls-57{fill:#7a5649;}.cls-58{fill:#c8c7c6;}.cls-59{stroke-width:0.1px;}.cls-60{stroke-width:0.1px;}.cls-61,.cls-63,.cls-64,.cls-65,.cls-86,.cls-87,.cls-95,.cls-96,.cls-97,.cls-98{stroke:#4f4e4e;}.cls-61,.cls-63{stroke-width:0.73px;}.cls-62{fill:#cccbca;}.cls-64,.cls-65{stroke-width:0.74px;}.cls-110,.cls-111,.cls-112,.cls-113,.cls-114,.cls-66,.cls-68,.cls-69{stroke:#231f20;}.cls-66,.cls-70{stroke-linejoin:bevel;}.cls-66{stroke-width:0.8px;}.cls-67{fill:#a97c50;}.cls-121,.cls-68{stroke-linejoin:round;}.cls-68{stroke-width:0.35px;opacity:0.24;}.cls-69{stroke-width:0.58px;}.cls-70{stroke:#ffca27;stroke-width:0.64px;}.cls-71{stroke:#939598;stroke-width:0.8px;}.cls-72,.cls-74{stroke-width:1.01px;}.cls-73{stroke-width:0.4px;}.cls-75{fill:#ee4136;}.cls-76{fill:#ef4136;}.cls-77{fill:#a72b29;}.cls-78{fill:#c3ba2e;}.cls-79{fill:#fff200;}.cls-80{fill:#a82c29;}.cls-81{stroke-width:1.05px;}.cls-82{stroke-width:1.05px;}.cls-83{fill:#00aeef;}.cls-84{fill:#a7a9ac;}.cls-85{fill:#4f4e4e;}.cls-86,.cls-87{stroke-width:1.01px;}.cls-88{stroke-width:0.4px;}.cls-89{fill:#ffcc04;}.cls-90{fill:#fedc00;}.cls-91{fill:#fdeb07;}.cls-92{fill:#f19220;}.cls-93{fill:#e96924;}.cls-94{fill:#1d1d1b;}.cls-95,.cls-96{stroke-width:0.96px;}.cls-97,.cls-98{stroke-width:0.98px;}.cls-100,.cls-99{stroke-width:1.01px;}.cls-101{stroke-width:0.4px;}.cls-102{fill:#3b5d3b;stroke-width:0.71px;}.cls-103,.cls-104{stroke-width:0.96px;}.cls-105,.cls-106{stroke-width:0.98px;}.cls-107,.cls-109{stroke-width:1.01px;}.cls-108{stroke-width:0.4px;}.cls-110{stroke-width:0.38px;}.cls-111{stroke-width:0.43px;}.cls-112{stroke-width:0.32px;}.cls-113{stroke-width:0.28px;}.cls-114{stroke-width:0.31px;}.cls-115,.cls-117{stroke-width:1.01px;}.cls-116{stroke-width:0.4px;}.cls-118{stroke-width:0.1px;}.cls-120,.cls-123{stroke-width:0.05px;}.cls-121{stroke:#ffcd05;stroke-width:0.04px;}.cls-122{fill:#caa42d;}.cls-123{stroke:#676767;}.cls-124{fill:#f69060;}.cls-125{fill:#fdd2b7;}.cls-126{fill:#f16155;}.cls-127{fill:#ffcb05;}</style></defs><g id="Laag_4" data-name="Laag 4"><g id="Laag_5" data-name="Laag 5"><rect class="cls-1" x="115.08" y="276.75" width="435.98" height="210.8"/></g><g id="Layer_4" data-name="Layer 4"><rect class="cls-2" x="115.08" y="446.99" width="435.98" height="30.74"/><path class="cls-3" d="M270,454.33a7.17,7.17,0,0,0-4.62.07,9.32,9.32,0,0,0-3.74,2.5,10.8,10.8,0,0,0-2.56,10,9.54,9.54,0,0,0,3.62,5.4,7.91,7.91,0,0,0,6.57,1.25,8.1,8.1,0,0,0,4-2.85,10.66,10.66,0,0,0,2-8.87c-.7-3.08-2.5-6.48-5.28-7.44"/><path class="cls-4" d="M270.18,453.75c-4.23-1.33-8.48,1.24-10.54,4.91a11.22,11.22,0,0,0,.26,11.5c2.19,3.33,6.56,5.26,10.39,3.62,3.67-1.56,5.83-5.72,5.89-9.58s-2.06-9-6-10.43c-.73-.28-1,.89-.32,1.16,2.94,1.1,4.51,4.73,5,7.62a9.9,9.9,0,0,1-3.75,9.4c-3.06,2.18-7.18,1.19-9.53-1.56a9.83,9.83,0,0,1-1.51-9.78c1.45-3.87,5.56-7,9.8-5.69.75.23,1.06-.94.32-1.17Z"/><ellipse class="cls-5" cx="270.39" cy="475.43" rx="3.01" ry="1.8"/><path class="cls-3" d="M276.91,449.78a3.79,3.79,0,0,0-2.34-.89,7.42,7.42,0,0,0-2.71.37c-2.05.67-3.09,3.14-3.54,4.58l-.06.08,0,0a6.57,6.57,0,0,1,3.37-1.84c.91-.06,1.83,0,2.74,0a4.14,4.14,0,0,0,2.46-.64A1.11,1.11,0,0,0,276.91,449.78Z"/><path class="cls-4" d="M277.34,449.35a4.59,4.59,0,0,0-3.27-1.07,6.32,6.32,0,0,0-3.47.94,6.46,6.46,0,0,0-1.89,2.17,9.51,9.51,0,0,0-.59,1.25,6.71,6.71,0,0,1-.38,1,.6.6,0,0,0,.09.73l0,0a.62.62,0,0,0,.85,0,7.06,7.06,0,0,1,2.48-1.57,14.55,14.55,0,0,1,3.43-.07,4.14,4.14,0,0,0,2.76-.89,1.77,1.77,0,0,0,0-2.49c-.53-.58-1.38.28-.86.86s-.35,1.06-.89,1.19a12,12,0,0,1-3,.08A5.28,5.28,0,0,0,270,452a10.42,10.42,0,0,0-2.11,1.51h.84l.09.73a3.53,3.53,0,0,0,.36-.9,8.7,8.7,0,0,1,.43-1,6.07,6.07,0,0,1,1.41-1.89,4.58,4.58,0,0,1,2.6-.94,3.72,3.72,0,0,1,2.9.7C277,450.75,277.9,449.9,277.34,449.35Z"/><path class="cls-6" d="M276.52,449.27a1.44,1.44,0,0,1-.29.75,3.68,3.68,0,0,1-2.19,1.07c-.85.16-1.72.19-2.56.4a3,3,0,0,0-1.12.59,1.29,1.29,0,0,1,.28.37,2.88,2.88,0,0,1,1.06-.4c.85-.12,1.72-.05,2.58-.12a3.52,3.52,0,0,0,2.28-.83A1.3,1.3,0,0,0,276.52,449.27Z"/><path class="cls-6" d="M275.55,461.79c-.69-3.08-2.49-6.48-5.28-7.44v0a6.85,6.85,0,0,0-2.58-.34c.18,0,.36.05.53.09a7.15,7.15,0,0,1,4,2.27v0c1.92,2.23,1.76,6.07.81,9.08a10.62,10.62,0,0,1-6.21,6.64,9,9,0,0,1-3.13.64,7.79,7.79,0,0,0,5.81.78,8.12,8.12,0,0,0,4-2.85A10.65,10.65,0,0,0,275.55,461.79Z"/><path class="cls-4" d="M270.18,453.75c-4.23-1.33-8.48,1.24-10.54,4.91a11.22,11.22,0,0,0,.26,11.5c2.19,3.33,6.56,5.26,10.39,3.62,3.67-1.56,5.83-5.72,5.89-9.58s-2.06-9-6-10.43c-.73-.28-1,.89-.32,1.16,2.94,1.1,4.51,4.73,5,7.62a9.9,9.9,0,0,1-3.75,9.4c-3.06,2.18-7.18,1.19-9.53-1.56a9.83,9.83,0,0,1-1.51-9.78c1.45-3.87,5.56-7,9.8-5.69.75.23,1.06-.94.32-1.17Z"/><rect class="cls-7" x="262.46" y="459.98" width="9.42" height="4.37" rx="0.81"/><path class="cls-6" d="M272.76,475.25a3,3,0,0,0-1.95-1.75h0a7.3,7.3,0,0,0-1.07-.28l.22.06a5,5,0,0,1,1.61.74h0a1,1,0,0,1,0,1.66,4.39,4.39,0,0,1-2.85.64,8.08,8.08,0,0,1-1.34-.15,7.78,7.78,0,0,0,2.42.63,5,5,0,0,0,1.78-.17C272.52,476.36,273,475.85,272.76,475.25Z"/><ellipse class="cls-8" cx="270.25" cy="475.36" rx="3.01" ry="1.8"/><ellipse class="cls-5" cx="264.17" cy="475.43" rx="3.01" ry="1.8"/><path class="cls-6" d="M266.7,475.35a3,3,0,0,0-1.95-1.75h0a7.3,7.3,0,0,0-1.07-.28l.22.06a5,5,0,0,1,1.61.74h0a1,1,0,0,1,0,1.66,4.3,4.3,0,0,1-2.84.64,8,8,0,0,1-1.34-.15,7.71,7.71,0,0,0,2.42.63,5.32,5.32,0,0,0,1.78-.16C266.45,476.46,266.89,476,266.7,475.35Z"/><ellipse class="cls-8" cx="264.03" cy="475.36" rx="3.01" ry="1.8"/><path class="cls-4" d="M277.34,449.35a4.59,4.59,0,0,0-3.27-1.07,6.32,6.32,0,0,0-3.47.94,6.46,6.46,0,0,0-1.89,2.17,9.51,9.51,0,0,0-.59,1.25,6.71,6.71,0,0,1-.38,1,.6.6,0,0,0,.09.73l0,0a.62.62,0,0,0,.85,0,7.06,7.06,0,0,1,2.48-1.57,14.55,14.55,0,0,1,3.43-.07,4.14,4.14,0,0,0,2.76-.89,1.77,1.77,0,0,0,0-2.49c-.53-.58-1.38.28-.86.86s-.35,1.06-.89,1.19a12,12,0,0,1-3,.08A5.28,5.28,0,0,0,270,452a10.42,10.42,0,0,0-2.11,1.51h.84l.09.73a3.53,3.53,0,0,0,.36-.9,8.7,8.7,0,0,1,.43-1,6.07,6.07,0,0,1,1.41-1.89,4.58,4.58,0,0,1,2.6-.94,3.72,3.72,0,0,1,2.9.7C277,450.75,277.9,449.9,277.34,449.35Z"/><circle class="cls-9" cx="266.01" cy="462.39" r="0.39"/><circle class="cls-9" cx="263.68" cy="462.39" r="0.39"/><circle class="cls-9" cx="264.37" cy="461.62" r="0.39"/><circle class="cls-9" cx="265.32" cy="461.62" r="0.39"/><circle class="cls-9" cx="270.67" cy="462.39" r="0.39"/><circle class="cls-9" cx="268.34" cy="462.39" r="0.39"/><circle class="cls-9" cx="269.03" cy="461.62" r="0.39"/><circle class="cls-9" cx="269.98" cy="461.62" r="0.39"/><path class="cls-10" d="M263.09,465.27c-.37,0-2.84-.29-2.85.07l.89,2c0,.37.44.82.07.82l-1.85.21h-.1a.18.18,0,0,0-.17.18,5.08,5.08,0,0,0,5,5.16l1.71,0a.87.87,0,0,0,.88-.86l0-1.35,0-2.54A3.7,3.7,0,0,0,263.09,465.27Z"/><path class="cls-10" d="M275.64,458.73c.09-3.51-3.05-6.56-7.17-6.89s-7.71,2.19-8.17,5.67Z"/><path class="cls-11" d="M269.36,452a8.58,8.58,0,0,1,1.23,1,8.36,8.36,0,0,1,2.46,5.52l2.59.21C275.73,455.48,273,452.62,269.36,452Z"/><path class="cls-12" d="M269.45,451.83s-.22-.1-.23-.05c-.27,1.52-1.08,3.85-1,5.56.08-.92.93-4.63,1.55-5.25Z"/><path class="cls-13" d="M268.21,451.78c.16-.21,1.34-.1,1.24.1a13.64,13.64,0,0,0-.93,6l-1.95-.1A11.69,11.69,0,0,1,268.21,451.78Z"/><rect class="cls-10" x="258.45" y="457.59" width="18.45" height="1.75" rx="0.87" transform="translate(37.07 -19.72) rotate(4.53)"/><path class="cls-12" d="M276.08,459.59l-16.74-1a1,1,0,0,1-.81-.48.89.89,0,0,0,.75.56L275.93,460a.86.86,0,0,0,.92-.68A1,1,0,0,1,276.08,459.59Z"/><path class="cls-14" d="M259.25,468.4a.18.18,0,0,0-.17.18h0a5,5,0,0,0,.19,1.46,15.35,15.35,0,0,0,7.38,1.52l0-2.54a18.64,18.64,0,0,1-7.34-.62Z"/><path class="cls-10" d="M271,465.27c.36,0,2.84-.29,2.85.07l-.9,2c0,.37-.43.82-.06.82l1.84.21h.1a.18.18,0,0,1,.18.18,5.08,5.08,0,0,1-5,5.16l-1.71,0a.88.88,0,0,1-.88-.86l0-1.35,0-2.54A3.7,3.7,0,0,1,271,465.27Z"/><path class="cls-14" d="M274.78,468.4a.18.18,0,0,1,.18.18h0a5,5,0,0,1-.19,1.46,15.4,15.4,0,0,1-7.39,1.52l0-2.54a18.63,18.63,0,0,0,7.34-.62Z"/><path class="cls-15" d="M274.81,470l-.06.21Z"/><path class="cls-15" d="M275,469c0,.05,0,.11,0,.17S275,469.07,275,469Z"/><path class="cls-15" d="M274.92,469.51a1.94,1.94,0,0,1-.05.2A1.94,1.94,0,0,0,274.92,469.51Z"/><path class="cls-16" d="M274.87,469.71l-.06.27Z"/><polygon class="cls-16" points="275 468.5 274.99 468.5 275 468.51 275 468.5"/><path class="cls-16" d="M274.75,470.19a1.34,1.34,0,0,1-.07.18h0Z"/><path class="cls-16" d="M267.53,471.62h0c0-.61,0-.79,0-1.48Z"/><path class="cls-16" d="M275,468.51c0,.17,0,.34,0,.51C275,468.85,275,468.68,275,468.51Z"/><path class="cls-16" d="M275,469.19c0,.1,0,.21,0,.32C274.94,469.4,275,469.29,275,469.19Z"/><path class="cls-17" d="M257.87,459.94a.14.14,0,0,0-.23.07l-.14.51a.14.14,0,0,1-.17.09l-.87-.24a.14.14,0,0,1-.1-.17l.14-.51a.14.14,0,0,0-.16-.17,1,1,0,0,0-.8.65,1.08,1.08,0,0,0,.54,1.13.52.52,0,0,0-.06.15l-1.32,4.77a1.07,1.07,0,0,0-1,.69.92.92,0,0,0,.19.8.14.14,0,0,0,.24,0l.16-.55a.13.13,0,0,1,.17-.1l1.21.34a.13.13,0,0,1,.1.17l-.15.55a.14.14,0,0,0,.19.16.91.91,0,0,0,.57-.58,1.05,1.05,0,0,0-.52-1.11l1.32-4.78a.88.88,0,0,0,0-.16,1.08,1.08,0,0,0,1-.69A1,1,0,0,0,257.87,459.94Z"/><ellipse class="cls-18" cx="258.76" cy="465.82" rx="1.69" ry="3.46" transform="translate(-252.2 314.62) rotate(-44.46)"/><path class="cls-19" d="M261,468.21a4.73,4.73,0,0,1-2.91-.79h0c-.35-.23-.71-.47-1-.72l.22.15a9,9,0,0,0,1.82.94h0c1,.35,1.41-.08,1.39-.66a4.59,4.59,0,0,0-1.62-2.46,10.59,10.59,0,0,0-1.13-1,13,13,0,0,1,2.34,1.61,6.49,6.49,0,0,1,1.21,1.46C261.74,467.58,261.65,468.12,261,468.21Z"/><ellipse class="cls-20" cx="258.73" cy="465.83" rx="1.69" ry="3.46" transform="translate(-257.88 335.23) rotate(-46.76)"/><ellipse class="cls-18" cx="272.9" cy="468.49" rx="3.46" ry="1.69" transform="translate(-260.08 369.03) rotate(-49.21)"/><path class="cls-19" d="M270.7,470.92a4.69,4.69,0,0,1,.55-3h0c.19-.37.41-.74.63-1.09l-.13.23A8,8,0,0,0,271,469h0c-.27,1,.19,1.39.76,1.33a4.58,4.58,0,0,0,2.32-1.82,10.37,10.37,0,0,0,.88-1.21,12.05,12.05,0,0,1-1.41,2.47,6.3,6.3,0,0,1-1.35,1.33C271.39,471.6,270.84,471.55,270.7,470.92Z"/><ellipse class="cls-20" cx="272.88" cy="468.46" rx="3.46" ry="1.69" transform="translate(-263.62 390.47) rotate(-51.51)"/><path class="cls-3" d="M132.42,454.33a7.14,7.14,0,0,0-4.61.07,9.18,9.18,0,0,0-3.74,2.5,10.74,10.74,0,0,0-2.56,10,9.49,9.49,0,0,0,3.62,5.4,7.88,7.88,0,0,0,6.56,1.25,8.1,8.1,0,0,0,4-2.85,10.66,10.66,0,0,0,2-8.87c-.69-3.08-2.5-6.48-5.28-7.44"/><path class="cls-4" d="M132.58,453.75c-4.23-1.33-8.48,1.24-10.54,4.91a11.22,11.22,0,0,0,.26,11.5c2.19,3.33,6.56,5.26,10.39,3.62,3.67-1.56,5.84-5.72,5.89-9.58s-2.06-9-6-10.43c-.73-.28-1,.89-.32,1.16,2.94,1.1,4.51,4.73,5,7.62a9.88,9.88,0,0,1-3.75,9.4c-3.05,2.18-7.18,1.19-9.53-1.56a9.83,9.83,0,0,1-1.51-9.78c1.46-3.87,5.56-7,9.8-5.69.75.23,1.07-.94.32-1.17Z"/><ellipse class="cls-5" cx="132.79" cy="475.43" rx="3.01" ry="1.8"/><path class="cls-3" d="M139.31,449.78a3.79,3.79,0,0,0-2.34-.89,7.42,7.42,0,0,0-2.71.37c-2,.67-3.09,3.14-3.53,4.58l-.07.08,0,0a6.56,6.56,0,0,1,3.38-1.84c.9-.06,1.82,0,2.73,0a4.14,4.14,0,0,0,2.46-.64A1.11,1.11,0,0,0,139.31,449.78Z"/><path class="cls-4" d="M139.74,449.35a4.58,4.58,0,0,0-3.26-1.07,6.33,6.33,0,0,0-3.48.94,6.57,6.57,0,0,0-1.89,2.17,9.51,9.51,0,0,0-.59,1.25,6.71,6.71,0,0,1-.38,1,.59.59,0,0,0,.1.73v0a.62.62,0,0,0,.85,0,7,7,0,0,1,2.49-1.57,14.46,14.46,0,0,1,3.42-.07,4.13,4.13,0,0,0,2.76-.89,1.77,1.77,0,0,0,0-2.49c-.52-.58-1.38.28-.86.86s-.35,1.06-.89,1.19a12,12,0,0,1-3,.08,5.31,5.31,0,0,0-2.63.52,10.42,10.42,0,0,0-2.11,1.51h.84l.09.73a3.53,3.53,0,0,0,.36-.9,8.7,8.7,0,0,1,.43-1,6.07,6.07,0,0,1,1.41-1.89,4.61,4.61,0,0,1,2.61-.94,3.71,3.71,0,0,1,2.89.7C139.44,450.75,140.3,449.9,139.74,449.35Z"/><path class="cls-6" d="M138.92,449.27a1.44,1.44,0,0,1-.29.75,3.68,3.68,0,0,1-2.19,1.07c-.85.16-1.72.19-2.56.4a3,3,0,0,0-1.12.59,1.29,1.29,0,0,1,.28.37,2.88,2.88,0,0,1,1.06-.4c.85-.12,1.72-.05,2.58-.12a3.52,3.52,0,0,0,2.28-.83A1.3,1.3,0,0,0,138.92,449.27Z"/><path class="cls-6" d="M138,461.79c-.69-3.08-2.49-6.48-5.27-7.44l0,0a6.85,6.85,0,0,0-2.58-.34l.54.09a7.16,7.16,0,0,1,4,2.27v0c1.92,2.23,1.76,6.07.81,9.08a10.62,10.62,0,0,1-6.21,6.64,9,9,0,0,1-3.13.64,7.81,7.81,0,0,0,5.82.78,8.1,8.1,0,0,0,4-2.85A10.62,10.62,0,0,0,138,461.79Z"/><path class="cls-4" d="M132.58,453.75c-4.23-1.33-8.48,1.24-10.54,4.91a11.22,11.22,0,0,0,.26,11.5c2.19,3.33,6.56,5.26,10.39,3.62,3.67-1.56,5.84-5.72,5.89-9.58s-2.06-9-6-10.43c-.73-.28-1,.89-.32,1.16,2.94,1.1,4.51,4.73,5,7.62a9.88,9.88,0,0,1-3.75,9.4c-3.05,2.18-7.18,1.19-9.53-1.56a9.83,9.83,0,0,1-1.51-9.78c1.46-3.87,5.56-7,9.8-5.69.75.23,1.07-.94.32-1.17Z"/><rect class="cls-7" x="124.86" y="459.98" width="9.42" height="4.37" rx="0.81"/><path class="cls-6" d="M135.17,475.25a3,3,0,0,0-2-1.75h0a7,7,0,0,0-1.07-.28l.22.06A5,5,0,0,1,134,474h0a1,1,0,0,1,0,1.66,4.39,4.39,0,0,1-2.85.64,7.85,7.85,0,0,1-1.33-.15,7.65,7.65,0,0,0,2.41.63,5,5,0,0,0,1.78-.17C134.92,476.36,135.35,475.85,135.17,475.25Z"/><ellipse class="cls-8" cx="132.65" cy="475.36" rx="3.01" ry="1.8"/><ellipse class="cls-5" cx="126.57" cy="475.43" rx="3.01" ry="1.8"/><path class="cls-6" d="M129.1,475.35a3,3,0,0,0-1.95-1.75h0a7.3,7.3,0,0,0-1.07-.28l.22.06a5,5,0,0,1,1.61.74h0a1,1,0,0,1,0,1.66,4.34,4.34,0,0,1-2.85.64,8.08,8.08,0,0,1-1.34-.15,7.78,7.78,0,0,0,2.42.63,5.29,5.29,0,0,0,1.78-.16C128.86,476.46,129.29,476,129.1,475.35Z"/><ellipse class="cls-8" cx="126.44" cy="475.36" rx="3.01" ry="1.8"/><path class="cls-4" d="M139.74,449.35a4.58,4.58,0,0,0-3.26-1.07,6.33,6.33,0,0,0-3.48.94,6.57,6.57,0,0,0-1.89,2.17,9.51,9.51,0,0,0-.59,1.25,6.71,6.71,0,0,1-.38,1,.59.59,0,0,0,.1.73v0a.62.62,0,0,0,.85,0,7,7,0,0,1,2.49-1.57,14.46,14.46,0,0,1,3.42-.07,4.13,4.13,0,0,0,2.76-.89,1.77,1.77,0,0,0,0-2.49c-.52-.58-1.38.28-.86.86s-.35,1.06-.89,1.19a12,12,0,0,1-3,.08,5.31,5.31,0,0,0-2.63.52,10.42,10.42,0,0,0-2.11,1.51h.84l.09.73a3.53,3.53,0,0,0,.36-.9,8.7,8.7,0,0,1,.43-1,6.07,6.07,0,0,1,1.41-1.89,4.61,4.61,0,0,1,2.61-.94,3.71,3.71,0,0,1,2.89.7C139.44,450.75,140.3,449.9,139.74,449.35Z"/><circle class="cls-9" cx="128.41" cy="462.39" r="0.39"/><circle class="cls-9" cx="126.08" cy="462.39" r="0.39"/><circle class="cls-9" cx="126.77" cy="461.62" r="0.39"/><circle class="cls-9" cx="127.72" cy="461.62" r="0.39"/><circle class="cls-9" cx="133.07" cy="462.39" r="0.39"/><circle class="cls-9" cx="130.74" cy="462.39" r="0.39"/><circle class="cls-9" cx="131.43" cy="461.62" r="0.39"/><circle class="cls-9" cx="132.38" cy="461.62" r="0.39"/><path class="cls-15" d="M138,458.73c.1-3.51-3-6.56-7.17-6.89s-7.71,2.19-8.17,5.67Z"/><path class="cls-21" d="M131.76,452a9.24,9.24,0,0,1,1.24,1,8.3,8.3,0,0,1,2.45,5.52l2.59.21C138.13,455.48,135.44,452.62,131.76,452Z"/><path class="cls-21" d="M131.85,451.83s-.22-.1-.22-.05c-.28,1.52-1.09,3.85-1,5.56.08-.92.93-4.63,1.55-5.25C132.16,452,131.85,451.83,131.85,451.83Z"/><path class="cls-16" d="M130.61,451.78c.16-.21,1.34-.1,1.24.1a13.64,13.64,0,0,0-.93,6l-1.95-.1A11.69,11.69,0,0,1,130.61,451.78Z"/><rect class="cls-15" x="120.85" y="457.59" width="18.45" height="1.75" rx="0.87" transform="translate(36.64 -8.85) rotate(4.53)"/><path class="cls-21" d="M138.48,459.59l-16.74-1a1,1,0,0,1-.81-.48.89.89,0,0,0,.75.56L138.33,460a.86.86,0,0,0,.92-.68A1,1,0,0,1,138.48,459.59Z"/><path class="cls-17" d="M120.17,459.94a.14.14,0,0,0-.23.06l-.14.51a.14.14,0,0,1-.17.1l-.87-.24a.14.14,0,0,1-.1-.17l.14-.51a.13.13,0,0,0-.16-.17,1,1,0,0,0-.8.65,1.07,1.07,0,0,0,.54,1.12.76.76,0,0,0-.06.16L117,466.22a1.07,1.07,0,0,0-1,.69.92.92,0,0,0,.19.8.14.14,0,0,0,.24,0l.16-.55a.13.13,0,0,1,.17-.1l1.21.34a.13.13,0,0,1,.1.17l-.15.55a.14.14,0,0,0,.19.16.94.94,0,0,0,.57-.58,1.07,1.07,0,0,0-.52-1.11l1.32-4.78a.88.88,0,0,0,0-.17,1.05,1.05,0,0,0,1-.68A1,1,0,0,0,120.17,459.94Z"/><path class="cls-15" d="M126.53,473.74l1.71,0a.88.88,0,0,0,.88-.86l0-1.35a15.4,15.4,0,0,1-7.39-1.52A5.09,5.09,0,0,0,126.53,473.74Z"/><path class="cls-15" d="M125.57,465.27h0c-.35,0-2.83-.28-2.82.07l.9,2c0,.37.43.82.07.82l-1.85.21a18.64,18.64,0,0,0,7.34.62h0A3.7,3.7,0,0,0,125.57,465.27Z"/><path class="cls-16" d="M121.74,468.4a.18.18,0,0,0-.18.18h0a5,5,0,0,0,.19,1.46,15.4,15.4,0,0,0,7.39,1.52l0-2.54a18.64,18.64,0,0,1-7.34-.62Z"/><path class="cls-15" d="M133.21,465.17h.53c.34,0,2.53.13,2.53.13l-2,2.29a.66.66,0,0,0,.65.69l2.53.06a.17.17,0,0,1,.17.18h0a5.07,5.07,0,0,1-4.88,5.23l-1.69,0a.87.87,0,0,1-.87-.87l-.08-4.45A3.19,3.19,0,0,1,133.21,465.17Z"/><path class="cls-16" d="M137.67,468.51h0a20.4,20.4,0,0,1-7.51.56l.05,2.56a17.27,17.27,0,0,0,7.16-1.25A5,5,0,0,0,137.67,468.51Z"/><ellipse class="cls-18" cx="121.16" cy="465.82" rx="1.69" ry="3.46" transform="translate(-291.6 218.24) rotate(-44.46)"/><path class="cls-19" d="M123.4,468.21a4.75,4.75,0,0,1-2.91-.79h0c-.35-.23-.7-.47-1-.72l.22.15a8.79,8.79,0,0,0,1.83.94h0c1,.35,1.4-.08,1.38-.66a4.59,4.59,0,0,0-1.62-2.46,10.59,10.59,0,0,0-1.13-1,13,13,0,0,1,2.35,1.61,6.77,6.77,0,0,1,1.21,1.46C124.14,467.58,124.05,468.12,123.4,468.21Z"/><ellipse class="cls-20" cx="121.13" cy="465.83" rx="1.69" ry="3.46" transform="translate(-301.22 234.98) rotate(-46.76)"/><ellipse class="cls-18" cx="135.3" cy="468.49" rx="3.46" ry="1.69" transform="translate(-307.78 264.86) rotate(-49.21)"/><path class="cls-19" d="M133.1,470.92a4.76,4.76,0,0,1,.55-3h0c.2-.37.41-.74.63-1.09l-.13.23a8,8,0,0,0-.78,1.89h0c-.27,1,.19,1.39.76,1.33a4.63,4.63,0,0,0,2.33-1.82,11.59,11.59,0,0,0,.87-1.21,12.05,12.05,0,0,1-1.41,2.47,6.3,6.3,0,0,1-1.35,1.33C133.79,471.6,133.24,471.55,133.1,470.92Z"/><ellipse class="cls-20" cx="135.28" cy="468.46" rx="3.46" ry="1.69" transform="translate(-315.58 282.78) rotate(-51.51)"/><path class="cls-3" d="M370.7,454.33a7.17,7.17,0,0,0-4.62.07,9.25,9.25,0,0,0-3.74,2.5,10.8,10.8,0,0,0-2.56,10,9.49,9.49,0,0,0,3.62,5.4,7.91,7.91,0,0,0,6.57,1.25,8.1,8.1,0,0,0,4-2.85,10.62,10.62,0,0,0,2-8.87c-.69-3.08-2.49-6.48-5.27-7.44"/><path class="cls-4" d="M370.86,453.75c-4.23-1.33-8.49,1.24-10.54,4.91a11.24,11.24,0,0,0,.25,11.5c2.2,3.33,6.57,5.26,10.4,3.62,3.67-1.56,5.83-5.72,5.88-9.58s-2.06-9-6-10.43c-.73-.28-1.05.89-.33,1.16,2.94,1.1,4.52,4.73,5,7.62a9.9,9.9,0,0,1-3.75,9.4c-3.06,2.18-7.18,1.19-9.53-1.56a9.85,9.85,0,0,1-1.52-9.78c1.46-3.87,5.57-7,9.81-5.69.74.23,1.06-.94.32-1.17Z"/><ellipse class="cls-22" cx="371.06" cy="475.43" rx="3.01" ry="1.8"/><path class="cls-3" d="M377.58,449.78a3.79,3.79,0,0,0-2.34-.89,7.33,7.33,0,0,0-2.7.37c-2.05.67-3.09,3.14-3.54,4.58l-.06.08v0a6.6,6.6,0,0,1,3.38-1.84c.91-.06,1.82,0,2.73,0a4.1,4.1,0,0,0,2.46-.64A1.11,1.11,0,0,0,377.58,449.78Z"/><path class="cls-4" d="M378,449.35a4.57,4.57,0,0,0-3.26-1.07,6.37,6.37,0,0,0-3.48.94,6.54,6.54,0,0,0-1.88,2.17,11,11,0,0,0-.6,1.25,6.75,6.75,0,0,1-.37,1,.6.6,0,0,0,.09.73v0a.63.63,0,0,0,.86,0,6.89,6.89,0,0,1,2.48-1.57,14.47,14.47,0,0,1,3.42-.07,4.15,4.15,0,0,0,2.77-.89,1.76,1.76,0,0,0,0-2.49c-.52-.58-1.37.28-.85.86s-.35,1.06-.9,1.19a12,12,0,0,1-3,.08,5.28,5.28,0,0,0-2.63.52,10.21,10.21,0,0,0-2.12,1.51h.84l.1.73a3.18,3.18,0,0,0,.35-.9,8.77,8.77,0,0,1,.44-1,6.2,6.2,0,0,1,1.4-1.89,4.64,4.64,0,0,1,2.61-.94,3.73,3.73,0,0,1,2.9.7C377.72,450.75,378.57,449.9,378,449.35Z"/><path class="cls-6" d="M377.19,449.27a1.34,1.34,0,0,1-.28.75,3.73,3.73,0,0,1-2.2,1.07c-.85.16-1.71.19-2.55.4a3,3,0,0,0-1.12.59,1.5,1.5,0,0,1,.28.37,2.82,2.82,0,0,1,1.06-.4c.85-.12,1.72-.05,2.58-.12a3.54,3.54,0,0,0,2.28-.83A1.3,1.3,0,0,0,377.19,449.27Z"/><path class="cls-6" d="M376.23,461.79c-.7-3.08-2.5-6.48-5.28-7.44l0,0a6.78,6.78,0,0,0-2.57-.34l.53.09a7.18,7.18,0,0,1,4,2.27v0c1.92,2.23,1.77,6.07.82,9.08a10.67,10.67,0,0,1-6.21,6.64,9.07,9.07,0,0,1-3.14.64,7.81,7.81,0,0,0,5.82.78,8.1,8.1,0,0,0,4-2.85A10.66,10.66,0,0,0,376.23,461.79Z"/><path class="cls-4" d="M370.86,453.75c-4.23-1.33-8.49,1.24-10.54,4.91a11.24,11.24,0,0,0,.25,11.5c2.2,3.33,6.57,5.26,10.4,3.62,3.67-1.56,5.83-5.72,5.88-9.58s-2.06-9-6-10.43c-.73-.28-1.05.89-.33,1.16,2.94,1.1,4.52,4.73,5,7.62a9.9,9.9,0,0,1-3.75,9.4c-3.06,2.18-7.18,1.19-9.53-1.56a9.85,9.85,0,0,1-1.52-9.78c1.46-3.87,5.57-7,9.81-5.69.74.23,1.06-.94.32-1.17Z"/><path class="cls-6" d="M373.44,475.25a3,3,0,0,0-2-1.75h0a7.64,7.64,0,0,0-1.07-.28l.22.06a5.12,5.12,0,0,1,1.61.74h0a1,1,0,0,1,0,1.66,4.36,4.36,0,0,1-2.84.64,8,8,0,0,1-1.34-.15,7.71,7.71,0,0,0,2.42.63,5.05,5.05,0,0,0,1.78-.17C373.19,476.36,373.62,475.85,373.44,475.25Z"/><ellipse class="cls-23" cx="370.93" cy="475.36" rx="3.01" ry="1.8"/><ellipse class="cls-22" cx="364.85" cy="475.43" rx="3.01" ry="1.8"/><path class="cls-6" d="M367.22,475.25a3,3,0,0,0-2-1.75h0a7.3,7.3,0,0,0-1.07-.28l.22.06A5,5,0,0,1,366,474h0a1,1,0,0,1,0,1.66,4.39,4.39,0,0,1-2.85.64,8.08,8.08,0,0,1-1.34-.15,7.78,7.78,0,0,0,2.42.63,5,5,0,0,0,1.78-.17C367,476.36,367.41,475.85,367.22,475.25Z"/><ellipse class="cls-23" cx="364.71" cy="475.36" rx="3.01" ry="1.8"/><path class="cls-4" d="M378,449.35a4.57,4.57,0,0,0-3.26-1.07,6.37,6.37,0,0,0-3.48.94,6.54,6.54,0,0,0-1.88,2.17,11,11,0,0,0-.6,1.25,6.75,6.75,0,0,1-.37,1,.6.6,0,0,0,.09.73v0a.63.63,0,0,0,.86,0,6.89,6.89,0,0,1,2.48-1.57,14.47,14.47,0,0,1,3.42-.07,4.15,4.15,0,0,0,2.77-.89,1.76,1.76,0,0,0,0-2.49c-.52-.58-1.37.28-.85.86s-.35,1.06-.9,1.19a12,12,0,0,1-3,.08,5.28,5.28,0,0,0-2.63.52,10.21,10.21,0,0,0-2.12,1.51h.84l.1.73a3.18,3.18,0,0,0,.35-.9,8.77,8.77,0,0,1,.44-1,6.2,6.2,0,0,1,1.4-1.89,4.64,4.64,0,0,1,2.61-.94,3.73,3.73,0,0,1,2.9.7C377.72,450.75,378.57,449.9,378,449.35Z"/><rect class="cls-24" x="363.29" y="458.8" width="9.42" height="4.37" rx="0.81"/><circle class="cls-9" cx="366.84" cy="461.21" r="0.39"/><circle class="cls-9" cx="364.51" cy="461.21" r="0.39"/><circle class="cls-9" cx="365.2" cy="460.43" r="0.39"/><circle class="cls-9" cx="366.15" cy="460.43" r="0.39"/><circle class="cls-9" cx="371.5" cy="461.21" r="0.39"/><circle class="cls-9" cx="369.17" cy="461.21" r="0.39"/><circle class="cls-9" cx="369.86" cy="460.43" r="0.39"/><circle class="cls-9" cx="370.81" cy="460.43" r="0.39"/><path class="cls-25" d="M367.32,467.51l-1.27,2.28a.39.39,0,0,0,.34.57h2.54a.38.38,0,0,0,.33-.57L368,467.51A.39.39,0,0,0,367.32,467.51Z"/><ellipse class="cls-26" cx="363.02" cy="468.09" rx="1.98" ry="3.36" transform="translate(-221.47 564.32) rotate(-61.55)"/><path class="cls-27" d="M365.8,469.57a3,3,0,0,0-1-2.41h0a6.46,6.46,0,0,0-.85-.7l.17.14a5.14,5.14,0,0,1,1.16,1.34h0a1,1,0,0,1-.68,1.52,4.38,4.38,0,0,1-2.85-.61,8.85,8.85,0,0,1-1.15-.7,7.49,7.49,0,0,0,1.93,1.58,4.94,4.94,0,0,0,1.69.6C365.11,470.47,365.72,470.19,365.8,469.57Z"/><ellipse class="cls-28" cx="363.02" cy="468.09" rx="1.98" ry="3.36" transform="translate(-221.47 564.32) rotate(-61.55)"/><path class="cls-29" d="M375.75,458.66a.69.69,0,0,0-.69-.69h-2.42l-.42,0-.42,0h-7.62l-.42,0-.42,0h-2.42a.69.69,0,0,0-.69.69v2.53a.28.28,0,0,0,0,.09,1.27,1.27,0,0,0,0,.2,3.53,3.53,0,0,0,7,.4h1.44a3.53,3.53,0,0,0,7-.4,1.27,1.27,0,0,0,0-.2.28.28,0,0,0,0-.09Z"/><path class="cls-30" d="M375.75,458.66a.69.69,0,0,0-.69-.69h-2.42l-.42,0-.42,0h-7.62l-.42,0-.42,0h-2.42a.69.69,0,0,0-.69.69v2.53a.28.28,0,0,0,0,.09,1.27,1.27,0,0,0,0,.2,3.53,3.53,0,0,0,7,.4h1.44a3.53,3.53,0,0,0,7-.4,1.27,1.27,0,0,0,0-.2.28.28,0,0,0,0-.09Z"/><path class="cls-31" d="M370.12,470.26l-1.76-3.49v-2.34h.09a.08.08,0,0,0,.08-.08.09.09,0,0,0-.08-.08h-1.58a.09.09,0,0,0-.08.08.08.08,0,0,0,.08.08H367v2.34l-1.76,3.49a.45.45,0,0,0,.4.64h4.14A.44.44,0,0,0,370.12,470.26Z"/><path class="cls-9" d="M367.32,467.51l-1.27,2.28a.39.39,0,0,0,.34.57h2.54a.38.38,0,0,0,.33-.57L368,467.51A.39.39,0,0,0,367.32,467.51Z"/><path class="cls-32" d="M151.3,457.19l-2.15,5a1,1,0,0,0,1.07,1.44l.93-.11.49,4.16a1.16,1.16,0,0,0,1.29,1l1.23-.14a1.17,1.17,0,0,0,1-1.29l-.49-4.16.94-.11a1,1,0,0,0,.7-1.64L153.08,457A1,1,0,0,0,151.3,457.19Z"/><path class="cls-3" d="M168.14,454.33a7.17,7.17,0,0,0-4.62.07,9.25,9.25,0,0,0-3.74,2.5,10.8,10.8,0,0,0-2.56,10,9.49,9.49,0,0,0,3.62,5.4,7.9,7.9,0,0,0,6.57,1.25,8.1,8.1,0,0,0,4-2.85,10.65,10.65,0,0,0,2-8.87c-.69-3.08-2.49-6.48-5.28-7.44"/><path class="cls-4" d="M168.3,453.75c-4.23-1.33-8.49,1.24-10.54,4.91a11.24,11.24,0,0,0,.25,11.5c2.2,3.33,6.57,5.26,10.4,3.62,3.67-1.56,5.83-5.72,5.88-9.58s-2.06-9-6-10.43c-.73-.28-1,.89-.33,1.16,2.94,1.1,4.52,4.73,5,7.62a9.9,9.9,0,0,1-3.75,9.4c-3.06,2.18-7.18,1.19-9.53-1.56a9.85,9.85,0,0,1-1.52-9.78c1.46-3.87,5.57-7,9.81-5.69.74.23,1.06-.94.32-1.17Z"/><path class="cls-3" d="M168.14,454.33a7.17,7.17,0,0,0-4.62.07,9.25,9.25,0,0,0-3.74,2.5,10.8,10.8,0,0,0-2.56,10,9.49,9.49,0,0,0,3.62,5.4,7.9,7.9,0,0,0,6.57,1.25,8.1,8.1,0,0,0,4-2.85,10.65,10.65,0,0,0,2-8.87c-.69-3.08-2.49-6.48-5.28-7.44"/><path class="cls-4" d="M168.3,453.75c-4.23-1.33-8.49,1.24-10.54,4.91a11.24,11.24,0,0,0,.25,11.5c2.2,3.33,6.57,5.26,10.4,3.62,3.67-1.56,5.83-5.72,5.88-9.58s-2.06-9-6-10.43c-.73-.28-1,.89-.33,1.16,2.94,1.1,4.52,4.73,5,7.62a9.9,9.9,0,0,1-3.75,9.4c-3.06,2.18-7.18,1.19-9.53-1.56a9.85,9.85,0,0,1-1.52-9.78c1.46-3.87,5.57-7,9.81-5.69.74.23,1.06-.94.32-1.17Z"/><ellipse class="cls-33" cx="168.5" cy="475.43" rx="3.01" ry="1.8"/><path class="cls-3" d="M175,449.78a3.79,3.79,0,0,0-2.34-.89,7.33,7.33,0,0,0-2.7.37c-2,.67-3.09,3.14-3.54,4.58l-.06.08v0a6.56,6.56,0,0,1,3.38-1.84c.91-.06,1.82,0,2.73,0a4.1,4.1,0,0,0,2.46-.64A1.11,1.11,0,0,0,175,449.78Z"/><path class="cls-4" d="M175.45,449.35a4.57,4.57,0,0,0-3.26-1.07,6.35,6.35,0,0,0-3.48.94,6.54,6.54,0,0,0-1.88,2.17,11,11,0,0,0-.6,1.25,6.71,6.71,0,0,1-.38,1,.62.62,0,0,0,.1.73v0a.63.63,0,0,0,.86,0,6.89,6.89,0,0,1,2.48-1.57,14.47,14.47,0,0,1,3.42-.07,4.15,4.15,0,0,0,2.77-.89,1.76,1.76,0,0,0,0-2.49c-.52-.58-1.37.28-.85.86s-.35,1.06-.9,1.19a12,12,0,0,1-3,.08,5.34,5.34,0,0,0-2.64.52,10.42,10.42,0,0,0-2.11,1.51h.84l.1.73a3.91,3.91,0,0,0,.35-.9,8.77,8.77,0,0,1,.44-1,6.2,6.2,0,0,1,1.4-1.89,4.64,4.64,0,0,1,2.61-.94,3.73,3.73,0,0,1,2.9.7C175.16,450.75,176,449.9,175.45,449.35Z"/><path class="cls-6" d="M174.63,449.27a1.34,1.34,0,0,1-.28.75,3.73,3.73,0,0,1-2.2,1.07c-.85.16-1.72.19-2.55.4a3.08,3.08,0,0,0-1.13.59,1.32,1.32,0,0,1,.29.37,2.82,2.82,0,0,1,1.06-.4c.85-.12,1.72-.05,2.58-.12a3.54,3.54,0,0,0,2.28-.83A1.3,1.3,0,0,0,174.63,449.27Z"/><ellipse class="cls-33" cx="162.28" cy="475.43" rx="3.01" ry="1.8"/><path class="cls-6" d="M173.67,461.79c-.7-3.08-2.5-6.48-5.28-7.44l0,0a6.78,6.78,0,0,0-2.57-.34l.53.09a7.18,7.18,0,0,1,4,2.27v0c1.92,2.23,1.77,6.07.82,9.08a10.66,10.66,0,0,1-6.22,6.64,9,9,0,0,1-3.13.64,7.81,7.81,0,0,0,5.82.78,8.1,8.1,0,0,0,4-2.85A10.66,10.66,0,0,0,173.67,461.79Z"/><path class="cls-34" d="M164.08,462.69l.64-2.84a.81.81,0,0,0-.69-1l-5.59-.89c-.2.31-.39.62-.57.94a11,11,0,0,0-1.2,3.44l6.35,1A.93.93,0,0,0,164.08,462.69Z"/><circle class="cls-9" cx="162.29" cy="461.32" r="0.45"/><circle class="cls-9" cx="159.65" cy="460.82" r="0.45"/><circle class="cls-9" cx="160.6" cy="460.08" r="0.45"/><circle class="cls-9" cx="161.68" cy="460.29" r="0.45"/><path class="cls-4" d="M168.3,453.75c-4.23-1.33-8.49,1.24-10.54,4.91a11.24,11.24,0,0,0,.25,11.5c2.2,3.33,6.57,5.26,10.4,3.62,3.67-1.56,5.83-5.72,5.88-9.58s-2.06-9-6-10.43c-.73-.28-1,.89-.33,1.16,2.94,1.1,4.52,4.73,5,7.62a9.9,9.9,0,0,1-3.75,9.4c-3.06,2.18-7.18,1.19-9.53-1.56a9.85,9.85,0,0,1-1.52-9.78c1.46-3.87,5.57-7,9.81-5.69.74.23,1.06-.94.32-1.17Z"/><path class="cls-6" d="M170.88,475.25a3,3,0,0,0-2-1.75h0a7.64,7.64,0,0,0-1.07-.28l.22.06a5.12,5.12,0,0,1,1.61.74h0a1,1,0,0,1,0,1.66,4.36,4.36,0,0,1-2.84.64,7.85,7.85,0,0,1-1.34-.15,7.71,7.71,0,0,0,2.42.63,5.05,5.05,0,0,0,1.78-.17C170.63,476.36,171.06,475.85,170.88,475.25Z"/><ellipse class="cls-35" cx="168.37" cy="475.36" rx="3.01" ry="1.8"/><path class="cls-6" d="M164.66,475.25a3,3,0,0,0-1.95-1.75h0a7.3,7.3,0,0,0-1.07-.28l.22.06a5,5,0,0,1,1.61.74h0a1,1,0,0,1,0,1.66,4.4,4.4,0,0,1-2.85.64,8.08,8.08,0,0,1-1.34-.15,7.71,7.71,0,0,0,2.42.63,5,5,0,0,0,1.78-.17C164.41,476.36,164.85,475.85,164.66,475.25Z"/><ellipse class="cls-35" cx="162.15" cy="475.36" rx="3.01" ry="1.8"/><path class="cls-4" d="M175.45,449.35a4.57,4.57,0,0,0-3.26-1.07,6.35,6.35,0,0,0-3.48.94,6.54,6.54,0,0,0-1.88,2.17,11,11,0,0,0-.6,1.25,6.71,6.71,0,0,1-.38,1,.62.62,0,0,0,.1.73v0a.63.63,0,0,0,.86,0,6.89,6.89,0,0,1,2.48-1.57,14.47,14.47,0,0,1,3.42-.07,4.15,4.15,0,0,0,2.77-.89,1.76,1.76,0,0,0,0-2.49c-.52-.58-1.37.28-.85.86s-.35,1.06-.9,1.19a12,12,0,0,1-3,.08,5.34,5.34,0,0,0-2.64.52,10.42,10.42,0,0,0-2.11,1.51h.84l.1.73a3.91,3.91,0,0,0,.35-.9,8.77,8.77,0,0,1,.44-1,6.2,6.2,0,0,1,1.4-1.89,4.64,4.64,0,0,1,2.61-.94,3.73,3.73,0,0,1,2.9.7C175.16,450.75,176,449.9,175.45,449.35Z"/><ellipse class="cls-36" cx="156.8" cy="468.05" rx="2.03" ry="3.44" transform="translate(-334.6 421.34) rotate(-66.05)"/><path class="cls-6" d="M159.67,469a2.56,2.56,0,0,0-1.27-1.93h0a4.67,4.67,0,0,0-.84-.41l.17.08a4.23,4.23,0,0,1,1.2.93h0a1,1,0,0,1-.34,1.55,3.49,3.49,0,0,1-2.52.18,6.92,6.92,0,0,1-1.1-.34,5.73,5.73,0,0,0,1.9.94,3.81,3.81,0,0,0,1.53.12C159.22,470,159.69,469.58,159.67,469Z"/><ellipse class="cls-37" cx="156.8" cy="468.05" rx="2.03" ry="3.44" transform="translate(-334.6 421.34) rotate(-66.05)"/><path class="cls-3" d="M405,454.33a7.17,7.17,0,0,0-4.62.07,9.25,9.25,0,0,0-3.74,2.5,10.8,10.8,0,0,0-2.56,10,9.49,9.49,0,0,0,3.62,5.4,7.91,7.91,0,0,0,6.57,1.25,8.1,8.1,0,0,0,4-2.85,10.66,10.66,0,0,0,2-8.87c-.7-3.08-2.5-6.48-5.28-7.44"/><path class="cls-4" d="M405.18,453.75c-4.23-1.33-8.48,1.24-10.54,4.91a11.22,11.22,0,0,0,.26,11.5c2.19,3.33,6.56,5.26,10.39,3.62,3.67-1.56,5.83-5.72,5.88-9.58s-2.06-9-6-10.43c-.73-.28-1.05.89-.32,1.16,2.93,1.1,4.51,4.73,5,7.62a9.9,9.9,0,0,1-3.75,9.4c-3.06,2.18-7.18,1.19-9.53-1.56a9.85,9.85,0,0,1-1.52-9.78c1.46-3.87,5.57-7,9.81-5.69.74.23,1.06-.94.32-1.17Z"/><ellipse class="cls-38" cx="405.38" cy="475.43" rx="3.01" ry="1.8"/><path class="cls-3" d="M411.9,449.78a3.79,3.79,0,0,0-2.34-.89,7.33,7.33,0,0,0-2.7.37c-2.05.67-3.09,3.14-3.54,4.58l-.06.08v0a6.6,6.6,0,0,1,3.38-1.84c.91-.06,1.82,0,2.73,0a4.1,4.1,0,0,0,2.46-.64A1.11,1.11,0,0,0,411.9,449.78Z"/><path class="cls-4" d="M412.33,449.35a4.57,4.57,0,0,0-3.26-1.07,6.32,6.32,0,0,0-3.47.94,6.46,6.46,0,0,0-1.89,2.17,11,11,0,0,0-.6,1.25,6.75,6.75,0,0,1-.37,1,.6.6,0,0,0,.09.73v0a.63.63,0,0,0,.86,0,6.89,6.89,0,0,1,2.48-1.57,14.47,14.47,0,0,1,3.42-.07,4.15,4.15,0,0,0,2.77-.89,1.76,1.76,0,0,0,0-2.49c-.52-.58-1.37.28-.85.86s-.35,1.06-.9,1.19a12,12,0,0,1-3,.08A5.28,5.28,0,0,0,405,452a10.21,10.21,0,0,0-2.12,1.51h.85l.09.73a3.18,3.18,0,0,0,.35-.9,8.77,8.77,0,0,1,.44-1,6.2,6.2,0,0,1,1.4-1.89,4.64,4.64,0,0,1,2.61-.94,3.72,3.72,0,0,1,2.9.7C412,450.75,412.89,449.9,412.33,449.35Z"/><path class="cls-6" d="M411.51,449.27a1.34,1.34,0,0,1-.28.75,3.73,3.73,0,0,1-2.2,1.07c-.84.16-1.71.19-2.55.4a3,3,0,0,0-1.12.59,1.5,1.5,0,0,1,.28.37,2.82,2.82,0,0,1,1.06-.4c.85-.12,1.72-.05,2.58-.12a3.54,3.54,0,0,0,2.28-.83A1.3,1.3,0,0,0,411.51,449.27Z"/><path class="cls-6" d="M410.55,461.79c-.69-3.08-2.5-6.48-5.28-7.44l0,0a6.78,6.78,0,0,0-2.57-.34l.53.09a7.15,7.15,0,0,1,4,2.27v0c1.91,2.23,1.76,6.07.81,9.08a10.67,10.67,0,0,1-6.21,6.64,9.07,9.07,0,0,1-3.14.64,7.81,7.81,0,0,0,5.82.78,8.1,8.1,0,0,0,4-2.85A10.66,10.66,0,0,0,410.55,461.79Z"/><path class="cls-4" d="M405.18,453.75c-4.23-1.33-8.48,1.24-10.54,4.91a11.22,11.22,0,0,0,.26,11.5c2.19,3.33,6.56,5.26,10.39,3.62,3.67-1.56,5.83-5.72,5.88-9.58s-2.06-9-6-10.43c-.73-.28-1.05.89-.32,1.16,2.93,1.1,4.51,4.73,5,7.62a9.9,9.9,0,0,1-3.75,9.4c-3.06,2.18-7.18,1.19-9.53-1.56a9.85,9.85,0,0,1-1.52-9.78c1.46-3.87,5.57-7,9.81-5.69.74.23,1.06-.94.32-1.17Z"/><rect class="cls-39" x="397.46" y="458.85" width="9.42" height="4.37" rx="0.81"/><path class="cls-6" d="M407.76,475.25a3,3,0,0,0-2-1.75h0a7.3,7.3,0,0,0-1.07-.28l.22.06a5.12,5.12,0,0,1,1.61.74h0a1,1,0,0,1,0,1.66,4.36,4.36,0,0,1-2.84.64,8,8,0,0,1-1.34-.15,7.71,7.71,0,0,0,2.42.63,5.05,5.05,0,0,0,1.78-.17C407.51,476.36,408,475.85,407.76,475.25Z"/><ellipse class="cls-40" cx="405.25" cy="475.36" rx="3.01" ry="1.8"/><ellipse class="cls-38" cx="399.17" cy="475.43" rx="3.01" ry="1.8"/><path class="cls-6" d="M401.54,475.25a3,3,0,0,0-2-1.75h0a7.3,7.3,0,0,0-1.07-.28l.22.06a5,5,0,0,1,1.61.74h0a1,1,0,0,1,0,1.66,4.39,4.39,0,0,1-2.85.64,8.08,8.08,0,0,1-1.34-.15,7.78,7.78,0,0,0,2.42.63,5,5,0,0,0,1.78-.17C401.3,476.36,401.73,475.85,401.54,475.25Z"/><ellipse class="cls-40" cx="399.03" cy="475.36" rx="3.01" ry="1.8"/><path class="cls-4" d="M412.33,449.35a4.57,4.57,0,0,0-3.26-1.07,6.32,6.32,0,0,0-3.47.94,6.46,6.46,0,0,0-1.89,2.17,11,11,0,0,0-.6,1.25,6.75,6.75,0,0,1-.37,1,.6.6,0,0,0,.09.73v0a.63.63,0,0,0,.86,0,6.89,6.89,0,0,1,2.48-1.57,14.47,14.47,0,0,1,3.42-.07,4.15,4.15,0,0,0,2.77-.89,1.76,1.76,0,0,0,0-2.49c-.52-.58-1.37.28-.85.86s-.35,1.06-.9,1.19a12,12,0,0,1-3,.08A5.28,5.28,0,0,0,405,452a10.21,10.21,0,0,0-2.12,1.51h.85l.09.73a3.18,3.18,0,0,0,.35-.9,8.77,8.77,0,0,1,.44-1,6.2,6.2,0,0,1,1.4-1.89,4.64,4.64,0,0,1,2.61-.94,3.72,3.72,0,0,1,2.9.7C412,450.75,412.89,449.9,412.33,449.35Z"/><circle class="cls-9" cx="401.01" cy="461.26" r="0.39"/><circle class="cls-9" cx="398.68" cy="461.26" r="0.39"/><circle class="cls-9" cx="399.37" cy="460.49" r="0.39"/><circle class="cls-9" cx="400.31" cy="460.49" r="0.39"/><circle class="cls-9" cx="405.66" cy="461.26" r="0.39"/><circle class="cls-9" cx="403.33" cy="461.26" r="0.39"/><circle class="cls-9" cx="404.03" cy="460.49" r="0.39"/><circle class="cls-9" cx="404.97" cy="460.49" r="0.39"/><path class="cls-41" d="M393.63,466.57l3.25,3.44a.89.89,0,0,0,1.51-.35l.24-.79,3.48,1.05a1,1,0,0,0,1.26-.68l.31-1A1,1,0,0,0,403,467l-3.48-1,.23-.79a.9.9,0,0,0-1.07-1.13l-4.6,1.09A.9.9,0,0,0,393.63,466.57Z"/><ellipse class="cls-42" cx="406.59" cy="468.07" rx="3.36" ry="1.98" transform="translate(-139.45 174.4) rotate(-20.75)"/><path class="cls-6" d="M409.46,466.73a3.62,3.62,0,0,0-2.87-.7h0a9.46,9.46,0,0,0-1.27.24l.26,0a6.87,6.87,0,0,1,2.05-.06h0c1,.17,1.11.86.77,1.49a5.49,5.49,0,0,1-2.75,1.86,13.15,13.15,0,0,1-1.5.47,10.07,10.07,0,0,0,2.86-.53,6.46,6.46,0,0,0,1.83-.95C409.69,467.84,409.92,467.18,409.46,466.73Z"/><ellipse class="cls-43" cx="406.59" cy="468.07" rx="3.36" ry="1.98" transform="translate(-139.45 174.4) rotate(-20.75)"/><path class="cls-3" d="M508.35,454.33a7.17,7.17,0,0,0-4.62.07,9.25,9.25,0,0,0-3.74,2.5,10.8,10.8,0,0,0-2.56,10,9.49,9.49,0,0,0,3.62,5.4,7.9,7.9,0,0,0,6.57,1.25,8.1,8.1,0,0,0,4-2.85,10.65,10.65,0,0,0,2-8.87c-.69-3.08-2.49-6.48-5.28-7.44"/><path class="cls-4" d="M508.51,453.75c-4.23-1.33-8.49,1.24-10.54,4.91a11.24,11.24,0,0,0,.25,11.5c2.2,3.33,6.57,5.26,10.4,3.62,3.67-1.56,5.83-5.72,5.88-9.58s-2.06-9-6-10.43c-.73-.28-1,.89-.33,1.16,2.94,1.1,4.52,4.73,5,7.62a9.9,9.9,0,0,1-3.75,9.4c-3.06,2.18-7.18,1.19-9.53-1.56a9.85,9.85,0,0,1-1.52-9.78c1.46-3.87,5.57-7,9.81-5.69.74.23,1.06-.94.32-1.17Z"/><ellipse class="cls-38" cx="508.71" cy="475.43" rx="3.01" ry="1.8"/><path class="cls-3" d="M515.23,449.78a3.79,3.79,0,0,0-2.34-.89,7.33,7.33,0,0,0-2.7.37c-2.05.67-3.09,3.14-3.54,4.58l-.06.08v0A6.56,6.56,0,0,1,510,452.1c.91-.06,1.82,0,2.73,0a4.1,4.1,0,0,0,2.46-.64A1.11,1.11,0,0,0,515.23,449.78Z"/><path class="cls-4" d="M515.66,449.35a4.57,4.57,0,0,0-3.26-1.07,6.35,6.35,0,0,0-3.48.94,6.54,6.54,0,0,0-1.88,2.17,11,11,0,0,0-.6,1.25,6.71,6.71,0,0,1-.38,1,.62.62,0,0,0,.1.73v0a.63.63,0,0,0,.86,0,6.89,6.89,0,0,1,2.48-1.57,14.47,14.47,0,0,1,3.42-.07,4.15,4.15,0,0,0,2.77-.89,1.76,1.76,0,0,0,0-2.49c-.52-.58-1.37.28-.85.86s-.35,1.06-.9,1.19a12,12,0,0,1-3,.08,5.34,5.34,0,0,0-2.64.52,10.42,10.42,0,0,0-2.11,1.51H507l.1.73a3.91,3.91,0,0,0,.35-.9,8.77,8.77,0,0,1,.44-1,6.2,6.2,0,0,1,1.4-1.89,4.64,4.64,0,0,1,2.61-.94,3.73,3.73,0,0,1,2.9.7C515.37,450.75,516.22,449.9,515.66,449.35Z"/><path class="cls-6" d="M514.84,449.27a1.34,1.34,0,0,1-.28.75,3.73,3.73,0,0,1-2.2,1.07c-.85.16-1.72.19-2.55.4a3,3,0,0,0-1.12.59,1.5,1.5,0,0,1,.28.37,2.82,2.82,0,0,1,1.06-.4c.85-.12,1.72-.05,2.58-.12a3.54,3.54,0,0,0,2.28-.83A1.3,1.3,0,0,0,514.84,449.27Z"/><path class="cls-6" d="M513.88,461.79c-.7-3.08-2.5-6.48-5.28-7.44l0,0A6.78,6.78,0,0,0,506,454l.53.09a7.18,7.18,0,0,1,4,2.27v0c1.92,2.23,1.77,6.07.82,9.08a10.66,10.66,0,0,1-6.22,6.64,9,9,0,0,1-3.13.64,7.81,7.81,0,0,0,5.82.78,8.1,8.1,0,0,0,4-2.85A10.66,10.66,0,0,0,513.88,461.79Z"/><path class="cls-4" d="M508.51,453.75c-4.23-1.33-8.49,1.24-10.54,4.91a11.24,11.24,0,0,0,.25,11.5c2.2,3.33,6.57,5.26,10.4,3.62,3.67-1.56,5.83-5.72,5.88-9.58s-2.06-9-6-10.43c-.73-.28-1,.89-.33,1.16,2.94,1.1,4.52,4.73,5,7.62a9.9,9.9,0,0,1-3.75,9.4c-3.06,2.18-7.18,1.19-9.53-1.56a9.85,9.85,0,0,1-1.52-9.78c1.46-3.87,5.57-7,9.81-5.69.74.23,1.06-.94.32-1.17Z"/><rect class="cls-44" x="500.79" y="458.85" width="9.42" height="4.37" rx="0.81"/><path class="cls-6" d="M511.09,475.25a3,3,0,0,0-2-1.75h0a7.64,7.64,0,0,0-1.07-.28l.22.06a5.12,5.12,0,0,1,1.61.74h0a1,1,0,0,1,0,1.66,4.36,4.36,0,0,1-2.84.64,7.85,7.85,0,0,1-1.34-.15,7.71,7.71,0,0,0,2.42.63,5.05,5.05,0,0,0,1.78-.17C510.84,476.36,511.27,475.85,511.09,475.25Z"/><ellipse class="cls-40" cx="508.58" cy="475.36" rx="3.01" ry="1.8"/><ellipse class="cls-38" cx="502.49" cy="475.43" rx="3.01" ry="1.8"/><path class="cls-6" d="M504.87,475.25a3,3,0,0,0-1.95-1.75h0a7.3,7.3,0,0,0-1.07-.28l.22.06a5,5,0,0,1,1.61.74h0a1,1,0,0,1,0,1.66,4.4,4.4,0,0,1-2.85.64,8.08,8.08,0,0,1-1.34-.15,7.78,7.78,0,0,0,2.42.63,5,5,0,0,0,1.78-.17C504.63,476.36,505.06,475.85,504.87,475.25Z"/><ellipse class="cls-40" cx="502.36" cy="475.36" rx="3.01" ry="1.8"/><path class="cls-4" d="M515.66,449.35a4.57,4.57,0,0,0-3.26-1.07,6.35,6.35,0,0,0-3.48.94,6.54,6.54,0,0,0-1.88,2.17,11,11,0,0,0-.6,1.25,6.71,6.71,0,0,1-.38,1,.62.62,0,0,0,.1.73v0a.63.63,0,0,0,.86,0,6.89,6.89,0,0,1,2.48-1.57,14.47,14.47,0,0,1,3.42-.07,4.15,4.15,0,0,0,2.77-.89,1.76,1.76,0,0,0,0-2.49c-.52-.58-1.37.28-.85.86s-.35,1.06-.9,1.19a12,12,0,0,1-3,.08,5.34,5.34,0,0,0-2.64.52,10.42,10.42,0,0,0-2.11,1.51H507l.1.73a3.91,3.91,0,0,0,.35-.9,8.77,8.77,0,0,1,.44-1,6.2,6.2,0,0,1,1.4-1.89,4.64,4.64,0,0,1,2.61-.94,3.73,3.73,0,0,1,2.9.7C515.37,450.75,516.22,449.9,515.66,449.35Z"/><path class="cls-45" d="M513.68,466.86l-4.41-1.74a.9.9,0,0,0-1.21,1l.12.81-3.6.54a1,1,0,0,0-.85,1.15l.16,1.07a1,1,0,0,0,1.15.84l3.6-.54.12.81a.9.9,0,0,0,1.45.57l3.7-2.95A.89.89,0,0,0,513.68,466.86Z"/><circle class="cls-9" cx="504.33" cy="461.26" r="0.39"/><circle class="cls-9" cx="502" cy="461.26" r="0.39"/><circle class="cls-9" cx="502.69" cy="460.49" r="0.39"/><circle class="cls-9" cx="503.64" cy="460.49" r="0.39"/><circle class="cls-9" cx="508.99" cy="461.26" r="0.39"/><circle class="cls-9" cx="506.66" cy="461.26" r="0.39"/><circle class="cls-9" cx="507.35" cy="460.49" r="0.39"/><circle class="cls-9" cx="508.3" cy="460.49" r="0.39"/><ellipse class="cls-42" cx="500.76" cy="468.02" rx="1.98" ry="3.36" transform="translate(-149.28 685.39) rotate(-61.55)"/><path class="cls-6" d="M503.54,469.5a3,3,0,0,0-1-2.41h0a6.46,6.46,0,0,0-.85-.7l.17.15a4.93,4.93,0,0,1,1.15,1.34h0a1,1,0,0,1-.67,1.52,4.38,4.38,0,0,1-2.85-.61,8.23,8.23,0,0,1-1.15-.7,7.29,7.29,0,0,0,1.93,1.58,4.87,4.87,0,0,0,1.69.6C502.85,470.4,503.46,470.12,503.54,469.5Z"/><ellipse class="cls-43" cx="500.76" cy="468.02" rx="1.98" ry="3.36" transform="translate(-149.28 685.39) rotate(-61.55)"/><path class="cls-3" d="M199.51,454.33a7.17,7.17,0,0,0-4.62.07,9.32,9.32,0,0,0-3.74,2.5,10.8,10.8,0,0,0-2.56,10,9.49,9.49,0,0,0,3.62,5.4,7.91,7.91,0,0,0,6.57,1.25,8.1,8.1,0,0,0,4-2.85,10.66,10.66,0,0,0,2-8.87c-.7-3.08-2.5-6.48-5.28-7.44"/><path class="cls-46" d="M199.67,453.75c-4.23-1.33-8.48,1.24-10.54,4.91a11.22,11.22,0,0,0,.26,11.5c2.19,3.33,6.56,5.26,10.39,3.62,3.67-1.56,5.83-5.72,5.88-9.58s-2.06-9-6-10.43c-.73-.28-1.05.89-.32,1.16,2.93,1.1,4.51,4.73,5,7.62a9.9,9.9,0,0,1-3.75,9.4c-3.06,2.18-7.18,1.19-9.53-1.56a9.85,9.85,0,0,1-1.52-9.78c1.46-3.87,5.57-7,9.81-5.69.74.23,1.06-.94.32-1.17Z"/><ellipse class="cls-47" cx="199.87" cy="475.43" rx="3.01" ry="1.8"/><path class="cls-3" d="M206.4,449.78a3.82,3.82,0,0,0-2.35-.89,7.36,7.36,0,0,0-2.7.37c-2,.67-3.09,3.14-3.54,4.58l-.06.08v0a6.6,6.6,0,0,1,3.38-1.84c.91-.06,1.82,0,2.74,0a4.09,4.09,0,0,0,2.45-.64A1.11,1.11,0,0,0,206.4,449.78Z"/><path class="cls-46" d="M206.82,449.35a4.57,4.57,0,0,0-3.26-1.07,6.32,6.32,0,0,0-3.47.94,6.46,6.46,0,0,0-1.89,2.17,11,11,0,0,0-.6,1.25,6.75,6.75,0,0,1-.37,1,.6.6,0,0,0,.09.73l0,0a.62.62,0,0,0,.85,0,6.89,6.89,0,0,1,2.48-1.57,14.48,14.48,0,0,1,3.42-.07,4.15,4.15,0,0,0,2.77-.89,1.76,1.76,0,0,0,0-2.49c-.52-.58-1.37.28-.85.86s-.35,1.06-.9,1.19a12,12,0,0,1-3,.08,5.28,5.28,0,0,0-2.63.52,9.89,9.89,0,0,0-2.11,1.51h.84l.09.73a3.18,3.18,0,0,0,.35-.9c.13-.34.28-.67.44-1a6.2,6.2,0,0,1,1.4-1.89,4.64,4.64,0,0,1,2.61-.94,3.72,3.72,0,0,1,2.9.7C206.53,450.75,207.38,449.9,206.82,449.35Z"/><path class="cls-48" d="M206,449.27a1.34,1.34,0,0,1-.28.75,3.73,3.73,0,0,1-2.19,1.07c-.85.16-1.72.19-2.56.4a3,3,0,0,0-1.12.59,1.5,1.5,0,0,1,.28.37,2.88,2.88,0,0,1,1.06-.4c.85-.12,1.72-.05,2.58-.12a3.52,3.52,0,0,0,2.28-.83A1.3,1.3,0,0,0,206,449.27Z"/><path class="cls-48" d="M205,461.79c-.69-3.08-2.5-6.48-5.28-7.44l0,0a6.78,6.78,0,0,0-2.57-.34l.53.09a7.15,7.15,0,0,1,4,2.27v0c1.91,2.23,1.76,6.07.81,9.08a10.67,10.67,0,0,1-6.21,6.64,9,9,0,0,1-3.14.64,7.82,7.82,0,0,0,5.82.78,8.05,8.05,0,0,0,4-2.85A10.62,10.62,0,0,0,205,461.79Z"/><path class="cls-46" d="M199.67,453.75c-4.23-1.33-8.48,1.24-10.54,4.91a11.22,11.22,0,0,0,.26,11.5c2.19,3.33,6.56,5.26,10.39,3.62,3.67-1.56,5.83-5.72,5.88-9.58s-2.06-9-6-10.43c-.73-.28-1.05.89-.32,1.16,2.93,1.1,4.51,4.73,5,7.62a9.9,9.9,0,0,1-3.75,9.4c-3.06,2.18-7.18,1.19-9.53-1.56a9.85,9.85,0,0,1-1.52-9.78c1.46-3.87,5.57-7,9.81-5.69.74.23,1.06-.94.32-1.17Z"/><rect class="cls-49" x="191.95" y="458.85" width="9.42" height="4.37" rx="0.81"/><path class="cls-48" d="M202.25,475.25a3,3,0,0,0-1.95-1.75h0a7.3,7.3,0,0,0-1.07-.28l.22.06a5,5,0,0,1,1.61.74h0a1,1,0,0,1,0,1.66,4.36,4.36,0,0,1-2.84.64,8,8,0,0,1-1.34-.15,7.71,7.71,0,0,0,2.42.63,5.05,5.05,0,0,0,1.78-.17C202,476.36,202.44,475.85,202.25,475.25Z"/><ellipse class="cls-50" cx="199.74" cy="475.36" rx="3.01" ry="1.8"/><ellipse class="cls-47" cx="193.66" cy="475.43" rx="3.01" ry="1.8"/><path class="cls-48" d="M196,475.25a3,3,0,0,0-2-1.75h0a7,7,0,0,0-1.07-.28l.22.06a5,5,0,0,1,1.61.74h0a1,1,0,0,1,0,1.66,4.39,4.39,0,0,1-2.85.64,7.85,7.85,0,0,1-1.33-.15,7.65,7.65,0,0,0,2.41.63,5,5,0,0,0,1.78-.17C195.79,476.36,196.22,475.85,196,475.25Z"/><ellipse class="cls-50" cx="193.52" cy="475.36" rx="3.01" ry="1.8"/><path class="cls-46" d="M206.82,449.35a4.57,4.57,0,0,0-3.26-1.07,6.32,6.32,0,0,0-3.47.94,6.46,6.46,0,0,0-1.89,2.17,11,11,0,0,0-.6,1.25,6.75,6.75,0,0,1-.37,1,.6.6,0,0,0,.09.73l0,0a.62.62,0,0,0,.85,0,6.89,6.89,0,0,1,2.48-1.57,14.48,14.48,0,0,1,3.42-.07,4.15,4.15,0,0,0,2.77-.89,1.76,1.76,0,0,0,0-2.49c-.52-.58-1.37.28-.85.86s-.35,1.06-.9,1.19a12,12,0,0,1-3,.08,5.28,5.28,0,0,0-2.63.52,9.89,9.89,0,0,0-2.11,1.51h.84l.09.73a3.18,3.18,0,0,0,.35-.9c.13-.34.28-.67.44-1a6.2,6.2,0,0,1,1.4-1.89,4.64,4.64,0,0,1,2.61-.94,3.72,3.72,0,0,1,2.9.7C206.53,450.75,207.38,449.9,206.82,449.35Z"/><circle class="cls-51" cx="195.5" cy="461.26" r="0.39"/><circle class="cls-51" cx="193.17" cy="461.26" r="0.39"/><circle class="cls-51" cx="193.86" cy="460.49" r="0.39"/><circle class="cls-51" cx="194.81" cy="460.49" r="0.39"/><circle class="cls-51" cx="200.16" cy="461.26" r="0.39"/><circle class="cls-51" cx="197.83" cy="461.26" r="0.39"/><circle class="cls-51" cx="198.52" cy="460.49" r="0.39"/><circle class="cls-51" cx="199.47" cy="460.49" r="0.39"/><circle class="cls-46" cx="189.01" cy="467.65" r="0.11"/><circle class="cls-46" cx="204.06" cy="467.65" r="0.41"/><rect class="cls-52" x="203.88" y="467.47" width="0.36" height="0.36"/><line class="cls-53" x1="193.79" y1="465.65" x2="193.48" y2="465.65"/><line class="cls-53" x1="195.54" y1="465.66" x2="194.09" y2="465.64"/><rect class="cls-54" x="188.14" y="462.07" width="16.6" height="11.28" rx="0.84"/><rect class="cls-55" x="189.94" y="462.67" width="13.46" height="10.07"/><rect class="cls-56" x="189.94" y="462.67" width="13.46" height="8.74"/><rect class="cls-57" x="189.94" y="462.67" width="13.46" height="1.55"/><rect class="cls-3" x="190.51" y="463.25" width="0.51" height="0.1" rx="0.05"/><rect class="cls-3" x="190.51" y="463.4" width="0.51" height="0.1" rx="0.05"/><rect class="cls-3" x="190.51" y="463.56" width="0.51" height="0.1" rx="0.05"/><path class="cls-58" d="M199.58,471.91c-.2-.2-.44,0-.24.23h0l.24.23h0l.23-.23h0C200,471.94,199.77,471.71,199.58,471.91Z"/><line class="cls-59" x1="194.02" y1="471.87" x2="194.49" y2="472.34"/><line class="cls-59" x1="194.02" y1="472.34" x2="194.49" y2="471.87"/><line class="cls-53" x1="193.18" y1="465.7" x2="190.61" y2="465.7"/><line class="cls-53" x1="193.35" y1="465.15" x2="190.61" y2="465.14"/><line class="cls-53" x1="196.27" y1="465.14" x2="193.7" y2="465.14"/><line class="cls-53" x1="199.84" y1="465.14" x2="197.27" y2="465.14"/><line class="cls-53" x1="201.42" y1="465.14" x2="200.19" y2="465.14"/><line class="cls-53" x1="196.93" y1="465.14" x2="196.62" y2="465.14"/><line class="cls-60" x1="192.87" y1="468.43" x2="190.61" y2="468.43"/><line class="cls-60" x1="194.71" y1="468.43" x2="193.2" y2="468.44"/><line class="cls-60" x1="199.45" y1="468.43" x2="197.94" y2="468.44"/><line class="cls-60" x1="201.04" y1="468.43" x2="199.78" y2="468.44"/><line class="cls-60" x1="197.6" y1="468.43" x2="195.03" y2="468.43"/><line class="cls-60" x1="193.18" y1="467.92" x2="190.61" y2="467.92"/><line class="cls-60" x1="200.03" y1="467.92" x2="198.02" y2="467.92"/><line class="cls-60" x1="201.81" y1="467.92" x2="200.37" y2="467.92"/><line class="cls-60" x1="194.76" y1="467.92" x2="193.52" y2="467.92"/><line class="cls-60" x1="197.67" y1="467.92" x2="195.1" y2="467.92"/><line class="cls-60" x1="193.8" y1="466.99" x2="191.23" y2="466.99"/><line class="cls-60" x1="190.92" y1="466.97" x2="190.61" y2="466.97"/><line class="cls-60" x1="194.11" y1="466.99" x2="194.88" y2="466.99"/><line class="cls-60" x1="196.43" y1="466.99" x2="195.2" y2="466.99"/><line class="cls-60" x1="199.31" y1="466.99" x2="196.74" y2="466.99"/><line class="cls-60" x1="200.86" y1="466.99" x2="199.63" y2="466.99"/><line class="cls-60" x1="201.18" y1="467" x2="201.94" y2="467"/><line class="cls-60" x1="191.84" y1="467.42" x2="190.61" y2="467.42"/><line class="cls-60" x1="194.71" y1="467.42" x2="192.14" y2="467.42"/><line class="cls-60" x1="196.24" y1="467.42" x2="195.01" y2="467.42"/><line class="cls-60" x1="197.16" y1="467.42" x2="196.54" y2="467.42"/><line class="cls-60" x1="200.02" y1="467.42" x2="197.45" y2="467.42"/><line class="cls-60" x1="201.55" y1="467.42" x2="200.32" y2="467.42"/><line class="cls-60" x1="193.95" y1="468.95" x2="190.61" y2="468.95"/><line class="cls-60" x1="195.64" y1="468.95" x2="194.26" y2="468.95"/><ellipse class="cls-61" cx="205" cy="467.15" rx="2.13" ry="1.34" transform="translate(-270.91 650.91) rotate(-87.42)"/><path class="cls-62" d="M205.38,465.2A1.45,1.45,0,0,0,204,466h0a4,4,0,0,0-.35.65l.08-.13a2.61,2.61,0,0,1,.73-.87h0c.47-.31.86.06,1.06.56a3.83,3.83,0,0,1-.07,2.21,5,5,0,0,1-.32.89,4.37,4.37,0,0,0,.8-1.48,4,4,0,0,0,.19-1.3C206,465.76,205.79,465.28,205.38,465.2Z"/><ellipse class="cls-63" cx="205" cy="467.15" rx="2.13" ry="1.34" transform="translate(-270.91 650.91) rotate(-87.42)"/><ellipse class="cls-64" cx="187.97" cy="467.48" rx="1.35" ry="2.19" transform="translate(-22.81 9.83) rotate(-2.82)"/><path class="cls-62" d="M188,469.57a2,2,0,0,0,1.08-1.35h0a5,5,0,0,0,.13-.71l0,.15a3.25,3.25,0,0,1-.42,1.08h0a.68.68,0,0,1-1.13.09,2.8,2.8,0,0,1-.57-1.82,5.25,5.25,0,0,1,0-.88,4.73,4.73,0,0,0-.3,1.6,3.08,3.08,0,0,0,.2,1.15C187.26,469.46,187.63,469.71,188,469.57Z"/><ellipse class="cls-65" cx="187.97" cy="467.48" rx="1.35" ry="2.19" transform="translate(-22.81 9.83) rotate(-2.82)"/><path class="cls-3" d="M191.57,463.18h.09v.55h-.09Zm0,.24h.22l0,0s0,0,0,0a.06.06,0,0,0,0,0l0,0h-.22v-.09h.19l.08,0a.1.1,0,0,1,.05.06.11.11,0,0,1,0,.08.15.15,0,0,1,0,.09l-.05.05a.12.12,0,0,1-.08,0h-.19Zm.13.07.09,0,.15.26h-.11Z"/><path class="cls-3" d="M192.12,463.71a.17.17,0,0,1-.06-.06.2.2,0,0,1,0-.09v-.05a.24.24,0,0,1,0-.09.13.13,0,0,1,.06-.07l.09,0a.11.11,0,0,1,.08,0,.11.11,0,0,1,.06.07.36.36,0,0,1,0,.11v0h-.27v-.07h.18a.08.08,0,0,0,0-.06.05.05,0,0,0,0,0,.06.06,0,0,0-.06,0,.09.09,0,0,0,0,.07v.05a.09.09,0,0,0,0,.07l.07,0h0l0,0,.06.06-.07,0h-.07A.16.16,0,0,1,192.12,463.71Z"/><path class="cls-3" d="M192.68,463.34h.09l-.14.39h-.07l-.15-.39h.1l.08.26Z"/><path class="cls-3" d="M192.84,463.18h.09v.09h-.09Zm0,.16h.09v.39h-.09Z"/><path class="cls-3" d="M193.11,463.71a.17.17,0,0,1-.06-.06.2.2,0,0,1,0-.09v-.05a.24.24,0,0,1,0-.09.13.13,0,0,1,.06-.07l.09,0a.16.16,0,0,1,.09,0,.13.13,0,0,1,.05.07.36.36,0,0,1,0,.11v0h-.27v-.07h.18a.08.08,0,0,0,0-.06.05.05,0,0,0-.05,0,.06.06,0,0,0-.06,0,.08.08,0,0,0,0,.07v.05a.08.08,0,0,0,0,.07l.07,0h0l0,0,.06.06-.07,0h-.07A.16.16,0,0,1,193.11,463.71Z"/><path class="cls-3" d="M193.41,463.34h.09l.07.26.09-.26h.06l.09.26.07-.26H194l-.12.39h-.07l-.09-.26-.09.26h-.07Z"/><path class="cls-3" d="M301.39,454.33a7.14,7.14,0,0,0-4.61.07,9.28,9.28,0,0,0-3.75,2.5,10.8,10.8,0,0,0-2.56,10,9.55,9.55,0,0,0,3.63,5.4,7.88,7.88,0,0,0,6.56,1.25,8.1,8.1,0,0,0,4-2.85,10.66,10.66,0,0,0,2-8.87c-.7-3.08-2.5-6.48-5.28-7.44"/><path class="cls-4" d="M301.55,453.75c-4.23-1.33-8.48,1.24-10.54,4.91a11.22,11.22,0,0,0,.26,11.5c2.19,3.33,6.56,5.26,10.39,3.62,3.67-1.56,5.84-5.72,5.89-9.58s-2.06-9-6-10.43c-.73-.28-1,.89-.32,1.16,2.94,1.1,4.51,4.73,5,7.62a9.88,9.88,0,0,1-3.75,9.4c-3.05,2.18-7.18,1.19-9.53-1.56a9.83,9.83,0,0,1-1.51-9.78c1.45-3.87,5.56-7,9.8-5.69.75.23,1.06-.94.32-1.17Z"/><ellipse class="cls-38" cx="301.76" cy="475.43" rx="3.01" ry="1.8"/><path class="cls-3" d="M308.28,449.78a3.79,3.79,0,0,0-2.34-.89,7.42,7.42,0,0,0-2.71.37c-2.05.67-3.09,3.14-3.54,4.58l-.06.08,0,0A6.57,6.57,0,0,1,303,452.1c.91-.06,1.83,0,2.74,0a4.14,4.14,0,0,0,2.46-.64A1.11,1.11,0,0,0,308.28,449.78Z"/><path class="cls-4" d="M308.71,449.35a4.58,4.58,0,0,0-3.26-1.07,6.33,6.33,0,0,0-3.48.94,6.57,6.57,0,0,0-1.89,2.17,9.51,9.51,0,0,0-.59,1.25,6.71,6.71,0,0,1-.38,1,.6.6,0,0,0,.09.73l0,0a.62.62,0,0,0,.85,0,7.06,7.06,0,0,1,2.48-1.57,14.55,14.55,0,0,1,3.43-.07,4.13,4.13,0,0,0,2.76-.89,1.77,1.77,0,0,0,0-2.49c-.52-.58-1.38.28-.86.86s-.35,1.06-.89,1.19a12,12,0,0,1-3,.08,5.31,5.31,0,0,0-2.63.52,10.42,10.42,0,0,0-2.11,1.51h.84l.09.73a3.53,3.53,0,0,0,.36-.9,8.7,8.7,0,0,1,.43-1,6.07,6.07,0,0,1,1.41-1.89,4.6,4.6,0,0,1,2.6-.94,3.72,3.72,0,0,1,2.9.7C308.41,450.75,309.27,449.9,308.71,449.35Z"/><path class="cls-6" d="M307.89,449.27a1.44,1.44,0,0,1-.29.75,3.68,3.68,0,0,1-2.19,1.07c-.85.16-1.72.19-2.56.4a3,3,0,0,0-1.12.59,1.29,1.29,0,0,1,.28.37,2.88,2.88,0,0,1,1.06-.4c.85-.12,1.72-.05,2.58-.12a3.52,3.52,0,0,0,2.28-.83A1.3,1.3,0,0,0,307.89,449.27Z"/><path class="cls-6" d="M306.92,461.79c-.69-3.08-2.49-6.48-5.28-7.44v0a6.85,6.85,0,0,0-2.58-.34l.54.09a7.16,7.16,0,0,1,4,2.27v0c1.92,2.23,1.76,6.07.81,9.08a10.62,10.62,0,0,1-6.21,6.64,9,9,0,0,1-3.13.64,7.81,7.81,0,0,0,5.82.78,8.1,8.1,0,0,0,4-2.85A10.65,10.65,0,0,0,306.92,461.79Z"/><path class="cls-4" d="M301.55,453.75c-4.23-1.33-8.48,1.24-10.54,4.91a11.22,11.22,0,0,0,.26,11.5c2.19,3.33,6.56,5.26,10.39,3.62,3.67-1.56,5.84-5.72,5.89-9.58s-2.06-9-6-10.43c-.73-.28-1,.89-.32,1.16,2.94,1.1,4.51,4.73,5,7.62a9.88,9.88,0,0,1-3.75,9.4c-3.05,2.18-7.18,1.19-9.53-1.56a9.83,9.83,0,0,1-1.51-9.78c1.45-3.87,5.56-7,9.8-5.69.75.23,1.06-.94.32-1.17Z"/><rect class="cls-39" x="293.83" y="458.85" width="9.42" height="4.37" rx="0.81"/><path class="cls-6" d="M304.14,475.25a3,3,0,0,0-2-1.75h0a7,7,0,0,0-1.07-.28l.22.06a5,5,0,0,1,1.61.74h0a1,1,0,0,1,0,1.66,4.39,4.39,0,0,1-2.85.64,8.08,8.08,0,0,1-1.34-.15,7.78,7.78,0,0,0,2.42.63,5,5,0,0,0,1.78-.17C303.89,476.36,304.32,475.85,304.14,475.25Z"/><ellipse class="cls-40" cx="301.62" cy="475.36" rx="3.01" ry="1.8"/><ellipse class="cls-38" cx="295.54" cy="475.43" rx="3.01" ry="1.8"/><path class="cls-6" d="M297.92,475.25a3,3,0,0,0-2-1.75h0a7.64,7.64,0,0,0-1.07-.28l.22.06a5,5,0,0,1,1.6.74h0a1,1,0,0,1,0,1.66,4.36,4.36,0,0,1-2.84.64,7.85,7.85,0,0,1-1.34-.15,7.64,7.64,0,0,0,2.42.63,5.05,5.05,0,0,0,1.78-.17C297.67,476.36,298.1,475.85,297.92,475.25Z"/><ellipse class="cls-40" cx="295.41" cy="475.36" rx="3.01" ry="1.8"/><path class="cls-4" d="M308.71,449.35a4.58,4.58,0,0,0-3.26-1.07,6.33,6.33,0,0,0-3.48.94,6.57,6.57,0,0,0-1.89,2.17,9.51,9.51,0,0,0-.59,1.25,6.71,6.71,0,0,1-.38,1,.6.6,0,0,0,.09.73l0,0a.62.62,0,0,0,.85,0,7.06,7.06,0,0,1,2.48-1.57,14.55,14.55,0,0,1,3.43-.07,4.13,4.13,0,0,0,2.76-.89,1.77,1.77,0,0,0,0-2.49c-.52-.58-1.38.28-.86.86s-.35,1.06-.89,1.19a12,12,0,0,1-3,.08,5.31,5.31,0,0,0-2.63.52,10.42,10.42,0,0,0-2.11,1.51h.84l.09.73a3.53,3.53,0,0,0,.36-.9,8.7,8.7,0,0,1,.43-1,6.07,6.07,0,0,1,1.41-1.89,4.6,4.6,0,0,1,2.6-.94,3.72,3.72,0,0,1,2.9.7C308.41,450.75,309.27,449.9,308.71,449.35Z"/><circle class="cls-9" cx="297.38" cy="461.26" r="0.39"/><circle class="cls-9" cx="295.05" cy="461.26" r="0.39"/><circle class="cls-9" cx="295.74" cy="460.49" r="0.39"/><circle class="cls-9" cx="296.69" cy="460.49" r="0.39"/><circle class="cls-9" cx="302.04" cy="461.26" r="0.39"/><circle class="cls-9" cx="299.71" cy="461.26" r="0.39"/><circle class="cls-9" cx="300.4" cy="460.49" r="0.39"/><circle class="cls-9" cx="301.35" cy="460.49" r="0.39"/><line class="cls-66" x1="305.63" y1="459.99" x2="306.6" y2="459.69"/><path class="cls-67" d="M309.82,454.69l-9.2,17.67a.44.44,0,0,1-.59.18.43.43,0,0,1-.18-.58h0l9.56-17.47a.22.22,0,0,1,.31-.1A.24.24,0,0,1,309.82,454.69Z"/><ellipse class="cls-42" cx="302.96" cy="468.07" rx="3.36" ry="1.98" transform="translate(-146.17 137.69) rotate(-20.75)"/><path class="cls-6" d="M305.83,466.73A3.61,3.61,0,0,0,303,466h0a10.09,10.09,0,0,0-1.27.24l.27,0a6.81,6.81,0,0,1,2-.06h0c1,.17,1.1.86.76,1.49a5.49,5.49,0,0,1-2.75,1.86,12,12,0,0,1-1.5.47,10,10,0,0,0,2.86-.53,6.53,6.53,0,0,0,1.84-.95C306.06,467.84,306.29,467.18,305.83,466.73Z"/><ellipse class="cls-43" cx="302.96" cy="468.07" rx="3.36" ry="1.98" transform="translate(-146.17 137.69) rotate(-20.75)"/><circle class="cls-68" cx="295.19" cy="460.9" r="3.4"/><circle class="cls-69" cx="295.19" cy="460.9" r="3.4"/><circle class="cls-68" cx="302.2" cy="460.9" r="3.4"/><circle class="cls-69" cx="302.2" cy="460.9" r="3.4"/><line class="cls-66" x1="291.66" y1="459.99" x2="290.68" y2="459.69"/><line class="cls-70" x1="298.57" y1="457.43" x2="299.29" y2="456.94"/><line class="cls-70" x1="298.92" y1="456.09" x2="299.64" y2="455.59"/><line class="cls-70" x1="299.24" y1="456.96" x2="298.83" y2="456.12"/><path class="cls-71" d="M444.48,474.43c-9.3,4.48-18.47,2.33-14.86-2.22,2.9-3.64-.56-4.58-.06-8a3.23,3.23,0,0,0-1-3.06"/><path class="cls-3" d="M442.6,454.33a7.14,7.14,0,0,0-4.61.07,9.18,9.18,0,0,0-3.74,2.5,10.74,10.74,0,0,0-2.56,10,9.49,9.49,0,0,0,3.62,5.4,7.88,7.88,0,0,0,6.56,1.25,8.1,8.1,0,0,0,4-2.85,10.66,10.66,0,0,0,2-8.87c-.69-3.08-2.5-6.48-5.28-7.44"/><path class="cls-4" d="M442.76,453.75c-4.23-1.33-8.48,1.24-10.54,4.91a11.22,11.22,0,0,0,.26,11.5c2.19,3.33,6.56,5.26,10.39,3.62,3.67-1.56,5.84-5.72,5.89-9.58s-2.06-9-6-10.43c-.73-.28-1,.89-.32,1.16,2.94,1.1,4.51,4.73,5,7.62a9.88,9.88,0,0,1-3.75,9.4c-3.05,2.18-7.18,1.19-9.53-1.56a9.83,9.83,0,0,1-1.51-9.78c1.46-3.87,5.56-7,9.8-5.69.75.23,1.07-.94.32-1.17Z"/><ellipse class="cls-72" cx="442.97" cy="475.43" rx="3.01" ry="1.8"/><path class="cls-3" d="M449.49,449.78a3.79,3.79,0,0,0-2.34-.89,7.42,7.42,0,0,0-2.71.37c-2.05.67-3.09,3.14-3.53,4.58l-.07.08,0,0a6.56,6.56,0,0,1,3.38-1.84c.9-.06,1.82,0,2.73,0a4.14,4.14,0,0,0,2.46-.64A1.11,1.11,0,0,0,449.49,449.78Z"/><path class="cls-4" d="M449.92,449.35a4.58,4.58,0,0,0-3.26-1.07,6.33,6.33,0,0,0-3.48.94,6.57,6.57,0,0,0-1.89,2.17,9.51,9.51,0,0,0-.59,1.25,6.71,6.71,0,0,1-.38,1,.59.59,0,0,0,.1.73v0a.62.62,0,0,0,.85,0,7,7,0,0,1,2.49-1.57,14.46,14.46,0,0,1,3.42-.07,4.13,4.13,0,0,0,2.76-.89,1.77,1.77,0,0,0,0-2.49c-.52-.58-1.38.28-.86.86s-.35,1.06-.89,1.19a12,12,0,0,1-3,.08,5.31,5.31,0,0,0-2.63.52,10.42,10.42,0,0,0-2.11,1.51h.84l.09.73a3.53,3.53,0,0,0,.36-.9,8.7,8.7,0,0,1,.43-1,6.07,6.07,0,0,1,1.41-1.89,4.61,4.61,0,0,1,2.61-.94,3.71,3.71,0,0,1,2.89.7C449.62,450.75,450.48,449.9,449.92,449.35Z"/><path class="cls-6" d="M449.1,449.27a1.44,1.44,0,0,1-.29.75,3.68,3.68,0,0,1-2.19,1.07c-.85.16-1.72.19-2.56.4a3,3,0,0,0-1.12.59,1.29,1.29,0,0,1,.28.37,2.88,2.88,0,0,1,1.06-.4c.85-.12,1.72-.05,2.58-.12a3.52,3.52,0,0,0,2.28-.83A1.3,1.3,0,0,0,449.1,449.27Z"/><path class="cls-6" d="M448.13,461.79c-.69-3.08-2.49-6.48-5.27-7.44l0,0a6.85,6.85,0,0,0-2.58-.34l.54.09a7.16,7.16,0,0,1,4,2.27v0c1.92,2.23,1.76,6.07.81,9.08a10.62,10.62,0,0,1-6.21,6.64,9,9,0,0,1-3.13.64,7.81,7.81,0,0,0,5.82.78,8.1,8.1,0,0,0,4-2.85A10.62,10.62,0,0,0,448.13,461.79Z"/><path class="cls-4" d="M442.76,453.75c-4.23-1.33-8.48,1.24-10.54,4.91a11.22,11.22,0,0,0,.26,11.5c2.19,3.33,6.56,5.26,10.39,3.62,3.67-1.56,5.84-5.72,5.89-9.58s-2.06-9-6-10.43c-.73-.28-1,.89-.32,1.16,2.94,1.1,4.51,4.73,5,7.62a9.88,9.88,0,0,1-3.75,9.4c-3.05,2.18-7.18,1.19-9.53-1.56a9.83,9.83,0,0,1-1.51-9.78c1.46-3.87,5.56-7,9.8-5.69.75.23,1.07-.94.32-1.17Z"/><rect class="cls-73" x="435.04" y="459.98" width="9.42" height="4.37" rx="0.81"/><path class="cls-6" d="M445.35,475.25a3,3,0,0,0-2-1.75h0a7,7,0,0,0-1.07-.28l.22.06a5,5,0,0,1,1.61.74h0a1,1,0,0,1,0,1.66,4.39,4.39,0,0,1-2.85.64,7.85,7.85,0,0,1-1.33-.15,7.65,7.65,0,0,0,2.41.63,5,5,0,0,0,1.78-.17C445.1,476.36,445.53,475.85,445.35,475.25Z"/><ellipse class="cls-74" cx="442.83" cy="475.36" rx="3.01" ry="1.8"/><ellipse class="cls-72" cx="436.75" cy="475.43" rx="3.01" ry="1.8"/><path class="cls-6" d="M439.28,475.35a3,3,0,0,0-1.95-1.75h0a7.3,7.3,0,0,0-1.07-.28l.22.06a5,5,0,0,1,1.61.74h0a1,1,0,0,1,0,1.66,4.34,4.34,0,0,1-2.85.64,8.08,8.08,0,0,1-1.34-.15,7.78,7.78,0,0,0,2.42.63,5.29,5.29,0,0,0,1.78-.16C439,476.46,439.47,476,439.28,475.35Z"/><ellipse class="cls-74" cx="436.62" cy="475.36" rx="3.01" ry="1.8"/><path class="cls-4" d="M449.92,449.35a4.58,4.58,0,0,0-3.26-1.07,6.33,6.33,0,0,0-3.48.94,6.57,6.57,0,0,0-1.89,2.17,9.51,9.51,0,0,0-.59,1.25,6.71,6.71,0,0,1-.38,1,.59.59,0,0,0,.1.73v0a.62.62,0,0,0,.85,0,7,7,0,0,1,2.49-1.57,14.46,14.46,0,0,1,3.42-.07,4.13,4.13,0,0,0,2.76-.89,1.77,1.77,0,0,0,0-2.49c-.52-.58-1.38.28-.86.86s-.35,1.06-.89,1.19a12,12,0,0,1-3,.08,5.31,5.31,0,0,0-2.63.52,10.42,10.42,0,0,0-2.11,1.51h.84l.09.73a3.53,3.53,0,0,0,.36-.9,8.7,8.7,0,0,1,.43-1,6.07,6.07,0,0,1,1.41-1.89,4.61,4.61,0,0,1,2.61-.94,3.71,3.71,0,0,1,2.89.7C449.62,450.75,450.48,449.9,449.92,449.35Z"/><circle class="cls-9" cx="438.59" cy="462.39" r="0.39"/><circle class="cls-9" cx="436.26" cy="462.39" r="0.39"/><circle class="cls-9" cx="436.95" cy="461.62" r="0.39"/><circle class="cls-9" cx="437.9" cy="461.62" r="0.39"/><circle class="cls-9" cx="443.25" cy="462.39" r="0.39"/><circle class="cls-9" cx="440.92" cy="462.39" r="0.39"/><circle class="cls-9" cx="441.61" cy="461.62" r="0.39"/><circle class="cls-9" cx="442.56" cy="461.62" r="0.39"/><path class="cls-75" d="M435.67,465.27c-.36,0-2.84-.29-2.85.07l.9,2c0,.37.43.82.06.82l-1.84.21h-.1a.18.18,0,0,0-.18.18,5.08,5.08,0,0,0,5,5.16l1.72,0a.88.88,0,0,0,.88-.86l0-1.35,0-2.54A3.7,3.7,0,0,0,435.67,465.27Z"/><path class="cls-76" d="M448.22,458.73c.1-3.51-3.05-6.56-7.17-6.89s-7.71,2.19-8.17,5.67Z"/><path class="cls-77" d="M441.94,452a9.24,9.24,0,0,1,1.24,1,8.3,8.3,0,0,1,2.45,5.52l2.59.21C448.31,455.48,445.62,452.62,441.94,452Z"/><path class="cls-78" d="M442,451.83s-.22-.1-.22-.05c-.28,1.52-1.09,3.85-1,5.56.08-.92.93-4.63,1.55-5.25C442.34,452,442,451.83,442,451.83Z"/><path class="cls-79" d="M440.79,451.78c.16-.21,1.34-.1,1.24.1a13.64,13.64,0,0,0-.93,6l-2-.1A11.69,11.69,0,0,1,440.79,451.78Z"/><rect class="cls-75" x="431.03" y="457.59" width="18.45" height="1.75" rx="0.87" transform="translate(37.61 -33.36) rotate(4.53)"/><path class="cls-80" d="M448.66,459.59l-16.74-1a1,1,0,0,1-.81-.48.89.89,0,0,0,.75.56L448.51,460a.86.86,0,0,0,.92-.68A1,1,0,0,1,448.66,459.59Z"/><path class="cls-79" d="M431.84,468.4a.18.18,0,0,0-.18.18h0a5,5,0,0,0,.19,1.46,15.37,15.37,0,0,0,7.39,1.52l0-2.54a18.59,18.59,0,0,1-7.33-.62Z"/><path class="cls-75" d="M443.53,465.27c.36,0,2.84-.29,2.85.07l-.9,2c0,.37-.43.82-.06.82l1.84.21h.1a.18.18,0,0,1,.18.18,5.08,5.08,0,0,1-5,5.16l-1.71,0a.88.88,0,0,1-.88-.86l0-1.35,0-2.54A3.71,3.71,0,0,1,443.53,465.27Z"/><path class="cls-79" d="M447.36,468.4a.18.18,0,0,1,.18.18h0a5,5,0,0,1-.19,1.46,15.37,15.37,0,0,1-7.39,1.52l0-2.54a18.63,18.63,0,0,0,7.34-.62Z"/><path class="cls-15" d="M447.39,470l-.06.21Z"/><path class="cls-15" d="M447.56,469a1.11,1.11,0,0,1,0,.17A1.11,1.11,0,0,0,447.56,469Z"/><path class="cls-15" d="M447.5,469.51c0,.06,0,.13,0,.2S447.49,469.57,447.5,469.51Z"/><path class="cls-16" d="M447.46,469.71a2.68,2.68,0,0,1-.07.27A2.68,2.68,0,0,0,447.46,469.71Z"/><polygon class="cls-16" points="447.58 468.5 447.57 468.5 447.58 468.51 447.58 468.5"/><path class="cls-16" d="M447.33,470.19l-.06.18h0Z"/><path class="cls-16" d="M440.11,471.62h0c0-.61,0-.79,0-1.48Z"/><path class="cls-16" d="M447.58,468.51c0,.17,0,.34,0,.51C447.57,468.85,447.58,468.68,447.58,468.51Z"/><path class="cls-16" d="M447.54,469.19c0,.1,0,.21,0,.32C447.52,469.4,447.53,469.29,447.54,469.19Z"/><ellipse class="cls-81" cx="431.34" cy="465.82" rx="1.69" ry="3.46" transform="translate(-202.79 435.51) rotate(-44.46)"/><path class="cls-19" d="M433.58,468.21a4.75,4.75,0,0,1-2.91-.79h0c-.35-.23-.7-.47-1-.72l.22.15a8.79,8.79,0,0,0,1.83.94h0c1,.35,1.4-.08,1.38-.66a4.59,4.59,0,0,0-1.62-2.46,10.59,10.59,0,0,0-1.13-1,13,13,0,0,1,2.35,1.61,6.77,6.77,0,0,1,1.21,1.46C434.32,467.58,434.23,468.12,433.58,468.21Z"/><ellipse class="cls-82" cx="431.31" cy="465.83" rx="1.69" ry="3.46" transform="translate(-203.52 460.96) rotate(-46.76)"/><ellipse class="cls-81" cx="445.48" cy="468.49" rx="3.46" ry="1.69" transform="translate(-200.24 499.69) rotate(-49.21)"/><path class="cls-19" d="M443.28,470.92a4.76,4.76,0,0,1,.55-3h0c.2-.37.41-.74.63-1.09l-.13.23a8,8,0,0,0-.78,1.89h0c-.27,1,.19,1.39.76,1.33a4.63,4.63,0,0,0,2.33-1.82,11.59,11.59,0,0,0,.87-1.21,12.05,12.05,0,0,1-1.41,2.47,6.3,6.3,0,0,1-1.35,1.33C444,471.6,443.42,471.55,443.28,470.92Z"/><ellipse class="cls-82" cx="445.46" cy="468.46" rx="3.46" ry="1.69" transform="translate(-198.45 525.55) rotate(-51.51)"/><path class="cls-19" d="M428,462.09l-1.15-2.27a.3.3,0,0,1,.09-.38l.4-.26a.29.29,0,0,1,.36,0l1.88,1.68a.29.29,0,0,1,0,.45l-1.13.86A.29.29,0,0,1,428,462.09Z"/><path class="cls-83" d="M425.36,459.57a.53.53,0,0,0,0,.76.54.54,0,0,0,.76-.1s.15-.26.27-.44a.66.66,0,0,1,.33-.26l.07,0a0,0,0,0,0,0-.07l-.48-.13h-.06a1,1,0,0,0-.25,0l-.08,0-.2.05-.19.08,0,0a.52.52,0,0,0-.11.1Z"/><path class="cls-3" d="M425.53,459.87h0a.39.39,0,0,1,.08-.1l0,0,.13-.1.14-.09.05,0,0,0h-.18l0,0-.1,0a.26.26,0,0,0-.09.05l0,0-.06.05h0a.38.38,0,0,0-.08.35s0,0,.05,0A.6.6,0,0,1,425.53,459.87Z"/><path class="cls-83" d="M426.42,458.59a.34.34,0,1,1,.65.15s-.09.19-.14.32a.44.44,0,0,0,0,.28v.05s0,0,0,0l-.25-.21,0,0a.6.6,0,0,1-.09-.13.14.14,0,0,1,0-.06l-.05-.13s0-.12,0-.13v0a.34.34,0,0,1,0-.1Z"/><path class="cls-84" d="M429.22,461.64l.3-.22a.29.29,0,0,0,0-.45l-1.88-1.68a.28.28,0,0,0-.23-.07A12.05,12.05,0,0,1,429.22,461.64Z"/><rect class="cls-19" x="427.75" y="461.41" width="2.42" height="0.54" rx="0.27" transform="translate(-188.26 334.43) rotate(-35.46)"/><rect class="cls-19" x="426.58" y="459.25" width="1.41" height="0.54" rx="0.23" transform="translate(-187.32 333.06) rotate(-35.46)"/><path class="cls-84" d="M429.94,461a.27.27,0,0,0-.26-.11.22.22,0,0,1,.09.07h0a.28.28,0,0,1,0,.38l-1.47,1.17a.2.2,0,0,0,.08,0l1.54-1.1A.26.26,0,0,0,429.94,461Z"/><path class="cls-84" d="M427.87,459.14l0-.05-.07-.07.05.05h0a.28.28,0,0,1,0,.38l-.71.56.76-.54A.24.24,0,0,0,427.87,459.14Z"/><path class="cls-3" d="M426.76,458.45h0l-.05,0h0l-.06.06-.06.06,0,0h0v0a.13.13,0,0,1,0-.06l0,0,0-.05,0-.05h0l0,0h0a.17.17,0,0,1,.18,0,0,0,0,0,1,0,0Z"/><path class="cls-3" d="M233.05,454.33a7.17,7.17,0,0,0-4.62.07,9.25,9.25,0,0,0-3.74,2.5,10.8,10.8,0,0,0-2.56,10,9.49,9.49,0,0,0,3.62,5.4,7.91,7.91,0,0,0,6.57,1.25,8.1,8.1,0,0,0,4-2.85,10.66,10.66,0,0,0,2-8.87c-.7-3.08-2.5-6.48-5.28-7.44"/><path class="cls-85" d="M233.21,453.75c-4.23-1.33-8.49,1.24-10.54,4.91a11.24,11.24,0,0,0,.25,11.5c2.2,3.33,6.57,5.26,10.4,3.62,3.67-1.56,5.83-5.72,5.88-9.58s-2.06-9-6-10.43c-.73-.28-1,.89-.32,1.16,2.93,1.1,4.51,4.73,5,7.62a9.9,9.9,0,0,1-3.75,9.4c-3.06,2.18-7.18,1.19-9.53-1.56a9.85,9.85,0,0,1-1.52-9.78c1.46-3.87,5.57-7,9.81-5.69.74.23,1.06-.94.32-1.17Z"/><path class="cls-62" d="M238.58,461.79c-.7-3.08-2.5-6.48-5.28-7.44l0,0a6.78,6.78,0,0,0-2.57-.34l.53.09a7.15,7.15,0,0,1,4,2.27v0c1.91,2.23,1.76,6.07.81,9.08a10.67,10.67,0,0,1-6.21,6.64,9.07,9.07,0,0,1-3.14.64,7.81,7.81,0,0,0,5.82.78,8.1,8.1,0,0,0,4-2.85A10.66,10.66,0,0,0,238.58,461.79Z"/><path class="cls-85" d="M233.21,453.75c-4.23-1.33-8.49,1.24-10.54,4.91a11.24,11.24,0,0,0,.25,11.5c2.2,3.33,6.57,5.26,10.4,3.62,3.67-1.56,5.83-5.72,5.88-9.58s-2.06-9-6-10.43c-.73-.28-1,.89-.32,1.16,2.93,1.1,4.51,4.73,5,7.62a9.9,9.9,0,0,1-3.75,9.4c-3.06,2.18-7.18,1.19-9.53-1.56a9.85,9.85,0,0,1-1.52-9.78c1.46-3.87,5.57-7,9.81-5.69.74.23,1.06-.94.32-1.17Z"/><ellipse class="cls-86" cx="233.41" cy="475.43" rx="3.01" ry="1.8"/><path class="cls-62" d="M235.79,475.25a3,3,0,0,0-2-1.75h0a7.64,7.64,0,0,0-1.07-.28l.22.06a5.12,5.12,0,0,1,1.61.74h0a1,1,0,0,1,0,1.66,4.36,4.36,0,0,1-2.84.64,8,8,0,0,1-1.34-.15,7.71,7.71,0,0,0,2.42.63,5.05,5.05,0,0,0,1.78-.17C235.54,476.36,236,475.85,235.79,475.25Z"/><ellipse class="cls-87" cx="233.28" cy="475.36" rx="3.01" ry="1.8"/><ellipse class="cls-86" cx="227.2" cy="475.43" rx="3.01" ry="1.8"/><path class="cls-62" d="M229.57,475.25a3,3,0,0,0-1.95-1.75h0a7.3,7.3,0,0,0-1.07-.28l.22.06a5,5,0,0,1,1.61.74h0a1,1,0,0,1,0,1.66,4.39,4.39,0,0,1-2.85.64,8.08,8.08,0,0,1-1.34-.15,7.78,7.78,0,0,0,2.42.63,5,5,0,0,0,1.78-.17C229.33,476.36,229.76,475.85,229.57,475.25Z"/><ellipse class="cls-87" cx="227.06" cy="475.36" rx="3.01" ry="1.8"/><path class="cls-3" d="M239.93,449.78a3.79,3.79,0,0,0-2.34-.89,7.33,7.33,0,0,0-2.7.37c-2,.67-3.09,3.14-3.54,4.58l-.06.08v0a6.6,6.6,0,0,1,3.38-1.84c.91-.06,1.82,0,2.73,0a4.1,4.1,0,0,0,2.46-.64A1.11,1.11,0,0,0,239.93,449.78Z"/><path class="cls-85" d="M240.36,449.35a4.57,4.57,0,0,0-3.26-1.07,6.32,6.32,0,0,0-3.47.94,6.46,6.46,0,0,0-1.89,2.17,11,11,0,0,0-.6,1.25,6.75,6.75,0,0,1-.37,1,.6.6,0,0,0,.09.73v0a.63.63,0,0,0,.86,0,6.89,6.89,0,0,1,2.48-1.57,14.47,14.47,0,0,1,3.42-.07,4.15,4.15,0,0,0,2.77-.89,1.76,1.76,0,0,0,0-2.49c-.52-.58-1.37.28-.85.86s-.35,1.06-.9,1.19a12,12,0,0,1-3,.08A5.28,5.28,0,0,0,233,452a10.21,10.21,0,0,0-2.12,1.51h.85l.09.73a3.18,3.18,0,0,0,.35-.9,8.77,8.77,0,0,1,.44-1,6.2,6.2,0,0,1,1.4-1.89,4.64,4.64,0,0,1,2.61-.94,3.72,3.72,0,0,1,2.9.7C240.07,450.75,240.92,449.9,240.36,449.35Z"/><path class="cls-62" d="M239.54,449.27a1.34,1.34,0,0,1-.28.75,3.73,3.73,0,0,1-2.2,1.07c-.84.16-1.71.19-2.55.4a3,3,0,0,0-1.12.59,1.5,1.5,0,0,1,.28.37,2.82,2.82,0,0,1,1.06-.4c.85-.12,1.72-.05,2.58-.12a3.54,3.54,0,0,0,2.28-.83A1.3,1.3,0,0,0,239.54,449.27Z"/><path class="cls-85" d="M240.36,449.35a4.57,4.57,0,0,0-3.26-1.07,6.32,6.32,0,0,0-3.47.94,6.46,6.46,0,0,0-1.89,2.17,11,11,0,0,0-.6,1.25,6.75,6.75,0,0,1-.37,1,.6.6,0,0,0,.09.73v0a.63.63,0,0,0,.86,0,6.89,6.89,0,0,1,2.48-1.57,14.47,14.47,0,0,1,3.42-.07,4.15,4.15,0,0,0,2.77-.89,1.76,1.76,0,0,0,0-2.49c-.52-.58-1.37.28-.85.86s-.35,1.06-.9,1.19a12,12,0,0,1-3,.08A5.28,5.28,0,0,0,233,452a10.21,10.21,0,0,0-2.12,1.51h.85l.09.73a3.18,3.18,0,0,0,.35-.9,8.77,8.77,0,0,1,.44-1,6.2,6.2,0,0,1,1.4-1.89,4.64,4.64,0,0,1,2.61-.94,3.72,3.72,0,0,1,2.9.7C240.07,450.75,240.92,449.9,240.36,449.35Z"/><rect class="cls-88" x="225.48" y="458.85" width="9.42" height="4.37" rx="0.47"/><circle class="cls-89" cx="229.03" cy="461.26" r="0.39"/><circle class="cls-89" cx="226.7" cy="461.26" r="0.39"/><circle class="cls-89" cx="227.39" cy="460.49" r="0.39"/><circle class="cls-89" cx="228.34" cy="460.49" r="0.39"/><circle class="cls-89" cx="233.69" cy="461.26" r="0.39"/><circle class="cls-89" cx="231.36" cy="461.26" r="0.39"/><circle class="cls-89" cx="232.05" cy="460.49" r="0.39"/><circle class="cls-89" cx="233" cy="460.49" r="0.39"/><path class="cls-90" d="M234.41,469.47a3.43,3.43,0,0,1-1.28,1.53,4.51,4.51,0,0,1-2.45.73c-.61,0-3.23.19-4.12-1.41a2.18,2.18,0,0,1-.26-1.32,3.28,3.28,0,0,1,3.15-2.32c1.56,0,2.28,1.29,3.53.85.61-.21.8-.66,1.13-.54.52.19.67,1.49.3,2.48"/><path class="cls-91" d="M232.78,470a1.64,1.64,0,0,1-.66.8,2.39,2.39,0,0,1-1.28.38c-.32,0-1.69.1-2.15-.74a1.07,1.07,0,0,1-.14-.69,1.72,1.72,0,0,1,1.65-1.21c.81,0,1.19.68,1.84.45.32-.11.42-.35.59-.28s.35.77.15,1.29"/><path class="cls-90" d="M232.32,470.22a2.48,2.48,0,0,1-1.3.39,2.82,2.82,0,0,1-2-.52l.06.15c.39.83,1.57.74,1.84.72a2,2,0,0,0,1.11-.4,2.15,2.15,0,0,0,.35-.37Z"/><path class="cls-90" d="M227.67,464.79a2.24,2.24,0,0,1-.25.17c-.34.27-.29.89-.28,1a1.77,1.77,0,0,0,.2.65,2.49,2.49,0,0,0,2.93,1,2,2,0,0,0,1.1-2,1.86,1.86,0,0,0-3.05-1.39,3.69,3.69,0,0,0-.33.3,1.34,1.34,0,0,1-.32.31"/><path class="cls-90" d="M227.67,464.79a2.24,2.24,0,0,1-.25.17c-.34.27-.29.89-.28,1a1.77,1.77,0,0,0,.2.65,2.49,2.49,0,0,0,2.93,1,2,2,0,0,0,1.1-2,1.86,1.86,0,0,0-3.05-1.39,3.69,3.69,0,0,0-.33.3,1.34,1.34,0,0,1-.32.31"/><path class="cls-92" d="M226.43,465.52a.69.69,0,0,1,.41-.23,1.05,1.05,0,0,1,.58.07c.25.08.46.14.52.31a.61.61,0,0,1-.06.34.79.79,0,0,1-.23.42.5.5,0,0,1-.31.16c-.28,0-.32-.3-.79-.5-.14,0-.23-.06-.27-.15s.13-.41.15-.42"/><path class="cls-92" d="M226.34,465a.84.84,0,0,0,.08.48,1,1,0,0,0,.4.46c.24.17.75.42,1,.2a.38.38,0,0,0,.1-.39c0-.08-.1-.08-.17-.16s0-.42-.08-.58-.58,0-.8-.25c-.1-.12-.08-.24-.16-.25s-.31.23-.35.49"/><path class="cls-93" d="M227.81,466.07c-.23.22-.75,0-1-.2a1.17,1.17,0,0,1-.4-.46.89.89,0,0,1-.08-.4.8.8,0,0,0,.08.44,1,1,0,0,0,.39.46c.23.17.74.42,1,.2a.1.1,0,0,0,0-.05Z"/><path class="cls-3" d="M228,465.12a.36.36,0,0,0,.39.21.51.51,0,0,0,.39-.34.32.32,0,0,0,0-.27c-.08-.13-.31-.12-.42-.1a.59.59,0,0,0-.36.29.27.27,0,0,0,0,.21"/><path class="cls-94" d="M228.06,465.09a.19.19,0,0,0,.2.1.24.24,0,0,0,.19-.17.15.15,0,0,0,0-.13c0-.07-.15-.06-.21-.05a.26.26,0,0,0-.18.14.17.17,0,0,0,0,.11"/><path class="cls-93" d="M227.21,465.12a.06.06,0,0,0,0,.08.09.09,0,0,0,.1,0,0,0,0,0,0,0,0s0-.05,0-.06-.05,0-.09,0a0,0,0,0,0,0,0"/><ellipse class="cls-95" cx="235.91" cy="468.85" rx="3.18" ry="1.55" transform="translate(-165.1 130.22) rotate(-23.11)"/><path class="cls-62" d="M233.12,470a4.43,4.43,0,0,1,1.67-2.23h0a10.76,10.76,0,0,1,1-.65l-.2.13a7.84,7.84,0,0,0-1.42,1.25h0c-.63.75-.4,1.23.09,1.41a4.29,4.29,0,0,0,2.66-.57,10.18,10.18,0,0,0,1.21-.64,10.71,10.71,0,0,1-2.17,1.46,5.88,5.88,0,0,1-1.64.56C233.43,470.82,233,470.56,233.12,470Z"/><ellipse class="cls-96" cx="235.91" cy="468.85" rx="3.18" ry="1.55" transform="translate(-178.09 146.24) rotate(-25.36)"/><ellipse class="cls-97" cx="224.6" cy="468.43" rx="1.61" ry="3.2" transform="translate(-285.82 371.77) rotate(-53.66)"/><path class="cls-62" d="M227.08,470.15a3.77,3.77,0,0,1-2.61-.11h0a8.56,8.56,0,0,1-1-.43l.2.09a7.06,7.06,0,0,0,1.69.48h0c.91.1,1.2-.37,1.11-.89a3.78,3.78,0,0,0-1.71-1.91,9.41,9.41,0,0,0-1.1-.66,9,9,0,0,1,2.22,1,4.86,4.86,0,0,1,1.23,1.06C227.63,469.41,227.61,469.93,227.08,470.15Z"/><ellipse class="cls-98" cx="224.6" cy="468.43" rx="1.61" ry="3.2" transform="translate(-285.82 371.77) rotate(-53.66)"/><path class="cls-3" d="M474.38,454.33a7.17,7.17,0,0,0-4.62.07,9.32,9.32,0,0,0-3.74,2.5,10.8,10.8,0,0,0-2.56,10,9.54,9.54,0,0,0,3.62,5.4,7.91,7.91,0,0,0,6.57,1.25,8.1,8.1,0,0,0,4-2.85,10.66,10.66,0,0,0,2-8.87c-.7-3.08-2.5-6.48-5.28-7.44"/><path class="cls-4" d="M474.54,453.75c-4.23-1.33-8.48,1.24-10.54,4.91a11.22,11.22,0,0,0,.26,11.5c2.19,3.33,6.56,5.26,10.39,3.62,3.67-1.56,5.83-5.72,5.89-9.58s-2.06-9-6-10.43c-.73-.28-1.05.89-.32,1.16,2.93,1.1,4.51,4.73,5,7.62a9.9,9.9,0,0,1-3.75,9.4c-3.06,2.18-7.18,1.19-9.53-1.56a9.83,9.83,0,0,1-1.51-9.78c1.45-3.87,5.56-7,9.8-5.69.74.23,1.06-.94.32-1.17Z"/><path class="cls-6" d="M479.91,461.79c-.69-3.08-2.49-6.48-5.28-7.44v0A6.85,6.85,0,0,0,472,454c.18,0,.36.05.53.09a7.15,7.15,0,0,1,4,2.27v0c1.92,2.23,1.76,6.07.81,9.08a10.65,10.65,0,0,1-6.21,6.64,9,9,0,0,1-3.14.64,7.82,7.82,0,0,0,5.82.78,8.05,8.05,0,0,0,4-2.85A10.62,10.62,0,0,0,479.91,461.79Z"/><path class="cls-4" d="M474.54,453.75c-4.23-1.33-8.48,1.24-10.54,4.91a11.22,11.22,0,0,0,.26,11.5c2.19,3.33,6.56,5.26,10.39,3.62,3.67-1.56,5.83-5.72,5.89-9.58s-2.06-9-6-10.43c-.73-.28-1.05.89-.32,1.16,2.93,1.1,4.51,4.73,5,7.62a9.9,9.9,0,0,1-3.75,9.4c-3.06,2.18-7.18,1.19-9.53-1.56a9.83,9.83,0,0,1-1.51-9.78c1.45-3.87,5.56-7,9.8-5.69.74.23,1.06-.94.32-1.17Z"/><ellipse class="cls-99" cx="474.74" cy="475.43" rx="3.01" ry="1.8"/><path class="cls-6" d="M477.12,475.25a3,3,0,0,0-1.95-1.75h0a7.3,7.3,0,0,0-1.07-.28l.22.06a5,5,0,0,1,1.61.74h0a1,1,0,0,1,0,1.66,4.4,4.4,0,0,1-2.85.64,8.08,8.08,0,0,1-1.34-.15,7.78,7.78,0,0,0,2.42.63,5,5,0,0,0,1.78-.17C476.88,476.36,477.31,475.85,477.12,475.25Z"/><ellipse class="cls-100" cx="474.61" cy="475.36" rx="3.01" ry="1.8"/><ellipse class="cls-99" cx="468.53" cy="475.43" rx="3.01" ry="1.8"/><path class="cls-6" d="M470.91,475.25a3,3,0,0,0-2-1.75h0a7,7,0,0,0-1.07-.28l.22.06a5,5,0,0,1,1.61.74h0a1,1,0,0,1,0,1.66,4.36,4.36,0,0,1-2.84.64,7.85,7.85,0,0,1-1.34-.15,7.65,7.65,0,0,0,2.41.63,5,5,0,0,0,1.78-.17C470.66,476.36,471.09,475.85,470.91,475.25Z"/><ellipse class="cls-100" cx="468.39" cy="475.36" rx="3.01" ry="1.8"/><path class="cls-3" d="M481.27,449.78a3.79,3.79,0,0,0-2.34-.89,7.42,7.42,0,0,0-2.71.37c-2.05.67-3.09,3.14-3.54,4.58l-.06.08v0A6.64,6.64,0,0,1,476,452.1c.91-.06,1.83,0,2.74,0a4.14,4.14,0,0,0,2.46-.64A1.11,1.11,0,0,0,481.27,449.78Z"/><path class="cls-4" d="M481.69,449.35a4.55,4.55,0,0,0-3.26-1.07,6.32,6.32,0,0,0-3.47.94,6.46,6.46,0,0,0-1.89,2.17,11,11,0,0,0-.6,1.25,6.75,6.75,0,0,1-.37,1,.6.6,0,0,0,.09.73l0,0a.62.62,0,0,0,.85,0,7.06,7.06,0,0,1,2.48-1.57,14.48,14.48,0,0,1,3.42-.07,4.15,4.15,0,0,0,2.77-.89,1.76,1.76,0,0,0,0-2.49c-.52-.58-1.37.28-.85.86s-.35,1.06-.89,1.19a12,12,0,0,1-3,.08,5.28,5.28,0,0,0-2.63.52,10.15,10.15,0,0,0-2.11,1.51h.84l.09.73a3.53,3.53,0,0,0,.36-.9,8.7,8.7,0,0,1,.43-1,6.07,6.07,0,0,1,1.41-1.89,4.58,4.58,0,0,1,2.6-.94,3.72,3.72,0,0,1,2.9.7C481.4,450.75,482.26,449.9,481.69,449.35Z"/><path class="cls-6" d="M480.87,449.27a1.34,1.34,0,0,1-.28.75,3.68,3.68,0,0,1-2.19,1.07c-.85.16-1.72.19-2.56.4a3,3,0,0,0-1.12.59,1.5,1.5,0,0,1,.28.37,2.88,2.88,0,0,1,1.06-.4c.85-.12,1.72-.05,2.58-.12a3.52,3.52,0,0,0,2.28-.83A1.3,1.3,0,0,0,480.87,449.27Z"/><path class="cls-4" d="M481.69,449.35a4.55,4.55,0,0,0-3.26-1.07,6.32,6.32,0,0,0-3.47.94,6.46,6.46,0,0,0-1.89,2.17,11,11,0,0,0-.6,1.25,6.75,6.75,0,0,1-.37,1,.6.6,0,0,0,.09.73l0,0a.62.62,0,0,0,.85,0,7.06,7.06,0,0,1,2.48-1.57,14.48,14.48,0,0,1,3.42-.07,4.15,4.15,0,0,0,2.77-.89,1.76,1.76,0,0,0,0-2.49c-.52-.58-1.37.28-.85.86s-.35,1.06-.89,1.19a12,12,0,0,1-3,.08,5.28,5.28,0,0,0-2.63.52,10.15,10.15,0,0,0-2.11,1.51h.84l.09.73a3.53,3.53,0,0,0,.36-.9,8.7,8.7,0,0,1,.43-1,6.07,6.07,0,0,1,1.41-1.89,4.58,4.58,0,0,1,2.6-.94,3.72,3.72,0,0,1,2.9.7C481.4,450.75,482.26,449.9,481.69,449.35Z"/><rect class="cls-101" x="466.81" y="458.85" width="9.42" height="4.37" rx="0.81"/><circle class="cls-9" cx="470.36" cy="461.26" r="0.39"/><circle class="cls-9" cx="468.03" cy="461.26" r="0.39"/><circle class="cls-9" cx="468.72" cy="460.49" r="0.39"/><circle class="cls-9" cx="469.67" cy="460.49" r="0.39"/><circle class="cls-9" cx="475.02" cy="461.26" r="0.39"/><circle class="cls-9" cx="472.69" cy="461.26" r="0.39"/><circle class="cls-9" cx="473.38" cy="460.49" r="0.39"/><circle class="cls-9" cx="474.33" cy="460.49" r="0.39"/><rect class="cls-102" x="465.6" y="465.31" width="11.86" height="4.66" rx="1.14"/><path class="cls-3" d="M466.93,466.74h.34v1.91h-.34Zm.13,0H468v.33h-.91Zm0,.82h.81v.32h-.81Z"/><path class="cls-3" d="M468.52,468.65h-.35v-1.91h.35Z"/><path class="cls-3" d="M468.82,466.74h.35l.58,1.37,0,0v-1.41H470v1.91h-.35l-.57-1.32,0,0v1.36h-.32Z"/><path class="cls-3" d="M470.68,468.65h-.35v-1.91h.35Z"/><path class="cls-3" d="M471.23,468.62a.52.52,0,0,1-.21-.14.55.55,0,0,1-.11-.23l.32-.15a.29.29,0,0,0,.3.24.35.35,0,0,0,.18,0,.18.18,0,0,0,.06-.14v-.09a.13.13,0,0,0,0-.1.31.31,0,0,0-.09-.07l-.16-.05h0a1,1,0,0,1-.25-.1.4.4,0,0,1-.17-.15.47.47,0,0,1-.07-.28v-.05A.54.54,0,0,1,471,467a.42.42,0,0,1,.2-.17.63.63,0,0,1,.32-.07.7.7,0,0,1,.25,0,.4.4,0,0,1,.18.14.65.65,0,0,1,.11.22l-.31.14a.37.37,0,0,0-.1-.16.22.22,0,0,0-.15-.06.26.26,0,0,0-.17.05.15.15,0,0,0-.06.13v.06a.16.16,0,0,0,0,.12.26.26,0,0,0,.1.07l.16,0h0a.91.91,0,0,1,.24.1.45.45,0,0,1,.16.15.51.51,0,0,1,.06.27v.08a.51.51,0,0,1-.07.28.46.46,0,0,1-.21.18.79.79,0,0,1-.32.06A.78.78,0,0,1,471.23,468.62Z"/><path class="cls-3" d="M472.36,466.74h.35v1.91h-.35Zm.16.81h.88v.32h-.88Zm.66-.81h.34v1.91h-.34Z"/><path class="cls-3" d="M473.85,466.74h.34v1.91h-.34Zm.13,0h.93v.34H474Zm0,.8h.82v.33H474Zm0,.78h.93v.33H474Z"/><path class="cls-3" d="M475.16,466.74h.34v1.91h-.34Zm.19,1.58h.36a.24.24,0,0,0,.18-.06.21.21,0,0,0,.07-.18v-.77a.24.24,0,0,0-.07-.18.24.24,0,0,0-.18-.06h-.36v-.33h.37a.66.66,0,0,1,.32.07.46.46,0,0,1,.2.19.56.56,0,0,1,.07.3v.8a.54.54,0,0,1-.07.29.41.41,0,0,1-.2.19.67.67,0,0,1-.33.07h-.36Z"/><ellipse class="cls-103" cx="478.87" cy="467.36" rx="3.18" ry="1.55" transform="translate(-133.32 737.47) rotate(-68.11)"/><path class="cls-6" d="M477.7,470.13a4.39,4.39,0,0,1-.4-2.76h0a9.59,9.59,0,0,1,.23-1.14c0,.08,0,.16,0,.24a8,8,0,0,0-.13,1.88h0c.08,1,.58,1.15,1.06.93A4.43,4.43,0,0,0,479.9,467a10.83,10.83,0,0,0,.4-1.32,10.82,10.82,0,0,1-.5,2.57,5.78,5.78,0,0,1-.77,1.56C478.51,470.5,478,470.62,477.7,470.13Z"/><ellipse class="cls-104" cx="478.87" cy="467.36" rx="3.18" ry="1.55" transform="translate(-122.23 761.31) rotate(-70.36)"/><ellipse class="cls-105" cx="464.13" cy="467.36" rx="1.61" ry="3.2" transform="translate(-136.84 197.77) rotate(-21.04)"/><path class="cls-6" d="M465.3,470.14a3.77,3.77,0,0,1-2.14-1.51h0a9.3,9.3,0,0,1-.59-.9l.12.19a6.68,6.68,0,0,0,1.17,1.31h0c.71.57,1.21.33,1.42-.15a3.8,3.8,0,0,0-.41-2.54,11,11,0,0,0-.57-1.14,9,9,0,0,1,1.34,2,4.84,4.84,0,0,1,.45,1.56C466.16,469.81,465.87,470.24,465.3,470.14Z"/><ellipse class="cls-106" cx="464.13" cy="467.36" rx="1.61" ry="3.2" transform="translate(-136.84 197.77) rotate(-21.04)"/><path class="cls-3" d="M542.76,454.33a7.17,7.17,0,0,0-4.62.07,9.32,9.32,0,0,0-3.74,2.5,10.8,10.8,0,0,0-2.56,10,9.54,9.54,0,0,0,3.62,5.4,7.91,7.91,0,0,0,6.57,1.25,8.1,8.1,0,0,0,4-2.85,10.66,10.66,0,0,0,2-8.87c-.7-3.08-2.5-6.48-5.28-7.44"/><path class="cls-46" d="M542.92,453.75c-4.23-1.33-8.48,1.24-10.54,4.91a11.22,11.22,0,0,0,.26,11.5c2.19,3.33,6.56,5.26,10.39,3.62,3.67-1.56,5.83-5.72,5.88-9.58s-2.06-9-6-10.43c-.73-.28-1.05.89-.32,1.16,2.93,1.1,4.51,4.73,5,7.62a9.9,9.9,0,0,1-3.75,9.4c-3.06,2.18-7.18,1.19-9.53-1.56a9.85,9.85,0,0,1-1.52-9.78c1.46-3.87,5.57-7,9.81-5.69.74.23,1.06-.94.32-1.17Z"/><ellipse class="cls-107" cx="543.12" cy="475.43" rx="3.01" ry="1.8"/><path class="cls-3" d="M549.65,449.78a3.82,3.82,0,0,0-2.35-.89,7.36,7.36,0,0,0-2.7.37c-2.05.67-3.09,3.14-3.54,4.58l-.06.08v0a6.6,6.6,0,0,1,3.38-1.84c.91-.06,1.82,0,2.74,0a4.09,4.09,0,0,0,2.45-.64A1.11,1.11,0,0,0,549.65,449.78Z"/><path class="cls-46" d="M550.07,449.35a4.57,4.57,0,0,0-3.26-1.07,6.32,6.32,0,0,0-3.47.94,6.46,6.46,0,0,0-1.89,2.17,11,11,0,0,0-.6,1.25,6.75,6.75,0,0,1-.37,1,.6.6,0,0,0,.09.73l0,0a.62.62,0,0,0,.85,0,6.89,6.89,0,0,1,2.48-1.57,14.48,14.48,0,0,1,3.42-.07,4.15,4.15,0,0,0,2.77-.89,1.76,1.76,0,0,0,0-2.49c-.52-.58-1.37.28-.85.86s-.35,1.06-.9,1.19a12,12,0,0,1-3,.08,5.28,5.28,0,0,0-2.63.52,9.89,9.89,0,0,0-2.11,1.51h.84l.09.73a3.18,3.18,0,0,0,.35-.9c.13-.34.28-.67.44-1a6.07,6.07,0,0,1,1.41-1.89,4.58,4.58,0,0,1,2.6-.94,3.72,3.72,0,0,1,2.9.7C549.78,450.75,550.63,449.9,550.07,449.35Z"/><path class="cls-48" d="M549.17,449.26a1.24,1.24,0,0,1-.29.75,3.74,3.74,0,0,1-2.24,1.08c-.87.16-1.76.19-2.62.4a3,3,0,0,0-1.14.59,1.29,1.29,0,0,1,.28.37,3,3,0,0,1,1.09-.4c.87-.12,1.76-.06,2.64-.12a3.77,3.77,0,0,0,2.33-.83A1.29,1.29,0,0,0,549.17,449.26Z"/><path class="cls-48" d="M548.29,461.79c-.69-3.08-2.5-6.48-5.28-7.44l0,0a6.78,6.78,0,0,0-2.57-.34l.53.09a7.15,7.15,0,0,1,4,2.27v0c1.92,2.23,1.76,6.07.81,9.08a10.67,10.67,0,0,1-6.21,6.64,9,9,0,0,1-3.14.64,7.82,7.82,0,0,0,5.82.78,8.05,8.05,0,0,0,4-2.85A10.62,10.62,0,0,0,548.29,461.79Z"/><path class="cls-46" d="M542.92,453.75c-4.23-1.33-8.48,1.24-10.54,4.91a11.22,11.22,0,0,0,.26,11.5c2.19,3.33,6.56,5.26,10.39,3.62,3.67-1.56,5.83-5.72,5.88-9.58s-2.06-9-6-10.43c-.73-.28-1.05.89-.32,1.16,2.93,1.1,4.51,4.73,5,7.62a9.9,9.9,0,0,1-3.75,9.4c-3.06,2.18-7.18,1.19-9.53-1.56a9.85,9.85,0,0,1-1.52-9.78c1.46-3.87,5.57-7,9.81-5.69.74.23,1.06-.94.32-1.17Z"/><rect class="cls-108" x="535.2" y="458.85" width="9.42" height="4.37" rx="0.81"/><path class="cls-48" d="M545.5,475.25a3,3,0,0,0-2-1.75h0a7.3,7.3,0,0,0-1.07-.28l.22.06a5,5,0,0,1,1.61.74h0a1,1,0,0,1,0,1.66,4.36,4.36,0,0,1-2.84.64,8,8,0,0,1-1.34-.15,7.71,7.71,0,0,0,2.42.63,5.05,5.05,0,0,0,1.78-.17C545.25,476.36,545.69,475.85,545.5,475.25Z"/><ellipse class="cls-109" cx="542.99" cy="475.36" rx="3.01" ry="1.8"/><ellipse class="cls-107" cx="536.85" cy="475.43" rx="3.01" ry="1.8"/><path class="cls-48" d="M539.23,475.25a3,3,0,0,0-2-1.75h0a7,7,0,0,0-1.07-.28l.23.06a5.06,5.06,0,0,1,1.6.74h0a1,1,0,0,1,0,1.66,4.36,4.36,0,0,1-2.84.64,7.85,7.85,0,0,1-1.34-.15,7.65,7.65,0,0,0,2.41.63,5,5,0,0,0,1.78-.17C539,476.36,539.41,475.85,539.23,475.25Z"/><ellipse class="cls-109" cx="536.71" cy="475.36" rx="3.01" ry="1.8"/><path class="cls-46" d="M550.07,449.35a4.57,4.57,0,0,0-3.26-1.07,6.32,6.32,0,0,0-3.47.94,6.46,6.46,0,0,0-1.89,2.17,11,11,0,0,0-.6,1.25,6.75,6.75,0,0,1-.37,1,.6.6,0,0,0,.09.73l0,0a.62.62,0,0,0,.85,0,6.89,6.89,0,0,1,2.48-1.57,14.48,14.48,0,0,1,3.42-.07,4.15,4.15,0,0,0,2.77-.89,1.76,1.76,0,0,0,0-2.49c-.52-.58-1.37.28-.85.86s-.35,1.06-.9,1.19a12,12,0,0,1-3,.08,5.28,5.28,0,0,0-2.63.52,9.89,9.89,0,0,0-2.11,1.51h.84l.09.73a3.18,3.18,0,0,0,.35-.9c.13-.34.28-.67.44-1a6.07,6.07,0,0,1,1.41-1.89,4.58,4.58,0,0,1,2.6-.94,3.72,3.72,0,0,1,2.9.7C549.78,450.75,550.63,449.9,550.07,449.35Z"/><circle class="cls-51" cx="538.75" cy="461.26" r="0.39"/><circle class="cls-51" cx="536.42" cy="461.26" r="0.39"/><circle class="cls-51" cx="537.11" cy="460.49" r="0.39"/><circle class="cls-51" cx="538.06" cy="460.49" r="0.39"/><circle class="cls-51" cx="543.41" cy="461.26" r="0.39"/><circle class="cls-51" cx="541.08" cy="461.26" r="0.39"/><circle class="cls-51" cx="541.77" cy="460.49" r="0.39"/><circle class="cls-51" cx="542.72" cy="460.49" r="0.39"/><path class="cls-110" d="M544.5,467.78l1.38,2.9a.41.41,0,0,1-.35.58l-2.5.11a.41.41,0,0,1-.4-.55l1.12-3A.41.41,0,0,1,544.5,467.78Z"/><path class="cls-111" d="M545.44,468.59l-1,.59a.7.7,0,0,1-.7,0l-1-.57a.71.71,0,0,1-.36-.6v-1.16a.71.71,0,0,1,.35-.61l1-.59a.7.7,0,0,1,.7,0l1,.57a.69.69,0,0,1,.36.6V468A.72.72,0,0,1,545.44,468.59Z"/><polygon class="cls-112" points="545.59 467.38 543.83 466.96 542.54 469.87 542.05 470.9 543.26 470.72 543.88 471.23 544.14 470.64 544.14 470.64 545.59 467.38"/><polygon class="cls-112" points="543.05 467.56 544.81 467.13 546.1 470.04 546.59 471.07 545.37 470.89 544.76 471.4 544.5 470.81 544.5 470.82 543.05 467.56"/><path class="cls-112" d="M545.72,468.64l-1.1.64a.74.74,0,0,1-.77,0l-1.11-.62a.8.8,0,0,1-.4-.67v-1.27a.76.76,0,0,1,.38-.67l1.1-.65a.76.76,0,0,1,.77,0l1.11.62a.77.77,0,0,1,.39.67l0,1.27A.79.79,0,0,1,545.72,468.64Z"/><polygon class="cls-113" points="545.15 470.63 545.15 468.46 543.1 468.46 543.1 471.72 545.15 470.63"/><path class="cls-114" d="M545.61,468.62l-1.08.64a.74.74,0,0,1-.76,0l-1.1-.61a.78.78,0,0,1-.38-.66l0-1.25a.76.76,0,0,1,.37-.66l1.08-.64a.74.74,0,0,1,.76,0l1.1.61a.81.81,0,0,1,.39.66V468A.76.76,0,0,1,545.61,468.62Z"/><path class="cls-3" d="M335.59,454.78a7.17,7.17,0,0,0-4.62.06,9.34,9.34,0,0,0-3.74,2.51,10.79,10.79,0,0,0-2.56,10,9.57,9.57,0,0,0,3.62,5.4,7.91,7.91,0,0,0,6.57,1.24,8.08,8.08,0,0,0,4-2.84,10.67,10.67,0,0,0,2-8.88c-.7-3.07-2.5-6.47-5.28-7.44"/><path class="cls-46" d="M335.75,454.19c-4.23-1.33-8.48,1.24-10.54,4.91a11.22,11.22,0,0,0,.26,11.5c2.19,3.34,6.56,5.26,10.39,3.63,3.67-1.57,5.83-5.73,5.89-9.59s-2.06-9-6-10.43c-.73-.27-1,.9-.32,1.17,2.94,1.1,4.51,4.72,5,7.61a9.9,9.9,0,0,1-3.75,9.4c-3.06,2.19-7.18,1.19-9.53-1.55a9.84,9.84,0,0,1-1.51-9.79c1.45-3.87,5.56-7,9.8-5.69.75.23,1.06-.93.32-1.17Z"/><ellipse class="cls-115" cx="335.96" cy="475.87" rx="3.01" ry="1.8"/><path class="cls-48" d="M341.12,462.23c-.69-3.07-2.49-6.47-5.28-7.44h0a6.66,6.66,0,0,0-2.58-.34l.53.08a7.21,7.21,0,0,1,4,2.27v0c1.92,2.23,1.76,6.07.81,9.07a10.57,10.57,0,0,1-6.21,6.64,8.75,8.75,0,0,1-3.13.65,7.74,7.74,0,0,0,5.81.77,8.1,8.1,0,0,0,4-2.84A10.67,10.67,0,0,0,341.12,462.23Z"/><path class="cls-46" d="M335.75,454.19c-4.23-1.33-8.48,1.24-10.54,4.91a11.22,11.22,0,0,0,.26,11.5c2.19,3.34,6.56,5.26,10.39,3.63,3.67-1.57,5.83-5.73,5.89-9.59s-2.06-9-6-10.43c-.73-.27-1,.9-.32,1.17,2.94,1.1,4.51,4.72,5,7.61a9.9,9.9,0,0,1-3.75,9.4c-3.06,2.19-7.18,1.19-9.53-1.55a9.84,9.84,0,0,1-1.51-9.79c1.45-3.87,5.56-7,9.8-5.69.75.23,1.06-.93.32-1.17Z"/><rect class="cls-116" x="328.03" y="459.29" width="9.42" height="4.37" rx="0.81"/><path class="cls-48" d="M338.33,475.69a3,3,0,0,0-1.95-1.74h0a6.21,6.21,0,0,0-1.07-.27l.22.06a5.24,5.24,0,0,1,1.61.73h0a1,1,0,0,1,0,1.65,4.38,4.38,0,0,1-2.85.65,11,11,0,0,1-1.34-.15,7.77,7.77,0,0,0,2.42.62,5,5,0,0,0,1.78-.16C338.09,476.81,338.52,476.29,338.33,475.69Z"/><ellipse class="cls-117" cx="335.82" cy="475.81" rx="3.01" ry="1.8"/><ellipse class="cls-115" cx="329.74" cy="475.87" rx="3.01" ry="1.8"/><path class="cls-48" d="M332.12,475.69a3,3,0,0,0-2-1.74h0a6,6,0,0,0-1.07-.27l.23.06a5.17,5.17,0,0,1,1.6.73h0a1,1,0,0,1,0,1.65,4.35,4.35,0,0,1-2.84.65,10.57,10.57,0,0,1-1.34-.15,7.64,7.64,0,0,0,2.41.62,5.11,5.11,0,0,0,1.79-.16C331.87,476.81,332.3,476.29,332.12,475.69Z"/><ellipse class="cls-117" cx="329.6" cy="475.81" rx="3.01" ry="1.8"/><circle class="cls-51" cx="331.58" cy="461.71" r="0.39"/><circle class="cls-51" cx="329.25" cy="461.71" r="0.39"/><circle class="cls-51" cx="329.94" cy="460.93" r="0.39"/><circle class="cls-51" cx="330.89" cy="460.93" r="0.39"/><circle class="cls-51" cx="336.24" cy="461.71" r="0.39"/><circle class="cls-51" cx="333.91" cy="461.71" r="0.39"/><circle class="cls-51" cx="334.6" cy="460.93" r="0.39"/><circle class="cls-51" cx="335.55" cy="460.93" r="0.39"/><path class="cls-118" d="M320.24,454.1l0,2.34c0,1.26.07,2.81.07,3.19.06,1.85,0,2.48.07,4.34"/><path class="cls-119" d="M342.16,454.81a162.9,162.9,0,0,0-18.68,4,43.45,43.45,0,0,0-3.3-4.72A37.11,37.11,0,0,1,339,449.84C340.42,451.88,340.75,453.2,342.16,454.81Z"/><path class="cls-120" d="M342.46,455.08a173,173,0,0,0-19,3.78,34.66,34.66,0,0,0-3-4.48A36.69,36.69,0,0,1,339.1,450,35,35,0,0,0,342.46,455.08Z"/><path class="cls-120" d="M339.82,457.9a23,23,0,0,0-14.91,1.7l-.16-4.48c4.43-1.67,8.34-2.85,13.12-2.35Z"/><path class="cls-119" d="M337.84,452.76c-4.77-.49-8.67.69-13.09,2.36l.16,4.48h0C329.23,456.65,332.77,453.8,337.84,452.76Z"/><path class="cls-119" d="M339.36,457.8l.46.1"/><path class="cls-121" d="M320.55,464.37c.05-.07.08.25.05,1.1a5.5,5.5,0,0,0,.19,1.33h0"/><path class="cls-121" d="M320.6,464.26a5.5,5.5,0,0,0,.21,1.11c.19.56.36,1.21.39,1.33h0"/><path class="cls-121" d="M320.55,464.31a4.45,4.45,0,0,1,.24,1.06c0,.57,0,1.25,0,1.37h0"/><path class="cls-121" d="M320.43,464.38a6.85,6.85,0,0,0,.05,1.1,13,13,0,0,1,.2,1.33h0"/><path class="cls-121" d="M320.34,464.29c.07-.05,0,.28-.24,1.13a6.9,6.9,0,0,0-.15,1.41h0"/><path class="cls-121" d="M320.16,464.28a6.34,6.34,0,0,0-.05,1.19c.06.62.07,1.33.07,1.45h0"/><path class="cls-121" d="M320.06,464.23a4.09,4.09,0,0,1,0,1.14,11.92,11.92,0,0,1-.28,1.41h0"/><path class="cls-121" d="M320.39,464.35c.06-.06.06.26-.05,1.1a6,6,0,0,0,.08,1.35h0"/><path class="cls-121" d="M320.64,464.28a5.7,5.7,0,0,0-.05,1.13c.06.59.07,1.27.07,1.39h0"/><path class="cls-121" d="M320.39,464.35a3.56,3.56,0,0,1,.15,1.07c0,.58-.12,1.25-.12,1.37h0"/><path class="cls-121" d="M320.28,464.35a6.11,6.11,0,0,0,0,1.1,10.09,10.09,0,0,1,.07,1.35h0"/><path class="cls-121" d="M320.22,464.27a7.87,7.87,0,0,0-.23,1.13,12.37,12.37,0,0,1-.15,1.41h0"/><path class="cls-121" d="M320.39,464.47c.06-.06.06.26-.05,1.1a6,6,0,0,0,.08,1.35h0"/><path class="cls-121" d="M320.64,464.28a5.7,5.7,0,0,0-.05,1.13c.06.59.07,1.27.07,1.39h0"/><path class="cls-121" d="M320.39,464.35a3.56,3.56,0,0,1,.15,1.07c0,.58-.12,1.25-.12,1.37h0"/><path class="cls-121" d="M320.28,464.35a6.11,6.11,0,0,0,0,1.1,10.09,10.09,0,0,1,.07,1.35h0"/><path class="cls-121" d="M320.43,464.38c.05-.07.08.25.05,1.1a5.5,5.5,0,0,0,.19,1.33h0"/><path class="cls-121" d="M320.67,464.29a4.85,4.85,0,0,0,.05,1.13c.11.58.18,1.25.2,1.37h0"/><path class="cls-121" d="M320.43,464.38a4.45,4.45,0,0,1,.24,1.05c.05.57,0,1.26,0,1.38h0"/><path class="cls-121" d="M320.64,464.47a6.11,6.11,0,0,0-.05,1.1,10.09,10.09,0,0,1,.07,1.35h0"/><path class="cls-121" d="M320.22,464.27c.07,0,0,.28-.23,1.13a6.44,6.44,0,0,0-.16,1.41h0"/><path class="cls-121" d="M320,464.28a6.34,6.34,0,0,0-.05,1.19c.06.62.07,1.33.07,1.45h0"/><path class="cls-121" d="M320.22,464.27a4.7,4.7,0,0,1,0,1.14c-.09.59-.33,1.27-.35,1.4h0"/><path class="cls-121" d="M320,464.24a4,4,0,0,1-.08,1.13c-.12.59-.38,1.26-.41,1.39h0"/><path class="cls-121" d="M320.27,464.35c.06-.06.06.26,0,1.1a6,6,0,0,0,.08,1.35h0"/><path class="cls-121" d="M320.52,464.28a5.7,5.7,0,0,0,0,1.13c.06.59.07,1.27.07,1.39h0"/><path class="cls-121" d="M320.27,464.35a3.56,3.56,0,0,1,.15,1.07c0,.58-.12,1.25-.12,1.37h0"/><path class="cls-121" d="M320.16,464.35a6.11,6.11,0,0,0-.05,1.1,10.09,10.09,0,0,1,.07,1.35h0"/><path class="cls-121" d="M320.11,464.25a6.38,6.38,0,0,0-.24,1.14,12.1,12.1,0,0,1-.15,1.4h0"/><path class="cls-121" d="M320.27,464.35c.06-.06.06.26,0,1.1a6,6,0,0,0,.08,1.35h0"/><path class="cls-121" d="M320.34,464.33a6.73,6.73,0,0,0,.11,1.13,12.08,12.08,0,0,1,.27,1.36h0"/><path class="cls-121" d="M320.27,464.35a3.56,3.56,0,0,1,.15,1.07c0,.58-.12,1.25-.12,1.37h0"/><path class="cls-121" d="M320.16,464.35a6.11,6.11,0,0,0-.05,1.1,10.09,10.09,0,0,1,.07,1.35h0"/><path class="cls-51" d="M320.73,464.57a.91.91,0,0,1-.79,0v-.85a.91.91,0,0,1,.79,0Z"/><path class="cls-122" d="M320.73,464.57a.91.91,0,0,1-.79,0v-.85a.91.91,0,0,1,.79,0Z"/><path class="cls-51" d="M320,464.58h0v-.86a.91.91,0,0,1,.79,0l0,.42A.53.53,0,0,1,320,464.58Z"/><rect class="cls-123" x="319.94" y="464.01" width="0.79"/><rect class="cls-123" x="319.94" y="464.27" width="0.79"/></g><g id="Layer_5" data-name="Layer 5"><path class="cls-124" d="M218.19,418.54a1.24,1.24,0,0,1-1.63.66l-22.06-8.86c-17.14-7.33-8.14-29.62,9-22.31,6.6-16.41,29.83-7.08,23.24,9.34Z"/><path class="cls-125" d="M191.53,394.59c-2.21,4.14-.56,8.4-1.08,8.65s-4.31-5.05-1.69-10,9.11-4.93,9.21-4.27S193.71,390.5,191.53,394.59Z"/><path class="cls-124" d="M467.61,347.82a1.24,1.24,0,0,1-1.7-.43L453.4,327.18c-9.47-16.06,11-28.69,20.43-12.66,15-9.31,28.22,12,13.19,21.29Z"/><path class="cls-125" d="M460.34,312.73c-4.23,2-5.43,6.43-6,6.33s-.48-6.62,4.57-9.07,10.26,1.44,9.95,2S464.52,310.73,460.34,312.73Z"/><path class="cls-126" d="M230,422.2a.82.82,0,0,1-1.13.17l-12.67-8.77c-9.77-7.08-.74-19.68,9-12.6,6.63-9.28,20,0,13.34,9.23Z"/><path class="cls-125" d="M216.69,403.34c-2,2.26-1.61,5.16-2,5.24s-2-3.78.41-6.5,6.52-1.73,6.48-1.31S218.68,401.11,216.69,403.34Z"/><path class="cls-3" d="M467,400.6h2.39v13.23H467Zm.87,0h7.45V403h-7.45Zm0,5.58h6.49v2.4h-6.49Z"/><path class="cls-3" d="M477.36,404.39h2.56v9.44h-2.56Zm4.66,2.35a1.72,1.72,0,0,0-.58-.09,1.35,1.35,0,0,0-1.12.49,2,2,0,0,0-.4,1.35l-.18-2.46a3.33,3.33,0,0,1,1-1.31,2.11,2.11,0,0,1,1.31-.47,2.63,2.63,0,0,1,1,.19,2.06,2.06,0,0,1,.79.55l-1.39,2A1,1,0,0,0,482,406.74Z"/><path class="cls-3" d="M486.9,413.49a3.13,3.13,0,0,1-1.33-1.41,4.91,4.91,0,0,1-.46-2.22v-1.54a4.8,4.8,0,0,1,.46-2.2,3.14,3.14,0,0,1,1.33-1.39,4.9,4.9,0,0,1,4.23,0,3.19,3.19,0,0,1,1.33,1.39,4.93,4.93,0,0,1,.46,2.2v1.56a5,5,0,0,1-.46,2.21,3.22,3.22,0,0,1-1.33,1.4,4.9,4.9,0,0,1-4.23,0Zm3.23-2.37a1.75,1.75,0,0,0,.4-1.24v-1.56a1.74,1.74,0,0,0-.4-1.23,1.46,1.46,0,0,0-1.13-.44,1.45,1.45,0,0,0-1.11.44,1.78,1.78,0,0,0-.39,1.23v1.56a1.79,1.79,0,0,0,.39,1.24,1.39,1.39,0,0,0,1.11.45A1.43,1.43,0,0,0,490.13,411.12Z"/><path class="cls-3" d="M495.67,404.39h2.38v9.44h-2.38Zm5.27,4a1.85,1.85,0,0,0-.4-1.28,1.38,1.38,0,0,0-1.1-.45,1.36,1.36,0,0,0-1,.39,1.54,1.54,0,0,0-.36,1.09l-.18-2.1a3.5,3.5,0,0,1,1-1.33,2.28,2.28,0,0,1,1.41-.45,2.82,2.82,0,0,1,1.65.48,3,3,0,0,1,1,1.41,6.4,6.4,0,0,1,.35,2.23v5.46h-2.38Zm5.27,0a2,2,0,0,0-.38-1.28,1.33,1.33,0,0,0-1.08-.45,1.35,1.35,0,0,0-1.06.43,1.88,1.88,0,0,0-.37,1.23l-.44-2.19a3.36,3.36,0,0,1,1.11-1.38,2.53,2.53,0,0,1,1.52-.49,2.86,2.86,0,0,1,1.67.48,3,3,0,0,1,1.05,1.41,6.17,6.17,0,0,1,.36,2.23v5.46h-2.38Z"/><path class="cls-3" d="M511.12,404.48h2.39V407h-2.39Zm0,6.86h2.39v2.49h-2.39Z"/><path class="cls-3" d="M470.61,422.63h1.52L477,435.86H474.4l-3-9-3,9h-2.57Zm-2.51,8.7h6.66v2.41H468.1Z"/><path class="cls-3" d="M480.62,435.8a6.75,6.75,0,0,1-1.62-.56,6.18,6.18,0,0,1-1.37-.88l1.11-2.06a5.33,5.33,0,0,0,1.69,1,5.75,5.75,0,0,0,2,.34,3.42,3.42,0,0,0,1.81-.41,1.32,1.32,0,0,0,.64-1.17h0a1.2,1.2,0,0,0-.28-.84,1.68,1.68,0,0,0-.75-.45,8.61,8.61,0,0,0-1.19-.27h-.09l-.2,0a11.19,11.19,0,0,1-2.1-.53,3.08,3.08,0,0,1-1.42-1.1,3.68,3.68,0,0,1-.59-2.23h0a4.19,4.19,0,0,1,.55-2.19,3.52,3.52,0,0,1,1.6-1.39,6,6,0,0,1,2.52-.48,6.05,6.05,0,0,1,1.39.16,7.15,7.15,0,0,1,1.39.48,7.54,7.54,0,0,1,1.29.74L486,426a6.27,6.27,0,0,0-1.53-.81,4.33,4.33,0,0,0-1.53-.3,3.22,3.22,0,0,0-1.7.38,1.19,1.19,0,0,0-.6,1.06h0a1.29,1.29,0,0,0,.32.91,1.74,1.74,0,0,0,.77.48,9.58,9.58,0,0,0,1.3.33h.07l.07,0,.1,0,.1,0a11.07,11.07,0,0,1,2,.6,3.15,3.15,0,0,1,1.34,1.13,3.68,3.68,0,0,1,.54,2.12v0a4,4,0,0,1-.56,2.17,3.56,3.56,0,0,1-1.65,1.37,6.47,6.47,0,0,1-2.61.48A8.09,8.09,0,0,1,480.62,435.8Z"/><path class="cls-3" d="M489.8,422.62h2.39v13.24H489.8Zm.95,5.51h4.41a1.1,1.1,0,0,0,.64-.19,1.2,1.2,0,0,0,.43-.55,2,2,0,0,0,.16-.81,2.07,2.07,0,0,0-.15-.82,1.2,1.2,0,0,0-.43-.55,1.11,1.11,0,0,0-.65-.19h-4.41v-2.4h4.6a3.42,3.42,0,0,1,1.84.49,3.31,3.31,0,0,1,1.22,1.39,4.68,4.68,0,0,1,.44,2.08,4.75,4.75,0,0,1-.44,2.08,3.24,3.24,0,0,1-1.23,1.38,3.39,3.39,0,0,1-1.83.49h-4.6Zm2.66,2,2.56-.41,3.41,6.15h-2.89Z"/><path class="cls-3" d="M503.12,435.5a3.32,3.32,0,0,1-1.42-1.45,5,5,0,0,1-.49-2.29V430.7a5.64,5.64,0,0,1,.47-2.4,3.39,3.39,0,0,1,1.36-1.51,4.29,4.29,0,0,1,2.16-.51,3.37,3.37,0,0,1,2,.61,3.87,3.87,0,0,1,1.28,1.8,8.29,8.29,0,0,1,.44,2.85v.61h-6.18v-1.68h4l0-.22a2.27,2.27,0,0,0-.5-1.26,1.32,1.32,0,0,0-1.05-.45,1.69,1.69,0,0,0-1.34.54,2.2,2.2,0,0,0-.48,1.52v1.2a2.06,2.06,0,0,0,.52,1.49,2,2,0,0,0,1.45.53,2.62,2.62,0,0,0,.95-.18,2.85,2.85,0,0,0,.86-.5l1.56,1.44a5.24,5.24,0,0,1-1.59,1.05,4.86,4.86,0,0,1-4-.13Z"/><path class="cls-3" d="M516.41,426.41h2.38l-3.4,9.45H513.7l-3.39-9.45h2.37l1.87,5.93Z"/><path class="cls-3" d="M520.63,422.63H523v2.49h-2.38Zm0,3.78H523v9.45h-2.38Z"/><path class="cls-3" d="M527.45,435.5a3.32,3.32,0,0,1-1.42-1.45,5,5,0,0,1-.49-2.29V430.7a5.64,5.64,0,0,1,.47-2.4,3.33,3.33,0,0,1,1.36-1.51,4.25,4.25,0,0,1,2.15-.51,3.35,3.35,0,0,1,2,.61,3.81,3.81,0,0,1,1.29,1.8,8.29,8.29,0,0,1,.44,2.85v.61h-6.19v-1.68h4l0-.22a2.27,2.27,0,0,0-.5-1.26,1.33,1.33,0,0,0-1.06-.45,1.67,1.67,0,0,0-1.33.54,2.2,2.2,0,0,0-.48,1.52v1.2a2,2,0,0,0,.52,1.49,2,2,0,0,0,1.45.53,2.62,2.62,0,0,0,1-.18,2.8,2.8,0,0,0,.85-.5l1.56,1.44a5.32,5.32,0,0,1-1.58,1.05,4.86,4.86,0,0,1-4-.13Z"/><path class="cls-3" d="M534.81,426.41h2.29l1.6,5.84,1.91-5.84H542l1.91,5.84,1.6-5.84h2.29L545,435.86h-1.78l-1.94-6.16-2,6.16H537.6Z"/></g><rect class="cls-127" x="250.51" y="361.56" width="164.35" height="5.25"/><path class="cls-3" d="M248.87,336.13h17.18v4.25H248.87Zm6.38,1.91h4.42v21.52h-4.42Z"/><path class="cls-3" d="M268.71,336.13h4.42v23.43h-4.42Zm9.67,13.29a2.51,2.51,0,0,0-.7-1.9,2.76,2.76,0,0,0-2-.68,2.49,2.49,0,0,0-1.89.69,2.61,2.61,0,0,0-.67,1.92l-.34-3.7a6.41,6.41,0,0,1,1.81-2.37,4.3,4.3,0,0,1,2.65-.79,5,5,0,0,1,4.1,1.78,7.84,7.84,0,0,1,1.45,5v10.15h-4.42Z"/><path class="cls-3" d="M288.73,358.52a5.17,5.17,0,0,1-1.33-3.89,4.56,4.56,0,0,1,1.49-3.73,6.89,6.89,0,0,1,4.47-1.24h4.19l.22,3.37h-4.39a2.34,2.34,0,0,0-1.5.4,1.41,1.41,0,0,0-.5,1.2,1.33,1.33,0,0,0,.63,1.21,3.54,3.54,0,0,0,1.9.4,6.45,6.45,0,0,0,2.63-.41,1.3,1.3,0,0,0,.86-1.25l.34,2.43a2.26,2.26,0,0,1-.83,1.53,4.81,4.81,0,0,1-1.83.94,8.51,8.51,0,0,1-2.33.32A5.59,5.59,0,0,1,288.73,358.52ZM297.4,349a2.13,2.13,0,0,0-.77-1.78,3.4,3.4,0,0,0-2.19-.63,5.92,5.92,0,0,0-1.85.3,5.39,5.39,0,0,0-1.63.86L288.22,345a6.53,6.53,0,0,1,2.64-1.78,9.9,9.9,0,0,1,3.64-.64,8.66,8.66,0,0,1,3.74.73,5.27,5.27,0,0,1,2.36,2.13,6.58,6.58,0,0,1,.82,3.36v10.75h-4Z"/><path class="cls-3" d="M306.82,342.83h4.42v16.73h-4.42Zm9.67,6.59a2.51,2.51,0,0,0-.7-1.9,2.76,2.76,0,0,0-2-.68,2.49,2.49,0,0,0-1.89.69,2.61,2.61,0,0,0-.67,1.92l-.34-3.7a6.3,6.3,0,0,1,1.81-2.37,4.3,4.3,0,0,1,2.65-.79,5,5,0,0,1,4.1,1.78,7.84,7.84,0,0,1,1.45,5v10.15h-4.42Z"/><path class="cls-3" d="M326.31,336.13h4.42v23.43h-4.42Zm2.07,17.4,7.79-10.7h4.68L329,358.4Zm4-2.61,3.64-2.19,5.69,10.83h-5.11Z"/><path class="cls-3" d="M353,342.83h4.16l5.63,14.54L360,360.93Zm15.46,0L361,363.47a5.34,5.34,0,0,1-1,1.82,3.46,3.46,0,0,1-1.53.95,7.21,7.21,0,0,1-2.24.29h-1v-4.28h1a2.1,2.1,0,0,0,1.18-.32,1.89,1.89,0,0,0,.72-1l6.2-18.08Z"/><path class="cls-3" d="M374.24,358.94a5.69,5.69,0,0,1-2.47-2.48,8.58,8.58,0,0,1-.85-3.94v-2.73a8.37,8.37,0,0,1,.85-3.89,5.65,5.65,0,0,1,2.47-2.46,9.4,9.4,0,0,1,7.81,0,5.62,5.62,0,0,1,2.46,2.46,8.24,8.24,0,0,1,.85,3.89v2.77a8.27,8.27,0,0,1-.85,3.91,5.65,5.65,0,0,1-2.46,2.47,9.3,9.3,0,0,1-7.81,0Zm6-4.18a3,3,0,0,0,.75-2.2v-2.77a3,3,0,0,0-.75-2.17,3.12,3.12,0,0,0-4.13,0,3,3,0,0,0-.73,2.17v2.77a3.12,3.12,0,0,0,.72,2.2,3.14,3.14,0,0,0,4.14,0Z"/><path class="cls-3" d="M394.46,353a2.55,2.55,0,0,0,.68,1.88,2.67,2.67,0,0,0,1.93.66,2.54,2.54,0,0,0,1.91-.68,2.72,2.72,0,0,0,.67-2l.22,3.66a5.2,5.2,0,0,1-1.55,2.3,3.91,3.91,0,0,1-2.65.94,5.16,5.16,0,0,1-4.16-1.73,7.38,7.38,0,0,1-1.47-4.91V342.83h4.42Zm5.19-10.17H404v16.73h-4.39Z"/><path class="cls-3" d="M409.45,336.13h4.42v16.45h-4.42Zm0,19h4.42v4.42h-4.42Z"/></g></svg>