<svg id="laag_1_zet_je_ontwerp_hier_in_" data-name="laag 1 zet je ontwerp hier in!" xmlns="http://www.w3.org/2000/svg" viewBox="0 0 666.14 637.8"><defs><style>.cls-1{fill:#bfe6ef;}.cls-15,.cls-17,.cls-2,.cls-3,.cls-6{fill:#fff;}.cls-2{stroke:#6d6e71;}.cls-15,.cls-16,.cls-17,.cls-18,.cls-2,.cls-6,.cls-7,.cls-8{stroke-miterlimit:10;}.cls-4{fill:#4f4e4e;}.cls-5{fill:#cccbca;}.cls-15,.cls-16,.cls-17,.cls-18,.cls-6,.cls-7{stroke:#4f4e4e;}.cls-6,.cls-7{stroke-width:5.04px;}.cls-16,.cls-18,.cls-7{fill:none;}.cls-8{fill:#010101;stroke:#010101;stroke-width:2.02px;}.cls-9{fill:#ffcc04;}.cls-10{fill:#fedc00;}.cls-11{fill:#fdeb07;}.cls-12{fill:#f19220;}.cls-13{fill:#e96924;}.cls-14{fill:#1d1d1b;}.cls-15,.cls-16{stroke-width:4.8px;}.cls-17,.cls-18{stroke-width:4.91px;}.cls-19{fill:#e96261;}.cls-20{fill:#fdd2b7;}.cls-21{fill:#ee8a80;}.cls-22{fill:#ffcb05;}</style></defs><g id="Laag_4" data-name="Laag 4"><g id="Laag_5" data-name="Laag 5"><rect class="cls-1" x="115.08" y="276.75" width="435.98" height="210.8"/></g><g id="Layer_5" data-name="Layer 5"><polygon class="cls-2" points="172.88 425.96 178.73 425.96 178.73 423.25 172.88 423.25 172.88 419.67 179.86 419.67 179.86 416.96 172.88 416.96 171.09 416.96 170.07 416.96 170.07 431.87 172.88 431.87 172.88 425.96"/><path class="cls-2" d="M185.39,425.85a2.3,2.3,0,0,1,.47-1.52,1.65,1.65,0,0,1,1.32-.55,2.39,2.39,0,0,1,.69.1,1.51,1.51,0,0,1,.5.31l1.64-2.28a2.57,2.57,0,0,0-.94-.62,3.29,3.29,0,0,0-1.2-.21,2.54,2.54,0,0,0-1.55.52,3.76,3.76,0,0,0-.93,1.13v-1.5h-3v10.64h3Z"/><path class="cls-2" d="M200.26,429.91a5.45,5.45,0,0,0,.53-2.49v-1.76a5.44,5.44,0,0,0-.53-2.48,3.72,3.72,0,0,0-1.57-1.57,6.11,6.11,0,0,0-5,0,3.72,3.72,0,0,0-1.57,1.57,5.44,5.44,0,0,0-.53,2.48v1.73a5.51,5.51,0,0,0,.53,2.51,3.68,3.68,0,0,0,1.57,1.58,5.91,5.91,0,0,0,5,0A3.66,3.66,0,0,0,200.26,429.91ZM198,427.42a1.93,1.93,0,0,1-.47,1.4,1.73,1.73,0,0,1-1.32.5,1.7,1.7,0,0,1-1.31-.5,2,2,0,0,1-.46-1.4v-1.76a1.9,1.9,0,0,1,.46-1.38,2,2,0,0,1,2.63,0,1.86,1.86,0,0,1,.47,1.38Z"/><path class="cls-2" d="M213.15,431.87v-6.15s0-.07,0-.11v0a2,2,0,0,1,.43-1.38,1.84,1.84,0,0,1,2.52,0,2.16,2.16,0,0,1,.44,1.44v6.14h2.81v-6.15a6.73,6.73,0,0,0-.42-2.51,3.41,3.41,0,0,0-1.24-1.59,3.5,3.5,0,0,0-2-.54,3.14,3.14,0,0,0-1.79.54,4,4,0,0,0-1.26,1.48,3.24,3.24,0,0,0-1.17-1.48,3.39,3.39,0,0,0-1.93-.54,2.75,2.75,0,0,0-1.66.51,3.74,3.74,0,0,0-1,1.1v-1.46h-2.81v10.64h2.81v-6.43a1.69,1.69,0,0,1,.43-1.22,1.59,1.59,0,0,1,1.2-.44,1.69,1.69,0,0,1,1.31.51,2.11,2.11,0,0,1,.46,1.44v6.14Z"/><rect class="cls-2" x="222.44" y="429.06" width="2.81" height="2.81"/><rect class="cls-2" x="222.44" y="421.33" width="2.81" height="2.81"/><path class="cls-2" d="M174.33,442.16l-5.7,14.91h3l.83-2.39H178l.83,2.39h3l-5.7-14.91Zm-.89,9.82,1.79-5.09L177,452Z"/><path class="cls-2" d="M191.77,449a12.48,12.48,0,0,0-2.37-.67l-.11,0-.12,0-.08,0-.09,0a14,14,0,0,1-1.52-.36,2.24,2.24,0,0,1-.92-.55,1.42,1.42,0,0,1-.37-1h0a1.34,1.34,0,0,1,.71-1.2,3.94,3.94,0,0,1,2-.42,5.61,5.61,0,0,1,1.8.32,7.33,7.33,0,0,1,1.8.93l1.19-2.38a8.65,8.65,0,0,0-1.52-.84,9.73,9.73,0,0,0-1.63-.54,7.84,7.84,0,0,0-1.64-.18,7.36,7.36,0,0,0-3,.54,4.11,4.11,0,0,0-1.88,1.56,4.57,4.57,0,0,0-.64,2.47h0a4,4,0,0,0,.68,2.52,3.66,3.66,0,0,0,1.67,1.24,13.88,13.88,0,0,0,2.49.59l.22,0h.11a10.64,10.64,0,0,1,1.4.3,2.07,2.07,0,0,1,.88.51,1.3,1.3,0,0,1,.34.95h0a1.46,1.46,0,0,1-.76,1.31,4.1,4.1,0,0,1-2.13.47,7.28,7.28,0,0,1-2.32-.38,6.21,6.21,0,0,1-2-1.1l-1.3,2.32a7.34,7.34,0,0,0,1.6,1,8.64,8.64,0,0,0,1.92.63,9.69,9.69,0,0,0,2.09.22,7.88,7.88,0,0,0,3.07-.54,4.13,4.13,0,0,0,1.94-1.54,4.31,4.31,0,0,0,.67-2.44v0a4,4,0,0,0-.64-2.39A3.67,3.67,0,0,0,191.77,449Z"/><path class="cls-2" d="M205.81,450.52a3.71,3.71,0,0,0,1.45-1.56,5.55,5.55,0,0,0,0-4.69,3.75,3.75,0,0,0-1.44-1.56,4.15,4.15,0,0,0-2.17-.56h-6.53v14.92h2.81v-6h1.71l3.36,6h3.4l-3.56-6.14A4.16,4.16,0,0,0,205.81,450.52Zm-5.88-5.66h3.5a1.36,1.36,0,0,1,1.28.83,2.25,2.25,0,0,1,.18.92,2.65,2.65,0,0,1-.19.93,1.4,1.4,0,0,1-.51.61,1.31,1.31,0,0,1-.76.22h-3.5Z"/><path class="cls-2" d="M217.74,447a4.08,4.08,0,0,0-2.39-.69,5.15,5.15,0,0,0-2.54.58,3.87,3.87,0,0,0-1.6,1.7,6.19,6.19,0,0,0-.54,2.7v1.2a5.46,5.46,0,0,0,.57,2.58,3.81,3.81,0,0,0,1.67,1.63,5.71,5.71,0,0,0,2.63.56,5.53,5.53,0,0,0,2.09-.42,6,6,0,0,0,1.86-1.17L217.66,454a3.71,3.71,0,0,1-1,.57,3.29,3.29,0,0,1-1.11.2,2.34,2.34,0,0,1-1.71-.6,2,2,0,0,1-.58-1.28h6.52v-.7a8.69,8.69,0,0,0-.52-3.2A4.29,4.29,0,0,0,217.74,447Zm-4.51,4a2.35,2.35,0,0,1,.55-1.57,2,2,0,0,1,1.57-.6,1.64,1.64,0,0,1,1.25.5,2.54,2.54,0,0,1,.58,1.43l0,.24Z"/><polygon class="cls-2" points="226.47 453.1 224.27 446.43 221.47 446.43 225.47 457.07 227.46 457.07 231.46 446.43 228.66 446.43 226.47 453.1"/><rect class="cls-2" x="233.72" y="442.16" width="2.81" height="2.81"/><rect class="cls-2" x="233.72" y="446.43" width="2.81" height="10.64"/><path class="cls-2" d="M246.69,447a4.08,4.08,0,0,0-2.39-.69,5.15,5.15,0,0,0-2.54.58,3.8,3.8,0,0,0-1.59,1.7,6,6,0,0,0-.55,2.7v1.2a5.46,5.46,0,0,0,.57,2.58,3.81,3.81,0,0,0,1.67,1.63,5.71,5.71,0,0,0,2.63.56,5.53,5.53,0,0,0,2.09-.42,6,6,0,0,0,1.86-1.17L246.61,454a3.71,3.71,0,0,1-1,.57,3.29,3.29,0,0,1-1.11.2,2.34,2.34,0,0,1-1.71-.6,2,2,0,0,1-.58-1.28h6.52v-.7a8.69,8.69,0,0,0-.52-3.2A4.29,4.29,0,0,0,246.69,447Zm-4.51,4a2.35,2.35,0,0,1,.55-1.57,2,2,0,0,1,1.57-.6,1.64,1.64,0,0,1,1.25.5,2.54,2.54,0,0,1,.58,1.43l0,.24Z"/><polygon class="cls-2" points="261.36 453 259.12 446.43 257.46 446.43 255.21 453 253.32 446.43 250.63 446.43 253.91 457.07 256 457.07 258.29 450.13 260.57 457.07 262.67 457.07 265.95 446.43 263.25 446.43 261.36 453"/><rect class="cls-2" x="266.88" y="454.26" width="2.81" height="2.81"/><path class="cls-2" d="M279.26,446.74a5.55,5.55,0,0,0-2.38-.46,6.38,6.38,0,0,0-2.32.4,4.33,4.33,0,0,0-1.68,1.13l1.75,1.72a3.28,3.28,0,0,1,1-.55,3.69,3.69,0,0,1,1.18-.19,2.16,2.16,0,0,1,1.4.4,1.39,1.39,0,0,1,.49,1.14v.45h-2.58a4.33,4.33,0,0,0-2.84.79,2.9,2.9,0,0,0-.95,2.37,3.26,3.26,0,0,0,.85,2.47,3.51,3.51,0,0,0,2.55.82,5.58,5.58,0,0,0,1.49-.2,3.4,3.4,0,0,0,1.17-.6,2.15,2.15,0,0,0,.31-.38v1h2.55v-6.84a4.1,4.1,0,0,0-.52-2.13A3.26,3.26,0,0,0,279.26,446.74Zm-1.08,8a4,4,0,0,1-1.68.26,2.3,2.3,0,0,1-1.21-.25.87.87,0,0,1-.4-.77.93.93,0,0,1,.32-.77,1.5,1.5,0,0,1,1-.25h2.57v1A.84.84,0,0,1,278.18,454.7Z"/><rect class="cls-2" x="284.67" y="446.43" width="2.81" height="10.64"/><rect class="cls-2" x="284.67" y="442.16" width="2.81" height="2.81"/><path class="cls-3" d="M424.34,342.56a35.87,35.87,0,0,0-23.09.31,46.57,46.57,0,0,0-18.7,12.53,53.93,53.93,0,0,0-12.8,49.81,47.59,47.59,0,0,0,18.1,27c9.29,6.58,21.87,9.41,32.83,6.23,8.2-2.38,15-7.85,20-14.25a53.16,53.16,0,0,0,10.14-44.36c-3.47-15.38-12.48-32.38-26.39-37.19"/><path class="cls-4" d="M425.14,339.64c-21.12-7.13-42.89,6.66-52.93,24.94-9.5,17.3-9.62,39.2.87,56.11a47,47,0,0,0,22.78,19.17c9.34,3.64,20.1,4,29.42.13,18.86-7.88,30-29.28,29.83-49.1-.07-9.69-2.84-19.29-7-28-3.82-8-9.37-15.74-17.06-20.44a31.5,31.5,0,0,0-5.85-2.74,3,3,0,0,0-1.61,5.83,27,27,0,0,1,9.07,5.72,41.93,41.93,0,0,1,7.41,9.41,65.07,65.07,0,0,1,8.49,23.55c2.56,17.25-4.75,36.78-19.38,46.78a32.26,32.26,0,0,1-25,5,39.63,39.63,0,0,1-22.47-13.56c-11.37-13.56-13.34-32.85-7.08-49,6.5-16.78,23-31.12,41.84-29.51a29.55,29.55,0,0,1,7,1.52,3,3,0,1,0,1.6-5.83Z"/><path class="cls-5" d="M452,379.83c-3.47-15.38-12.48-32.38-26.39-37.19l-.09-.08a33.47,33.47,0,0,0-12.88-1.7c.89.11,1.78.26,2.67.43a35.86,35.86,0,0,1,20.09,11.35l0,.11c9.6,11.15,8.81,30.36,4.08,45.38a53.22,53.22,0,0,1-31.07,33.2,44.56,44.56,0,0,1-15.67,3.23c8.76,4.86,19.54,6.65,29.09,3.88,8.2-2.38,15-7.85,20-14.25A53.19,53.19,0,0,0,452,379.83Z"/><path class="cls-4" d="M425.14,339.64c-21.12-7.13-42.89,6.66-52.93,24.94-9.5,17.3-9.62,39.2.87,56.11a47,47,0,0,0,22.78,19.17c9.34,3.64,20.1,4,29.42.13,18.86-7.88,30-29.28,29.83-49.1-.07-9.69-2.84-19.29-7-28-3.82-8-9.37-15.74-17.06-20.44a31.5,31.5,0,0,0-5.85-2.74,3,3,0,0,0-1.61,5.83,27,27,0,0,1,9.07,5.72,41.93,41.93,0,0,1,7.41,9.41,65.07,65.07,0,0,1,8.49,23.55c2.56,17.25-4.75,36.78-19.38,46.78a32.26,32.26,0,0,1-25,5,39.63,39.63,0,0,1-22.47-13.56c-11.37-13.56-13.34-32.85-7.08-49,6.5-16.78,23-31.12,41.84-29.51a29.55,29.55,0,0,1,7,1.52,3,3,0,1,0,1.6-5.83Z"/><ellipse class="cls-6" cx="426.16" cy="448.04" rx="15.07" ry="8.98"/><path class="cls-5" d="M438.05,447.14c-.92-3-4.11-6.72-9.78-8.74l0,0a34.93,34.93,0,0,0-5.35-1.38l1.11.3a25.77,25.77,0,0,1,8,3.68v0c3.64,2.76,2.64,6.06.12,8.29s-7.8,3.43-14.22,3.21a44.2,44.2,0,0,1-6.69-.75,38.19,38.19,0,0,0,12.08,3.12,25.07,25.07,0,0,0,8.91-.81C436.81,452.7,439,450.12,438.05,447.14Z"/><ellipse class="cls-7" cx="425.48" cy="447.71" rx="15.07" ry="8.98"/><ellipse class="cls-6" cx="395.07" cy="448.04" rx="15.07" ry="8.98"/><path class="cls-5" d="M407,447.14c-.92-3-4.11-6.72-9.79-8.74l0,0A34.93,34.93,0,0,0,391.8,437l1.11.3a25.77,25.77,0,0,1,8,3.68v0c3.63,2.76,2.63,6.06.12,8.29s-7.81,3.43-14.22,3.21a44.2,44.2,0,0,1-6.69-.75,38.19,38.19,0,0,0,12.08,3.12,25,25,0,0,0,8.9-.81C405.73,452.7,407.89,450.12,407,447.14Z"/><ellipse class="cls-7" cx="394.4" cy="447.71" rx="15.07" ry="8.98"/><path class="cls-3" d="M458.77,319.81c-2.5-2.58-7.06-4.13-11.71-4.45a36.12,36.12,0,0,0-13.53,1.86c-10.24,3.33-15.43,15.69-17.68,22.88l-.32.41.08.08c4.25-3.78,10.87-8.81,16.89-9.21,4.54-.3,9.11.24,13.67.18s9.47-.86,12.29-3.19S461.27,322.38,458.77,319.81Z"/><path class="cls-4" d="M460.9,317.67c-3.41-3.39-8.3-4.78-13-5.26a37.21,37.21,0,0,0-15.2,1.89c-7.43,2.47-12.62,8.75-16,15.56-.9,1.8-1.69,3.65-2.41,5.52-.3.76-.57,1.52-.83,2.29a9.59,9.59,0,0,0-.39,1.18c-.12.53.38-.57-.16.14a3,3,0,0,0,.48,3.66l.07.07a3.07,3.07,0,0,0,4.27,0,46.91,46.91,0,0,1,8.6-6.21,18.49,18.49,0,0,1,5-1.92,26.41,26.41,0,0,1,5.83-.26c4.33.1,8.68.52,13,0,3.88-.46,8.22-1.42,11-4.35,3.47-3.62,3-8.77-.28-12.31a3,3,0,0,0-4.27,4.27,3.87,3.87,0,0,1,.45.55c.06.1.39.72.31.52.09.21.24.92.24.89,0-.21-.1.88,0,.42a3.56,3.56,0,0,1-2.09,2.4c-2.67,1.48-6.23,1.78-9.35,1.82-4.15.06-8.3-.39-12.45-.24a23.25,23.25,0,0,0-10.61,3.09,54.61,54.61,0,0,0-9.64,7.06h4.27l-.07-.07.48,3.66a13,13,0,0,0,1.4-3.51c.24-.65.48-1.3.73-1.94.39-1,.28-.74.72-1.72.64-1.43,1.35-2.84,2.13-4.2q.6-1.05,1.26-2.07c.21-.31.42-.63.64-.94l.38-.53c0-.05.42-.56.22-.3a19.78,19.78,0,0,1,7-6,9.5,9.5,0,0,1,1.92-.77c1.14-.36,2.29-.68,3.45-.94a31.76,31.76,0,0,1,6.51-.8c4.15-.07,9.19.72,12.12,3.62C459.4,324.68,463.67,320.41,460.9,317.67Z"/><path class="cls-5" d="M456.81,317.22a6.65,6.65,0,0,1-1.42,3.75c-2.27,2.94-6.73,4.58-11,5.37s-8.59,1-12.78,2a15.56,15.56,0,0,0-5.61,3,7.61,7.61,0,0,1,1.41,1.85,14.78,14.78,0,0,1,5.29-2c4.27-.58,8.61-.26,12.91-.59s8.88-1.47,11.39-4.15A6.54,6.54,0,0,0,456.81,317.22Z"/><path class="cls-4" d="M460.9,317.67c-3.41-3.39-8.3-4.78-13-5.26a37.21,37.21,0,0,0-15.2,1.89c-7.43,2.47-12.62,8.75-16,15.56-.9,1.8-1.69,3.65-2.41,5.52-.3.76-.57,1.52-.83,2.29a9.59,9.59,0,0,0-.39,1.18c-.12.53.38-.57-.16.14a3,3,0,0,0,.48,3.66l.07.07a3.07,3.07,0,0,0,4.27,0,46.91,46.91,0,0,1,8.6-6.21,18.49,18.49,0,0,1,5-1.92,26.41,26.41,0,0,1,5.83-.26c4.33.1,8.68.52,13,0,3.88-.46,8.22-1.42,11-4.35,3.47-3.62,3-8.77-.28-12.31a3,3,0,0,0-4.27,4.27,3.87,3.87,0,0,1,.45.55c.06.1.39.72.31.52.09.21.24.92.24.89,0-.21-.1.88,0,.42a3.56,3.56,0,0,1-2.09,2.4c-2.67,1.48-6.23,1.78-9.35,1.82-4.15.06-8.3-.39-12.45-.24a23.25,23.25,0,0,0-10.61,3.09,54.61,54.61,0,0,0-9.64,7.06h4.27l-.07-.07.48,3.66a13,13,0,0,0,1.4-3.51c.24-.65.48-1.3.73-1.94.39-1,.28-.74.72-1.72.64-1.43,1.35-2.84,2.13-4.2q.6-1.05,1.26-2.07c.21-.31.42-.63.64-.94l.38-.53c0-.05.42-.56.22-.3a19.78,19.78,0,0,1,7-6,9.5,9.5,0,0,1,1.92-.77c1.14-.36,2.29-.68,3.45-.94a31.76,31.76,0,0,1,6.51-.8c4.15-.07,9.19.72,12.12,3.62C459.4,324.68,463.67,320.41,460.9,317.67Z"/><rect class="cls-8" x="386.5" y="365.14" width="47.12" height="21.85" rx="2.35"/><circle class="cls-9" cx="404.24" cy="377.2" r="1.94"/><circle class="cls-9" cx="392.59" cy="377.2" r="1.94"/><circle class="cls-9" cx="396.04" cy="373.32" r="1.94"/><circle class="cls-9" cx="400.79" cy="373.32" r="1.94"/><circle class="cls-9" cx="427.54" cy="377.2" r="1.94"/><circle class="cls-9" cx="415.89" cy="377.2" r="1.94"/><circle class="cls-9" cx="419.34" cy="373.32" r="1.94"/><circle class="cls-9" cx="424.08" cy="373.32" r="1.94"/><path class="cls-10" d="M431.12,418.26a16.3,16.3,0,0,1-6.39,7.61,22.65,22.65,0,0,1-12.26,3.68c-3,.18-16.14.95-20.58-7.06a10.5,10.5,0,0,1-1.27-6.62c1-6.32,8.79-11.57,15.74-11.6,7.77,0,11.38,6.47,17.62,4.29,3.07-1.08,4-3.3,5.68-2.71,2.56.92,3.35,7.44,1.46,12.41"/><path class="cls-11" d="M423,420.8a8.59,8.59,0,0,1-3.34,4,11.91,11.91,0,0,1-6.4,1.92c-1.57.09-8.43.49-10.75-3.69a5.42,5.42,0,0,1-.66-3.45c.53-3.31,4.59-6.05,8.22-6.06,4.05,0,5.94,3.38,9.2,2.24,1.6-.57,2.11-1.73,3-1.42,1.33.48,1.74,3.88.76,6.48"/><path class="cls-10" d="M420.7,422a12.11,12.11,0,0,1-6.49,1.91c-1.44.09-7.25.42-10.1-2.6a6.28,6.28,0,0,0,.31.78c1.95,4.15,7.84,3.68,9.19,3.57a9.24,9.24,0,0,0,5.52-2,9.59,9.59,0,0,0,1.78-1.82Z"/><path class="cls-10" d="M397.46,394.85c-.65.52-.88.55-1.24.83-1.73,1.34-1.46,4.46-1.42,4.92a8.21,8.21,0,0,0,1,3.23c2.49,4.46,9.69,7.06,14.63,4.79a9.07,9.07,0,0,0,2.34-1.59,10.82,10.82,0,0,0,3.19-8.29c-.47-4.87-4.8-9-9-9.12a10.42,10.42,0,0,0-6.22,2.17,20.43,20.43,0,0,0-1.66,1.5,7.77,7.77,0,0,1-1.58,1.56"/><path class="cls-10" d="M397.46,394.85c-.65.52-.88.55-1.24.83-1.73,1.34-1.46,4.46-1.42,4.92a8.21,8.21,0,0,0,1,3.23c2.49,4.46,9.69,7.06,14.63,4.79a9.07,9.07,0,0,0,2.34-1.59,10.82,10.82,0,0,0,3.19-8.29c-.47-4.87-4.8-9-9-9.12a10.42,10.42,0,0,0-6.22,2.17,20.43,20.43,0,0,0-1.66,1.5,7.77,7.77,0,0,1-1.58,1.56"/><path class="cls-12" d="M391.23,398.48a3.65,3.65,0,0,1,2-1.12,5.38,5.38,0,0,1,2.92.33c1.26.39,2.31.72,2.59,1.56.13.41,0,.83-.28,1.68a4.26,4.26,0,0,1-1.17,2.14,2.67,2.67,0,0,1-1.54.76c-1.4.08-1.62-1.51-3.94-2.46-.72-.3-1.19-.34-1.37-.78-.35-.83.67-2,.74-2.11"/><path class="cls-12" d="M390.8,395.7a4.27,4.27,0,0,0,.39,2.41,5.36,5.36,0,0,0,2,2.29c1.19.84,3.76,2.1,4.9,1a1.94,1.94,0,0,0,.49-1.93c-.18-.45-.52-.41-.86-.83-.75-.93.16-2.08-.39-2.91-.72-1.09-2.88.15-4-1.23-.49-.61-.42-1.2-.82-1.28-.61-.12-1.52,1.18-1.73,2.48"/><path class="cls-13" d="M398.12,401.23c-1.14,1.1-3.7-.16-4.9-1a5.36,5.36,0,0,1-2-2.29,4.37,4.37,0,0,1-.42-2,4.41,4.41,0,0,0,.39,2.21,5.22,5.22,0,0,0,2,2.28c1.17.84,3.68,2.1,4.8,1a1.11,1.11,0,0,0,.19-.23Z"/><path class="cls-3" d="M399.19,396.51a1.9,1.9,0,0,0,2,1.05,2.61,2.61,0,0,0,1.93-1.7,1.58,1.58,0,0,0,.14-1.38c-.37-.65-1.53-.59-2.08-.46a2.7,2.7,0,0,0-1.81,1.4,1.5,1.5,0,0,0-.15,1.09"/><path class="cls-14" d="M399.41,396.34a1,1,0,0,0,1,.53,1.32,1.32,0,0,0,1-.85.87.87,0,0,0,.07-.69c-.19-.33-.77-.3-1-.24a1.4,1.4,0,0,0-.91.71.82.82,0,0,0-.08.54"/><path class="cls-13" d="M395.12,396.49a.4.4,0,0,0,.16.42.53.53,0,0,0,.52,0,.35.35,0,0,0,.21-.19c0-.15-.16-.29-.26-.35a.56.56,0,0,0-.46,0,.31.31,0,0,0-.17.14"/><ellipse class="cls-15" cx="438.66" cy="415.16" rx="15.9" ry="7.73" transform="translate(-127.75 205.5) rotate(-23.11)"/><path class="cls-5" d="M424.7,420.8c.63-2.87,3.29-7.25,8.35-11.14l0,0a48.62,48.62,0,0,1,4.81-3.23l-1,.68a39.23,39.23,0,0,0-7.12,6.21v0c-3.15,3.74-2,6.13.48,7s7.4-.14,13.26-2.81a58.42,58.42,0,0,0,6.09-3.23,54.43,54.43,0,0,1-10.86,7.32,28.32,28.32,0,0,1-8.23,2.76C426.23,425,424.07,423.67,424.7,420.8Z"/><ellipse class="cls-16" cx="438.66" cy="415.16" rx="15.9" ry="7.73" transform="translate(-135.55 227.91) rotate(-25.36)"/><ellipse class="cls-17" cx="382.08" cy="413.06" rx="8.04" ry="15.99" transform="translate(-177.06 476.07) rotate(-53.66)"/><path class="cls-5" d="M394.5,421.65c-2.65,1.14-7.5,1.43-13.07-.58h0a38.22,38.22,0,0,1-4.92-2.18l1,.45a32.41,32.41,0,0,0,8.44,2.39h0c4.54.48,6-1.88,5.55-4.48s-3.6-6.16-8.54-9.56a49.47,49.47,0,0,0-5.51-3.27,44.92,44.92,0,0,1,11.1,4.93,23.82,23.82,0,0,1,6.14,5.33C397.23,417.93,397.15,420.52,394.5,421.65Z"/><ellipse class="cls-18" cx="382.08" cy="413.06" rx="8.04" ry="15.99" transform="translate(-177.06 476.07) rotate(-53.66)"/><path class="cls-19" d="M347.71,324.45a.8.8,0,0,1-1.08-.25l-8.21-12.46c-6.23-9.91,6.35-18.1,12.57-8.21,9.25-6,17.9,7.09,8.65,13.13Z"/><path class="cls-20" d="M342.5,302.6c-2.62,1.33-3.28,4.1-3.64,4s-.42-4.13,2.69-5.73,6.46.75,6.27,1.12S345.08,301.29,342.5,302.6Z"/><path class="cls-21" d="M211.08,315.17a.63.63,0,0,1-.79.41l-11.52-3.36c-9-2.83-5.52-14.4,3.43-11.57,2.53-8.52,14.66-5,12.14,3.54Z"/><path class="cls-20" d="M196.52,304.5c-.92,2.17.12,4.22-.13,4.37s-2.41-2.31-1.33-4.92,4.34-2.9,4.42-2.57S197.42,302.35,196.52,304.5Z"/><path class="cls-21" d="M142.88,365.19a.71.71,0,0,1-.94.36l-12.6-5.12c-9.8-4.24-4.56-16.89,5.21-12.66,3.84-9.31,17.12-3.91,13.28,5.4Z"/><path class="cls-20" d="M127.7,351.45c-1.29,2.35-.36,4.78-.65,4.92s-2.45-2.89-.94-5.7,5.24-2.77,5.29-2.39S129,349.14,127.7,351.45Z"/><path class="cls-21" d="M352.14,327a.55.55,0,0,1-.73-.25l-4.76-9.21c-3.58-7.29,5.71-12,9.28-4.75,6.83-3.49,11.85,6.21,5,9.7Z"/><path class="cls-20" d="M350.14,311.57c-1.91.73-2.57,2.6-2.81,2.53s0-2.88,2.28-3.76,4.4,1,4.24,1.23S352,310.86,350.14,311.57Z"/><path class="cls-19" d="M335.15,440.61a.91.91,0,0,1-1.19.46l-16-6.51c-12.44-5.37-5.79-21.43,6.62-16.06,4.87-11.82,21.72-5,16.85,6.86Z"/><path class="cls-20" d="M315.87,423.17c-1.63,3-.45,6.07-.82,6.24s-3.11-3.66-1.19-7.23,6.65-3.51,6.72-3S317.47,420.24,315.87,423.17Z"/><path class="cls-21" d="M498.51,345.36a1.19,1.19,0,0,1-1.54-.73l-8.3-22.28c-6.14-17.63,15.5-26.65,21.63-9.06,15.91-6.66,24.66,16.81,8.75,23.47Z"/><path class="cls-20" d="M497.81,309.17c-4.37,1.28-6.29,5.46-6.81,5.26s.72-6.67,5.94-8.23,9.48,3.2,9.08,3.73S502.13,307.9,497.81,309.17Z"/><path class="cls-19" d="M287,426.61a.62.62,0,0,1-.86.2l-10.3-6c-8-4.9-1.85-15.22,6.1-10.33,4.49-7.61,15.35-1.26,10.85,6.34Z"/><path class="cls-20" d="M275.52,412.79c-1.41,1.88-.9,4.11-1.18,4.19s-1.77-2.81-.1-5.06,4.9-1.75,4.89-1.42S276.9,410.94,275.52,412.79Z"/><path class="cls-21" d="M485.74,443a.89.89,0,0,1-1.21-.24l-9.64-13.5c-7.33-10.75,6.37-20.28,13.68-9.55,10.07-7,20.23,7.19,10.16,14.22Z"/><path class="cls-20" d="M479.08,419c-2.86,1.57-3.5,4.66-3.9,4.61s-.63-4.56,2.78-6.45,7.22.59,7,1S481.9,417.43,479.08,419Z"/><path class="cls-21" d="M218.91,409a.91.91,0,0,1-1,.73l-17.08-2.58c-13.35-2.32-10.64-19.49,2.68-17.17,2-12.63,20-9.9,18,2.73Z"/><path class="cls-20" d="M196.09,396.54c-.89,3.28,1,6,.65,6.26S192.86,400,193.9,396s5.64-5,5.82-4.52S197,393.31,196.09,396.54Z"/><path class="cls-19" d="M223.52,407.28a.56.56,0,0,1-.75.2l-9.06-5c-7-4.09-1.93-13.18,5.08-9.1a5.47,5.47,0,1,1,9.56,5.29Z"/><path class="cls-20" d="M213.27,395.53c-1.18,1.66-.69,3.58-.93,3.66s-1.6-2.41-.2-4.4,4.22-1.62,4.22-1.33S214.44,393.89,213.27,395.53Z"/><path class="cls-19" d="M496.86,347.53a.63.63,0,0,1-.9.23l-10.4-6.88c-8-5.6-1.24-17.38,6.77-11.79,5-8.67,15.94-1.42,11,7.25Z"/><path class="cls-20" d="M485.6,331.76c-1.54,2.14-1.12,4.68-1.41,4.77s-1.7-3.21.12-5.78,5.14-2,5.13-1.61S487.11,329.64,485.6,331.76Z"/></g><rect class="cls-22" x="166.31" y="360.44" width="164.35" height="5.25"/><polygon class="cls-2" points="181.84 335.01 164.67 335.01 164.67 339.26 171.05 339.26 171.05 358.44 175.46 358.44 175.46 339.26 181.84 339.26 181.84 335.01"/><path class="cls-2" d="M197.15,343.25a5,5,0,0,0-4.1-1.78,4.3,4.3,0,0,0-2.65.79,5.72,5.72,0,0,0-1.47,1.74v-9h-4.42v23.43h4.42V348.33a2.61,2.61,0,0,1,.67-1.92,2.49,2.49,0,0,1,1.89-.69,2.76,2.76,0,0,1,2,.68,2.5,2.5,0,0,1,.7,1.9v10.14h4.42V348.28A7.81,7.81,0,0,0,197.15,343.25Z"/><path class="cls-2" d="M216.4,344.33A5.27,5.27,0,0,0,214,342.2a8.66,8.66,0,0,0-3.74-.73,10.12,10.12,0,0,0-3.64.63,6.59,6.59,0,0,0-2.64,1.78l2.74,2.7a5.45,5.45,0,0,1,1.62-.86,6,6,0,0,1,1.86-.3,3.46,3.46,0,0,1,2.19.62,2.2,2.2,0,0,1,.77,1.79v.71h-4a6.89,6.89,0,0,0-4.47,1.24,4.55,4.55,0,0,0-1.49,3.72,5.18,5.18,0,0,0,1.33,3.9,5.59,5.59,0,0,0,4,1.28,8.39,8.39,0,0,0,2.32-.32,4.78,4.78,0,0,0,1.84-.94,2.61,2.61,0,0,0,.49-.57v1.59h4V347.69A6.58,6.58,0,0,0,216.4,344.33Zm-4.06,10.38a6.45,6.45,0,0,1-2.63.41,3.7,3.7,0,0,1-1.91-.4,1.35,1.35,0,0,1-.62-1.22,1.43,1.43,0,0,1,.5-1.2,2.39,2.39,0,0,1,1.49-.39h4v1.55A1.3,1.3,0,0,1,212.34,354.71Z"/><path class="cls-2" d="M235.25,343.25a5,5,0,0,0-4.09-1.78,4.28,4.28,0,0,0-2.65.79A5.72,5.72,0,0,0,227,344v-2.29h-4.42v16.73H227V348.33a2.61,2.61,0,0,1,.67-1.92,2.49,2.49,0,0,1,1.89-.69,2.76,2.76,0,0,1,2,.68,2.5,2.5,0,0,1,.7,1.9v10.14h4.41V348.28A7.75,7.75,0,0,0,235.25,343.25Z"/><polygon class="cls-2" points="252.36 358.44 257.47 358.44 251.93 347.89 256.65 341.71 251.97 341.71 246.53 349.18 246.53 335.01 242.11 335.01 242.11 358.44 246.53 358.44 246.53 354.97 249.05 351.67 252.36 358.44"/><path class="cls-2" d="M280.06,341.71l-3.36,9.78-3.78-9.78h-4.16l6,15.48-.89,2.6a2,2,0,0,1-.72,1,2.11,2.11,0,0,1-1.19.32h-1v4.28h1a7.28,7.28,0,0,0,2.25-.29,3.39,3.39,0,0,0,1.53-1,5.2,5.2,0,0,0,1-1.81l7.45-20.64Z"/><path class="cls-2" d="M300.31,344.78a5.7,5.7,0,0,0-2.46-2.47,9.52,9.52,0,0,0-7.82,0,5.7,5.7,0,0,0-2.46,2.47,8.24,8.24,0,0,0-.85,3.89v2.72a8.4,8.4,0,0,0,.85,3.94,5.69,5.69,0,0,0,2.46,2.49,9.32,9.32,0,0,0,7.82,0,5.7,5.7,0,0,0,2.46-2.47,8.27,8.27,0,0,0,.85-3.91v-2.77A8.24,8.24,0,0,0,300.31,344.78Zm-3.56,6.66a3,3,0,0,1-.75,2.2,3.14,3.14,0,0,1-4.14,0,3.12,3.12,0,0,1-.72-2.2v-2.77a3,3,0,0,1,.73-2.17,3.12,3.12,0,0,1,4.13,0,3,3,0,0,1,.75,2.17Z"/><path class="cls-2" d="M315.45,341.71v10.07a2.72,2.72,0,0,1-.67,2,2.55,2.55,0,0,1-1.91.68,2.64,2.64,0,0,1-1.93-.67,2.51,2.51,0,0,1-.68-1.87V341.71h-4.42V352a7.38,7.38,0,0,0,1.47,4.91,5.16,5.16,0,0,0,4.16,1.73,3.91,3.91,0,0,0,2.65-.94,5.22,5.22,0,0,0,1.33-1.76v2.46h4.39V341.71Z"/><rect class="cls-2" x="325.25" y="354.02" width="4.42" height="4.42"/><rect class="cls-2" x="325.25" y="335.01" width="4.42" height="16.45"/></g></svg>