<svg xmlns="http://www.w3.org/2000/svg" viewBox="0 0 48 48"><defs><style>.a{fill:#1d1d1b;}.b,.c,.d{fill:none;stroke:#000;stroke-linecap:round;stroke-miterlimit:10;}.b{stroke-width:3.44px;stroke-dasharray:0 5.25;}.c{stroke-width:2.73px;stroke-dasharray:0 4.16;}.d{stroke-width:2.08px;stroke-dasharray:0 3.17;}</style></defs><path class="a" d="M23.3,13.8h-.2c-1.9-.9-4.3.1-5.5,2.3l-.4.2c-1.8.5-3.1,2.5-3.1,4.9a6,6,0,0,0,.5,2.4,3.6,3.6,0,0,1,3.2-.3.4.4,0,1,1-.3.7,2.5,2.5,0,0,0-2.8.5,2.8,2.8,0,0,0-.7,1.9A3.3,3.3,0,0,0,15.5,29c.2.2.3.4.2.6a3.2,3.2,0,0,0,.1,1.7,3.4,3.4,0,0,0,2.7,2.2h.1a2.4,2.4,0,0,0,2.1-1.6c0-.2.2-.3.4-.2s.3.2.2.4a2.8,2.8,0,0,1-2.1,2,3.1,3.1,0,0,0,1.5,1c.9.3,2.3.7,2.8-.3V14.3A.8.8,0,0,0,23.3,13.8ZM20.9,29.1q-.1.3-.3.3h-.1c-.2-.1-.3-.2-.2-.4a2.5,2.5,0,0,0-.3-1.7,2,2,0,0,0-1.3-.9.3.3,0,0,1-.3-.3c.1-.2.2-.3.4-.3A2.3,2.3,0,0,1,20.5,27,3,3,0,0,1,20.9,29.1Zm-.7-9.9a3.1,3.1,0,0,1-2.1.7h-.3c-.2,0-.3-.2-.3-.4s.2-.3.4-.3a2.6,2.6,0,0,0,1.9-.5,2.1,2.1,0,0,0,.8-1.6c.1-.2.2-.4.4-.3a.4.4,0,0,1,.4.3A2.8,2.8,0,0,1,20.2,19.2Z"/><path class="a" d="M31.2,24.4a.3.3,0,0,1-.3-.3.3.3,0,0,1,.3-.3,2.8,2.8,0,0,1,2,.5.1.1,0,0,0,.1-.1,5.3,5.3,0,0,0,.4-4.7c-.7-2-2.1-3.4-3.6-3.6l-.4-.3a4.1,4.1,0,0,0-4.7-2h-.1a.6.6,0,0,0-.4.6V34.8a.6.6,0,0,0,.5.6,4.2,4.2,0,0,0,1.9-.3,2.7,2.7,0,0,0,1.7-1.6,2.8,2.8,0,0,1-1.2-.8.2.2,0,0,1,.1-.4.2.2,0,0,1,.4,0,2.8,2.8,0,0,0,1.7.7,1.9,1.9,0,0,0,1.6-.6h.1a4.1,4.1,0,0,0,.7-3,.6.6,0,0,1,.4-.6l.9-.6a2.8,2.8,0,0,0,.3-2.2A2.3,2.3,0,0,0,31.2,24.4Zm-1.3,2.5a3.1,3.1,0,0,0-1.8.9,2.2,2.2,0,0,0-.5,1.7c0,.2-.1.4-.3.4h-.1a.3.3,0,0,1-.3-.3,2.6,2.6,0,0,1,.7-2.2,3.5,3.5,0,0,1,2.2-1.2c.2,0,.4.1.4.3S30.1,26.9,29.9,26.9ZM30,20h-.4a2.8,2.8,0,0,1-1.9-.7,3.4,3.4,0,0,1-1.2-2.2c0-.2.1-.4.3-.4s.4.1.4.3a2.7,2.7,0,0,0,1,1.7,2.2,2.2,0,0,0,1.7.6c.2-.1.4.1.4.3S30.2,19.9,30,20Z"/><circle class="b" cx="23.8" cy="24.4" r="21.7"/><circle class="c" cx="23.8" cy="24.4" r="17.2"/><circle class="d" cx="23.8" cy="24.4" r="13.1"/></svg>