<svg id="Laag_6" data-name="Laag 6" xmlns="http://www.w3.org/2000/svg" width="24" height="24" viewBox="0 0 24 24"><defs><style>.cls-1{fill:#1d1d1b;}</style></defs><path class="cls-1" d="M11.3,1.4h-.2C9.2.4,6.8,1.4,5.6,3.6a.5.5,0,0,1-.4.2A4.8,4.8,0,0,0,2.1,8.6a6.6,6.6,0,0,0,.5,2.5,3.6,3.6,0,0,1,3.2-.3.4.4,0,0,1,.2.5l-.5.2a2.4,2.4,0,0,0-2.8.5A2.8,2.8,0,0,0,2,13.9a3.3,3.3,0,0,0,1.5,2.7.5.5,0,0,1,.2.6,3.2,3.2,0,0,0,.1,1.7,3.4,3.4,0,0,0,2.7,2.2h.1a2.4,2.4,0,0,0,2.1-1.6c0-.2.2-.3.4-.3a.4.4,0,0,1,.2.5,3,3,0,0,1-2.1,2,3.1,3.1,0,0,0,1.5,1c.9.3,2.3.7,2.8-.3V1.8A.5.5,0,0,0,11.3,1.4ZM8.9,16.7l-.3.2H8.5c-.2,0-.3-.2-.2-.3A2.5,2.5,0,0,0,8,14.9,2,2,0,0,0,6.7,14a.3.3,0,0,1-.3-.3c.1-.2.2-.3.4-.3a2.3,2.3,0,0,1,1.7,1.2A3,3,0,0,1,8.9,16.7ZM8.2,6.8a3.1,3.1,0,0,1-2.1.7H5.8c-.2,0-.3-.2-.3-.4s.2-.3.4-.3a2.3,2.3,0,0,0,1.9-.6,1.9,1.9,0,0,0,.8-1.5c.1-.2.2-.4.4-.4s.4.2.4.4A3,3,0,0,1,8.2,6.8Z"/><path class="cls-1" d="M19.2,12a.3.3,0,0,1-.3-.3c0-.2.1-.3.3-.4a3.4,3.4,0,0,1,2,.6h.1a5.3,5.3,0,0,0,.4-4.7c-.7-2-2.1-3.4-3.6-3.6l-.4-.3a4.1,4.1,0,0,0-4.7-2h-.1a.6.6,0,0,0-.4.6V22.4a.6.6,0,0,0,.5.6,4.2,4.2,0,0,0,1.9-.3,3,3,0,0,0,1.7-1.6,4.2,4.2,0,0,1-1.2-.8c-.1-.1-.1-.3.1-.5a.2.2,0,0,1,.4.1,2.8,2.8,0,0,0,1.7.7,2.3,2.3,0,0,0,1.6-.6c.1,0,.1,0,.1-.1A3.7,3.7,0,0,0,20,17a.5.5,0,0,1,.4-.6l.9-.7a2.6,2.6,0,0,0,.3-2.2A2.3,2.3,0,0,0,19.2,12Zm-1.3,2.5a3.1,3.1,0,0,0-1.8.9,2.2,2.2,0,0,0-.5,1.7c0,.2-.1.4-.3.4h-.1a.3.3,0,0,1-.3-.3,2.9,2.9,0,0,1,.7-2.3,3.9,3.9,0,0,1,2.2-1.1c.2,0,.4.1.4.3S18.1,14.5,17.9,14.5ZM18,7.6h-.4a3.4,3.4,0,0,1-1.9-.7,3.7,3.7,0,0,1-1.2-2.2c0-.2.1-.4.3-.4s.4.1.4.3a2.7,2.7,0,0,0,1,1.7,2.2,2.2,0,0,0,1.7.5.4.4,0,0,1,.4.3A.5.5,0,0,1,18,7.6Z"/></svg>