<svg xmlns="http://www.w3.org/2000/svg" viewBox="0 0 48 48"><defs><style>.a{fill:#1d1d1b;}.b,.c,.d{fill:none;stroke:#000;stroke-linecap:round;stroke-miterlimit:10;stroke-width:2px;}.b{stroke-dasharray:1.05 3.28;}.c{stroke-dasharray:1.35 4.19;}.d{stroke-dasharray:1.66 5.16;}</style></defs><path class="a" d="M23.3,14h-.1c-1.9-.9-4.3.1-5.6,2.2a.3.3,0,0,1-.3.3,4.8,4.8,0,0,0-3.1,4.8,5.1,5.1,0,0,0,.5,2.5,3.3,3.3,0,0,1,3.2-.3c.1,0,.2.2.2.4a.4.4,0,0,1-.5.2,2.7,2.7,0,0,0-2.9.6,3.1,3.1,0,0,0-.6,1.9,3.3,3.3,0,0,0,1.5,2.7.4.4,0,0,1,.2.6,3.3,3.3,0,0,0,.1,1.7,3.3,3.3,0,0,0,2.7,2.1h.1a2.3,2.3,0,0,0,2.1-1.7c0-.1.2-.2.4-.2s.3.3.2.4a3,3,0,0,1-2.1,2.1,4,4,0,0,0,1.5,1c.9.3,2.3.6,2.8-.4V14.5A.5.5,0,0,0,23.3,14ZM21,29.4a.5.5,0,0,1-.4.2h0a.3.3,0,0,1-.3-.3,2.7,2.7,0,0,0-.3-1.8,2,2,0,0,0-1.2-.8c-.2-.1-.3-.2-.3-.4s.2-.3.4-.2a2.5,2.5,0,0,1,1.7,1.1A4,4,0,0,1,21,29.4Zm-.7-9.9a3.8,3.8,0,0,1-2.1.7h-.3c-.2,0-.4-.2-.3-.4s.1-.4.3-.3a3.1,3.1,0,0,0,1.9-.6,1.8,1.8,0,0,0,.9-1.6c0-.2.2-.3.4-.3s.3.2.3.4A2.6,2.6,0,0,1,20.3,19.5Z"/><path class="a" d="M31.3,24.7a.3.3,0,0,1-.3-.3c-.1-.2.1-.4.3-.4a2.5,2.5,0,0,1,2,.6c0-.1,0-.1.1-.1a5.3,5.3,0,0,0,.3-4.8,5.3,5.3,0,0,0-3.5-3.6c-.2,0-.3-.1-.4-.3a4.3,4.3,0,0,0-4.7-2H25a.5.5,0,0,0-.4.6V35a.8.8,0,0,0,.5.7,6.3,6.3,0,0,0,1.9-.3,3,3,0,0,0,1.7-1.6,4.2,4.2,0,0,1-1.2-.8.5.5,0,0,1,0-.5.4.4,0,0,1,.5,0,2.3,2.3,0,0,0,3.3.2.1.1,0,0,1,.1-.1,3.8,3.8,0,0,0,.7-2.9.7.7,0,0,1,.4-.7,1.6,1.6,0,0,0,.8-.6,2.4,2.4,0,0,0,.4-2.2A2.2,2.2,0,0,0,31.3,24.7ZM30,27.2a3.1,3.1,0,0,0-1.8.9,2.2,2.2,0,0,0-.5,1.7c0,.2-.1.4-.3.4h-.1a.3.3,0,0,1-.3-.3,2.9,2.9,0,0,1,.7-2.3,3.3,3.3,0,0,1,2.2-1.1c.2,0,.4.1.4.3S30.2,27.2,30,27.2Zm.1-7h-.4a2.6,2.6,0,0,1-1.9-.7,3,3,0,0,1-1.2-2.1c0-.2.1-.4.3-.4s.4.1.4.3a2.3,2.3,0,0,0,1,1.7,2.2,2.2,0,0,0,1.7.5c.2,0,.4.1.4.3S30.3,20.2,30.1,20.2Z"/><circle class="b" cx="24" cy="24.7" r="13.8"/><circle class="c" cx="24" cy="24.7" r="17.6"/><circle class="d" cx="24" cy="24.7" r="21.7"/></svg>