<?xml version="1.0" encoding="UTF-8"?>
<svg id="Santa" xmlns="http://www.w3.org/2000/svg" viewBox="0 0 431.69 544.96">
  <defs>
    <style>
      .cls-1 {
        stroke: #000;
        stroke-width: 7.84px;
      }

      .cls-1, .cls-2, .cls-3, .cls-4, .cls-5, .cls-6 {
        stroke-miterlimit: 10;
      }

      .cls-7 {
        fill: #4d4d4d;
      }

      .cls-7, .cls-8, .cls-9, .cls-10, .cls-11, .cls-12, .cls-13, .cls-14, .cls-15 {
        stroke-width: 0px;
      }

      .cls-8 {
        opacity: .49;
      }

      .cls-8, .cls-10, .cls-11, .cls-12 {
        fill: #ccc;
      }

      .cls-9 {
        fill: #c1272d;
      }

      .cls-10 {
        opacity: .47;
      }

      .cls-2 {
        stroke: #a2272d;
      }

      .cls-2, .cls-3 {
        stroke-linecap: round;
      }

      .cls-2, .cls-3, .cls-4, .cls-5 {
        fill: none;
      }

      .cls-2, .cls-3, .cls-5 {
        stroke-width: 3px;
      }

      .cls-11 {
        opacity: .51;
      }

      .cls-13, .cls-6 {
        fill: #fff;
      }

      .cls-3 {
        stroke: #005337;
      }

      .cls-4 {
        stroke-width: 19px;
      }

      .cls-4, .cls-6 {
        stroke: #4d4d4d;
      }

      .cls-14 {
        fill: #a2272d;
      }

      .cls-5 {
        stroke: #e6e6e6;
      }

      .cls-15 {
        fill: #fc0;
      }

      .cls-6 {
        stroke-width: 19.61px;
      }
    </style>
  </defs>
  <g>
    <g>
      <path class="cls-13" d="m239.91,89.69c-28.9-10-61.39-8.57-89.85,1.23-28.46,9.8-53.06,27.55-72.79,48.75-48.27,51.9-67.34,126.09-49.82,193.83,10.52,40.68,34.31,79.48,70.45,105.09,36.14,25.61,85.13,36.6,127.75,24.22,31.91-9.26,58.24-30.54,77.85-55.43,38.3-48.61,52.97-112.81,39.45-172.65-13.52-59.84-48.57-126.02-102.72-144.73"/>
      <path class="cls-7" d="m243.04,78.34c-41.44-14.21-88.05-6.71-125.69,14.5-33.9,19.09-61.98,48.99-80.56,83.03-18.23,33.4-27.95,71.49-27.47,109.56.47,37.85,11.01,75.73,30.93,107.98,10.06,16.28,22.49,31.33,37.01,43.83,15.67,13.5,33.21,23.93,52.5,31.35,18.24,7.02,37.95,10.84,57.49,11.06,10.03.11,20.09-.87,29.94-2.73s19.8-5.21,29.26-9.27c35.54-15.29,64.2-45.09,83.43-78.17,19.82-34.1,30.31-73.71,29.77-113.15-.51-37.25-11.26-74.19-27.2-107.67-14.86-31.21-36.48-61.19-66.42-79.42-7.12-4.34-14.78-7.84-22.65-10.58-5.82-2.03-13.12,2.3-14.47,8.22-1.49,6.56,1.99,12.3,8.22,14.47,2.04.71,4.06,1.49,6.06,2.32l-2.81-1.19c8.81,3.74,17.03,8.7,24.61,14.54l-2.38-1.84c10.1,7.84,18.96,17.13,26.79,27.21l-1.84-2.38c12.2,15.8,21.87,33.43,29.63,51.79l-1.19-2.81c8.87,21.12,15.67,43.52,18.76,66.26l-.42-3.13c2.4,18.05,2.36,36.34-.03,54.39l.42-3.13c-2.5,18.43-7.43,36.47-14.65,53.61l1.19-2.81c-6.94,16.33-15.92,31.74-26.76,45.79l1.84-2.38c-9.43,12.16-20.21,23.25-32.36,32.7l2.38-1.84c-9.96,7.68-20.76,14.18-32.34,19.11l2.81-1.19c-10.56,4.44-21.62,7.46-32.97,8.99l3.13-.42c-12.54,1.64-25.24,1.51-37.77-.14l3.13.42c-14.24-1.93-28.15-5.79-41.39-11.37l2.81,1.19c-12.58-5.36-24.42-12.25-35.26-20.58l2.38,1.84c-11.65-9.02-22.06-19.52-31.09-31.16l1.84,2.38c-10.06-13.04-18.32-27.37-24.74-42.54l1.19,2.81c-6.85-16.33-11.51-33.5-13.88-51.06l.42,3.13c-2.4-18.14-2.34-36.53.06-54.66l-.42,3.13c2.53-18.71,7.54-37.02,14.87-54.42l-1.19,2.81c7.05-16.62,16.18-32.3,27.2-46.62l-1.84,2.38c10.64-13.74,22.94-26.18,36.68-36.82l-2.38,1.84c11.83-9.1,24.68-16.79,38.42-22.63l-2.81,1.19c12.3-5.17,25.18-8.75,38.4-10.58l-3.13.42c12.41-1.66,24.97-1.77,37.38-.14l-3.13-.42c8.19,1.12,16.24,2.98,24.05,5.66,5.83,2,13.12-2.28,14.47-8.22,1.49-6.54-1.98-12.33-8.22-14.47h0Z"/>
    </g>
    <path class="cls-14" d="m277.69,12.03c77,36,104,129,125,197,30.11,97.5-108.71-46.3-108.71-46.3L213.01,30.18"/>
    <ellipse class="cls-6" cx="246.97" cy="500.2" rx="58.63" ry="34.96"/>
    <path class="cls-12" d="m347.53,234.74c-13.52-59.84-48.57-126.02-102.72-144.73l-.33-.32c-16.04-5.55-33.18-7.57-50.12-6.61,3.47.45,6.93,1,10.38,1.69,29.5,5.86,58.26,20.97,78.18,44.14l.13.45c37.33,43.39,34.29,118.15,15.85,176.6-18.44,58.45-63.4,106.49-120.91,129.18-19.12,7.54-39.93,12.34-60.98,12.57,34.1,18.92,76.08,25.89,113.23,15.1,31.91-9.26,58.24-30.54,77.85-55.43,38.3-48.61,52.97-112.81,39.45-172.65Z"/>
    <path class="cls-7" d="m243.04,75.34c-41.44-14.21-88.05-6.71-125.69,14.5-33.9,19.09-61.98,48.99-80.56,83.03-18.23,33.4-27.95,71.49-27.47,109.56.47,37.85,11.01,75.73,30.93,107.98,10.06,16.28,22.49,31.33,37.01,43.83,15.67,13.5,33.21,23.93,52.5,31.35,18.24,7.02,37.95,10.84,57.49,11.06,10.03.11,20.09-.87,29.94-2.73s19.8-5.21,29.26-9.27c35.54-15.29,64.2-45.09,83.43-78.17s30.31-73.71,29.77-113.15c-.51-37.25-11.26-74.19-27.2-107.67-14.86-31.21-36.48-61.19-66.42-79.42-7.12-4.34-14.78-7.84-22.65-10.58-5.82-2.03-13.12,2.3-14.47,8.22-1.49,6.56,1.99,12.3,8.22,14.47,2.04.71,4.06,1.49,6.06,2.32l-2.81-1.19c8.81,3.74,17.03,8.7,24.61,14.54l-2.38-1.84c10.1,7.84,18.96,17.13,26.79,27.21l-1.84-2.38c12.2,15.8,21.87,33.43,29.63,51.79l-1.19-2.81c8.87,21.12,15.67,43.52,18.76,66.26l-.42-3.13c2.4,18.05,2.36,36.34-.03,54.39l.42-3.13c-2.5,18.43-7.43,36.47-14.65,53.61l1.19-2.81c-6.94,16.33-15.92,31.74-26.76,45.79l1.84-2.38c-9.43,12.16-20.21,23.25-32.36,32.7l2.38-1.84c-9.96,7.68-20.76,14.18-32.34,19.11l2.81-1.19c-10.56,4.44-21.62,7.46-32.97,8.99l3.13-.42c-12.54,1.64-25.24,1.51-37.77-.14l3.13.42c-14.24-1.93-28.15-5.79-41.39-11.37l2.81,1.19c-12.58-5.36-24.42-12.25-35.26-20.58l2.38,1.84c-11.65-9.02-22.06-19.52-31.09-31.16l1.84,2.38c-10.06-13.04-18.32-27.37-24.74-42.54l1.19,2.81c-6.85-16.33-11.51-33.5-13.88-51.06l.42,3.13c-2.4-18.14-2.34-36.53.06-54.66l-.42,3.13c2.53-18.71,7.54-37.02,14.87-54.42l-1.19,2.81c7.05-16.62,16.18-32.3,27.2-46.62l-1.84,2.38c10.64-13.74,22.94-26.18,36.68-36.82l-2.38,1.84c11.83-9.1,24.68-16.79,38.42-22.63l-2.81,1.19c12.3-5.17,25.18-8.75,38.4-10.58l-3.13.42c12.41-1.66,24.97-1.77,37.38-.14l-3.13-.42c8.19,1.12,16.24,2.98,24.05,5.66,5.83,2,13.12-2.28,14.47-8.22,1.49-6.54-1.98-12.33-8.22-14.47h0Z"/>
    <path class="cls-12" d="m293.26,496.68c-3.58-11.62-15.98-26.16-38.08-33.99l-.13-.08c-6.54-2.32-13.67-4.11-20.82-5.37,1.44.37,2.88.76,4.3,1.17,12.19,3.51,23.74,8.57,31.29,14.3l.04.09c14.16,10.74,10.26,23.58.47,32.27s-30.36,13.33-55.32,12.47c-8.3-.29-17.2-1.19-26.06-2.92,13.66,6.18,31.05,10.93,47.03,12.16,13.73,1.06,25.54-.46,34.64-3.17,17.79-5.3,26.21-15.31,22.62-26.93Z"/>
    <ellipse class="cls-4" cx="244.36" cy="498.89" rx="58.63" ry="34.96"/>
    <ellipse class="cls-6" cx="126.01" cy="500.2" rx="58.63" ry="34.96"/>
    <path class="cls-12" d="m172.3,496.68c-3.58-11.62-15.98-26.16-38.08-33.99l-.13-.08c-6.54-2.32-13.67-4.11-20.82-5.37,1.44.37,2.88.76,4.3,1.17,12.19,3.51,23.74,8.57,31.29,14.3l.04.09c14.16,10.74,10.26,23.58.47,32.27-9.79,8.69-30.36,13.33-55.32,12.47-8.3-.29-17.2-1.19-26.06-2.92,13.66,6.18,31.05,10.93,47.03,12.16,13.73,1.06,25.54-.46,34.64-3.17,17.79-5.3,26.21-15.31,22.62-26.93Z"/>
    <ellipse class="cls-4" cx="123.4" cy="498.89" rx="58.63" ry="34.96"/>
    <path class="cls-9" d="m272.69,457.03c-59.32,14.63-120.78,14.08-184,1-44.1-36.78-66.43-81.55-76-131l345,6c-17.16,47.77-42.25,90.97-85,124Z"/>
    <path class="cls-14" d="m363.16,331.55c-106.51,51.59-320.27,36-357.08-9.42-1.19-1.47-2.01-3.21-2.31-5.08-2.63-16.48-2.27-33.48.65-50.91,1.16-6.9,8.55-10.82,14.96-8.01,109.74,48.04,226.5,39.54,339.24-1.28,6.33-2.29,13.2,1.66,14.35,8.29,3.54,20.39,2.29,40.44-4.27,60.13-.92,2.76-2.93,5.02-5.55,6.29Z"/>
    <path class="cls-9" d="m361.73,328.27c-106.82,52.17-322.81,36.21-358.16-9.79-.91-1.18-1.5-2.58-1.73-4.04-2.8-17.2-2.32-34.96.92-53.2,1.05-5.92,7.38-9.33,12.88-6.9,110.8,49.15,228.82,40.45,342.69-1.12,5.36-1.96,11.25,1.33,12.31,6.94,4.01,21.27,2.84,42.18-4.12,62.7-.8,2.37-2.52,4.31-4.77,5.41Z"/>
    <path class="cls-9" d="m190.69,125.03H58.03c-2.19-9.19,2.73-18.52,7.66-26C92.69,58.03,165.62-20.61,262.69,5.03c53,14,71.11,98.72,61.27,147.1l-133.27-27.1Z"/>
    <path class="cls-14" d="m332.21,119.32c-93.74-30.28-186.51-33.1-278.36-9.5-2.07.53-3.93,1.71-5.3,3.35-13.67,16.33-20.79,37.33-19.7,58.12.2,3.79,3.76,6.5,7.44,5.61,110.52-26.8,209.65-25.27,301.06,7.92,3.71,1.35,7.68-1.18,8.07-5.11,2-20.08,1.61-39.79-7.45-55.66-1.27-2.23-3.32-3.94-5.76-4.73Z"/>
    <path class="cls-9" d="m331.15,120.79c-93.85-29.93-186.64-32.41-278.39-8.47-2.07.54-3.92,1.72-5.29,3.37-13.61,16.38-20.66,37.41-19.49,58.19.21,3.79,3.78,6.49,7.47,5.58,110.42-27.21,209.56-26.04,301.09,6.81,3.72,1.33,7.68-1.2,8.05-5.14,1.92-20.09,1.46-39.79-7.65-55.64-1.28-2.23-3.33-3.92-5.78-4.7Z"/>
    <g>
      <path class="cls-14" d="m178.28,71.48c-.64.09-1.28.18-1.92.27.67.02,1.34.07,2,.1l-.09-.38Z"/>
      <path class="cls-14" d="m284.69,355.16c-8.36,34.48-38.41,57.57-70,73.81-18.32,9.42-64.06,24.04-85,26.29,51,5.06,77,3.03,118.26-4.68,32.68-6.11,55.1-36.31,72.27-63.23,9.18-14.39,19.1-33.33,24.48-49.31l-60,17.12Z"/>
    </g>
    <g>
      <line class="cls-5" x1="166.44" y1="388.96" x2="200.38" y2="408.58"/>
      <line class="cls-5" x1="183.6" y1="379.21" x2="183.79" y2="418.33"/>
      <line class="cls-5" x1="166.44" y1="408.71" x2="200.69" y2="388.96"/>
      <line class="cls-5" x1="173.41" y1="385.85" x2="173.41" y2="393.01"/>
      <line class="cls-5" x1="167.08" y1="396.3" x2="173.41" y2="393.01"/>
      <line class="cls-5" x1="190.25" y1="383.07" x2="183.54" y2="386.99"/>
      <line class="cls-5" x1="177.52" y1="383.32" x2="183.54" y2="386.99"/>
      <line class="cls-5" x1="177" y1="414.55" x2="183.71" y2="410.63"/>
      <line class="cls-5" x1="189.72" y1="414.3" x2="183.71" y2="410.63"/>
      <line class="cls-5" x1="193.98" y1="411.81" x2="194.04" y2="404.7"/>
      <line class="cls-5" x1="200.08" y1="401.06" x2="194.04" y2="404.7"/>
      <line class="cls-5" x1="167.35" y1="401.04" x2="173.32" y2="404.9"/>
      <line class="cls-5" x1="173.15" y1="411.94" x2="173.32" y2="404.9"/>
      <line class="cls-5" x1="199.93" y1="396.31" x2="194.11" y2="392.88"/>
      <line class="cls-5" x1="193.98" y1="385.85" x2="193.99" y2="393.03"/>
    </g>
    <path class="cls-2" d="m25.19,272.53c-4,17-4,27-2,45"/>
    <path class="cls-2" d="m52.69,283.85c-4,17-4,27-2,45"/>
    <path class="cls-2" d="m81.63,293.06c-.44,18.47-1.57,26.92-2,45"/>
    <path class="cls-2" d="m345.32,275.53c4,17,4,27,2,45"/>
    <path class="cls-2" d="m317.82,286.85c4,17,4,27,2,45"/>
    <path class="cls-2" d="m288.88,296.06c.44,18.47,1.57,26.92,2,45"/>
    <path class="cls-2" d="m115.3,298.01c-.44,18.6-1.58,27.09-2.01,45.3"/>
    <path class="cls-2" d="m147.2,306.01c-.62,16.95-1.3,24.71-1.91,41.3"/>
    <path class="cls-2" d="m185.95,310.31c-.3,15.97-1.41,23.26-1.7,38.89"/>
    <path class="cls-2" d="m225.91,307.69c-.62,16.95-1.3,24.71-1.91,41.3"/>
    <path class="cls-2" d="m260.91,303.69c-.62,16.95-1.3,24.71-1.91,41.3"/>
    <path class="cls-3" d="m198.91,109.88c-.35,15.97-1.48,23.25-1.82,38.88"/>
    <path class="cls-3" d="m165.91,109.88c-.35,15.97-1.48,23.25-1.82,38.88"/>
    <path class="cls-3" d="m230.91,114.88c-.44,19.97-1.46,25.02-1.72,36.66"/>
    <path class="cls-3" d="m260.91,118.83c1.28,16.7,2.39,17.52-.72,36.7"/>
    <path class="cls-3" d="m288.92,123.81c3.27,14.72,1.27,24.72.15,38.93"/>
    <path class="cls-3" d="m315.8,129.85c5.4,19.69,3.4,24.69,2.4,38.85"/>
    <path class="cls-3" d="m111.66,114.46c-4.8,16.05-4.43,17.85-4.01,36.49"/>
    <path class="cls-3" d="m84.28,117.24c-6.09,12.29-7.21,25.09-6.09,39.29"/>
    <path class="cls-3" d="m57.41,125.28c-8.22,13.25-10.21,27.09-9.22,41.25"/>
    <path class="cls-3" d="m138.42,110.89c-.44,19.97-1.46,25.02-1.72,36.66"/>
    <circle class="cls-13" cx="122.63" cy="341.9" r="26"/>
    <g>
      <ellipse class="cls-12" cx="185.19" cy="342.88" rx="93.68" ry="88.89" transform="translate(-169.51 504.27) rotate(-86.09)"/>
      <ellipse class="cls-12" cx="102.88" cy="288.43" rx="25.56" ry="24.25" transform="translate(-191.9 371.42) rotate(-86.09)"/>
      <ellipse class="cls-12" cx="91.71" cy="321.48" rx="25.56" ry="24.25" transform="translate(-235.27 391.07) rotate(-86.09)"/>
      <ellipse class="cls-12" cx="91.92" cy="356.47" rx="25.56" ry="24.25" transform="translate(-269.98 423.89) rotate(-86.09)"/>
      <ellipse class="cls-12" cx="105.41" cy="389.31" rx="25.56" ry="24.25" transform="translate(-290.18 467.94) rotate(-86.09)"/>
      <ellipse class="cls-12" cx="128.77" cy="415.22" rx="25.56" ry="24.25" transform="translate(-294.26 515.4) rotate(-86.09)"/>
      <ellipse class="cls-12" cx="157.27" cy="430.98" rx="25.56" ry="24.25" transform="translate(-283.42 558.53) rotate(-86.09)"/>
      <ellipse class="cls-12" cx="189.25" cy="435.48" rx="25.56" ry="24.25" transform="translate(-258.12 594.62) rotate(-86.09)"/>
      <ellipse class="cls-12" cx="220.83" cy="428.18" rx="25.56" ry="24.25" transform="translate(-221.4 619.33) rotate(-86.09)"/>
      <ellipse class="cls-12" cx="248.22" cy="409.96" rx="25.56" ry="24.25" transform="translate(-177.7 629.67) rotate(-86.09)"/>
      <ellipse class="cls-12" cx="268.1" cy="383.01" rx="25.56" ry="24.25" transform="translate(-132.28 624.4) rotate(-86.09)"/>
      <ellipse class="cls-12" cx="278.09" cy="350.59" rx="25.56" ry="24.25" transform="translate(-90.63 604.14) rotate(-86.09)"/>
      <ellipse class="cls-12" cx="271.52" cy="314.23" rx="25.56" ry="24.25" transform="translate(-60.48 563.71) rotate(-86.09)"/>
      <ellipse class="cls-12" cx="258.98" cy="284.89" rx="25.56" ry="24.25" transform="translate(-42.9 523.86) rotate(-86.09)"/>
    </g>
    <g>
      <ellipse class="cls-13" cx="185.19" cy="332.43" rx="93.24" ry="88.89" transform="translate(-160.17 492.22) rotate(-85.71)"/>
      <ellipse class="cls-13" cx="102.88" cy="278.25" rx="25.44" ry="24.25" transform="translate(-182.29 360.01) rotate(-85.71)"/>
      <ellipse class="cls-13" cx="91.71" cy="311.14" rx="25.44" ry="24.25" transform="translate(-225.41 379.3) rotate(-85.71)"/>
      <ellipse class="cls-13" cx="91.92" cy="345.96" rx="25.44" ry="24.25" transform="translate(-259.95 411.74) rotate(-85.71)"/>
      <ellipse class="cls-13" cx="105.41" cy="378.64" rx="25.44" ry="24.25" transform="translate(-280.07 455.41) rotate(-85.71)"/>
      <ellipse class="cls-13" cx="128.77" cy="404.44" rx="25.44" ry="24.25" transform="translate(-284.18 502.58) rotate(-85.71)"/>
      <ellipse class="cls-13" cx="157.27" cy="420.12" rx="25.44" ry="24.25" transform="translate(-273.44 545.51) rotate(-85.71)"/>
      <ellipse class="cls-13" cx="189.25" cy="424.6" rx="25.44" ry="24.25" transform="translate(-248.33 581.54) rotate(-85.71)"/>
      <ellipse class="cls-13" cx="220.83" cy="417.34" rx="25.44" ry="24.25" transform="translate(-211.86 606.31) rotate(-85.71)"/>
      <ellipse class="cls-13" cx="248.22" cy="399.2" rx="25.44" ry="24.25" transform="translate(-168.44 616.84) rotate(-85.71)"/>
      <ellipse class="cls-13" cx="268.1" cy="372.38" rx="25.44" ry="24.25" transform="translate(-123.3 611.86) rotate(-85.71)"/>
      <ellipse class="cls-13" cx="278.09" cy="340.11" rx="25.44" ry="24.25" transform="translate(-81.88 591.96) rotate(-85.71)"/>
      <ellipse class="cls-13" cx="271.52" cy="303.92" rx="25.44" ry="24.25" transform="translate(-51.87 551.94) rotate(-85.71)"/>
      <ellipse class="cls-13" cx="258.98" cy="274.73" rx="25.44" ry="24.25" transform="translate(-34.36 512.41) rotate(-85.71)"/>
    </g>
    <rect class="cls-1" x="92.78" y="177.57" width="183.39" height="85.05" rx="15.69" ry="15.69"/>
    <g>
      <circle class="cls-15" cx="161.81" cy="224.52" r="7.56"/>
      <circle class="cls-15" cx="116.47" cy="224.52" r="7.56"/>
      <circle class="cls-15" cx="129.9" cy="209.41" r="7.56"/>
      <circle class="cls-15" cx="148.37" cy="209.41" r="7.56"/>
      <circle class="cls-15" cx="252.47" cy="224.52" r="7.56"/>
      <circle class="cls-15" cx="207.14" cy="224.52" r="7.56"/>
      <circle class="cls-15" cx="220.57" cy="209.41" r="7.56"/>
      <circle class="cls-15" cx="239.04" cy="209.41" r="7.56"/>
    </g>
    <g>
      <path class="cls-12" d="m146.84,247.83c-38.5,15.56-54.97,27.36-86.44,21.4-31.48-5.97,30.37,36.54,84.3,31.31l2.15-52.71Z"/>
      <path class="cls-13" d="m187.03,265.1c-2.42-16.51-17.77-27.93-34.28-25.5-4.44.65-8.5,2.24-12.03,4.53-33.83,16.81-49.46,28.37-79.82,24.76-31.81-3.78,47.18,39.38,100.63,30.49,16.51-2.42,27.93-17.77,25.5-34.28Z"/>
    </g>
    <path class="cls-8" d="m166.91,285.06c-24.68,6.19-58.17,2.75-74.21-1.02,8.37,4.38,45.67,11.54,71.57,4.59,5.11-1.29,9.25-4.02,11.9-7.46-2.61,1.7-5.74,3.06-9.26,3.89Z"/>
    <g>
      <path class="cls-12" d="m227.38,247.83c38.5,15.56,54.97,27.36,86.44,21.4,31.48-5.97-30.37,36.54-84.3,31.31l-2.15-52.71Z"/>
      <path class="cls-13" d="m313.32,268.89c-30.36,3.6-45.99-7.95-79.82-24.76-3.53-2.29-7.6-3.88-12.03-4.53-16.51-2.42-31.86,9-34.28,25.5s9,31.86,25.5,34.28c53.45,8.9,132.43-34.26,100.63-30.49Z"/>
    </g>
    <g>
      <ellipse class="cls-12" cx="69.84" cy="129.88" rx="25.44" ry="24.25" transform="translate(-64.9 189.79) rotate(-85.71)"/>
      <ellipse class="cls-12" cx="102.26" cy="122.88" rx="25.44" ry="24.25" transform="translate(-27.92 215.66) rotate(-85.71)"/>
      <ellipse class="cls-12" cx="134.69" cy="117.88" rx="25.44" ry="24.25" transform="translate(7.07 243.37) rotate(-85.71)"/>
      <ellipse class="cls-12" cx="167.12" cy="114.88" rx="25.44" ry="24.25" transform="translate(40.06 272.93) rotate(-85.71)"/>
      <ellipse class="cls-12" cx="199.55" cy="112.88" rx="25.44" ry="24.25" transform="translate(72.05 303.41) rotate(-85.71)"/>
      <ellipse class="cls-12" cx="231.97" cy="114.88" rx="25.44" ry="24.25" transform="translate(100.06 337.6) rotate(-85.71)"/>
      <ellipse class="cls-12" cx="264.4" cy="118.88" rx="25.44" ry="24.25" transform="translate(126.07 373.64) rotate(-85.71)"/>
      <ellipse class="cls-12" cx="296.83" cy="124.88" rx="25.44" ry="24.25" transform="translate(150.09 411.53) rotate(-85.71)"/>
      <ellipse class="cls-12" cx="329.26" cy="143.88" rx="25.44" ry="24.25" transform="translate(161.14 461.44) rotate(-85.71)"/>
      <ellipse class="cls-12" cx="334.26" cy="170.88" rx="25.44" ry="24.25" transform="translate(138.84 491.41) rotate(-85.71)"/>
      <ellipse class="cls-12" cx="297.89" cy="158.88" rx="25.44" ry="24.25" transform="translate(117.17 444.04) rotate(-85.71)"/>
      <ellipse class="cls-12" cx="261.53" cy="153.88" rx="25.44" ry="24.25" transform="translate(88.51 403.15) rotate(-85.71)"/>
      <ellipse class="cls-12" cx="225.16" cy="147.88" rx="25.44" ry="24.25" transform="translate(60.85 361.34) rotate(-85.71)"/>
      <ellipse class="cls-12" cx="188.8" cy="144.88" rx="25.44" ry="24.25" transform="translate(30.2 322.3) rotate(-85.71)"/>
      <ellipse class="cls-12" cx="37.41" cy="143.49" rx="25.15" ry="23.97" transform="translate(-108.48 170.06) rotate(-85.71)"/>
      <ellipse class="cls-12" cx="79.7" cy="159.31" rx="25.15" ry="23.97" transform="translate(-85.13 226.87) rotate(-85.71)"/>
      <ellipse class="cls-12" cx="116.07" cy="150.88" rx="25.44" ry="24.25" transform="translate(-43.07 255.33) rotate(-85.71)"/>
      <ellipse class="cls-12" cx="152.43" cy="144.88" rx="25.44" ry="24.25" transform="translate(-3.44 286.04) rotate(-85.71)"/>
      <ellipse class="cls-12" cx="43.34" cy="171.18" rx="25.15" ry="23.97" transform="translate(-130.6 201.59) rotate(-85.71)"/>
    </g>
    <g>
      <ellipse class="cls-13" cx="69.84" cy="121.88" rx="25.44" ry="24.25" transform="translate(-56.92 182.39) rotate(-85.71)"/>
      <ellipse class="cls-13" cx="102.26" cy="114.88" rx="25.44" ry="24.25" transform="translate(-19.94 208.25) rotate(-85.71)"/>
      <ellipse class="cls-13" cx="134.69" cy="109.88" rx="25.44" ry="24.25" transform="translate(15.04 235.96) rotate(-85.71)"/>
      <ellipse class="cls-13" cx="167.12" cy="106.88" rx="25.44" ry="24.25" transform="translate(48.03 265.53) rotate(-85.71)"/>
      <ellipse class="cls-13" cx="199.55" cy="104.88" rx="25.44" ry="24.25" transform="translate(80.03 296.01) rotate(-85.71)"/>
      <ellipse class="cls-13" cx="231.97" cy="106.88" rx="25.44" ry="24.25" transform="translate(108.04 330.2) rotate(-85.71)"/>
      <ellipse class="cls-13" cx="264.4" cy="110.88" rx="25.44" ry="24.25" transform="translate(134.05 366.24) rotate(-85.71)"/>
      <ellipse class="cls-13" cx="296.83" cy="116.88" rx="25.44" ry="24.25" transform="translate(158.07 404.12) rotate(-85.71)"/>
      <ellipse class="cls-13" cx="329.26" cy="135.88" rx="25.44" ry="24.25" transform="translate(169.12 454.04) rotate(-85.71)"/>
      <ellipse class="cls-13" cx="334.26" cy="162.88" rx="25.44" ry="24.25" transform="translate(146.82 484) rotate(-85.71)"/>
      <ellipse class="cls-13" cx="297.89" cy="150.88" rx="25.44" ry="24.25" transform="translate(125.14 436.64) rotate(-85.71)"/>
      <ellipse class="cls-13" cx="261.53" cy="145.88" rx="25.44" ry="24.25" transform="translate(96.49 395.75) rotate(-85.71)"/>
      <ellipse class="cls-13" cx="225.16" cy="139.88" rx="25.44" ry="24.25" transform="translate(68.83 353.94) rotate(-85.71)"/>
      <ellipse class="cls-13" cx="188.8" cy="136.88" rx="25.44" ry="24.25" transform="translate(38.18 314.9) rotate(-85.71)"/>
      <ellipse class="cls-13" cx="37.41" cy="135.49" rx="25.15" ry="23.97" transform="translate(-100.51 162.66) rotate(-85.71)"/>
      <ellipse class="cls-13" cx="79.7" cy="151.31" rx="25.15" ry="23.97" transform="translate(-77.15 219.47) rotate(-85.71)"/>
      <ellipse class="cls-13" cx="116.07" cy="142.88" rx="25.44" ry="24.25" transform="translate(-35.09 247.93) rotate(-85.71)"/>
      <ellipse class="cls-13" cx="152.43" cy="136.88" rx="25.44" ry="24.25" transform="translate(4.53 278.64) rotate(-85.71)"/>
      <ellipse class="cls-13" cx="43.34" cy="163.18" rx="25.15" ry="23.97" transform="translate(-122.62 194.18) rotate(-85.71)"/>
    </g>
    <path class="cls-8" d="m205.96,285.06c24.68,6.19,58.17,2.75,74.21-1.02-8.37,4.38-45.67,11.54-71.57,4.59-5.11-1.29-9.25-4.02-11.9-7.46,2.61,1.7,5.74,3.06,9.26,3.89Z"/>
  </g>
  <path class="cls-11" d="m143.2,409.62c6.44-3.52,15.32-3.88,23.19-.31,4.89,2.22,8.58,5.59,10.79,9.41.21-6.47-3.45-12.86-9.93-16.09-8.83-4.4-19.55-1.27-24.05,6.99Z"/>
  <path class="cls-11" d="m236.18,409.62c-6.44-3.52-15.32-3.88-23.19-.31-4.89,2.22-8.58,5.59-10.79,9.41-.21-6.47,3.45-12.86,9.93-16.09,8.83-4.4,19.55-1.27,24.05,6.99Z"/>
  <path class="cls-11" d="m209.8,351.69c-7.12-3.31-17.78-4.57-27.94-2.83-6.31,1.08-11.39,3.14-14.75,5.71.94-4.78,6.53-9.06,14.94-10.71,11.47-2.25,23.84,1.26,27.75,7.83Z"/>
  <path class="cls-11" d="m143.1,330.47c-2.7-5.98-8.88-11.91-16.48-15.17-4.72-2.02-9.2-2.68-12.87-2.14,3.37-3.46,9.48-4.38,15.89-1.85,8.74,3.45,14.73,12,13.46,19.16Z"/>
  <path class="cls-11" d="m234.92,330.47c2.7-5.98,8.88-11.91,16.48-15.17,4.72-2.02,9.2-2.68,12.87-2.14-3.37-3.46-9.48-4.38-15.89-1.85-8.74,3.45-14.73,12-13.46,19.16Z"/>
  <path class="cls-11" d="m109.01,356.6c7.34.15,15.22,4.25,20.28,11.26,3.14,4.35,4.67,9.12,4.68,13.53,3.4-5.51,3.4-12.87-.61-18.89-5.47-8.21-16.33-10.82-24.34-5.9Z"/>
  <path class="cls-11" d="m264.44,356.6c-7.34.15-15.22,4.25-20.28,11.26-3.14,4.35-4.67,9.12-4.68,13.53-3.4-5.51-3.4-12.87.61-18.89,5.47-8.21,16.33-10.82,24.34-5.9Z"/>
  <path class="cls-10" d="m215.37,259.93c4.55.08,8.83.83,12.65,2.1,34.26,8.25,45.39,20.62,72.98,16.93,1.48-1.45-.12-2.21-5.85-1.73-26.44,2.21-34.06-10.89-63.52-21.22-3.08-1.41-6.62-2.39-10.48-2.79-13.28-1.37-25.69,4.51-29.17,13.41,5.83-4.25,14.21-6.86,23.39-6.71Z"/>
  <path class="cls-10" d="m156.12,257.93c-4.55.08-8.83.83-12.65,2.1-34.26,8.25-45.39,20.62-72.98,16.93-1.48-1.45.12-2.21,5.85-1.73,26.44,2.21,34.06-10.89,63.52-21.22,3.08-1.41,6.62-2.39,10.48-2.79,13.28-1.37,25.69,4.51,29.17,13.41-5.83-4.25-14.21-6.86-23.39-6.71Z"/>
  <path class="cls-11" d="m342.18,142.94c-6.95.22-15.3,3.85-21.63,9.95-3.93,3.78-6.43,7.89-7.42,11.68-1.98-4.69-.35-11.01,4.78-16.24,6.98-7.12,17.81-9.52,24.27-5.39Z"/>
  <path class="cls-11" d="m250.09,111.57c-5.74,3.92-14.63,5.92-23.33,4.73-5.4-.74-9.85-2.58-12.88-5.06,1.17,4.95,6.22,9.09,13.44,10.29,9.84,1.63,19.99-2.83,22.77-9.97Z"/>
  <path class="cls-11" d="m312.52,128.15c-6.24,3.06-15.32,3.77-23.76,1.36-5.24-1.5-9.38-3.96-12.03-6.84.45,5.07,4.86,9.89,11.83,12.1,9.51,3.02,20.19.05,23.96-6.62Z"/>
  <path class="cls-11" d="m185.09,108.57c-5.74,3.92-14.63,5.92-23.33,4.73-5.4-.74-9.85-2.58-12.88-5.06,1.17,4.95,6.22,9.09,13.44,10.29,9.84,1.63,19.99-2.83,22.77-9.97Z"/>
  <path class="cls-11" d="m120.31,118.68c-5.34,4.45-14,7.28-22.77,6.93-5.45-.22-10.05-1.63-13.3-3.81,1.63,4.82,7.05,8.46,14.35,8.97,9.95.69,19.63-4.71,21.72-12.09Z"/>
  <path class="cls-11" d="m95.27,142.58c-6.66-2-15.73-1.21-23.67,2.55-4.93,2.34-8.6,5.44-10.75,8.72-.39-5.07,3.17-10.55,9.69-13.88,8.89-4.53,19.91-3.36,24.72,2.61Z"/>
  <path class="cls-11" d="m156.07,132.82c-6.02-3.48-15.03-4.81-23.62-2.97-5.33,1.14-9.63,3.31-12.47,6.01.79-5.03,5.52-9.53,12.63-11.27,9.69-2.36,20.15,1.32,23.46,8.24Z"/>
  <path class="cls-11" d="m52.14,128.2c.66,6.77-2.32,14.35-8.32,19.53-3.73,3.21-8.01,4.97-12.13,5.31,5.51,2.73,12.39,2.19,17.58-1.95,7.07-5.65,8.34-15.86,2.87-22.88Z"/>
  <path class="cls-11" d="m209.46,129.55c-5.74-3.92-14.63-5.92-23.33-4.73-5.4.74-9.85,2.58-12.88,5.06,1.17-4.95,6.22-9.09,13.44-10.29,9.84-1.63,19.99,2.83,22.77,9.97Z"/>
  <path class="cls-11" d="m280.81,145.02c-4.99-4.84-13.41-8.32-22.18-8.63-5.45-.19-10.14.87-13.55,2.79,1.99-4.68,7.68-7.9,14.99-7.86,9.98.07,19.22,6.19,20.75,13.7Z"/>
  <path class="cls-12" d="m428.87,246.6c.8-1.33,1.37-2.86,1.61-4.51.95-6.43-3.26-12.41-9.38-13.35-3.23-.5-6.35.52-8.72,2.52-1.72-1.47-3.87-2.43-6.25-2.62-6.18-.48-11.56,4.38-12.03,10.86-.19,2.73.52,5.3,1.87,7.41-.89,1.39-1.51,3-1.77,4.76-.94,6.43,3.26,12.41,9.38,13.35,3.22.5,6.31-.5,8.68-2.48,1.66,1.86,3.9,3.17,6.5,3.57,6.13.94,11.86-3.5,12.81-9.93.53-3.6-.56-7.07-2.7-9.58Z"/>
  <path class="cls-13" d="m427.17,246.21c.74-1.23,1.26-2.63,1.49-4.16.87-5.93-3-11.45-8.66-12.32-2.98-.46-5.86.48-8.04,2.33-1.59-1.36-3.57-2.24-5.76-2.41-5.7-.45-10.67,4.04-11.09,10.02-.18,2.52.48,4.89,1.73,6.84-.82,1.29-1.4,2.77-1.64,4.39-.87,5.93,3,11.45,8.66,12.32,2.97.46,5.83-.46,8.01-2.29,1.53,1.71,3.6,2.92,5.99,3.29,5.65.87,10.94-3.23,11.81-9.16.49-3.33-.52-6.52-2.49-8.84Z"/>
  <path class="cls-11" d="m423.27,245.78c-3.23.09-7.11,1.77-10.04,4.6-1.82,1.76-2.97,3.67-3.42,5.44-.93-2.19-.19-5.15,2.19-7.58,3.23-3.31,8.26-4.41,11.28-2.47Z"/>
  <path class="cls-11" d="m414.26,237.18c-.85,3.12-3.4,6.49-6.85,8.66-2.14,1.35-4.27,2.02-6.1,2.04,1.91,1.43,4.96,1.4,7.88-.33,3.98-2.36,6.24-6.98,5.07-10.37Z"/>
</svg>